<?xml version="1.0" encoding="iso-8859-1"?>
<!-- Generator: Adobe Illustrator 16.0.0, SVG Export Plug-In . SVG Version: 6.00 Build 0)  -->
<!DOCTYPE svg PUBLIC "-//W3C//DTD SVG 1.1//EN" "http://www.w3.org/Graphics/SVG/1.1/DTD/svg11.dtd">
<svg version="1.1" id="Capa_1" xmlns="http://www.w3.org/2000/svg" xmlns:xlink="http://www.w3.org/1999/xlink" x="0px" y="0px"
	 width="406.447px" height="406.447px" viewBox="0 0 406.447 406.447" style="enable-background:new 0 0 406.447 406.447;"
	 xml:space="preserve">
<g>
	<g>
		<path d="M188.087,67.932c0.612-6.732-10.404-7.956-12.24-1.836c-12.852,49.572-9.18,105.264-7.344,156.06
			c1.836,56.304,6.732,111.996,7.956,168.3c0,6.732,9.792,6.732,9.792,0c1.224-52.632-2.448-104.651-4.284-157.284
			C181.355,177.48,185.639,123.012,188.087,67.932z"/>
		<path d="M229.092,61.812c-1.225-7.344-13.465-5.508-12.853,1.836c11.016,113.832-12.24,225.216-6.12,338.436
			c0.612,6.12,8.568,5.508,9.18,0c3.673-57.527,8.568-115.056,12.853-172.584C236.436,175.032,240.107,116.892,229.092,61.812z"/>
		<path d="M274.379,84.456c-21.42-29.376-47.124-55.692-70.992-82.62c-2.448-2.448-7.344-2.448-9.792,0
			c-15.3,17.136-31.212,33.66-45.288,51.408c-7.956,9.792-15.912,18.36-17.748,30.6c-0.612,3.06,4.284,3.672,5.508,0.612
			c3.06-9.18,17.748-21.42,24.48-28.152c12.24-13.464,24.48-26.928,37.944-39.78c20.809,25.092,44.064,48.96,63.036,75.276
			C267.035,100.368,280.499,92.412,274.379,84.456z"/>
	</g>
</g>
<g>
</g>
<g>
</g>
<g>
</g>
<g>
</g>
<g>
</g>
<g>
</g>
<g>
</g>
<g>
</g>
<g>
</g>
<g>
</g>
<g>
</g>
<g>
</g>
<g>
</g>
<g>
</g>
<g>
</g>
</svg>
