<svg height="631" viewBox="0 0 809 631" width="809" xmlns="http://www.w3.org/2000/svg"><path d="m123.30519 296.548819c60.228278 0 111.910651-30.509138 111.910651-84.20522 0-113.9007812-159.1165984-63.052218-159.1165984-150.104958 0-19.9326367 12.2084347-35.7973883 37.8461474-35.7973883 24.221534 0 33.910148 17.5264013 42.882429 35.7538587l1.118804 2.2808663c9.308932 19.0173626 18.465258 38.0347253 43.085601 38.0347253 20.754339 0 30.928034-11.7968668 30.928034-29.6955609.406948-37.0177538-49.240686-72.8151421-116.794025-72.8151421-67.1463901 0-110.28285914 36.2041768-110.28285914 87.8663167.40694782 119.1890313 159.93049414 68.7472573 159.93049414 148.0710153 0 21.153002-15.05707 33.763446-38.660043 33.763446-61.0421736 0-52.9032171-75.662662-96.8535819-76.069451-20.34739103 0-29.3002431 11.796867-29.3002431 28.881984 0 36.204177 48.8337386 74.035508 123.30519 74.035508zm208.764232 0c26.858557 0 43.136469-9.356136 51.682374-21.153002 3.255582 14.644386 15.057069 19.525848 39.473938 19.525848 22.382131 0 45.985104-2.84752 45.985104-13.424021 0-11.390078-17.091808-4.474673-20.754339-33.356657l-8.952852-72.815142c-6.511165-50.441775-44.357312-82.1712778-98.88832-82.1712778-41.508678 0-81.389565 14.2375978-81.389565 47.5942548 0 15.864752 11.394539 26.441253 28.486348 26.441253 19.023783 0 24.911634-15.038682 30.283483-29.317834l.618257-1.643325c4.630522-12.286174 9.238113-23.548501 22.001477-23.548501 21.161286 0 24.009921 20.746214 28.893295 68.747257v1.220366c-10.173696-6.101828-24.009922-10.169713-41.10173-10.169713-38.660043 0-73.250608 21.153002-73.250608 62.238641 0 41.899216 33.369721 61.831853 76.913138 61.831853zm22.382131-20.746214c-16.684861 0-26.451609-25.220887-26.451609-54.102871 0-16.678328 8.545904-27.661618 20.754339-27.661618 11.801487 0 22.38213 9.356136 25.230765 33.763446l1.627791 18.712271c0 13.830809-7.732008 29.288772-21.161286 29.288772zm-227.483833 354.788253c94.004947 0 136.327521-33.356657 136.327521-81.3577 0-39.051697-28.893296-67.526892-75.692295-74.035508 28.486347-7.322193 47.205947-29.695561 47.205947-60.204698 0-40.678851-33.369721-73.221931-106.620329-73.221931h-112.7245468c-5.69726948 0-9.7667477 2.84752-9.7667477 7.728982v1.627154c0 11.390078 16.2779129 16.27154 16.2779129 34.983811v200.139944c0 18.712271-16.2779129 23.593733-16.2779129 34.983811v1.627154c0 4.881462 4.06947822 7.728981 9.7667477 7.728981zm10.580644-166.783286h-20.347391c-13.022331 0-21.9751828-7.728981-21.9751828-21.153002v-51.255351c0-16.271541 8.5459038-21.153003 19.1265478-21.153003h11.394539c27.672452 0 45.985104 20.339426 45.985104 55.323237 0 23.186945-13.429278 38.238119-34.183617 38.238119zm7.732008 138.308091h-19.533495c-18.7196 0-30.5210868-15.051174-30.5210868-34.577023v-75.255873h17.0918088c48.833738 0 73.657555 37.424543 73.657555 67.526892 0 25.220887-14.650121 42.306004-40.694782 42.306004zm247.196309 28.475195c94.004946 0 136.32752-33.356657 136.32752-81.3577 0-39.051697-28.893296-67.526892-75.692295-74.035508 28.486347-7.322193 47.205947-29.695561 47.205947-60.204698 0-40.678851-33.369721-73.221931-106.620329-73.221931h-112.724547c-5.697269 0-9.766747 2.84752-9.766747 7.728982v1.627154c0 11.390078 16.277913 16.27154 16.277913 34.983811v200.139944c0 18.712271-16.277913 23.593733-16.277913 34.983811v1.627154c0 4.881462 4.069478 7.728981 9.766747 7.728981zm10.580643-166.783286h-20.347391c-13.02233 0-21.975183-7.728981-21.975183-21.153002v-51.255351c0-16.271541 8.545905-21.153003 19.126548-21.153003h11.394539c27.672452 0 45.985104 20.339426 45.985104 55.323237 0 23.186945-13.429278 38.238119-34.183617 38.238119zm7.732008 138.308091h-19.533495c-18.7196 0-30.521087-15.051174-30.521087-34.577023v-75.255873h17.091809c48.833739 0 73.657556 37.424543 73.657556 67.526892 0 25.220887-14.650122 42.306004-40.694783 42.306004zm225.221126 28.475195c5.69727 0 9.766748-2.847519 9.766748-7.728981v-1.627154c0-11.390078-18.312652-16.27154-18.312652-34.983811v-63.459007l37.4392-.813577 34.590565 64.272584c6.433366 12.604461.662258 18.702418-4.450766 24.362621l-.70788.787565c-2.687245 3.012792-5.01505 5.981098-5.01505 9.833625v1.627154c0 4.881462 4.069478 7.728981 9.766748 7.728981h99.295268c6.104217 0 9.766748-2.847519 9.766748-7.728981v-1.627154c0-11.390078-17.091809-13.017232-31.334982-34.983811l-48.426791-76.069451c34.183617-16.27154 50.868478-46.780677 50.868478-76.476238-.406948-61.018276-48.833739-91.934202-123.30519-91.934202h-109.468964c-5.69727 0-9.766748 2.84752-9.766748 7.728982v1.627154c0 11.390078 16.277913 16.27154 16.277913 34.983811v200.139944c0 18.712271-16.277913 23.593733-16.277913 34.983811v1.627154c0 4.881462 4.069478 7.728981 9.766748 7.728981zm29.300243-136.680937h-12.208434c-16.684861 0-25.637713-7.728981-25.637713-31.322714v-71.187988c0-12.203656 6.104217-21.153003 15.464017-21.153003h7.325061c24.823817 0 52.089321 27.25483 52.089321 71.187988 0 37.017754-16.68486 52.475717-37.032252 52.475717z" fill="#8156a2"/></svg>