<svg height="95" viewBox="0 0 95 95" width="95" xmlns="http://www.w3.org/2000/svg"><g fill="none" fill-rule="evenodd"><path d="m94.9421284 47.1654412c.0012589 29.1722444-22.2027939 47.0593021-48.0471442 46.8392505-25.5824857-.2181271-45.95285582-22.2274648-45.95285582-47.3374141 0-25.7701043 20.95232672-46.66057872 46.79793612-46.66057872 25.8456093 0 47.2008049 21.38863802 47.2020639 47.15874232" fill="#8156a2"/><path d="m49.7995608 55.6583108c.1898649 1.414527.7388514 3.335473 2.1956081 5.2047297-1.2755544 2.7893813-5.9484679 14.2176008-5.5659773 31.1328164l.4657926.0088348c-11.9876404-.1022117-22.830833-4.9892178-30.969946-12.7379439-.3224928-3.5699998-.1940699-7.1204938.6025632-10.6557343.2035955-.6452944.3069842-.8020804.7045433-.8192927l.0971458-.0016532.1543919-.0054054c2.335473 11.2746621 15.7780406 14.8672297 20.9915541 2.7689189 5.5016892-12.9253379-3.2010135-12.7868243 11.3243243-14.8952703zm29.0843581 5.1411149c.1010135.2337838.1847973.4719594.2560811.7155405l-.0003378-.0006757-.1890854.3712541c-5.5522946 10.9735695-.3322912 7.2827146 1.7269232 16.0317865.055423.4836697.1418368.9452212.2569419 1.3862714-8.453732 7.9524159-19.9902294 12.4444443-32.4752735 12.6922632-.2104137-9.3943128 1.2133357-17.026595 2.5004262-21.8981292.9412162-3.5625 1.9364865-6.172973 2.5516892-7.6320946 1.6314189 1.4246622 3.7506757 2.1347973 5.8361486 1.9493243 1.2611487-.1128378 2.406419-.5445946 3.3395271-1.2452703.8077702 1.4060811 2.4385135 3.4185811 5.2847973 3.820946.6567567.0929054 1.2675675.1412162 1.8422297.1412162 2.9881757 0 4.9820946-1.3081081 7.116554-4.4726351.5375-.7969595 1.356419-1.4493244 1.9533784-1.8597973zm-56.5905852-36.5450811c.4575379.0025375.8432194.0115192 1.1164298.020723 2.491256.1434022 4.984906.3140372 7.3280101 1.2523828l.4375305.1851172.4562219.3123207c.9147033.6271787 1.8548302 1.2429399 3.0339808 1.3677468 2.4120173.9861125 2.9257019 3.4414459 4.1946179 5.4364109l.1442334.2196702.3317568 4.7003379c.1831081 1.4939189-.4810811 4.7418918-.3844595 6.241554.147973 2.2915541.3962838 4.5881757.252027 6.8827703.0054054 10.0050675-4.9689189 24.9263513-17.5912162 18.2577702-5.4304054-4.0557432-5.5736486-6.5300675-8.8310811-11.2469594-4.43445942-6.289527-7.17229726-14.3067568-6.05439186-22.1128378 1.40051802-1.2030631 1.41062613-2.8870376 1.32481842-4.5772135l-.02480761-.4607541c-.02524054-.4601946-.04886216-.9176406-.0446054-1.3627081.17473606-1.7894056 1.44229629-1.6570041 2.85684195-1.3635819l.3163785.0671398.3806164.081066c1.7361814.3614903 3.4626257.5405506 3.5123794-2.5660428.5600347-1.1123905 4.3435734-1.3232292 6.7647329-1.3350711zm48.1649095 6.3389662c3.5949325 1.3587838 7.7824325-.0432432 10.943919 2.6621622 2.9756756.9719594 6.2219594-.7989865 9.1972973-.0601352 1.4320349 1.5486884 2.4751473 3.393248 3.4921361 5.2560093l.482444.8808936c.1934482 1.5248304.3122564 3.0708043.3525979 4.6340625-1.6523731.6668316-4.19621 1.0721281-5.2058943 1.1739671.8942568-5.1841217-.2320946-.9929054-1.8952702-6.733446-.3128379-1.3300675-3.0760135 2.8692568-3.1006757 5.0736487-.0439189 3.8986486-.8361487 7.6300675-2.6804054 11.1070946-1.0439189 1.5030405-2.3273649 2.7966216-3.6094595 4.093581-.6189189.3645271-2.2030405 1.3888514-3.1851351 2.8445946-2.097973 3.1111487-3.7310811 3.9195946-6.9942568 3.4581082-3.0180047-.4269277-4.1799331-3.5198965-4.287681-3.8256431l-.0069136-.0199651-.2195945-.0381756c.0621621-.1280406.2263513-.1881757.5158783-.2337838 1.7814189-.3030406 4.6364865-2.0070946 3.4243244-4.1212838-1.2077703-2.0679054-4.7402027-3.3618243-6.9702703-2.5216216-3.0764139 1.2838839-.4699739 5.5214719 1.6897559 6.6074755l.1217306.058065-.3236487-.0560811c-.697973.8956081-1.7746621 1.4506757-3.0320946 1.5631757-1.5570946.1405406-3.1581081-.4101351-4.3827702-1.5074324-2.9304054-2.6266892-3.0861487-5.7486487-3.0476352-6.7831081.0121622-.095946.0199325-.1915541.0361487-.2885135 1.5061407-.697357 3.3016009-1.281893 5.145492-1.9069026l.6160937-.2100459c4.9378122-1.6957234 10.0296901-3.8003806 10.707671-9.2208894.4733108-3.7452702 1.4945946-7.4439189 1.7219595-11.2226351.0743243-.2885135.0760135-.6320946.4942567-.6631757zm4.8502703 15.5446622c-.9260135.6253378-1.2804054 1.5672297-1.3189189 2.6496621-.0182432.8206081.1793919 1.5577703.9293919 1.9929054.6155405.3574325 1.2054054.1533784 1.7361486-.2537162 1.0375-.7962838 1.4712838-2.6797297.8807433-3.8104729-.4706081-.9003379-1.3699325-1.1570946-2.2273649-.5783784zm-57.566554-2.1652781c-.8449325-.0026949-1.5266892.6989943-1.521984 1.5679132.0047542.8523649.6361731 1.4922297 1.4915786 1.510473.8689189.0189189 1.5638513-.6506757 1.5699324-1.5121622.0057432-.8452703-.6996622-1.5631757-1.539527-1.566224z" fill="#fffef8"/><path d="m49.1860811 79.0745946c.5466216 1.1908784 1.175 2.3375 1.8466216 3.4641892 1.6977322 2.8479776 2.3699566 5.845713 1.8557579 9.1875304-1.4607948.1498428-2.9387764.2399931-4.4302944.2695714-.1089302-4.8170538.2143401-9.1662776.7279149-12.921291zm29.9538513-17.5594257 2.5763514 5.3722973c.9628378 2.685473 2.2902027 5.2337838 3.0175676 8.0070946l.0683147.2664654c-1.2182118 1.4905468-2.5292249 2.8907688-3.9235364 4.1971744-.1499096-.5949683-.2539046-1.2023165-.3812648-1.7788425-.4422298-2.0030405-1.4682433-3.4949324-2.6533784-5.1243243-1.4564189-2.0030406-1.7081081-3.2949324-1.3787162-4.6043919.4408783-1.7506757 1.1685811-3.4364865 1.8469594-5.0983108.1797298-.4398649.8064189-1.2226352.8277027-1.2371622zm-17.8816554-35.196723c.9597973 2.5844595 2.4594595-.0689189 4.6976352 1.0179055 2.2381756 1.0868243 3.2070946 2.1263513 4.5030405 3.2570945-.0341216-.0297297-.2547297.9908784-.4097973 2.2212838-.4378378 3.4722973-1.1260135 6.8503379-1.5753378 10.2962838-.6206081 6.408446-11.370946 9.3871622-16.7010135 10.7060811-1.7908784-10.460473-2.2405406-16.3567568 6.1097973-24.1847973.4537162-.4084459.4381756-2.1192568.1543918-2.2793919-3.0490106-1.6171332-4.8967595-.1942533-6.8258251 1.5287326l-.3224838.2894733-.3253092.2922119c-.8724312.7803778-1.7890749 1.5599007-2.8625305 2.0980282 2.4185811-8.0807433-1.2841216-7.5570946 10.6155405-8.5648649.0469595.0253378-.0070946-.0287162.0263514.0091216 1.1655405-.35 2.289527 1.6273649 2.9155405 3.3128378zm-24.8655743 10.3839865c.6175676-.0070946 1.1233108.1810811 1.4814189.7020271.3581081.479054.5172298 1.0287162.5706081 1.6162162.1162162.6560811.2317568 1.3125.3476352 1.9685811.1841216.6084459.1942567 1.2476351.1976351 1.864527.0067568 1.3195946.2847973 2.6054054.3797297 3.9121621.0665541.9141892-.0530405 1.7841217-.3506756 2.6391892-.5212838 1.0094595-1.1442568 1.9185811-2.1722973 2.5033784-.9138514.5202703-1.8878379.6952703-2.8679054.4172297-4.1277028-1.1719594-7.0550676-3.7013513-8.4699325-7.8081081-.627027-1.8199324-.3935811-3.6081081.5702703-5.2841216.7533784-1.310473 1.8699324-1.9837838 3.4043919-2.0094594 1.016554-.0172298 2.0206081.1091216 3.0310811.1479729.8739864.033446 1.7101351-.0979729 2.5243243-.4087838.4347973-.166554.8827703-.2557432 1.3537162-.2608108zm4.75375-14.1426689c1.7949324 5.0070946 2.3402027 7.5148649-2.0766892 11.1057433-.6152027-.1108109-1.2310811-.1682433-1.8408784-.2243244-2.6354729-2.1986486.7371622-7.616554-4.9307432-4.6425675-3.8621622.8425675-2.6405405-3.5658784-1.3040541-5.558446.4173629-.7500409.777207-1.5596059 1.132709-2.3792774l.2666432-.6158765c1.0253817-2.3622041 2.1247572-4.7058289 4.5617965-5.8565353 2.3827703-.8182432 3.0070946 6.4898649 4.1912162 8.1712838z" fill="#3d56cc"/><path d="m47.7400645.00669888c25.8456093 0 47.2008049 21.38863802 47.2020639 47.15874232.0012589 29.1722444-22.2027939 47.0593021-48.0471442 46.8392505-25.5824857-.2181271-45.95285582-22.2274648-45.95285582-47.3374141 0-25.7701043 20.95232672-46.66057872 46.79793612-46.66057872zm.0171969 4c-23.645983 0-42.81513302 19.11256172-42.81513302 42.68946562 0 22.9729323 18.63672162 43.109135 42.04197442 43.308698 23.6448312.2013239 43.9591774-16.1634311 43.9580256-42.8529312-.0011518-23.576904-19.538884-43.14523242-43.184867-43.14523242z" fill="#8156a2"/><path d="m31.9991216 63.8447973c-1.0043919 2.7398649-4.4155405 4.0631757-6.9912162 2.6908784-2.0739865-1.0067568-4.1381757-5.6304054-.9945946-6.4206081.610807-.1916028 9.8679054-1.6969595 7.9858108 3.7297297zm29.0187162-10.0615203c4.1239865-1.2452702 11.010473 4.1682433 4.8875 6.9682433-1.5820946.5672297-3.1368243.9179054-4.5648648-.183446-2.0449325-1.5239865-3.8010135-5.8908784-.3226352-6.7847973zm-29.0496959-10.935c.8672297.0165541 1.5523649.7341216 1.5587838 1.6314189.0057432.7540541-.7662162 1.5320946-1.5206081 1.5331091-.7918919.0010126-1.6006757-.8037172-1.6246622-1.6172307-.022973-.7712838.7888514-1.5625 1.5864865-1.5472973zm30.2789189-2.0360135c.5912162 1.1307433.1570946 3.0141892-.8804054 3.8108108-.5310811.4070946-1.1202703.6108108-1.7361486.2533784-.75-.4351351-.9476352-1.1719595-.9290541-1.9929054.0385135-1.0820946.3925676-2.0243243 1.3185811-2.6493243.8570946-.5787162 1.7570946-.3222973 2.227027.5780405z" fill="#000"/><path d="m6.66320946 36.3143581c-1.49831081.3287162-2.48074324-1.6858108-3.52162162-2.5027027-4.06486487-2.0652027-2.97297297-7.141554-2.33817568-10.8587838 1.65439189-5.7652027.52263514-16.12364863 8.0445946-6.8797297 2.51689184 3.0932432 5.03851354 5.7949324 6.68344594 9.1972973.8516892 3.4601351-3.4915541 3.5844594-5.59189189 2.7702703-3.57331081-.3611487-.5375 4.8510135-2.15844595 6.6682432" fill="#3d56cc"/><path d="m86.0004366 33.3128947.6090019-.0896677c1.3515522-.1959268 2.6963958-.3491289 3.990021-.0278892 1.1933624 1.2905737 2.1166397 2.7866134 2.9797851 4.327431l.512351.9285783.6099609 1.1176197c.1876688.722888.3184197 4.5323159-.1914672 4.5540617l-.3724208.12374-.3872325.116309-.3974435.1087969-.4030536.1012034-.4040629.0935289-.4004714.0857732-.3922791.0779363-.5629937.1020326-.5186814.0839429-.3135016.0457767-.4103214.0531844-.2268842.0250175.1305879-.7805222.0946958-.626768.0603301-.4928772c.0097014-.0961228.0169702-.1837992.0218819-.26401l.0077391-.2192165c.001364-.3313026-.0543159-.5004882-.1576168-.6301694l-.0676196-.0740491-.0785963-.0704535-.2415458-.1990259-.1134529-.1042165-.1223943-.1271051c-.3590237-.3981155-.8202695-1.1427197-1.3374424-2.8362089l-.0918369-.3088237c-.1122356-.4771828-.5398613-.2426613-1.0432675.3561076l-.17028.2126037-.1739213.2367253c-.0291808.0413054-.0584311.0834968-.0877099.1265145l-.1756855.2675456-.1743965.2845179z" fill="#fff"/></g></svg>