<?xml version="1.0" encoding="utf-8"?>
<!-- Generator: Adobe Illustrator 25.0.1, SVG Export Plug-In . SVG Version: 6.00 Build 0)  -->
<svg version="1.1" id="_x2014_ÎÓÈ_x5F_2" xmlns="http://www.w3.org/2000/svg" xmlns:xlink="http://www.w3.org/1999/xlink"
	 x="0px" y="0px" viewBox="0 0 1684.3 1606.7" style="enable-background:new 0 0 1684.3 1606.7;" xml:space="preserve">
<style type="text/css">
	.st0{clip-path:url(#SVGID_2_);}
	.st1{enable-background:new    ;}
	.st2{fill:url(#SVGID_3_);}
	.st3{fill:url(#SVGID_4_);}
	.st4{fill:url(#SVGID_5_);}
	.st5{fill:url(#SVGID_6_);}
	.st6{fill:url(#SVGID_7_);}
	.st7{fill:url(#SVGID_8_);}
	.st8{fill:url(#SVGID_9_);}
	.st9{fill:url(#SVGID_10_);}
	.st10{fill:url(#SVGID_11_);}
	.st11{fill:url(#SVGID_12_);}
	.st12{fill:url(#SVGID_13_);}
	.st13{fill:url(#SVGID_14_);}
	.st14{fill:url(#SVGID_15_);}
	.st15{fill:url(#SVGID_16_);}
	.st16{fill:url(#SVGID_17_);}
	.st17{fill:url(#SVGID_18_);}
	.st18{fill:url(#SVGID_19_);}
	.st19{fill:url(#SVGID_20_);}
	.st20{fill:url(#SVGID_21_);}
	.st21{fill:url(#SVGID_22_);}
	.st22{fill:url(#SVGID_23_);}
	.st23{fill:url(#SVGID_24_);}
	.st24{fill:url(#SVGID_25_);}
	.st25{fill:url(#SVGID_26_);}
	.st26{fill:url(#SVGID_27_);}
	.st27{opacity:0.59;}
	.st28{fill:url(#SVGID_28_);}
	.st29{fill:url(#SVGID_29_);}
	.st30{fill:url(#SVGID_30_);}
	.st31{fill:url(#SVGID_31_);}
	.st32{fill:url(#SVGID_32_);}
	.st33{fill:url(#SVGID_33_);}
	.st34{fill:url(#SVGID_34_);}
	.st35{fill:url(#SVGID_35_);}
	.st36{fill:url(#SVGID_36_);}
	.st37{fill:url(#SVGID_37_);}
	.st38{fill:url(#SVGID_38_);}
	.st39{fill:url(#SVGID_39_);}
	.st40{fill:url(#SVGID_40_);}
	.st41{fill:url(#SVGID_41_);}
	.st42{fill:url(#SVGID_42_);}
	.st43{fill:url(#SVGID_43_);}
	.st44{fill:url(#SVGID_44_);}
	.st45{fill:url(#SVGID_45_);}
	.st46{fill:url(#SVGID_46_);}
	.st47{fill:url(#SVGID_47_);}
	.st48{fill:url(#SVGID_48_);}
	.st49{fill:url(#SVGID_49_);}
	.st50{fill:url(#SVGID_50_);}
	.st51{fill:url(#SVGID_51_);}
	.st52{fill:url(#SVGID_52_);}
	.st53{fill:url(#SVGID_53_);}
	.st54{fill:url(#SVGID_54_);}
	.st55{fill:url(#SVGID_55_);}
	.st56{fill:url(#SVGID_56_);}
	.st57{fill:url(#SVGID_57_);}
	.st58{fill:url(#SVGID_58_);}
	.st59{fill:url(#SVGID_59_);}
	.st60{fill:url(#SVGID_60_);}
	.st61{fill:url(#SVGID_61_);}
	.st62{fill:url(#SVGID_62_);}
	.st63{fill:url(#SVGID_63_);}
	.st64{fill:url(#SVGID_64_);}
	.st65{fill:url(#SVGID_65_);}
	.st66{fill:url(#SVGID_66_);}
	.st67{fill:url(#SVGID_67_);}
	.st68{fill:url(#SVGID_68_);}
	.st69{fill:url(#SVGID_69_);}
	.st70{fill:url(#SVGID_70_);}
	.st71{fill:url(#SVGID_71_);}
	.st72{fill:url(#SVGID_72_);}
	.st73{fill:url(#SVGID_73_);}
	.st74{fill:url(#SVGID_74_);}
	.st75{fill:url(#SVGID_75_);}
	.st76{fill:url(#SVGID_76_);}
	.st77{fill:url(#SVGID_77_);}
	.st78{fill:url(#SVGID_78_);}
	.st79{fill:url(#SVGID_79_);}
	.st80{fill:url(#SVGID_80_);}
	.st81{fill:url(#SVGID_81_);}
	.st82{fill:url(#SVGID_82_);}
	.st83{fill:url(#SVGID_83_);}
	.st84{fill:url(#SVGID_84_);}
	.st85{fill:url(#SVGID_85_);}
	.st86{fill:url(#SVGID_86_);}
	.st87{fill:url(#SVGID_87_);}
	.st88{fill:url(#SVGID_88_);}
	.st89{fill:url(#SVGID_89_);}
	.st90{fill:url(#SVGID_90_);}
	.st91{fill:url(#SVGID_91_);}
	.st92{fill:url(#SVGID_92_);}
	.st93{fill:url(#SVGID_96_);}
	.st94{fill:none;}
	.st95{fill:url(#SVGID_97_);}
	.st96{fill:url(#SVGID_98_);}
	.st97{fill:url(#SVGID_99_);}
	.st98{fill:url(#SVGID_100_);}
	.st99{fill:url(#SVGID_101_);}
	.st100{fill:url(#SVGID_102_);}
	.st101{clip-path:url(#SVGID_105_);fill:url(#SVGID_106_);}
	.st102{fill:url(#SVGID_107_);}
	.st103{fill:url(#SVGID_111_);}
	.st104{fill:url(#SVGID_112_);}
</style>
<g>
	
		<linearGradient id="SVGID_2_" gradientUnits="userSpaceOnUse" x1="-162911.9688" y1="705.8527" x2="130062.8203" y2="705.8527" gradientTransform="matrix(-0.9794 -0.2021 0.2021 -0.9794 5696.041 2709.761)">
		<stop  offset="0" style="stop-color:#EEBEB9"/>
		<stop  offset="0.9895" style="stop-color:#091093"/>
	</linearGradient>
	<path style="fill:url(#SVGID_2_);" d="M720.5,815.9c0.4-0.2,0.9-0.3,1.3-0.5c0.9-0.4,1.8-0.7,2.7-1c0.5-0.2,1-0.4,1.5-0.6
		c0.9-0.3,1.7-0.6,2.6-0.9c0.5-0.2,1.1-0.4,1.6-0.5c0.9-0.3,1.7-0.6,2.6-0.8c0.5-0.2,1-0.3,1.6-0.5c0.9-0.3,1.9-0.6,2.9-0.9
		c0.4-0.1,0.9-0.3,1.3-0.4c1.4-0.4,2.8-0.8,4.2-1.1c0.1,0,0.2,0,0.3-0.1c1.3-0.3,2.6-0.7,4-1c0.5-0.1,0.9-0.2,1.4-0.3
		c1-0.2,1.9-0.4,2.9-0.6c0.5-0.1,1-0.2,1.5-0.3c1.2-0.2,2.4-0.5,3.6-0.7c0.4-0.1,0.9-0.2,1.3-0.2c1.6-0.3,3.2-0.5,4.8-0.8
		c0.2,0,0.4,0,0.6-0.1c1.4-0.2,2.9-0.4,4.3-0.6c0.5-0.1,1-0.1,1.5-0.2c1.2-0.1,2.5-0.3,3.7-0.4c0.3,0,0.5-0.1,0.8-0.1
		c0.2,0,0.4,0,0.6-0.1c0.8-0.1,1.6-0.1,2.3-0.2c0.6,0,1.2-0.1,1.8-0.1c0.8-0.1,1.6-0.1,2.4-0.1c0.6,0,1.2-0.1,1.7-0.1
		c0.9,0,1.8-0.1,2.6-0.1c0.5,0,1,0,1.6,0c1,0,2.1,0,3.1,0c0.4,0,0.7,0,1.1,0c0.2,0,0.5,0,0.7,0c1.1,0,2.2,0,3.2,0c0.5,0,0.9,0,1.4,0
		c0.9,0,1.7,0,2.6,0.1c0.5,0,1.1,0.1,1.6,0.1c0.8,0,1.6,0.1,2.4,0.1c0.6,0,1.1,0.1,1.7,0.1c0.8,0.1,1.6,0.1,2.4,0.2
		c0.5,0,1,0.1,1.4,0.1c0.9,0.1,1.7,0.2,2.6,0.2c0.4,0,0.9,0.1,1.3,0.1c1,0.1,2,0.2,3.1,0.4c0.3,0,0.6,0.1,0.8,0.1
		c1.3,0.2,2.6,0.3,3.9,0.5c0.3,0,0.6,0.1,0.9,0.1c1,0.2,2,0.3,3,0.5c0.4,0.1,0.8,0.1,1.3,0.2c0.9,0.2,1.8,0.3,2.8,0.5
		c0.4,0.1,0.8,0.1,1.2,0.2c1.3,0.2,2.6,0.5,3.8,0.8c0,0,0,0,0.1,0c1.3,0.3,2.5,0.6,3.8,0.8c0.4,0.1,0.8,0.2,1.1,0.3
		c1,0.2,1.9,0.5,2.9,0.7c0.4,0.1,0.7,0.2,1.1,0.3c1.3,0.3,2.6,0.7,3.9,1c1.7,0.5,3.3,1,5,1.5c0.2,0.1,0.4,0.1,0.6,0.2
		c1.6,0.5,3.1,1,4.7,1.5c0.3,0.1,0.5,0.2,0.8,0.3c1.5,0.5,3,1.1,4.6,1.6c0.3,0.1,0.5,0.2,0.8,0.3c1.5,0.6,3.1,1.2,4.6,1.8
		c0.1,0.1,0.3,0.1,0.4,0.2c1.1,0.5,2.3,0.9,3.4,1.4c1.1,0.5,2.2,0.9,3.3,1.4c0.7,0.3,1.5,0.6,2.2,1c1.1,0.5,2.2,1,3.4,1.5
		c0.7,0.3,1.4,0.6,2,1c1.4,0.7,2.7,1.3,4.1,2c0.4,0.2,0.9,0.4,1.3,0.7c1.8,0.9,3.5,1.9,5.3,2.8c1.4,0.8,2.8,1.5,4.2,2.3
		c0.3,0.2,0.6,0.3,0.9,0.5c1.4,0.8,2.8,1.6,4.1,2.5c0.2,0.1,0.4,0.2,0.6,0.4c1.3,0.8,2.5,1.6,3.8,2.4c0.2,0.1,0.5,0.3,0.7,0.4
		c1.3,0.9,2.7,1.8,4,2.7c0.3,0.2,0.6,0.4,0.9,0.6c1.3,0.9,2.6,1.8,3.8,2.7c0.1,0.1,0.2,0.1,0.2,0.2c1.3,0.9,2.6,1.9,3.9,2.9
		c0.3,0.3,0.7,0.5,1,0.8c1.1,0.9,2.2,1.7,3.4,2.6c0.2,0.2,0.4,0.3,0.6,0.5c1.3,1,2.5,2,3.7,3c0.4,0.3,0.8,0.6,1.2,1
		c0.9,0.8,1.8,1.5,2.8,2.3c0.4,0.3,0.8,0.7,1.2,1c1,0.9,2.1,1.8,3.1,2.8c0.2,0.2,0.4,0.4,0.6,0.6c1.2,1.1,2.4,2.2,3.6,3.3
		c0.5,0.5,1,1,1.5,1.5c0.8,0.7,1.5,1.5,2.3,2.2c0.5,0.5,1.1,1.1,1.6,1.6c0.7,0.7,1.4,1.5,2.2,2.2c0.5,0.5,1.1,1.1,1.6,1.7
		c0.7,0.7,1.4,1.5,2.1,2.2c0.5,0.6,1,1.1,1.6,1.7c0.6,0.6,1.2,1.3,1.8,1.9c1,1.1,1.9,2.1,2.8,3.2c0.4,0.5,0.9,1,1.3,1.5
		c1.2,1.4,2.4,2.9,3.6,4.3c0.1,0.2,0.3,0.3,0.4,0.5c1.3,1.6,2.6,3.3,3.9,4.9c0.4,0.5,0.8,1,1.1,1.5c0.9,1.2,1.8,2.4,2.6,3.6
		c0.5,0.7,1,1.4,1.5,2.1c0.5,0.7,1,1.4,1.5,2.2c0.5,0.8,1.1,1.6,1.6,2.3c0.5,0.7,1,1.5,1.5,2.2c0.5,0.8,1,1.6,1.6,2.4
		c0.5,0.7,1,1.5,1.4,2.2c0.5,0.8,1,1.6,1.5,2.4c0.5,0.8,0.9,1.5,1.4,2.3c0.5,0.8,1,1.6,1.5,2.4c0.5,0.8,0.9,1.5,1.3,2.3
		c0.5,0.8,0.9,1.6,1.4,2.5c0.4,0.8,0.9,1.5,1.3,2.3c0.5,0.8,0.9,1.7,1.4,2.5c0.4,0.8,0.8,1.6,1.2,2.4c0.4,0.8,0.9,1.7,1.3,2.5
		c0.4,0.8,0.8,1.6,1.2,2.4c0.4,0.9,0.8,1.7,1.2,2.6c0.4,0.8,0.8,1.6,1.1,2.4c0.4,0.9,0.8,1.7,1.2,2.6c0.4,0.8,0.7,1.6,1.1,2.4
		c0.4,0.9,0.8,1.8,1.1,2.6c0.3,0.8,0.7,1.6,1,2.4c0.4,0.9,0.7,1.8,1.1,2.7c0.3,0.8,0.7,1.6,1,2.5c0.4,0.9,0.7,1.8,1,2.7
		c0.3,0.8,0.6,1.6,0.9,2.5c0.3,0.9,0.7,1.8,1,2.7c0.3,0.8,0.6,1.6,0.9,2.5c0.3,0.9,0.6,1.9,0.9,2.8c0.3,0.8,0.6,1.7,0.8,2.5
		c0.3,0.9,0.6,1.9,0.9,2.8c0.3,0.8,0.5,1.7,0.8,2.5c0.2,0.6,0.3,1.1,0.5,1.7c0.4,1.5,0.9,3,1.3,4.5c0.2,0.7,0.4,1.4,0.6,2.2
		c0.4,1.4,0.7,2.7,1,4.1c0.2,0.7,0.4,1.5,0.5,2.2c0.3,1.4,0.7,2.9,1,4.3c0.1,0.6,0.3,1.3,0.4,1.9c0.4,2.1,0.8,4.1,1.2,6.2
		c0.3,1.7,0.6,3.5,0.9,5.3c0.1,0.5,0.2,1.1,0.2,1.6c0.2,1.2,0.4,2.5,0.5,3.7c0.1,0.7,0.2,1.3,0.3,2c0.1,1.1,0.3,2.2,0.4,3.3
		c0.1,0.7,0.2,1.4,0.2,2.2c0.1,1.1,0.2,2.3,0.3,3.4c0,0.5,0.1,1.1,0.1,1.6c0.1,1.4,0.2,2.8,0.3,4.2c0,0.3,0,0.6,0.1,1
		c0.1,1.7,0.2,3.4,0.3,5.1c0,0.4,0,0.9,0.1,1.3c0.1,1.3,0.1,2.7,0.1,4c0,0.4,0,0.8,0,1.2c0,1.7,0,3.3,0,5c0,0.2,0,0.4,0,0.7
		c0,1.5,0,3-0.1,4.5c0,0.4,0,0.8,0,1.3c0,1.6-0.1,3.3-0.2,5c0,0.2,0,0.5,0,0.7c-0.1,1.5-0.2,3.1-0.3,4.6c0,0.3,0,0.6-0.1,0.9
		c-0.1,1.7-0.3,3.3-0.4,5c0,0.3-0.1,0.6-0.1,0.9c-0.2,1.7-0.4,3.4-0.6,5.1c0,0.2,0,0.3-0.1,0.5c-0.2,1.6-0.4,3.3-0.7,4.9
		c0,0.2-0.1,0.5-0.1,0.7c-0.3,1.8-0.6,3.7-0.9,5.5c-0.2,1.3-0.4,2.5-0.7,3.7c-0.1,0.4-0.2,0.8-0.2,1.2c-0.2,0.8-0.3,1.7-0.5,2.5
		c-0.1,0.6-0.3,1.2-0.4,1.8c-0.1,0.5-0.2,0.9-0.3,1.4c-0.1,0.6-0.3,1.3-0.4,1.9c-0.1,0.4-0.2,0.9-0.3,1.3c-0.2,0.7-0.3,1.4-0.5,2.1
		c-0.1,0.4-0.2,0.8-0.3,1.2c-0.2,0.8-0.4,1.7-0.6,2.5c-0.1,0.2-0.1,0.5-0.2,0.7c0,0.1,0,0.1,0,0.2c-0.5,1.9-1,3.8-1.6,5.7
		c0,0.1-0.1,0.3-0.1,0.4c-0.5,1.8-1.1,3.6-1.7,5.4c-0.1,0.2-0.2,0.5-0.2,0.7c-0.6,1.8-1.2,3.5-1.8,5.3c-0.1,0.3-0.2,0.5-0.3,0.8
		c-0.6,1.7-1.3,3.4-1.9,5.1c-0.2,0.4-0.3,0.8-0.5,1.2c-0.2,0.5-0.4,1-0.6,1.5c-0.2,0.5-0.4,1.1-0.6,1.6c-0.2,0.5-0.4,1-0.6,1.4
		c-0.2,0.5-0.4,1-0.7,1.6c-0.2,0.5-0.4,1-0.6,1.4c-0.2,0.5-0.5,1-0.7,1.5c-0.2,0.5-0.4,0.9-0.6,1.4c-0.2,0.5-0.5,1-0.7,1.5
		c-0.2,0.5-0.5,1-0.7,1.5c-0.2,0.5-0.5,1-0.7,1.5c-0.2,0.5-0.5,1-0.7,1.5c-0.2,0.5-0.5,1-0.7,1.4c-0.2,0.5-0.5,1-0.8,1.5
		c-0.2,0.5-0.5,0.9-0.7,1.4c-0.3,0.5-0.5,1-0.8,1.5c-0.2,0.4-0.5,0.9-0.7,1.3c-0.3,0.6-0.6,1.1-0.9,1.7c-0.2,0.4-0.5,0.9-0.7,1.3
		c-0.3,0.6-0.6,1.1-1,1.7c-0.2,0.4-0.5,0.8-0.7,1.2c-0.3,0.6-0.7,1.1-1,1.7c-0.2,0.4-0.5,0.8-0.7,1.2c-0.4,0.6-0.7,1.2-1.1,1.8
		c-0.2,0.4-0.4,0.7-0.7,1.1c-0.6,1-1.3,2-1.9,3c-0.1,0.2-0.2,0.3-0.3,0.5c-0.5,0.8-1.1,1.6-1.6,2.4c-0.2,0.3-0.5,0.7-0.7,1
		c-0.4,0.6-0.9,1.3-1.4,1.9c-0.3,0.4-0.5,0.7-0.8,1.1c-0.5,0.6-0.9,1.3-1.4,1.9c-0.2,0.3-0.5,0.6-0.7,1c-0.8,1-1.6,2.1-2.3,3.1
		c-0.1,0.1-0.2,0.3-0.3,0.4c-0.7,0.9-1.4,1.8-2.1,2.7c-0.2,0.3-0.5,0.6-0.7,0.9c-0.7,0.8-1.4,1.6-2,2.4c-0.2,0.2-0.3,0.4-0.5,0.6
		c-0.8,1-1.7,1.9-2.5,2.9c-0.2,0.2-0.3,0.4-0.5,0.6c-1.1,1.3-2.3,2.5-3.4,3.7c0,0-0.1,0.1-0.1,0.1c-1.1,1.2-2.3,2.4-3.5,3.6
		c-0.1,0.1-0.3,0.3-0.4,0.4c-1.1,1.1-2.3,2.3-3.5,3.4c-0.2,0.2-0.4,0.4-0.6,0.6c-1.2,1.1-2.3,2.2-3.5,3.2c-0.1,0.1-0.2,0.2-0.3,0.3
		c-0.2,0.2-0.3,0.3-0.5,0.4c-0.6,0.6-1.3,1.1-1.9,1.7c-0.1,0.1-0.2,0.2-0.3,0.3c-0.2,0.1-0.3,0.3-0.5,0.4c-0.8,0.7-1.7,1.4-2.6,2.2
		c-0.1,0.1-0.1,0.1-0.2,0.2c-0.9,0.8-1.8,1.5-2.8,2.2c-0.1,0.1-0.3,0.2-0.4,0.3c-0.2,0.2-0.4,0.4-0.7,0.6c-0.6,0.4-1.1,0.9-1.7,1.3
		c-0.3,0.2-0.6,0.5-0.9,0.7c-0.7,0.5-1.4,1.1-2.2,1.6c-0.2,0.2-0.5,0.4-0.7,0.5c-1,0.7-1.9,1.4-2.9,2.1c-0.2,0.1-0.4,0.3-0.6,0.4
		c-0.8,0.5-1.5,1.1-2.3,1.6c-0.3,0.2-0.6,0.4-1,0.6c-0.7,0.5-1.4,0.9-2.1,1.4c-0.3,0.2-0.6,0.4-0.9,0.6c-1,0.6-1.9,1.2-2.9,1.8
		c0,0-0.1,0-0.1,0.1c-1,0.6-2,1.2-3,1.8c-0.3,0.2-0.6,0.4-0.9,0.5c-0.7,0.4-1.5,0.8-2.2,1.3c-0.3,0.2-0.7,0.4-1,0.6
		c-0.8,0.4-1.6,0.9-2.4,1.3c-0.2,0.1-0.5,0.3-0.7,0.4c-1,0.5-2.1,1.1-3.1,1.6c-0.2,0.1-0.5,0.2-0.7,0.4c-0.8,0.4-1.6,0.8-2.5,1.2
		c-0.4,0.2-0.7,0.3-1.1,0.5c-0.8,0.4-1.5,0.7-2.3,1.1c-0.3,0.1-0.7,0.3-1,0.4c-1.1,0.5-2.2,1-3.3,1.4l106.7-45.3
		c1.1-0.5,2.2-0.9,3.3-1.4c0,0,0,0,0.1,0c0.2-0.1,0.5-0.2,0.7-0.3c0.1,0,0.1-0.1,0.2-0.1c0.8-0.4,1.5-0.7,2.3-1.1
		c0.4-0.2,0.7-0.3,1.1-0.5c0.1-0.1,0.2-0.1,0.3-0.2c0.1,0,0.2-0.1,0.2-0.1c0.6-0.3,1.3-0.6,1.9-0.9c0.2-0.1,0.5-0.2,0.7-0.4
		c0.5-0.2,0.9-0.5,1.4-0.7c0.3-0.1,0.5-0.3,0.8-0.4c0.3-0.2,0.7-0.3,1-0.5c0.3-0.1,0.5-0.3,0.8-0.4c0.7-0.4,1.4-0.8,2.1-1.1
		c0.1-0.1,0.2-0.1,0.3-0.2c0.1-0.1,0.2-0.1,0.4-0.2c0.2-0.1,0.4-0.2,0.7-0.4c0.7-0.4,1.5-0.8,2.2-1.3c0.3-0.1,0.5-0.3,0.8-0.4
		c0,0,0.1-0.1,0.1-0.1c0.1,0,0.2-0.1,0.2-0.1c0.9-0.5,1.9-1.1,2.8-1.7c0,0,0.1,0,0.1-0.1c0.3-0.2,0.6-0.4,0.9-0.5
		c0.3-0.2,0.5-0.3,0.8-0.5c0.4-0.3,0.8-0.5,1.3-0.8c0.3-0.2,0.6-0.4,0.9-0.6c0.5-0.3,1-0.6,1.5-1c0.2-0.1,0.4-0.2,0.6-0.4
		c0,0,0,0,0.1,0c0.3-0.2,0.6-0.4,1-0.6c0.8-0.5,1.5-1,2.3-1.6c0,0,0.1,0,0.1-0.1c0.2-0.1,0.3-0.2,0.5-0.3c0,0,0.1,0,0.1-0.1
		c1-0.7,1.9-1.4,2.9-2.1c0.2-0.1,0.4-0.3,0.6-0.5c0.2-0.2,0.5-0.4,0.7-0.5c0.5-0.4,1-0.8,1.5-1.1c0.3-0.2,0.6-0.5,0.9-0.7
		c0.3-0.3,0.7-0.5,1-0.8c0.1-0.1,0.3-0.2,0.4-0.3c0.2-0.1,0.4-0.3,0.5-0.4c0.3-0.2,0.6-0.4,0.8-0.7c0.6-0.5,1.3-1,1.9-1.5
		c0.2-0.1,0.4-0.3,0.5-0.4c0.1-0.1,0.2-0.2,0.3-0.3c0.1-0.1,0.1-0.1,0.2-0.2c0.9-0.7,1.7-1.4,2.5-2.1c0.1-0.1,0.2-0.2,0.3-0.2
		c0.2-0.2,0.4-0.3,0.6-0.5c0,0,0.1-0.1,0.1-0.1c0.6-0.5,1.2-1,1.8-1.6c0.2-0.1,0.3-0.3,0.5-0.4c0.1-0.1,0.2-0.2,0.3-0.3
		c0.3-0.2,0.5-0.5,0.8-0.7c0.1-0.1,0.2-0.2,0.3-0.3c0.8-0.7,1.6-1.5,2.4-2.2c0.2-0.2,0.4-0.4,0.6-0.6c0,0,0.1-0.1,0.1-0.1
		c0.2-0.2,0.4-0.4,0.6-0.5c0.9-0.9,1.9-1.8,2.8-2.8c0.1-0.1,0.2-0.2,0.3-0.3c0,0,0.1-0.1,0.1-0.1c0.2-0.2,0.4-0.4,0.6-0.6
		c1-1,2-2,2.9-3c0,0,0.1-0.1,0.1-0.1c0,0,0.1-0.1,0.1-0.1c0.1-0.1,0.1-0.1,0.2-0.2c1-1.1,2-2.2,3-3.3c0.1-0.1,0.1-0.1,0.2-0.2
		c0.1-0.1,0.1-0.1,0.2-0.2c0.1-0.1,0.2-0.2,0.2-0.3c0,0,0.1-0.1,0.1-0.1c0.8-1,1.7-1.9,2.5-2.9c0.1-0.1,0.2-0.2,0.3-0.3
		c0.2-0.2,0.4-0.4,0.6-0.7c0.6-0.7,1.1-1.3,1.7-2c0.2-0.3,0.5-0.6,0.7-0.9c0.2-0.2,0.4-0.5,0.6-0.7c0,0,0,0,0,0
		c0.5-0.6,1-1.3,1.5-1.9c0.1-0.1,0.2-0.3,0.3-0.4c0.3-0.4,0.7-0.9,1-1.3c0.2-0.2,0.4-0.5,0.5-0.7c0.3-0.4,0.5-0.7,0.8-1.1
		c0.1-0.1,0.1-0.2,0.2-0.3c0.2-0.2,0.3-0.4,0.5-0.7c0.4-0.5,0.8-1.1,1.2-1.6c0.2-0.2,0.3-0.5,0.5-0.7c0.2-0.2,0.3-0.4,0.5-0.7
		c0.5-0.6,0.9-1.3,1.4-1.9c0.2-0.3,0.5-0.7,0.7-1c0,0,0,0,0.1-0.1c0.1-0.1,0.1-0.2,0.2-0.2c0.5-0.7,0.9-1.4,1.4-2.1
		c0.1-0.2,0.2-0.3,0.3-0.5c0.3-0.4,0.5-0.8,0.8-1.2c0.2-0.3,0.3-0.5,0.5-0.8c0.2-0.3,0.4-0.6,0.6-1c0-0.1,0.1-0.1,0.1-0.2
		c0.2-0.3,0.4-0.6,0.5-0.9c0.4-0.6,0.7-1.2,1.1-1.8c0,0,0-0.1,0.1-0.1c0.1-0.2,0.3-0.5,0.4-0.7c0.1-0.1,0.2-0.3,0.3-0.4
		c0.3-0.6,0.7-1.1,1-1.7c0.2-0.4,0.5-0.8,0.7-1.2c0.1-0.1,0.2-0.3,0.3-0.4c0.1-0.1,0.2-0.3,0.2-0.4c0.2-0.3,0.3-0.6,0.5-0.8
		c0.2-0.4,0.5-0.9,0.7-1.3c0.3-0.6,0.6-1.1,0.9-1.7c0.1-0.1,0.1-0.2,0.2-0.3c0.2-0.3,0.3-0.6,0.5-0.9c0-0.1,0.1-0.1,0.1-0.2
		c0.3-0.5,0.5-1,0.8-1.5c0.2-0.5,0.5-0.9,0.7-1.4c0.2-0.3,0.4-0.7,0.5-1c0.1-0.1,0.1-0.3,0.2-0.4c0-0.1,0.1-0.1,0.1-0.2
		c0.2-0.4,0.4-0.8,0.6-1.2c0.2-0.5,0.5-1,0.7-1.5c0.2-0.4,0.4-0.8,0.6-1.3c0-0.1,0.1-0.1,0.1-0.2c0.1-0.1,0.1-0.2,0.2-0.4
		c0.2-0.4,0.4-0.8,0.5-1.1c0.1-0.3,0.3-0.6,0.4-0.8c0.1-0.2,0.2-0.4,0.3-0.7c0.2-0.5,0.4-0.9,0.6-1.4c0-0.1,0.1-0.2,0.1-0.2
		c0.1-0.3,0.3-0.6,0.4-0.9c0.1-0.1,0.1-0.3,0.2-0.4c0.2-0.5,0.4-1,0.6-1.4c0.2-0.5,0.4-1,0.7-1.5c0.1-0.3,0.3-0.7,0.4-1
		c0.1-0.2,0.2-0.4,0.2-0.6c0.2-0.5,0.4-1,0.6-1.4c0.2-0.5,0.4-1,0.6-1.5c0.1-0.2,0.2-0.5,0.3-0.7c0.1-0.1,0.1-0.3,0.2-0.4
		c0,0,0-0.1,0.1-0.1c0.1-0.2,0.2-0.5,0.3-0.7c0.6-1.4,1.1-2.9,1.6-4.3c0-0.1,0-0.1,0.1-0.2c0.1-0.2,0.1-0.4,0.2-0.6
		c0-0.1,0.1-0.2,0.1-0.3c0.5-1.5,1.1-3.1,1.6-4.6c0-0.1,0.1-0.3,0.1-0.4c0-0.1,0-0.1,0.1-0.2c0-0.1,0.1-0.3,0.1-0.4
		c0.4-1.3,0.8-2.5,1.2-3.8c0.1-0.3,0.2-0.5,0.2-0.8c0.1-0.3,0.2-0.5,0.2-0.8c0-0.1,0.1-0.3,0.1-0.4c0.3-1.2,0.7-2.3,1-3.5
		c0.1-0.3,0.2-0.6,0.3-1c0.1-0.4,0.2-0.8,0.3-1.2c0,0,0-0.1,0-0.1c0,0,0,0,0,0c0.1-0.3,0.1-0.5,0.2-0.8c0.2-0.8,0.4-1.6,0.6-2.4
		c0-0.1,0-0.2,0.1-0.3c0-0.1,0-0.2,0.1-0.3c0.1-0.2,0.1-0.4,0.2-0.7c0.2-0.7,0.3-1.3,0.5-2c0.1-0.4,0.2-0.9,0.3-1.4
		c0.1-0.2,0.1-0.5,0.2-0.7c0.1-0.3,0.1-0.6,0.2-0.9c0-0.1,0-0.2,0.1-0.3c0.1-0.5,0.2-0.9,0.3-1.4c0.1-0.4,0.2-0.9,0.3-1.3
		c0-0.2,0.1-0.3,0.1-0.5c0.1-0.5,0.2-0.9,0.3-1.4c0.1-0.3,0.1-0.7,0.2-1c0-0.1,0-0.1,0-0.2c0.1-0.4,0.2-0.8,0.2-1.2
		c0.2-1.2,0.5-2.5,0.7-3.7c0.3-1.7,0.6-3.4,0.8-5.1c0-0.1,0-0.3,0.1-0.4c0-0.2,0.1-0.5,0.1-0.7c0.2-1.6,0.5-3.3,0.7-4.9
		c0-0.2,0-0.3,0.1-0.5c0.2-1.7,0.4-3.4,0.6-5.1c0-0.3,0.1-0.6,0.1-0.9c0-0.3,0-0.6,0.1-0.9c0.1-1.4,0.3-2.7,0.4-4.1
		c0-0.3,0-0.6,0.1-0.9c0.1-1.5,0.2-3.1,0.3-4.6c0-0.2,0-0.5,0-0.7c0.1-1.3,0.1-2.6,0.2-3.9c0-0.3,0-0.7,0-1c0-0.4,0-0.8,0-1.3
		c0-1.5,0.1-3,0.1-4.5c0-0.2,0-0.4,0-0.7c0-1.7,0-3.3,0-5c0-0.4,0-0.8,0-1.2c0-0.5,0-1.1-0.1-1.6c0-0.8,0-1.6-0.1-2.4
		c0-0.4,0-0.9-0.1-1.3c-0.1-1.7-0.2-3.4-0.3-5.1c0-0.3,0-0.6-0.1-1c-0.1-1.4-0.2-2.8-0.3-4.2c0-0.5-0.1-1.1-0.1-1.6
		c0-0.5-0.1-1-0.1-1.5c-0.1-0.6-0.1-1.3-0.2-1.9c-0.1-0.7-0.2-1.4-0.2-2.2c-0.1-1.1-0.3-2.2-0.4-3.3c-0.1-0.7-0.2-1.3-0.3-2
		c-0.2-1.2-0.4-2.5-0.5-3.7c-0.1-0.5-0.2-1-0.2-1.6c-0.3-1.7-0.6-3.5-0.9-5.2c0,0,0,0,0-0.1c-0.4-2.1-0.8-4.1-1.2-6.2
		c-0.1-0.6-0.3-1.3-0.4-1.9c-0.3-1.4-0.6-2.9-1-4.3c-0.2-0.7-0.4-1.5-0.5-2.2c-0.3-1.4-0.7-2.7-1-4.1c-0.2-0.7-0.4-1.4-0.6-2.2
		c-0.4-1.5-0.8-3-1.3-4.5c-0.1-0.4-0.2-0.9-0.4-1.3c0-0.1-0.1-0.3-0.1-0.4c-0.2-0.8-0.5-1.7-0.8-2.5c-0.3-0.9-0.6-1.9-0.9-2.8
		c-0.3-0.8-0.5-1.7-0.8-2.5c-0.3-0.9-0.6-1.9-0.9-2.8c-0.3-0.8-0.6-1.7-0.9-2.5c-0.3-0.9-0.6-1.8-1-2.7c-0.3-0.8-0.6-1.6-0.9-2.5
		c-0.3-0.9-0.7-1.8-1-2.7c-0.3-0.8-0.7-1.6-1-2.5c-0.4-0.9-0.7-1.8-1.1-2.7c-0.3-0.8-0.7-1.6-1-2.4c-0.4-0.9-0.8-1.8-1.1-2.6
		c-0.4-0.8-0.7-1.6-1.1-2.4c-0.4-0.9-0.8-1.7-1.2-2.6c-0.4-0.8-0.8-1.6-1.1-2.4c-0.4-0.9-0.8-1.7-1.2-2.6c-0.4-0.8-0.8-1.6-1.2-2.4
		c-0.4-0.9-0.9-1.7-1.3-2.5c-0.4-0.8-0.8-1.6-1.2-2.4c-0.4-0.8-0.9-1.7-1.4-2.5c-0.4-0.8-0.9-1.6-1.3-2.3c-0.5-0.8-0.9-1.7-1.4-2.5
		c-0.4-0.8-0.9-1.5-1.3-2.3c-0.5-0.8-1-1.6-1.5-2.4c-0.5-0.8-0.9-1.5-1.4-2.3c-0.5-0.8-1-1.6-1.5-2.4c-0.5-0.7-1-1.5-1.4-2.2
		c-0.5-0.8-1-1.6-1.6-2.4c-0.5-0.7-1-1.5-1.5-2.2c-0.5-0.8-1.1-1.6-1.6-2.3c-0.5-0.7-1-1.5-1.5-2.2c-0.3-0.4-0.6-0.9-0.9-1.3
		c-0.2-0.3-0.4-0.5-0.6-0.8c-0.9-1.2-1.8-2.4-2.6-3.6c-0.4-0.5-0.8-1-1.1-1.5c-1.3-1.7-2.6-3.3-3.9-4.9c-0.1-0.2-0.3-0.3-0.4-0.5
		c-1.2-1.5-2.4-2.9-3.6-4.3c-0.4-0.5-0.9-1-1.3-1.5c-0.9-1.1-1.9-2.2-2.8-3.2c-0.3-0.3-0.5-0.6-0.8-0.8c-0.3-0.4-0.7-0.7-1-1.1
		c-0.5-0.6-1-1.1-1.6-1.7c-0.7-0.7-1.4-1.5-2.1-2.2c-0.5-0.6-1.1-1.1-1.6-1.7c-0.7-0.7-1.4-1.5-2.2-2.2c-0.5-0.5-1-1.1-1.6-1.6
		c-0.8-0.8-1.5-1.5-2.3-2.2c-0.5-0.5-1-1-1.5-1.5c-0.1-0.1-0.2-0.2-0.4-0.3c-1.1-1-2.1-2-3.2-3c-0.2-0.2-0.4-0.4-0.6-0.6
		c-1-0.9-2.1-1.9-3.1-2.8c-0.4-0.3-0.8-0.7-1.2-1c-0.9-0.8-1.8-1.6-2.8-2.3c-0.4-0.3-0.8-0.6-1.2-1c-0.2-0.2-0.4-0.3-0.6-0.5
		c-1-0.9-2.1-1.7-3.1-2.5c-0.2-0.2-0.4-0.3-0.6-0.5c-1.1-0.9-2.2-1.7-3.4-2.6c-0.3-0.3-0.7-0.5-1-0.8c-1.3-1-2.6-1.9-3.9-2.8
		c0,0-0.1,0-0.1-0.1c-0.1-0.1-0.2-0.1-0.2-0.2c-1.3-0.9-2.5-1.8-3.8-2.7c-0.3-0.2-0.6-0.4-0.9-0.6c-1.3-0.9-2.7-1.8-4-2.7
		c-0.2-0.1-0.5-0.3-0.7-0.4c-0.6-0.4-1.3-0.8-1.9-1.2c-0.6-0.4-1.2-0.8-1.9-1.2c-0.2-0.1-0.4-0.2-0.6-0.4c-1.4-0.8-2.7-1.7-4.1-2.5
		c-0.3-0.2-0.6-0.3-0.9-0.5c-1.3-0.8-2.6-1.5-4-2.2c-0.1,0-0.1-0.1-0.2-0.1c-1.7-1-3.5-1.9-5.3-2.8c-0.4-0.2-0.9-0.4-1.3-0.7
		c-1.3-0.7-2.7-1.4-4.1-2c-0.2-0.1-0.4-0.2-0.5-0.3c-0.5-0.2-1-0.5-1.5-0.7c-1.1-0.5-2.2-1-3.4-1.5c-0.7-0.3-1.5-0.6-2.2-1
		c-1.1-0.5-2.2-0.9-3.3-1.4c-0.4-0.2-0.8-0.3-1.2-0.5c-0.8-0.3-1.5-0.6-2.3-0.9c-0.1-0.1-0.3-0.1-0.4-0.2c-1.5-0.6-3.1-1.2-4.6-1.8
		c-0.3-0.1-0.5-0.2-0.8-0.3c-1.2-0.4-2.5-0.9-3.7-1.3c-0.3-0.1-0.6-0.2-0.9-0.3c-0.3-0.1-0.5-0.2-0.8-0.3c-1.5-0.5-3.1-1-4.7-1.5
		c-0.2-0.1-0.4-0.1-0.6-0.2c-1.6-0.5-3.3-1-5-1.5c0,0-0.1,0-0.1,0c-1.2-0.3-2.5-0.7-3.7-1c-0.3-0.1-0.7-0.2-1-0.3c0,0,0,0,0,0
		c-0.5-0.1-1-0.2-1.5-0.4c-0.5-0.1-0.9-0.2-1.4-0.3c-0.4-0.1-0.7-0.2-1.1-0.3c-0.3-0.1-0.6-0.1-1-0.2c-0.6-0.1-1.1-0.3-1.7-0.4
		c-0.4-0.1-0.8-0.2-1.1-0.3c0,0,0,0-0.1,0c0,0,0,0,0,0c-0.8-0.2-1.6-0.3-2.4-0.5c-0.5-0.1-0.9-0.2-1.4-0.3c0,0-0.1,0-0.1,0
		c-0.4-0.1-0.8-0.1-1.2-0.2c-0.9-0.2-1.8-0.3-2.8-0.5c-0.3-0.1-0.6-0.1-0.9-0.2c-0.1,0-0.3,0-0.4-0.1c-0.2,0-0.3,0-0.5-0.1
		c-0.8-0.1-1.7-0.3-2.5-0.4c-0.3,0-0.6-0.1-0.9-0.1c-0.1,0-0.2,0-0.3,0c-0.1,0-0.3,0-0.4-0.1c-0.5-0.1-1.1-0.1-1.6-0.2
		c-0.5-0.1-1.1-0.2-1.6-0.2c-0.3,0-0.5-0.1-0.8-0.1c-0.3,0-0.6-0.1-0.9-0.1c-0.5-0.1-1.1-0.1-1.6-0.2c-0.2,0-0.3,0-0.5-0.1
		c-0.4,0-0.9-0.1-1.3-0.1c-0.6-0.1-1.3-0.1-1.9-0.2c-0.2,0-0.4,0-0.6-0.1c-0.1,0-0.3,0-0.4,0c-0.3,0-0.7-0.1-1-0.1
		c-0.3,0-0.7-0.1-1-0.1c-0.5,0-0.9-0.1-1.4-0.1c-0.5,0-1-0.1-1.4-0.1c-0.1,0-0.2,0-0.2,0c-0.3,0-0.6,0-1-0.1c-0.5,0-0.9-0.1-1.4-0.1
		c-0.5,0-1.1-0.1-1.6-0.1c-0.2,0-0.4,0-0.6,0c-0.5,0-1.1,0-1.6-0.1c-0.1,0-0.2,0-0.3,0c-0.5,0-0.9,0-1.4,0c-0.5,0-1.1,0-1.6,0
		c-0.5,0-1,0-1.5,0c0,0-0.1,0-0.1,0c-0.2,0-0.5,0-0.7,0c0,0,0,0-0.1,0c-0.3,0-0.7,0-1,0c-0.8,0-1.6,0-2.3,0c-0.2,0-0.4,0-0.5,0
		c-0.1,0-0.2,0-0.3,0c-0.5,0-1.1,0-1.6,0c-0.9,0-1.7,0-2.6,0.1c-0.1,0-0.2,0-0.3,0c-0.5,0-0.9,0-1.4,0.1c0,0-0.1,0-0.1,0
		c-0.8,0-1.6,0.1-2.4,0.1c-0.3,0-0.6,0-0.8,0.1c-0.3,0-0.7,0-1,0.1c-0.2,0-0.4,0-0.6,0c-0.6,0-1.2,0.1-1.7,0.1c-0.2,0-0.3,0-0.5,0
		c-0.3,0-0.6,0.1-0.9,0.1c-0.1,0-0.2,0-0.3,0c-0.5,0-0.9,0.1-1.4,0.1c-0.7,0.1-1.4,0.2-2.1,0.2c-0.5,0.1-1,0.1-1.5,0.2
		c-0.4,0-0.7,0.1-1.1,0.1c-0.1,0-0.3,0-0.4,0.1c-0.9,0.1-1.9,0.2-2.8,0.4c-0.2,0-0.4,0-0.6,0.1c-0.3,0-0.6,0.1-0.8,0.1
		c-0.5,0.1-1,0.2-1.5,0.2c-0.8,0.1-1.7,0.3-2.5,0.4c-0.2,0-0.5,0.1-0.7,0.1c-0.5,0.1-1,0.2-1.5,0.3c-0.9,0.2-1.8,0.3-2.7,0.5
		c-0.2,0-0.5,0.1-0.7,0.1c-0.1,0-0.1,0-0.2,0c-0.1,0-0.2,0-0.2,0c-0.2,0-0.5,0.1-0.7,0.1c-0.8,0.2-1.6,0.4-2.5,0.5
		c-0.5,0.1-0.9,0.2-1.4,0.3c-0.2,0-0.4,0.1-0.6,0.1c-0.3,0.1-0.6,0.2-1,0.2c-0.8,0.2-1.6,0.4-2.4,0.6c-0.1,0-0.2,0-0.3,0.1
		c-0.3,0.1-0.6,0.2-0.9,0.2c-0.5,0.1-1,0.3-1.5,0.4c-0.6,0.2-1.2,0.3-1.8,0.5c-0.4,0.1-0.8,0.2-1.3,0.4c-0.5,0.1-1,0.3-1.4,0.4
		c-0.5,0.1-1,0.3-1.5,0.4c-0.5,0.2-1,0.3-1.6,0.5c-0.2,0.1-0.4,0.1-0.6,0.2c-0.3,0.1-0.5,0.2-0.8,0.3c-0.4,0.1-0.8,0.3-1.2,0.4
		c-0.5,0.2-1.1,0.4-1.6,0.5c-0.5,0.2-1,0.3-1.5,0.5c-0.4,0.1-0.8,0.3-1.2,0.4c-0.5,0.2-1,0.3-1.5,0.5c-0.6,0.2-1.1,0.4-1.7,0.6
		c-0.5,0.2-1,0.4-1.4,0.6c-0.3,0.1-0.6,0.2-0.9,0.3c-0.7,0.3-1.4,0.6-2.1,0.9c-0.4,0.2-0.9,0.4-1.3,0.5c-0.2,0.1-0.4,0.2-0.6,0.2
		l-106.7,45.3C717.8,817,719.1,816.4,720.5,815.9z"/>
	<g>
		<path class="st94" d="M819.7,772c-35.1,14.9-52,33.5-48.5,30.5c-34.4,29.8-59.3,72.5-68.2,124c-21.1,122,55.4,247.2,170.8,279.5
			c11.4,3.2,19.5,5.4,28.4,6.8c21.2,3.5,42.9,2,63.6-3.8c37.9-10.6,68.9-23.3,97.3-52.4c72.5-74.3,78.1-192,27.6-279.9
			C1037.3,784,922.8,728.2,819.7,772z M931.1,1214.3c0.2-0.1,0.4-0.3,0.6-0.4C931.5,1214,931.3,1214.1,931.1,1214.3z M934.6,1211.8
			c0.2-0.2,0.5-0.3,0.7-0.5C935.1,1211.4,934.9,1211.6,934.6,1211.8z M937.5,1209.6c0.3-0.2,0.6-0.5,0.9-0.7
			C938.1,1209.1,937.8,1209.4,937.5,1209.6z M944.1,1204.4c0.1-0.1,0.1-0.1,0.2-0.2C944.2,1204.3,944.1,1204.4,944.1,1204.4z
			 M947.3,1201.7c-0.2,0.1-0.3,0.3-0.5,0.4C947,1202,947.1,1201.8,947.3,1201.7c0.1-0.1,0.2-0.2,0.3-0.3
			C947.5,1201.5,947.4,1201.6,947.3,1201.7z M950.1,1199.3c-0.2,0.2-0.3,0.3-0.5,0.4c0.3-0.2,0.5-0.5,0.8-0.7
			C950.2,1199.1,950.2,1199.2,950.1,1199.3z"/>
		
			<linearGradient id="SVGID_3_" gradientUnits="userSpaceOnUse" x1="4955.2402" y1="517.5443" x2="4955.5005" y2="517.5443" gradientTransform="matrix(-0.9794 -0.2021 0.2021 -0.9794 5696.041 2709.761)">
			<stop  offset="1.507540e-02" style="stop-color:#634AEC"/>
			<stop  offset="0.4855" style="stop-color:#934492"/>
			<stop  offset="0.8343" style="stop-color:#B34056"/>
			<stop  offset="1" style="stop-color:#C03F3F"/>
		</linearGradient>
		<path class="st2" d="M947.3,1201.7c0.1-0.1,0.2-0.2,0.3-0.3C947.5,1201.5,947.4,1201.6,947.3,1201.7
			C947.3,1201.7,947.3,1201.7,947.3,1201.7z"/>
		
			<linearGradient id="SVGID_4_" gradientUnits="userSpaceOnUse" x1="4953.0825" y1="520.1705" x2="4953.7046" y2="520.1705" gradientTransform="matrix(-0.9794 -0.2021 0.2021 -0.9794 5696.041 2709.761)">
			<stop  offset="1.507540e-02" style="stop-color:#634AEC"/>
			<stop  offset="0.4855" style="stop-color:#934492"/>
			<stop  offset="0.8343" style="stop-color:#B34056"/>
			<stop  offset="1" style="stop-color:#C03F3F"/>
		</linearGradient>
		<path class="st3" d="M950.1,1199.3c0.1-0.1,0.2-0.2,0.3-0.3c-0.3,0.2-0.5,0.5-0.8,0.7C949.7,1199.6,949.9,1199.4,950.1,1199.3z"/>
		
			<linearGradient id="SVGID_5_" gradientUnits="userSpaceOnUse" x1="4263.2402" y1="517.1031" x2="5819.5366" y2="517.1031" gradientTransform="matrix(-0.9794 -0.2021 0.2021 -0.9794 5696.041 2709.761)">
			<stop  offset="1.507540e-02" style="stop-color:#634AEC"/>
			<stop  offset="0.4855" style="stop-color:#934492"/>
			<stop  offset="0.8343" style="stop-color:#B34056"/>
			<stop  offset="1" style="stop-color:#C03F3F"/>
		</linearGradient>
		<path class="st4" d="M946.8,1202.1c0.2-0.1,0.3-0.3,0.5-0.4c0,0,0,0,0,0C947.1,1201.8,947,1202,946.8,1202.1z"/>
		
			<linearGradient id="SVGID_6_" gradientUnits="userSpaceOnUse" x1="5517.0151" y1="1266.6251" x2="6158.1357" y2="625.5046" gradientTransform="matrix(-0.9794 -0.2021 0.2021 -0.9794 5696.041 2709.761)">
			<stop  offset="0" style="stop-color:#E27FA7"/>
			<stop  offset="0.9895" style="stop-color:#091093"/>
		</linearGradient>
		<polygon class="st5" points="314.9,-1.1 207.7,73.6 9.7,1184.7 114.4,1149.7 		"/>
		
			<linearGradient id="SVGID_7_" gradientUnits="userSpaceOnUse" x1="4781.1914" y1="1389.4232" x2="5450.2847" y2="230.5203" gradientTransform="matrix(-0.9794 -0.2021 0.2021 -0.9794 5696.041 2709.761)">
			<stop  offset="1.507540e-02" style="stop-color:#518EEF"/>
			<stop  offset="0.4263" style="stop-color:#979CED"/>
			<stop  offset="0.8152" style="stop-color:#D3A8EC"/>
			<stop  offset="1" style="stop-color:#EAADEB"/>
		</linearGradient>
		<path class="st6" d="M1567.7,1547.5l16.9-6.6l100.2-580c0,0-263.5-464.9-263.6-465.2c10.6,18.7-109.6,81.6-124.5,88.8
			c-190.2,90.7-472.9-6-614.5-144.5C581.8,341.9,514,210.5,490.5,72.3l-175.6-73l-196,1129l1465.4,412.2L1567.7,1547.5z
			 M900.7,1231.4c0.3-0.1,0.7-0.3,1-0.4C901.4,1231.1,901,1231.2,900.7,1231.4z M904,1229.9c0.4-0.2,0.7-0.3,1.1-0.5
			C904.7,1229.5,904.3,1229.7,904,1229.9z M907.5,1228.2c0.2-0.1,0.5-0.2,0.7-0.4C908,1227.9,907.8,1228,907.5,1228.2z
			 M911.4,1226.2c0.3-0.1,0.5-0.3,0.7-0.4C911.9,1225.9,911.6,1226.1,911.4,1226.2z M914.5,1224.5c0.3-0.2,0.7-0.4,1-0.6
			C915.2,1224.1,914.9,1224.3,914.5,1224.5z M917.8,1222.7c0.3-0.2,0.6-0.4,0.9-0.5C918.4,1222.3,918.1,1222.5,917.8,1222.7z
			 M921.7,1220.3c0,0,0.1,0,0.1-0.1C921.8,1220.3,921.8,1220.3,921.7,1220.3z M924.8,1218.4c0.3-0.2,0.6-0.4,0.9-0.6
			C925.4,1218.1,925.1,1218.3,924.8,1218.4z M927.8,1216.5c0.3-0.2,0.6-0.4,1-0.6C928.5,1216,928.1,1216.3,927.8,1216.5z
			 M1063.1,1156.7c-28.4,29.1-59.4,41.8-97.3,52.4c-20.7,5.8-42.4,7.2-63.6,3.8c-8.9-1.5-17-3.6-28.4-6.8
			c-115.4-32.3-191.8-157.5-170.8-279.5c8.9-51.5,33.8-94.3,68.2-124c-3.5,3,13.4-15.6,48.5-30.5c103.1-43.7,217.6,12.1,270.9,104.8
			C1141.2,964.7,1135.5,1082.4,1063.1,1156.7z"/>
		
			<linearGradient id="SVGID_8_" gradientUnits="userSpaceOnUse" x1="4874.9897" y1="667.4921" x2="5290.0571" y2="-51.4254" gradientTransform="matrix(-0.9794 -0.2021 0.2021 -0.9794 5696.041 2709.761)">
			<stop  offset="0" style="stop-color:#E27FA7"/>
			<stop  offset="0.9895" style="stop-color:#091093"/>
		</linearGradient>
		<polygon class="st7" points="9.7,1184.8 1477.5,1585.8 1567.7,1547.5 1584.3,1540.5 118.8,1128.2 		"/>
	</g>
</g>
</svg>
