<?xml version="1.0" encoding="utf-8"?>
<!-- Generator: Adobe Illustrator 25.0.1, SVG Export Plug-In . SVG Version: 6.00 Build 0)  -->
<svg version="1.1" xmlns="http://www.w3.org/2000/svg" xmlns:xlink="http://www.w3.org/1999/xlink" x="0px" y="0px"
	 viewBox="0 0 475.8 412.1" style="enable-background:new 0 0 475.8 412.1;" xml:space="preserve">
<style type="text/css">
	.st0{fill:none;}
	.st1{fill:#234075;}
	.st2{fill:#E3A82B;}
	.st3{fill:#FFFFFF;}
</style>
<g id="Layer_2">
</g>
<g id="GOLD">
	<rect x="-99.9" y="-98" class="st0" width="673.9" height="611.3"/>
	<g>
		<path class="st1" d="M112.6,196.8c0-5.3-0.3-6.7-3.9-7l-2.6-0.2c-0.6-0.4-0.6-1.5,0.1-1.8c4.3-0.4,9.8-0.6,17.2-0.6
			c5.1,0,9.9,0.4,13.5,2c3.4,1.5,6.1,4.4,6.1,9c0,5.2-3.4,7.9-8.2,9.9c0,0.7,0.6,0.9,1.5,1.1c4.3,0.7,10.8,4.3,10.8,12.1
			c0,8.4-6.9,14-21.3,14c-2.3,0-6.3-0.2-9.6-0.2c-3.5,0-6.3,0.1-9.2,0.2c-0.5-0.2-0.6-1.4-0.2-1.8l1.4-0.2c4.2-0.6,4.4-1.4,4.4-9
			V196.8z M119.2,206.4c0,2,0.1,2.2,4.2,2c8.2-0.3,12.6-2.5,12.6-9.2c0-7.1-5.9-9.7-11.9-9.7c-1.8,0-3,0.1-3.7,0.4
			c-0.8,0.2-1.1,0.6-1.1,1.9V206.4z M119.2,223.1c0,2.6,0.2,6.3,1.7,7.9c1.5,1.7,3.9,2,6.3,2c7.1,0,12.6-2.9,12.6-10.1
			c0-5.7-3.2-12.4-16-12.4c-4.3,0-4.7,0.4-4.7,1.9V223.1z"/>
		<path class="st1" d="M202.8,203.9c0-6.5-0.1-7.6-4.2-7.9l-1.7-0.1c-0.4-0.2-0.3-1.4,0.1-1.5c3.4,0.1,5.8,0.2,8.6,0.2
			c2.7,0,5.1-0.1,8.5-0.2c0.4,0.2,0.5,1.3,0.1,1.5l-1.7,0.1c-4,0.3-4.2,1.4-4.2,7.9v22c0,6.5,0.1,7.4,4.2,7.8l1.7,0.2
			c0.4,0.2,0.3,1.4-0.1,1.5c-3.4-0.1-5.8-0.2-8.5-0.2c-2.9,0-5.2,0.1-8.6,0.2c-0.4-0.2-0.6-1.2-0.1-1.5l1.7-0.2
			c4-0.4,4.2-1.3,4.2-7.8V203.9z"/>
		<path class="st1" d="M240.8,226c0,6.5,0.1,7.4,3.8,7.7l2.1,0.2c0.4,0.2,0.3,1.4-0.1,1.5c-3.7-0.1-5.8-0.2-8.4-0.2
			c-2.6,0-4.8,0.1-8.9,0.2c-0.4-0.2-0.5-1.2,0-1.5l2.3-0.2c3.7-0.3,4-1.2,4-7.7v-27.6c0-1.9,0-2-1.9-2h-3.5c-2.8,0-6.3,0.1-7.9,1.5
			c-1.5,1.4-2.2,2.7-2.9,4.3c-0.5,0.4-1.4,0.1-1.7-0.4c1-2.8,2-6.7,2.4-9.2c0.2-0.1,1-0.2,1.2,0c0.4,2,2.5,1.9,5.5,1.9h26
			c3.5,0,4-0.1,5-1.7c0.3-0.1,1-0.1,1.2,0.2c-0.7,2.5-1.2,7.5-1,9.4c-0.3,0.5-1.4,0.5-1.7,0.1c-0.2-1.5-0.6-3.8-1.6-4.5
			c-1.5-1-3.9-1.5-7.4-1.5h-4.6c-1.9,0-1.9,0.1-1.9,2.1V226z"/>
		<path class="st1" d="M268.3,203.9c0-6.5-0.1-7.6-4.2-7.9l-1.7-0.1c-0.4-0.2-0.3-1.4,0.1-1.5c3.4,0.1,5.8,0.2,8.6,0.2
			c2.7,0,5.1-0.1,8.5-0.2c0.4,0.2,0.6,1.3,0.1,1.5l-1.7,0.1c-4,0.3-4.2,1.4-4.2,7.9v22c0,6.5,0.1,7.4,4.2,7.8l1.7,0.2
			c0.4,0.2,0.3,1.4-0.1,1.5c-3.4-0.1-5.8-0.2-8.5-0.2c-2.9,0-5.2,0.1-8.6,0.2c-0.4-0.2-0.5-1.2-0.1-1.5l1.7-0.2
			c4-0.4,4.2-1.3,4.2-7.8V203.9z"/>
		<path class="st1" d="M299,236c-6.1,0-10-1.6-11.4-2.3c-0.9-1.4-1.8-5.7-2-8.6c0.4-0.4,1.5-0.6,1.7-0.2c1.1,3.2,4.1,9.2,12.5,9.2
			c6.1,0,9.1-3.4,9.1-7.1c0-2.7-0.7-5.7-6-8.6l-6.9-3.8c-3.6-2-7.9-5.6-7.9-10.6c0-5.9,5.4-10.6,14.9-10.6c2.3,0,4.9,0.4,6.8,0.8
			c0.9,0.2,2,0.4,2.5,0.4c0.7,1.5,1.3,4.9,1.3,7.5c-0.3,0.4-1.5,0.6-1.8,0.2c-0.9-3-2.9-7-9.9-7c-7.1,0-8.7,4-8.7,6.9
			c0,3.6,3.5,6.2,6.2,7.6l5.8,3.1c4.6,2.4,9.1,6,9.1,11.8C314.5,231.4,308.5,236,299,236z"/>
		<path class="st1" d="M335.7,215.3c-3.2,0-3.3,0.1-3.3,2v8.7c0,6.5,0.3,7.3,4.1,7.7l1.9,0.2c0.4,0.2,0.3,1.4-0.1,1.5
			c-3.6-0.1-5.8-0.2-8.4-0.2c-2.9,0-5.1,0.1-7.7,0.2c-0.4-0.2-0.5-1.2-0.1-1.5l1.1-0.2c3.7-0.6,3.9-1.2,3.9-7.7v-22.2
			c0-6.5-0.5-7.5-3.9-7.8l-1.7-0.1c-0.4-0.2-0.3-1.4,0.1-1.5c3.3,0.1,5.5,0.2,8.4,0.2c2.6,0,4.8-0.1,7.7-0.2
			c0.4,0.2,0.5,1.3,0.1,1.5l-1.3,0.1c-3.9,0.4-4,1.3-4,7.8v7.1c0,1.9,0.1,2,3.3,2h19c3.2,0,3.3-0.1,3.3-2v-7.1
			c0-6.5-0.1-7.4-4.1-7.8l-1.3-0.1c-0.4-0.2-0.3-1.4,0.1-1.5c3.1,0.1,5.3,0.2,8,0.2c2.6,0,4.9-0.1,7.8-0.2c0.4,0.2,0.5,1.3,0.1,1.5
			l-1.4,0.1c-3.9,0.4-4,1.3-4,7.8V226c0,6.5,0.1,7.3,4,7.7l1.6,0.2c0.4,0.2,0.3,1.4-0.1,1.5c-3.2-0.1-5.4-0.2-8-0.2
			c-2.7,0-5.1,0.1-8,0.2c-0.4-0.2-0.5-1.2-0.1-1.5l1.3-0.2c4.1-0.6,4.1-1.2,4.1-7.7v-8.7c0-1.9-0.1-2-3.3-2H335.7z"/>
		<path class="st1" d="M74.6,249c5.5-4.2,12.4-6.3,20.2-6.3c4,0,9.7,0.8,13.2,1.8c0.9,0.2,1.4,0.4,2.1,0.3c0.1,1.7,0.4,6.4,1,11
			c-0.4,0.5-1.5,0.6-2,0.2c-1.1-5.1-4.5-10.9-15.3-10.9c-11.4,0-21.2,7.2-21.2,22.6c0,15.7,9.9,24.3,22.2,24.3
			c9.6,0,13.9-6.3,15.6-10.7c0.5-0.4,1.6-0.2,1.9,0.3c-0.5,3.9-2.5,8.8-3.6,10.2c-0.9,0.2-1.8,0.4-2.6,0.7c-1.6,0.6-7,1.7-11.8,1.7
			c-6.7,0-13.2-1.3-18.6-5c-6-4.1-10.6-10.9-10.6-20.5C65.2,260.4,68.9,253.4,74.6,249z"/>
		<path class="st1" d="M115.5,273.1c0-12.3,9.7-21.8,23.1-21.8c15,0,22.5,10.3,22.5,21.2c0,12.5-10,21.5-22.5,21.5
			C124.2,294,115.5,284.2,115.5,273.1z M154.6,274.4c0-10.2-4.7-21.2-17.1-21.2c-6.7,0-15.5,4.4-15.5,17.9c0,9.1,4.7,21,17.4,21
			C147.2,292.1,154.6,286.5,154.6,274.4z"/>
		<path class="st1" d="M234.1,267.8c0-3.8-0.1-10.9-1.2-12.8c-0.5-0.7-1.6-1.2-3.3-1.3l-1.6-0.1c-0.4-0.4-0.3-1.2,0.1-1.5
			c2.5,0.1,4.9,0.2,7.5,0.2c2.7,0,4.5-0.1,6.9-0.2c0.5,0.3,0.5,1.1,0.1,1.5l-1.6,0.1c-1.6,0.1-2.9,0.7-3.3,1.5
			c-0.9,2-0.9,9.1-0.9,12.6v7c0,5.4-0.9,11-4.6,14.8c-2.8,2.9-7.7,4.5-12.5,4.5c-4.5,0-9-0.8-12.2-3.4c-3.5-2.7-5.1-7.2-5.1-14.6
			v-14.6c0-6.4-0.1-7.5-3.9-7.8l-1.6-0.1c-0.4-0.2-0.3-1.3,0.1-1.5c3.3,0.1,5.5,0.2,8.1,0.2c2.7,0,4.8-0.1,8-0.2
			c0.4,0.2,0.5,1.2,0.1,1.5l-1.6,0.1c-3.8,0.3-3.9,1.4-3.9,7.8v13.3c0,9.9,3.3,16.5,13.3,16.5c9.5,0,13.1-7,13.1-16.4V267.8z"/>
		<path class="st1" d="M310.1,260.3c0-4.6-0.3-5.7-3.5-6l-2.3-0.2c-0.6-0.4-0.5-1.3,0.1-1.5c3.9-0.3,8.7-0.5,15.4-0.5
			c4.5,0,8.8,0.3,12,1.7c3.1,1.3,5.4,3.8,5.4,7.7c0,4.4-3,6.7-7.3,8.5c0,0.6,0.6,0.8,1.4,0.9c3.9,0.6,9.6,3.7,9.6,10.3
			c0,7.2-6.2,12-19,12c-2.1,0-5.6-0.2-8.6-0.2c-3.2,0-5.6,0.1-8.2,0.2c-0.4-0.2-0.6-1.2-0.1-1.5l1.3-0.2c3.8-0.6,3.9-1.2,3.9-7.7
			V260.3z M316,268.5c0,1.7,0.1,1.9,3.7,1.7c7.3-0.3,11.2-2.1,11.2-7.9c0-6-5.2-8.3-10.7-8.3c-1.6,0-2.6,0.1-3.3,0.4
			c-0.7,0.2-1,0.5-1,1.6V268.5z M316,282.8c0,2.2,0.1,5.4,1.5,6.7c1.4,1.4,3.5,1.7,5.7,1.7c6.4,0,11.2-2.5,11.2-8.6
			c0-4.9-2.9-10.6-14.2-10.6c-3.9,0-4.2,0.4-4.2,1.6V282.8z"/>
		<g>
			<path class="st1" d="M192.4,233.9l-1.7-0.2c-0.3,0-0.7-0.1-0.9-0.1c-2.5-0.4-3.5-2.7-4.7-4.7l-5.9-10.3c-1-1.7-2.1-4-4.5-4.4
				c6.1-0.7,11.6-4.2,11.6-10.2c0-6.9-6.9-10.1-13.8-10.1c-4.2,0-8.3,0.3-12.5,0.3c-2.3,0-4.8-0.3-7.2-0.3c-1.3,0-1.3,0.3-1.3,1
				c0,1.1,0.5,0.8,1.8,0.8c5.1,0,4.8,1.3,4.8,5.5v27c0,3.9,0.3,5-3.7,5.4c0,0-0.6,0.1-1,0.1l-1.7,0.2c-0.4,0.4-0.3,1.4,0.1,1.5
				c0.9,0,2.5-0.1,2.5-0.1c2.2-0.1,4.5-0.2,6.7-0.2c2.3,0,4.4,0.2,6.7,0.2v0c0.8,0,1.6,0.1,2.5,0.1c0.4-0.2,0.5-1.2,0.1-1.5
				l-1.7-0.2c-0.4,0-1-0.1-1-0.1c-4.1-0.3-3.9-1.4-3.9-5.4V218c0-0.6-0.1-2.2,0.4-2.7c0.4-0.4,1-0.3,1.6-0.3c5.6,0,5.5,0.5,8.1,5.2
				l7.2,12.9c0.6,1,1,2.2,2.5,2.2h6.2c0.8,0,1.6,0,2.5,0.1C192.6,235.2,192.8,234.2,192.4,233.9z M167.4,213.6
				c-1.2,0-3.7,0.5-3.7-1.2v-11.8c0-4.6,0.1-5.3,5.7-5.3c6.5,0,10.5,3.3,10.5,9.4c0,2.6-1,5.1-3.4,6.7
				C173.7,213.3,170.8,213.6,167.4,213.6z"/>
		</g>
		<g>
			<path class="st1" d="M168.7,261.7c0-6.5-0.1-7.5-4.4-7.8l-1.7-0.1c-0.4-0.2-0.3-1.4,0.1-1.5c3.8,0.1,6.1,0.2,8.8,0.2
				c2.6,0,5-0.1,8.4-0.2c0.4,0.2,0.5,1.3,0.1,1.5l-1.6,0.1c-4,0.3-4.1,1.3-4.1,7.8v21.5c0,3.9,0.2,5.5,1.4,6.7
				c0.7,0.7,2,1.4,7.4,1.4c5.8,0,7.2-0.2,8.3-0.8c1.4-0.7,3.1-3,4.5-6.1c0.4-0.3,1.7-0.1,1.7,0.4c0,0.7-1.9,7-2.9,8.6
				c-3.5-0.1-9.9-0.2-16.9-0.2h-6.2c-2.8,0-5,0.1-8.8,0.2c-0.4-0.2-0.5-1.2-0.1-1.5l2-0.2c3.9-0.4,4.1-1.2,4.1-7.7V261.7z"/>
			<path class="st1" d="M350.6,261.8c0-6.5-0.1-7.6-4.1-7.9l-1.7-0.1c-0.4-0.2-0.3-1.4,0.1-1.5c3.3,0.1,5.6,0.2,8.4,0.2
				c2.7,0,4.9-0.1,8.3-0.2c0.4,0.2,0.5,1.3,0.1,1.5l-1.7,0.1c-3.9,0.3-4.1,1.4-4.1,7.9v22c0,6.5,0.1,7.4,4.1,7.8l1.7,0.2
				c0.4,0.2,0.3,1.4-0.1,1.5c-3.3-0.1-5.6-0.2-8.3-0.2c-2.8,0-5.1,0.1-8.4,0.2c-0.4-0.2-0.5-1.2-0.1-1.5l1.7-0.2
				c3.9-0.4,4.1-1.3,4.1-7.8V261.8z"/>
			<path class="st1" d="M297.3,291.6c-0.3,0-1-0.1-1-0.1c-0.7-0.1-1.3-0.2-1.8-0.7c-0.9-0.9-0.8-3.5-0.8-4.6v-27
				c0-1.2-0.3-3.7,0.6-4.7c0.4-0.5,1.3-0.6,2.1-0.6v0c0.5,0,0.5,0,0.9-0.1l1.7-0.1c0.4-0.2,0.3-1.4-0.1-1.5c-0.9,0-1.7,0-2.5,0v0
				h-7.3c-0.8,0-1.5,0-1.9,0.8L272.3,284l-13.1-29.9c-0.4-1-0.5-1.9-1.9-1.9h-7.6c-0.8,0-1.7,0-2.6,0c-0.4,0.2-0.5,1.3-0.1,1.5
				l1.7,0.1c0.4,0,1,0.1,1,0.1c2.8,0.2,3,0.8,2.8,3.8l-2.2,29c-0.2,2.9-0.4,4.5-3.4,4.7c0,0-0.6,0.1-1,0.1l-1.7,0.2
				c-0.4,0.4-0.3,1.4,0.1,1.5c0.9,0,2.5-0.1,2.5-0.1c1.5-0.1,3.1-0.2,4.7-0.2c1.7,0,3.4,0.2,5.1,0.2v0c0.8,0,1.6,0.1,2.5,0.1
				c0.4-0.2,0.5-1.2,0.1-1.5l-1.7-0.2c-0.5,0-1-0.1-1-0.1c-4.4-0.3-4.3-3.4-4-7.2l2.1-27h0.5l14.2,33.2c0.1,0.5,0.4,1.2,1.1,1.2
				c0.6,0,0.9-0.7,1.1-1.2l16-34h0.5v29.7c0,1.2,0.1,3.6-1.1,4.5c-0.6,0.5-2.7,0.8-2.7,0.8c-0.3,0-0.6,0.1-0.9,0.1l-1.7,0.2
				c-0.4,0.4-0.3,1.4,0.1,1.5c0.9,0,2.5-0.1,2.5-0.1c2.3-0.1,4.7-0.2,7-0.2c1.7,0,5,0.2,5,0.2c0.8,0,1.7,0.1,2.6,0.1
				c0.4-0.2,0.5-1.2,0.1-1.5L297.3,291.6z"/>
			<g>
				<path class="st1" d="M408.6,291.8l-0.2-0.2c-0.3,0-0.6-0.1-0.9-0.1c-2.7-0.6-3.7-3.8-4.7-6.1L389,252.8c-0.1-0.4-0.4-1.2-1-1.2
					c-0.7,0-1,0.9-1.2,1.4l-13.1,32.4c-0.5,1.2-1.7,4.2-2.6,5.1c-0.7,0.7-1.6,0.8-2.5,0.9c0,0-0.7,0.1-1.1,0.1l-1.6,0.2
					c-0.4,0.4-0.3,1.4,0.1,1.5c0.9,0,2.5-0.1,2.5-0.1c1.8,0,3.6-0.3,5.4-0.3c1.5,0,3,0.2,4.5,0.2c0,0,1.6,0.1,2.5,0.1
					c0.4-0.2,0.5-1.2,0.1-1.5l-1.7-0.2c-0.3,0-0.9-0.1-0.9-0.1c-1.6-0.2-3.5-0.5-3.5-2.2c0-1.2,0.5-2.5,1-3.6l2-4.9
					c1-2.3,0.6-2.6,3.3-2.6h9.2c3.3,0,2.8,0,4.2,3.3l2.2,4.9c0.3,0.8,0.9,2.3,0.9,3.2c0,1.6-1.8,1.7-3.4,1.9c0,0-0.5,0-1,0.1
					l-1.7,0.1c-0.4,0.4-0.3,1.4,0.1,1.5c0.9,0,2.5-0.1,2.5-0.1c1.9-0.1,3.9-0.2,5.7-0.2c2.4,0,4.8,0.2,7.1,0.2l0,0
					c0.8,0,0.1,0,1,0.1C408.9,293.1,409,292.1,408.6,291.8z M390.6,276.5h-8c-0.3,0-2.5,0.3-2.5-0.4c0-0.2,0.1-0.6,0.2-0.8l4.8-11.9
					c0.1-0.3,0.6-2,1.2-2c0.4,0,1,1.7,1.1,2l4.7,11.1c0,0.1,0.5,1.2,0.5,1.4C392.7,276.7,391.1,276.5,390.6,276.5z"/>
			</g>
		</g>
	</g>
	<rect x="106.4" y="310.6" class="st2" width="262.7" height="3.1"/>
	<g>
		<path class="st3" d="M367,101.4C350.8,38.9,294.3,0.1,237.5,0.1c-59.6,0-115.4,39.7-130.8,105c-2.2,9.1-3.2,19.3-3.2,29
			c0,8.6,0.9,15.9,2.4,24.1c0,0,0,0,0,0c1.2-0.3,1.7-0.4,3-0.6c0,0,0,0,0,0c12.2-2.1,31.4-4.6,47.8-2.5c26.1,3.3,42.4,7.7,70,13.9
			c27.6,6.2,47.9,12.1,77.6,8.8c26-2.9,43.9-6.9,61.2-18.4c0,0,0,0,0,0c0,0,1.4-0.9,1.4-0.9c0.3-0.2,1.5-1.1,1.9-1.4
			c1.3-7.4,2.2-14.9,2.2-22.7l0,0C371,123.4,369.4,111.6,367,101.4"/>
		<path class="st1" d="M106.6,105.4c-1.1,5.3-3.2,15.3-3.2,28.6c0,8.6,0.9,15.9,2.4,24.1c0,0,0,0,0,0c1.2-0.3,1.7-0.4,3-0.6
			c0,0,0,0,0,0c12.2-2.1,31.4-4.6,47.8-2.5c26.1,3.3,42.4,7.7,70,13.9c27.6,6.2,47.9,12.1,77.6,8.8c26-2.9,43.9-6.9,61.2-18.4
			c0,0,0,0,0,0c0,0,1.4-0.9,1.4-0.9c0.3-0.2,1.5-1.1,1.9-1.4c1.3-7.4,2.2-14.9,2.2-22.7l0,0c0-10.5-1.4-21.8-3.7-31.7l-18.4-10.3
			l-21.3,14.9l-14.3-5.6c-4.9,2.5-34.8,22.5-34.8,22.5l-11.5-8.3l-12.3-2.4l-16.4-12l-18.9,13c0,0-21,12.2-21.8,12.2
			c-0.7,0-25.4-19.6-25.4-19.6l-11.4-12c-1.9,1.2-9.7,4.8-9.7,4.8l-0.4,0.1l-7.5-2.3l-9.1-4.8L106.6,105.4z"/>
		<polygon class="st2" points="346,92.2 318.9,102.2 327.5,105.1 		"/>
		<path class="st2" d="M130.1,92.5l-15.2-5.6c0.2-0.5,0.3-0.9,0.5-1.4l16.7,5.8l1.6-1l8,4.3l9.9,3.6l0.6-0.3l-35.4-15.9
			c0.2-0.5,0.4-0.9,0.6-1.4l39,15.6L157,96l-38-18.7c0.2-0.4,0.4-0.9,0.6-1.3l41.3,18l-39.6-21.3c0.2-0.4,0.4-0.8,0.6-1.2l55.6,29.4
			c0.8-1.5,1.6-2.9,2.5-4.3l-45.3-35.4l48.4,31c1.2-1.6,2.5-3.1,3.8-4.6l-46.5-42.2c0.3-0.4,0.7-0.7,1-1.1l33.8,29.9L144,41.7
			c0.4-0.4,0.7-0.7,1.1-1.1l35.3,33.8L147.7,38c0.4-0.3,0.7-0.7,1.1-1l31.6,32.2l-28.8-34.7c0.4-0.3,0.7-0.6,1.1-0.9l40.4,48
			c1.6-1.3,3.2-2.6,4.9-3.8l-28.8-49.9l33.3,47c1.8-1.1,3.7-2.1,5.6-3l-27.3-56.4c0.5-0.2,1-0.4,1.4-0.7l20.2,40.4l-16.8-41.9
			c0.5-0.2,0.9-0.4,1.4-0.6l20,44.7l-16.6-46c0.5-0.2,0.9-0.4,1.4-0.5L209,52.6l-13.7-43c0.4-0.1,0.8-0.3,1.2-0.4l19.4,59.4
			c1.8-0.6,3.6-1.1,5.5-1.6l-8-57.1l13.3,56c2.2-0.4,4.5-0.6,6.7-0.7L229.2,3c0.5,0,0.9-0.1,1.4-0.1l4.3,44.8l-0.6-44.9
			c0.5,0,1,0,1.5,0l1.8,47.1l1.8-47.1c0.5,0,1,0,1.5,0l-0.4,44.8L244.7,3c0.5,0,0.9,0.1,1.4,0.1l-4.2,62.2c2.2,0.1,4.3,0.4,6.4,0.7
			l13.2-55.8l-8,56.9c2,0.5,3.9,1,5.8,1.7l19.4-59.2c0.5,0.2,0.9,0.3,1.4,0.5l-13.6,42.6l17.1-41.3c0.5,0.2,0.9,0.3,1.4,0.5
			l-16.4,45.6l19.8-44.2c0.5,0.2,0.9,0.4,1.4,0.6l-16.6,41.4L293,15.4c0.4,0.2,0.8,0.4,1.3,0.6l-27.1,56c1.8,0.9,3.6,1.9,5.4,2.9
			l33.2-46.8L277,77.8c1.7,1.2,3.4,2.6,5,3.9L322,34.2c0.4,0.3,0.7,0.6,1.1,1l-28.5,34.3l31.2-31.9c0.4,0.3,0.7,0.7,1.1,1l-32.3,36
			l34.9-33.5c0.4,0.4,0.7,0.7,1.1,1.1l-30.9,32.1L333.2,45c0.3,0.3,0.6,0.7,0.9,1l-46.1,41.7c1.3,1.5,2.6,3,3.7,4.5l48.3-31
			l-45.2,35.3c0.9,1.4,1.7,2.9,2.5,4.4l55-29.1c0.2,0.4,0.5,0.9,0.7,1.3l-38.9,21l40.6-17.7c0.2,0.5,0.4,0.9,0.6,1.4l-43.1,21.2
			l44.6-17.9c0.2,0.5,0.4,1,0.6,1.4L317,100.8L358.8,86c0.2,0.4,0.3,0.9,0.5,1.3l-8.9,3.3l13.3,10.1l3.7,2.1c0,0,0,0,0,0h0
			c-1.4-5.6-3.5-12.5-5.6-17.8C341.8,34.4,291.5,0,237,0c-63.8,0-117.2,44.8-130.3,104.7h0c0,0.1-0.1,0.4-0.1,0.7l2.6-1.2
			L130.1,92.5z"/>
	</g>
	<g>
		<path class="st1" d="M105.6,362.7c-3.5,0-5.8-1.1-6.6-1.6c-0.5-0.9-1.1-4-1.1-6c0.2-0.3,0.8-0.4,1-0.1c0.6,2.2,2.4,6.4,7.2,6.4
			c3.5,0,5.3-2.4,5.3-4.9c0-1.9-0.4-4-3.5-6l-4-2.7c-2.1-1.4-4.6-3.9-4.6-7.4c0-4.1,3.1-7.4,8.6-7.4c1.3,0,2.8,0.3,3.9,0.6
			c0.5,0.2,1.1,0.3,1.5,0.3c0.4,1,0.8,3.4,0.8,5.2c-0.2,0.3-0.8,0.4-1.1,0.1c-0.5-2.1-1.7-4.9-5.7-4.9c-4.1,0-5,2.8-5,4.8
			c0,2.5,2,4.3,3.6,5.3l3.4,2.1c2.7,1.7,5.3,4.2,5.3,8.2C114.6,359.5,111.1,362.7,105.6,362.7z"/>
		<path class="st1" d="M122.4,355.7c0,3,0.7,4.9,3.9,4.9c1.1,0,2.5-0.5,3.4-1.3c0.5-0.5,0.8-1.2,0.8-2.5v-7c0-2.8-0.3-2.9-1.6-3.4
			l-0.5-0.2c-0.3-0.2-0.3-0.8,0-0.9c1.7,0,4-0.3,4.9-0.8c0.2,0,0.3,0.1,0.4,0.3c-0.1,0.8-0.1,2.1-0.1,3.7v7.2c0,3.4,0.1,4.7,1.3,4.7
			c0.5,0,1.1-0.1,1.6-0.2c0.3,0.2,0.3,1.1,0,1.2c-1.6,0.3-4.1,0.8-5.5,1.6c-0.2,0-0.4-0.1-0.5-0.3V361c0-0.4-0.1-0.6-0.4-0.6
			c-1.3,0.8-3.3,2.2-5.8,2.2c-3.7,0-5.1-1.9-5.1-5.4v-7.2c0-2.7,0-3.1-1.3-3.7l-0.5-0.2c-0.3-0.2-0.2-0.8,0.1-0.9
			c1.9,0,3.6-0.4,4.5-0.8c0.3,0,0.4,0.1,0.4,0.3c-0.1,0.7-0.1,1.6-0.1,3.7V355.7z"/>
		<path class="st1" d="M140.9,349.7c0-1.7,0-1.9-1.1-2.7l-0.4-0.3c-0.2-0.2-0.2-0.6,0-0.8c1.1-0.5,3.1-1.5,4.2-2.3
			c0.3,0,0.4,0.1,0.5,0.3c-0.1,0.8-0.2,1.4-0.2,2c0,0.3,0.1,0.6,0.4,0.6c0.5-0.3,3.2-2,5.9-2c4.3,0,7,3.5,7,7.9
			c0,6-4.3,10.3-10.3,10.3c-0.8,0-1.9-0.1-2.3-0.2c-0.4,0.1-0.6,0.3-0.6,1.2v4.5c0,3,0.1,3.4,1.6,3.7l1.6,0.2
			c0.3,0.2,0.2,0.9-0.1,1.1c-2-0.1-3.2-0.1-4.7-0.1c-1.5,0-2.8,0-4,0.1c-0.3-0.1-0.4-0.9-0.1-1.1l0.9-0.1c1.6-0.2,1.6-0.6,1.6-3.7
			V349.7z M144,357.7c0,1.4,0.4,1.9,1.3,2.6c0.8,0.6,2.1,0.9,3,0.9c3.5,0,5.5-3.3,5.5-7.7c0-3.4-1.9-6.9-5.7-6.9
			c-1.8,0-3.1,0.7-3.6,1.2c-0.4,0.5-0.5,1.1-0.5,2.5V357.7z"/>
		<path class="st1" d="M162.3,349.7c0-1.7,0-1.9-1.1-2.7l-0.4-0.3c-0.2-0.2-0.2-0.6,0-0.8c1.1-0.5,3.1-1.5,4.2-2.3
			c0.3,0,0.4,0.1,0.5,0.3c-0.1,0.8-0.2,1.4-0.2,2c0,0.3,0.1,0.6,0.4,0.6c0.5-0.3,3.2-2,5.9-2c4.3,0,7,3.5,7,7.9
			c0,6-4.3,10.3-10.3,10.3c-0.8,0-1.9-0.1-2.3-0.2c-0.4,0.1-0.6,0.3-0.6,1.2v4.5c0,3,0.1,3.4,1.6,3.7l1.6,0.2
			c0.3,0.2,0.2,0.9-0.1,1.1c-2-0.1-3.2-0.1-4.7-0.1c-1.5,0-2.8,0-4,0.1c-0.3-0.1-0.4-0.9-0.1-1.1l0.9-0.1c1.6-0.2,1.6-0.6,1.6-3.7
			V349.7z M165.4,357.7c0,1.4,0.4,1.9,1.3,2.6c0.8,0.6,2.1,0.9,3,0.9c3.5,0,5.5-3.3,5.5-7.7c0-3.4-1.9-6.9-5.7-6.9
			c-1.8,0-3.1,0.7-3.6,1.2c-0.4,0.5-0.5,1.1-0.5,2.5V357.7z"/>
		<path class="st1" d="M199,353.4c0,5.4-3.6,9.2-8.9,9.2c-4.8,0-8.6-3.5-8.6-8.8c0-5.4,4-9.3,9-9.3C195.2,344.5,199,348.1,199,353.4
			z M190,345.8c-2.8,0-4.8,2.7-4.8,7.4c0,3.9,1.7,8.1,5.4,8.1c3.7,0,4.8-4,4.8-7.3C195.4,350.4,194,345.8,190,345.8z"/>
		<path class="st1" d="M204.6,349.7c0-1.7,0-1.9-1.1-2.7l-0.4-0.3c-0.2-0.2-0.2-0.6,0-0.8c1-0.3,3.2-1.5,4.3-2.1
			c0.2,0,0.3,0.1,0.3,0.3v2.5c0,0.2,0,0.3,0.1,0.4c1.5-1.2,3.1-2.6,4.6-2.6c1.1,0,1.9,0.7,1.9,1.7c0,1.4-1.1,2-1.8,2
			c-0.4,0-0.6-0.1-0.9-0.3c-0.6-0.4-1.3-0.7-1.9-0.7c-0.7,0-1.2,0.4-1.5,0.9c-0.4,0.6-0.5,1.8-0.5,3.3v5.8c0,3.1,0.1,3.6,1.7,3.7
			l1.5,0.1c0.3,0.2,0.2,0.9-0.1,1.1c-2-0.1-3.2-0.1-4.7-0.1c-1.5,0-2.8,0-3.9,0.1c-0.3-0.1-0.4-0.9-0.1-1.1l0.8-0.1
			c1.6-0.3,1.6-0.6,1.6-3.7V349.7z"/>
		<path class="st1" d="M222.4,346.9c-0.7,0-0.8,0.1-0.8,1v8c0,2.5,0.3,4.8,3.1,4.8c0.4,0,0.8-0.1,1.1-0.2c0.4-0.1,0.9-0.6,1.1-0.6
			c0.3,0,0.5,0.5,0.4,0.7c-0.8,0.9-2.3,2-4.4,2c-3.6,0-4.4-2.1-4.4-4.6v-9.8c0-1.2,0-1.2-0.9-1.2h-1.2c-0.3-0.2-0.3-0.6-0.1-0.9
			c1.2-0.4,2.3-0.9,2.7-1.3c0.5-0.5,1.3-1.7,1.8-2.5c0.2-0.1,0.7-0.1,0.9,0.2v1.9c0,0.8,0,0.8,0.8,0.8h4.7c0.5,0.4,0.4,1.5,0,1.8
			H222.4z"/>
		<path class="st1" d="M233.3,351c-1.1,0-1.1,0.1-1.1,1.2c0,4.3,2.5,8,7,8c1.4,0,2.6-0.4,3.9-2.1c0.4-0.1,0.7,0.1,0.8,0.5
			c-1.4,2.9-4.4,4-6.6,4c-2.7,0-4.9-1.2-6.1-2.8c-1.3-1.7-1.8-3.7-1.8-5.6c0-5.3,3.4-9.7,8.5-9.7c3.6,0,6,2.5,6,5.1
			c0,0.6-0.1,0.9-0.2,1.1c-0.1,0.3-0.7,0.3-2.5,0.3H233.3z M235.9,349.7c3.1,0,4-0.2,4.4-0.4c0.1-0.1,0.3-0.3,0.3-0.8
			c0-1.2-0.8-2.7-3.2-2.7c-2.5,0-4.6,2.3-4.7,3.7c0,0.1,0,0.2,0.3,0.2H235.9z"/>
		<path class="st1" d="M262.3,355.7c0,3.4,0,5,1.2,5c0.5,0,1.2-0.2,1.8-0.4c0.3,0.1,0.3,1.2,0,1.4c-1.8,0.3-4.4,0.9-5.6,1.4
			c-0.3,0-0.5-0.1-0.5-0.3V362c0-0.6,0-1.2-0.1-1.3H259c-1.9,1.3-3.3,2-5.3,2c-4.7,0-7.8-3.7-7.8-8.2c0-6,4.5-9.9,10.2-9.9
			c1.4,0,2.4,0.2,2.8,0.4c0.2,0,0.3-0.3,0.3-0.6v-6.5c0-2.5,0-2.8-1.3-3.6l-0.4-0.3c-0.2-0.1-0.2-0.7,0-0.9c1.1-0.3,3-1,4.6-1.8
			c0.2,0,0.3,0.1,0.4,0.3c0,1.3-0.1,3.4-0.1,5.3V355.7z M259.2,349.3c0-0.9-0.2-1.2-0.5-1.7c-0.6-0.9-1.9-1.8-3.5-1.8
			c-3.8,0-5.8,3.4-5.8,7.1c0,3.9,2.2,7.6,6.3,7.6c1.1,0,2.6-0.5,3.2-1.2c0.3-0.3,0.3-0.9,0.3-1.6V349.3z"/>
		<path class="st1" d="M279.6,337.8c0-2.5,0-2.8-1.3-3.6l-0.4-0.3c-0.2-0.1-0.2-0.7,0-0.9c1-0.4,3-0.9,4.6-1.8
			c0.2,0,0.3,0.1,0.4,0.3c-0.1,1.5-0.2,3.4-0.2,5.3v8.1c0,0.7,0.2,0.9,0.4,0.9c1.1-0.6,2.8-1.4,4.8-1.4c4.8,0,8,3.7,8,8.4
			c0,5.7-4,9.7-9.7,9.7c-1.6,0-2.7-0.3-3.6-0.6c-0.9-0.3-1.4-0.6-1.8-0.6c-0.3,0-0.7,0.3-0.9,0.6c0,0-0.1,0-0.2,0
			c-0.2,0-0.3-0.1-0.4-0.3c0-0.6,0.1-1.4,0.1-3.7V337.8z M282.7,356.2c0,1.5,0.3,2.8,1.1,3.7c0.7,0.9,1.9,1.4,3.2,1.4
			c4,0,5.5-3.4,5.5-7.1c0-4.4-2.2-7.9-6.4-7.9c-1.3,0-2.3,0.3-2.9,0.7c-0.4,0.3-0.5,0.8-0.5,2.4V356.2z"/>
		<path class="st1" d="M298.3,370.9c0-1.2,0.8-1.7,1.7-1.7h0.8c0.7,0,1.1-0.3,1.4-0.8c1.2-1.9,2.1-3.7,2.4-4.8
			c0.1-0.3,0.4-1.2,0.4-1.8c0-0.9-0.2-1.4-0.7-3l-3.3-9.2c-0.7-2-1-3-2.5-3.4l-1.1-0.2c-0.3-0.2-0.2-0.9,0.1-1.1
			c1.3,0.1,2.6,0.1,4,0.1c1.1,0,2.3,0,3.7-0.1c0.3,0.1,0.4,0.9,0.1,1.1l-1.1,0.2c-0.6,0.1-0.9,0.3-0.9,0.6c0,0.5,1,3.3,1.2,4l1.3,4
			c0.3,0.7,1.1,3,1.2,3c0.1-0.1,0.8-1.4,1.6-3.2l1.4-3.4c0.9-2.2,1.5-3.8,1.5-4.3c0-0.3-0.3-0.6-1-0.7l-1.3-0.2
			c-0.3-0.2-0.3-0.9,0.1-1.1c1.3,0.1,2.6,0.1,3.7,0.1c1.1,0,2,0,3.2-0.1c0.3,0.2,0.4,0.8,0.1,1.1l-0.7,0.1c-1.4,0.3-2.1,1.5-3.6,4.6
			l-2.4,4.9c-1.4,2.9-4.8,10.4-6.9,15c-0.7,1.6-1.7,2-2.7,2C298.9,372.7,298.3,371.9,298.3,370.9z"/>
		<path class="st1" d="M333.8,346.9c-0.7,0-0.8,0.1-0.8,1v8c0,2.5,0.3,4.8,3.1,4.8c0.4,0,0.8-0.1,1.1-0.2c0.4-0.1,0.9-0.6,1.1-0.6
			c0.3,0,0.5,0.5,0.4,0.7c-0.8,0.9-2.3,2-4.4,2c-3.6,0-4.4-2.1-4.4-4.6v-9.8c0-1.2,0-1.2-0.9-1.2h-1.2c-0.3-0.2-0.3-0.6-0.1-0.9
			c1.2-0.4,2.3-0.9,2.7-1.3c0.5-0.5,1.3-1.7,1.8-2.5c0.2-0.1,0.7-0.1,0.9,0.2v1.9c0,0.8,0,0.8,0.8,0.8h4.7c0.5,0.4,0.4,1.5,0,1.8
			H333.8z"/>
		<path class="st1" d="M342.9,337.8c0-2.5,0-2.8-1.3-3.6l-0.4-0.3c-0.2-0.1-0.2-0.7,0-0.9c1.1-0.3,3-1,4.5-1.8
			c0.2,0,0.3,0.1,0.4,0.3c0,1.3-0.1,3.4-0.1,5.3v9c0,0.4,0,0.7,0.2,0.8c1.5-1.2,3.5-2.2,5.7-2.2c4,0,5.4,2.5,5.4,5.5v7.2
			c0,3.1,0.1,3.6,1.6,3.7l1.1,0.1c0.3,0.2,0.2,0.9-0.1,1.1c-1.5-0.1-2.7-0.1-4.2-0.1c-1.5,0-2.8,0-3.9,0.1c-0.3-0.1-0.4-0.9-0.1-1.1
			l0.8-0.1c1.6-0.3,1.6-0.6,1.6-3.7v-6.1c0-2.7-1.3-4.6-4-4.6c-1.4,0-2.5,0.5-3.3,1.2c-0.8,0.6-0.9,0.9-0.9,2.4v7.2
			c0,3.1,0.1,3.5,1.6,3.7l0.9,0.1c0.3,0.2,0.2,0.9-0.1,1.1c-1.3-0.1-2.5-0.1-4-0.1c-1.5,0-2.8,0-4.1,0.1c-0.3-0.1-0.4-0.9-0.1-1.1
			l1.1-0.1c1.6-0.2,1.6-0.6,1.6-3.7V337.8z"/>
		<path class="st1" d="M366.4,351c-1.1,0-1.1,0.1-1.1,1.2c0,4.3,2.5,8,7,8c1.4,0,2.6-0.4,3.9-2.1c0.4-0.1,0.7,0.1,0.8,0.5
			c-1.4,2.9-4.4,4-6.6,4c-2.7,0-4.9-1.2-6.1-2.8c-1.3-1.7-1.8-3.7-1.8-5.6c0-5.3,3.4-9.7,8.5-9.7c3.6,0,6,2.5,6,5.1
			c0,0.6-0.1,0.9-0.2,1.1c-0.1,0.3-0.7,0.3-2.5,0.3H366.4z M369,349.7c3.1,0,4-0.2,4.4-0.4c0.1-0.1,0.3-0.3,0.3-0.8
			c0-1.2-0.8-2.7-3.2-2.7c-2.5,0-4.6,2.3-4.7,3.7c0,0.1,0,0.2,0.3,0.2H369z"/>
	</g>
	<g>
		<path class="st1" d="M7.1,405.7c0,4.4,0.1,5,2.8,5.3l1.1,0.1c0.3,0.2,0.2,0.9-0.1,1.1C8.6,412,7.2,412,5.5,412
			c-1.8,0-3.3,0-5.1,0.1c-0.3-0.1-0.3-0.8-0.1-1.1l0.9-0.1c2.4-0.3,2.5-0.8,2.5-5.3v-15.5c0-3.6-0.1-4.3-2-4.5l-1.5-0.2
			c-0.3-0.3-0.3-0.9,0.1-1.1c2.2-0.3,4.8-0.3,8.3-0.3s6.1,0.5,8.1,1.7c1.9,1.2,3.4,3.4,3.4,6.3c0,3.9-2.4,5.8-4.2,6.7
			c-1.9,0.9-4.1,1.3-5.8,1.3c-0.3-0.1-0.3-0.8,0-0.8c4.6-0.8,6.2-3.4,6.2-7.1c0-4.1-2.4-6.7-6.8-6.7c-2.2,0-2.3,0.2-2.3,1.5V405.7z"
			/>
		<path class="st1" d="M24.3,399.9c0-1.6,0-1.9-1.1-2.6l-0.4-0.3c-0.2-0.2-0.2-0.6,0-0.8c1-0.3,3.2-1.4,4.3-2.1
			c0.2,0,0.3,0.1,0.3,0.3v2.4c0,0.2,0,0.3,0.1,0.4c1.5-1.2,3.1-2.5,4.6-2.5c1.1,0,1.9,0.7,1.9,1.7c0,1.4-1.1,1.9-1.8,1.9
			c-0.4,0-0.6-0.1-0.9-0.3c-0.6-0.4-1.3-0.7-1.9-0.7c-0.7,0-1.2,0.4-1.5,0.8c-0.4,0.6-0.5,1.8-0.5,3.2v5.7c0,3,0.1,3.5,1.7,3.7
			l1.5,0.1c0.3,0.2,0.2,0.9-0.1,1.1c-2-0.1-3.2-0.1-4.7-0.1c-1.5,0-2.8,0-3.9,0.1c-0.3-0.1-0.4-0.8-0.1-1.1l0.8-0.1
			c1.6-0.3,1.6-0.6,1.6-3.7V399.9z"/>
		<path class="st1" d="M52.9,403.5c0,5.3-3.6,9.1-8.9,9.1c-4.8,0-8.6-3.4-8.6-8.7c0-5.3,4-9.1,9-9.1
			C49.1,394.8,52.9,398.3,52.9,403.5z M43.8,396.1c-2.8,0-4.8,2.7-4.8,7.3c0,3.8,1.7,8,5.4,8c3.7,0,4.8-3.9,4.8-7.1
			C49.3,400.6,47.8,396.1,43.8,396.1z"/>
		<path class="st1" d="M57.2,399.6c-0.6-1.6-1-2.9-2.5-3.1l-0.8-0.1c-0.3-0.3-0.2-0.9,0.1-1.1c1.1,0.1,2.5,0.1,4,0.1
			c1.1,0,2,0,3.4-0.1c0.3,0.2,0.3,0.8,0,1.1l-0.5,0.1c-1.3,0.2-1.3,0.4-0.9,1.7c1,2.9,2.2,5.9,3.2,8c0.4,0.8,0.5,1.2,0.7,1.3
			c0.2-0.1,0.5-0.7,0.8-1.6c0.5-1.4,2-5.1,2.4-6.2c0.6-1.5,0.8-2.4,0.8-2.6c0-0.4-0.3-0.5-0.8-0.6l-1-0.1c-0.3-0.3-0.2-0.9,0.1-1.1
			c1.3,0.1,2.4,0.1,3.2,0.1c1.1,0,1.8,0,2.9-0.1c0.3,0.2,0.3,0.8,0.1,1.1l-0.6,0.1c-1.5,0.2-1.9,1.3-3.1,3.7c-0.6,1.1-3.2,7.2-3.9,9
			c-0.4,1.1-0.8,2-1.4,3.5c-0.1,0.1-0.3,0.2-0.4,0.2c-0.2,0-0.4,0-0.5-0.2c-0.3-1.2-1-2.8-1.6-4.4L57.2,399.6z"/>
		<path class="st1" d="M76,399.9c0-1.6,0-1.9-1.1-2.6l-0.4-0.3c-0.2-0.2-0.2-0.6,0-0.8c1-0.3,3.4-1.4,4.3-2.1c0.2,0,0.4,0.1,0.4,0.3
			c-0.1,1.5-0.2,3.5-0.2,5.2v7.6c0,3,0.1,3.5,1.6,3.7l0.9,0.1c0.3,0.2,0.2,0.9-0.1,1.1c-1.3-0.1-2.5-0.1-4-0.1c-1.5,0-2.8,0-4,0.1
			c-0.3-0.1-0.4-0.8-0.1-1.1l0.9-0.1c1.6-0.2,1.6-0.6,1.6-3.7V399.9z M79.5,387.9c0,1.5-1.1,2.2-2.2,2.2c-1.3,0-2.1-1-2.1-2.1
			c0-1.4,1-2.3,2.3-2.3C78.7,385.7,79.5,386.7,79.5,387.9z"/>
		<path class="st1" d="M86.9,399.9c0-1.6,0-1.9-1.1-2.6l-0.4-0.3c-0.2-0.2-0.2-0.6,0-0.8c1-0.3,3.4-1.4,4.2-2.1
			c0.2,0,0.4,0.1,0.5,0.3c-0.1,1-0.1,1.6-0.1,2c0,0.3,0.2,0.5,0.5,0.5c1.8-1.1,3.8-2.1,5.9-2.1c3.5,0,4.9,2.4,4.9,5.2v7.2
			c0,3,0.1,3.5,1.6,3.7l0.9,0.1c0.3,0.2,0.2,0.9-0.1,1.1c-1.3-0.1-2.5-0.1-4-0.1c-1.5,0-2.8,0-3.9,0.1c-0.3-0.1-0.4-0.8-0.1-1.1
			l0.8-0.1c1.6-0.3,1.6-0.6,1.6-3.7V401c0-2.4-1.1-4.2-4-4.2c-1.6,0-3,0.7-3.6,1.5c-0.5,0.7-0.6,1.3-0.6,2.5v6.4
			c0,3,0.1,3.4,1.6,3.7l0.8,0.1c0.3,0.2,0.2,0.9-0.1,1.1c-1.1-0.1-2.4-0.1-3.8-0.1c-1.5,0-2.8,0-4,0.1c-0.3-0.1-0.4-0.8-0.1-1.1
			l0.9-0.1c1.6-0.2,1.6-0.6,1.6-3.7V399.9z"/>
		<path class="st1" d="M120.3,395.5c0.3,0.3,0.6,1,0.6,1.7c0,0.8-0.4,1.6-0.9,1.6c-0.2,0-0.4-0.1-0.6-0.3c-0.9-1.1-2.5-2.2-4.2-2.2
			c-2.9,0-5.8,2.3-5.8,6.8c0,3.3,2.3,7.2,6.8,7.2c2.4,0,3.7-1.1,4.7-2.5c0.3-0.1,0.7,0.2,0.8,0.6c-1.4,3.1-4.6,4.3-7,4.3
			c-2.2,0-4.3-0.7-5.8-2.1c-1.5-1.4-2.4-3.5-2.4-6.2c0-4.5,3.2-9.4,10.2-9.4C117.5,394.8,119.2,395,120.3,395.5z"/>
		<path class="st1" d="M127.2,401.2c-1.1,0-1.1,0.1-1.1,1.1c0,4.3,2.5,7.9,7,7.9c1.4,0,2.6-0.4,3.9-2.1c0.4-0.1,0.7,0.1,0.8,0.5
			c-1.4,2.9-4.4,3.9-6.6,3.9c-2.7,0-4.9-1.2-6.1-2.8c-1.3-1.6-1.8-3.6-1.8-5.5c0-5.2,3.4-9.5,8.5-9.5c3.6,0,6,2.5,6,5
			c0,0.6-0.1,0.9-0.2,1.1c-0.1,0.3-0.7,0.3-2.5,0.3H127.2z M129.8,399.9c3.1,0,4-0.2,4.4-0.4c0.1-0.1,0.3-0.3,0.3-0.8
			c0-1.2-0.8-2.7-3.2-2.7c-2.5,0-4.6,2.3-4.7,3.7c0,0.1,0,0.2,0.3,0.2H129.8z"/>
		<path class="st1" d="M167.9,403.5c0,5.3-3.6,9.1-8.9,9.1c-4.8,0-8.6-3.4-8.6-8.7c0-5.3,4-9.1,9-9.1
			C164.1,394.8,167.9,398.3,167.9,403.5z M158.9,396.1c-2.8,0-4.8,2.7-4.8,7.3c0,3.8,1.7,8,5.4,8c3.7,0,4.8-3.9,4.8-7.1
			C164.3,400.6,162.9,396.1,158.9,396.1z"/>
		<path class="st1" d="M177.2,397.2c-0.7,0-0.7,0.1-0.7,1.2v8.9c0,3,0.1,3.5,1.6,3.7l1.5,0.1c0.3,0.2,0.2,0.9-0.1,1.1
			c-1.9-0.1-3.1-0.1-4.6-0.1c-1.5,0-2.8,0-4,0.1c-0.3-0.1-0.4-0.8-0.1-1.1l1-0.1c1.6-0.2,1.6-0.6,1.6-3.7v-8.9c0-1.1,0-1.2-0.8-1.2
			h-1.5c-0.3-0.2-0.3-0.5-0.1-0.8l1.8-0.9c0.3-0.2,0.6-0.4,0.6-0.8c0-2.4,0.3-5.1,1.3-7.4c1.1-2.4,3.4-5.4,7.6-5.4
			c2.2,0,4.1,1,4.1,2.5c0,0.8-0.8,1.5-1.6,1.5c-0.5,0-0.7-0.2-1-0.5c-0.8-0.9-2-1.9-3.4-1.9c-1.3,0-2.4,0.8-3,2.3
			c-0.8,1.9-0.9,5-0.9,7.1v1.2c0,1.1,0,1.2,0.7,1.2h4.8c0.5,0.4,0.2,1.6-0.3,1.8H177.2z"/>
		<path class="st1" d="M197.5,389.7c0-3.1-0.2-3.9-2.1-4.1l-1.3-0.1c-0.3-0.3-0.3-0.9,0-1.1c2.3-0.2,5.1-0.3,9.1-0.3
			c2.7,0,5.2,0.2,7.1,1.2c1.8,0.9,3.2,2.6,3.2,5.3c0,3-1.8,4.6-4.3,5.8c0,0.4,0.3,0.5,0.8,0.6c2.3,0.4,5.6,2.5,5.6,7
			c0,4.9-3.6,8.2-11.2,8.2c-1.2,0-3.3-0.1-5.1-0.1c-1.9,0-3.3,0.1-4.8,0.1c-0.3-0.1-0.3-0.8-0.1-1.1l0.8-0.1
			c2.2-0.4,2.3-0.8,2.3-5.3V389.7z M201,395.3c0,1.2,0,1.3,2.2,1.2c4.3-0.2,6.6-1.4,6.6-5.4c0-4.1-3.1-5.7-6.3-5.7
			c-0.9,0-1.6,0.1-1.9,0.3c-0.4,0.1-0.6,0.3-0.6,1.1V395.3z M201,405c0,1.5,0.1,3.7,0.9,4.6c0.8,1,2.1,1.2,3.3,1.2
			c3.7,0,6.6-1.7,6.6-5.9c0-3.3-1.7-7.2-8.4-7.2c-2.3,0-2.4,0.3-2.4,1.1V405z"/>
		<path class="st1" d="M221.3,399.9c0-1.6,0-1.9-1.1-2.6l-0.4-0.3c-0.2-0.2-0.2-0.6,0-0.8c1-0.3,3.2-1.4,4.3-2.1
			c0.2,0,0.3,0.1,0.3,0.3v2.4c0,0.2,0,0.3,0.1,0.4c1.5-1.2,3.1-2.5,4.6-2.5c1.1,0,1.9,0.7,1.9,1.7c0,1.4-1.1,1.9-1.8,1.9
			c-0.4,0-0.6-0.1-0.9-0.3c-0.6-0.4-1.3-0.7-1.9-0.7c-0.7,0-1.2,0.4-1.5,0.8c-0.4,0.6-0.5,1.8-0.5,3.2v5.7c0,3,0.1,3.5,1.7,3.7
			l1.5,0.1c0.3,0.2,0.2,0.9-0.1,1.1c-2-0.1-3.2-0.1-4.7-0.1c-1.5,0-2.8,0-3.9,0.1c-0.3-0.1-0.4-0.8-0.1-1.1l0.8-0.1
			c1.6-0.3,1.6-0.6,1.6-3.7V399.9z"/>
		<path class="st1" d="M235.3,399.9c0-1.6,0-1.9-1.1-2.6l-0.4-0.3c-0.2-0.2-0.2-0.6,0-0.8c1-0.3,3.4-1.4,4.3-2.1
			c0.2,0,0.4,0.1,0.4,0.3c-0.1,1.5-0.2,3.5-0.2,5.2v7.6c0,3,0.1,3.5,1.6,3.7l0.9,0.1c0.3,0.2,0.2,0.9-0.1,1.1
			c-1.3-0.1-2.5-0.1-4-0.1c-1.5,0-2.8,0-4,0.1c-0.3-0.1-0.4-0.8-0.1-1.1l0.9-0.1c1.6-0.2,1.6-0.6,1.6-3.7V399.9z M238.8,387.9
			c0,1.5-1.1,2.2-2.2,2.2c-1.3,0-2.1-1-2.1-2.1c0-1.4,1-2.3,2.3-2.3C237.9,385.7,238.8,386.7,238.8,387.9z"/>
		<path class="st1" d="M249.5,397.2c-0.7,0-0.8,0.1-0.8,1v7.9c0,2.4,0.3,4.7,3.1,4.7c0.4,0,0.8-0.1,1.1-0.2c0.4-0.1,0.9-0.6,1.1-0.6
			c0.3,0,0.5,0.5,0.4,0.7c-0.8,0.9-2.3,1.9-4.4,1.9c-3.6,0-4.4-2-4.4-4.5v-9.6c0-1.1,0-1.2-0.9-1.2h-1.2c-0.3-0.2-0.3-0.6-0.1-0.9
			c1.2-0.4,2.3-0.9,2.7-1.3c0.5-0.5,1.3-1.6,1.8-2.5c0.2-0.1,0.7-0.1,0.9,0.2v1.9c0,0.8,0,0.8,0.8,0.8h4.7c0.5,0.4,0.4,1.5,0,1.8
			H249.5z"/>
		<path class="st1" d="M259,399.9c0-1.6,0-1.9-1.1-2.6l-0.4-0.3c-0.2-0.2-0.2-0.6,0-0.8c1-0.3,3.4-1.4,4.3-2.1
			c0.2,0,0.4,0.1,0.4,0.3c-0.1,1.5-0.2,3.5-0.2,5.2v7.6c0,3,0.1,3.5,1.6,3.7l0.9,0.1c0.3,0.2,0.2,0.9-0.1,1.1
			c-1.3-0.1-2.5-0.1-4-0.1c-1.5,0-2.8,0-4,0.1c-0.3-0.1-0.4-0.8-0.1-1.1l0.9-0.1c1.6-0.2,1.6-0.6,1.6-3.7V399.9z M262.5,387.9
			c0,1.5-1.1,2.2-2.2,2.2c-1.3,0-2.1-1-2.1-2.1c0-1.4,1-2.3,2.3-2.3C261.7,385.7,262.5,386.7,262.5,387.9z"/>
		<path class="st1" d="M277.3,395.6c0.4,0.9,0.7,2.3,0.7,3.4c-0.2,0.3-0.8,0.4-1,0.1c-0.7-1.9-2-3.1-3.7-3.1c-1.6,0-2.7,1.1-2.7,2.6
			c0,1.7,1.8,2.7,3.2,3.5c2.2,1.3,4.3,2.7,4.3,5.7c0,3.2-2.9,4.8-6.1,4.8c-2,0-3.5-0.4-4.5-1.3c-0.3-0.8-0.6-2.9-0.5-4.3
			c0.2-0.3,0.8-0.3,1,0c0.7,2.3,2.1,4.3,4.5,4.3c1.5,0,2.8-0.9,2.8-2.7c0-1.9-1.7-3-3.2-3.9c-2.4-1.4-4.2-2.9-4.2-5.2
			c0-3.1,2.5-4.8,5.7-4.8C275.3,394.8,276.9,395.2,277.3,395.6z"/>
		<path class="st1" d="M283,388.2c0-2.5,0-2.7-1.3-3.5l-0.4-0.3c-0.2-0.1-0.2-0.7,0-0.8c1.1-0.3,3-1,4.5-1.8c0.2,0,0.3,0.1,0.4,0.3
			c0,1.3-0.1,3.4-0.1,5.2v8.8c0,0.4,0,0.7,0.2,0.8c1.5-1.2,3.5-2.2,5.7-2.2c4,0,5.4,2.5,5.4,5.4v7c0,3,0.1,3.5,1.6,3.7l1.1,0.1
			c0.3,0.2,0.2,0.9-0.1,1.1c-1.5-0.1-2.7-0.1-4.2-0.1c-1.5,0-2.8,0-3.9,0.1c-0.3-0.1-0.4-0.8-0.1-1.1l0.8-0.1
			c1.6-0.3,1.6-0.6,1.6-3.7v-6c0-2.7-1.3-4.5-4-4.5c-1.4,0-2.5,0.5-3.3,1.1c-0.8,0.6-0.9,0.8-0.9,2.3v7.1c0,3,0.1,3.5,1.6,3.7
			l0.9,0.1c0.3,0.2,0.2,0.9-0.1,1.1c-1.3-0.1-2.5-0.1-4-0.1c-1.5,0-2.8,0-4.1,0.1c-0.3-0.1-0.4-0.8-0.1-1.1l1.1-0.1
			c1.6-0.2,1.6-0.6,1.6-3.7V388.2z"/>
		<path class="st1" d="M318.7,387.1c3.1-2.4,7-3.6,11.4-3.6c2.3,0,5.5,0.5,7.5,1c0.5,0.1,0.8,0.2,1.2,0.2c0,1,0.3,3.6,0.6,6.2
			c-0.2,0.3-0.8,0.3-1.1,0.1c-0.6-2.9-2.5-6.2-8.6-6.2c-6.4,0-11.9,4.1-11.9,12.8c0,8.8,5.6,13.7,12.5,13.7c5.4,0,7.8-3.5,8.8-6
			c0.3-0.2,0.9-0.1,1.1,0.2c-0.3,2.2-1.4,5-2,5.8c-0.5,0.1-1,0.3-1.5,0.4c-0.9,0.3-4,1-6.7,1c-3.8,0-7.4-0.8-10.5-2.8
			c-3.4-2.3-6-6.2-6-11.6C313.4,393.6,315.5,389.6,318.7,387.1z"/>
		<path class="st1" d="M359.9,403.5c0,5.3-3.6,9.1-8.9,9.1c-4.8,0-8.6-3.4-8.6-8.7c0-5.3,4-9.1,9-9.1
			C356.1,394.8,359.9,398.3,359.9,403.5z M350.8,396.1c-2.8,0-4.8,2.7-4.8,7.3c0,3.8,1.7,8,5.4,8c3.7,0,4.8-3.9,4.8-7.1
			C356.3,400.6,354.8,396.1,350.8,396.1z"/>
		<path class="st1" d="M368.2,407.3c0,3,0.1,3.5,1.6,3.7l1,0.1c0.3,0.2,0.2,0.9-0.1,1.1c-1.4-0.1-2.6-0.1-4.1-0.1
			c-1.5,0-2.8,0-4,0.1c-0.3-0.1-0.4-0.8-0.1-1.1l1-0.1c1.6-0.2,1.6-0.6,1.6-3.7v-19c0-2.5,0-2.7-1.3-3.5l-0.4-0.3
			c-0.2-0.1-0.2-0.7,0-0.8c1.1-0.3,3-1,4.5-1.8c0.2,0,0.3,0.1,0.4,0.3c0,1.3-0.1,3.4-0.1,5.2V407.3z"/>
		<path class="st1" d="M378.5,405.8c0,2.9,0.7,4.8,3.9,4.8c1.1,0,2.5-0.5,3.4-1.3c0.5-0.5,0.8-1.1,0.8-2.4V400
			c0-2.7-0.3-2.8-1.6-3.3l-0.5-0.2c-0.3-0.2-0.3-0.8,0-0.9c1.7,0,4-0.3,4.9-0.8c0.2,0,0.3,0.1,0.4,0.3c-0.1,0.8-0.1,2.1-0.1,3.7v7.1
			c0,3.3,0.1,4.6,1.3,4.6c0.5,0,1.1-0.1,1.6-0.2c0.3,0.2,0.3,1.1,0,1.2c-1.6,0.3-4.1,0.8-5.5,1.6c-0.2,0-0.4-0.1-0.5-0.3V411
			c0-0.4-0.1-0.6-0.4-0.6c-1.3,0.8-3.3,2.2-5.8,2.2c-3.7,0-5.1-1.9-5.1-5.3v-7c0-2.7,0-3-1.3-3.6l-0.5-0.2c-0.3-0.2-0.2-0.8,0.1-0.9
			c1.9,0,3.6-0.4,4.5-0.8c0.3,0,0.4,0.1,0.4,0.3c-0.1,0.7-0.1,1.6-0.1,3.7V405.8z"/>
		<path class="st1" d="M419.8,401.2c0-2.9-1.3-4.3-3.9-4.3c-1.6,0-2.9,0.7-3.5,1.5c-0.5,0.6-0.6,1.1-0.6,2.5v6.4
			c0,3,0.1,3.5,1.6,3.7l0.9,0.1c0.3,0.2,0.2,0.9-0.1,1.1c-1.3-0.1-2.5-0.1-4-0.1c-1.5,0-2.7,0-3.8,0.1c-0.3-0.1-0.4-0.8-0.1-1.1
			l0.8-0.1c1.6-0.3,1.6-0.6,1.6-3.7v-6.1c0-2.8-1.3-4.3-3.9-4.3c-1.7,0-2.9,0.8-3.5,1.5c-0.4,0.5-0.6,1.1-0.6,2.4v6.5
			c0,3,0.1,3.4,1.6,3.7l0.8,0.1c0.3,0.2,0.2,0.9-0.1,1.1c-1.1-0.1-2.4-0.1-3.8-0.1c-1.5,0-2.8,0-4.1,0.1c-0.3-0.1-0.4-0.8-0.1-1.1
			l1-0.1c1.6-0.2,1.6-0.6,1.6-3.7v-7.4c0-1.6,0-1.9-1.1-2.6L396,397c-0.2-0.2-0.2-0.6,0-0.8c1-0.3,3.4-1.4,4.2-2.1
			c0.2,0,0.4,0.1,0.5,0.3c-0.1,1-0.1,1.6-0.1,2c0,0.3,0.2,0.5,0.5,0.5c1.6-1.1,3.6-2.1,5.6-2.1c2.1,0,3.3,0.8,4.5,2.5
			c0.4,0.1,0.7-0.1,1.1-0.3c1.7-1.2,3.7-2.1,5.7-2.1c3.4,0,5,2.3,5,5.2v7.2c0,3,0.1,3.5,1.6,3.7l1,0.1c0.3,0.2,0.2,0.9-0.1,1.1
			c-1.4-0.1-2.6-0.1-4.1-0.1c-1.5,0-2.7,0-3.8,0.1c-0.3-0.1-0.4-0.8-0.1-1.1l0.8-0.1c1.6-0.3,1.6-0.6,1.6-3.7V401.2z"/>
		<path class="st1" d="M429.7,388.2c0-2.5,0-2.7-1.3-3.5l-0.4-0.3c-0.2-0.1-0.2-0.7,0-0.8c1-0.4,3-0.9,4.6-1.8
			c0.2,0,0.3,0.1,0.4,0.3c-0.1,1.5-0.2,3.4-0.2,5.2v8c0,0.7,0.2,0.9,0.4,0.9c1.1-0.6,2.8-1.4,4.8-1.4c4.8,0,8,3.6,8,8.3
			c0,5.6-4,9.5-9.7,9.5c-1.6,0-2.7-0.3-3.6-0.5c-0.9-0.3-1.4-0.5-1.8-0.5c-0.3,0-0.7,0.3-0.9,0.6c0,0-0.1,0-0.2,0
			c-0.2,0-0.3-0.1-0.4-0.3c0-0.6,0.1-1.4,0.1-3.6V388.2z M432.8,406.3c0,1.5,0.3,2.8,1.1,3.7c0.7,0.9,1.9,1.4,3.2,1.4
			c4,0,5.5-3.4,5.5-7c0-4.3-2.2-7.7-6.4-7.7c-1.3,0-2.3,0.3-2.9,0.7c-0.4,0.3-0.5,0.8-0.5,2.4V406.3z"/>
		<path class="st1" d="M451.7,399.9c0-1.6,0-1.9-1.1-2.6l-0.4-0.3c-0.2-0.2-0.2-0.6,0-0.8c1-0.3,3.4-1.4,4.3-2.1
			c0.2,0,0.4,0.1,0.4,0.3c-0.1,1.5-0.2,3.5-0.2,5.2v7.6c0,3,0.1,3.5,1.6,3.7l0.9,0.1c0.3,0.2,0.2,0.9-0.1,1.1
			c-1.3-0.1-2.5-0.1-4-0.1c-1.5,0-2.8,0-4,0.1c-0.3-0.1-0.4-0.8-0.1-1.1l0.9-0.1c1.6-0.2,1.6-0.6,1.6-3.7V399.9z M455.2,387.9
			c0,1.5-1.1,2.2-2.2,2.2c-1.3,0-2.1-1-2.1-2.1c0-1.4,1-2.3,2.3-2.3C454.4,385.7,455.2,386.7,455.2,387.9z"/>
		<path class="st1" d="M468.4,403.3c0.6-0.2,0.7-0.6,0.7-1.2l0-1.9c0-1.6-0.5-3.7-3.1-3.7c-1.2,0-2.6,0.6-2.7,1.9
			c0,0.7-0.1,1.2-0.4,1.4c-0.6,0.5-1.8,0.8-2.4,0.8c-0.4,0-0.6-0.2-0.6-0.6c0-2.2,4.8-5.2,7.8-5.2c3,0,4.5,1.8,4.4,4.9l-0.3,7.3
			c-0.1,1.9,0.3,3.7,1.9,3.7c0.4,0,0.8-0.1,1.1-0.3c0.2-0.1,0.4-0.3,0.5-0.3c0.2,0,0.3,0.3,0.3,0.5c0,0.2-1.5,1.9-3.5,1.9
			c-1,0-2-0.4-2.7-1.3c-0.2-0.3-0.4-0.6-0.7-0.6c-0.3,0-0.8,0.4-1.6,0.8c-0.9,0.5-1.9,1.1-3,1.1c-1.2,0-2.2-0.3-2.9-1
			c-0.8-0.7-1.3-1.8-1.3-2.9c0-1.6,0.8-2.6,3.5-3.6L468.4,403.3z M465.8,410.7c0.8,0,2.1-0.6,2.6-1.1c0.5-0.5,0.5-1.1,0.5-2l0.1-2.5
			c0-0.5-0.2-0.5-0.4-0.5c-0.3,0-1,0.2-1.7,0.4c-2.5,0.8-3.7,1.5-3.7,3.1C463.1,408.9,463.6,410.7,465.8,410.7z"/>
	</g>
</g>
</svg>
