<svg height="140" viewBox="0 0 140 140" width="140" xmlns="http://www.w3.org/2000/svg"><g fill="none" fill-rule="evenodd"><circle cx="70" cy="70" fill="#8156a2" opacity="0" r="70"/><path d="m64.8334302 120.018023c1.5690319.159326 2.5212434 1.247033 2.3853539 2.584265-.1376621 1.354956-1.2893752 2.228588-2.8582101 2.069263-1.5333854-.155978-2.4676753-1.241716-2.3300133-2.596672.1358896-1.337232 1.269681-2.212636 2.8028695-2.056856zm17.0303667-3.478024c.1140291.671177-.2942304 1.049698-.8949015 1.15191-.6840483.116117-1.0275386-.29008-1.34823-.755867l-.1745714-.257195c-.3522603-.515084-.7461443-1.000962-1.5941896-.856896-.7243503.123089-1.2267478.59043-1.0914491 1.385286.3992002 2.349707 5.0613931.048841 5.6528081 3.529189.255236 1.501678-1.0250799 2.846197-3.1451536 3.206402-2.2258314.378325-3.8133757-.40629-3.9994853-1.501481-.087245-.512441.285565-.993766.8507867-1.089873 1.4664254-.249131 1.3472759 2.152175 2.8844032 1.891031.7066257-.120134 1.0552119-.742666.9470911-1.378787-.4112136-2.420409-4.9940392-.187488-5.5675324-3.561881-.2432226-1.430976.984116-2.766632 3.3513512-3.168787 2.2790055-.387186 3.9429631.311562 4.1290726 1.406949zm13.114168-7.519891.0354494.062234c.221953.389353-.3294829.868905.0523865 1.538309l2.8857818 5.05903 1.1054319-.63041c.1867004-.106545.3978215-.061839.4955044.109303l.1687788.295806c.0976829.171142.0374188.391125-.1492816.497671l-1.1052349.630409.5593135.980768c.9413797 1.650172.7377423 3.499254-1.3013886 4.662587-1.2921323.737151-2.8300474.500231-3.3895578-.48034-.2130906-.373598-.18158-.969346.4100319-1.306903 1.6966499-.96777 1.8349027 1.553079 3.0579086.875995 1.1207933-.639469-.4427242-2.512184-1.5312191-3.479757l-1.8991056 1.083375c-.1711421.097486-.3911256.037418-.4888085-.133921l-.1687787-.295806c-.0976829-.171142-.0285565-.375567.1425855-.47325l1.8368721-1.047925-2.8859787-5.059029c-.3818693-.669404-1.2312775-.349965-1.4532304-.738924l-.0356464-.062431c-.0888205-.15578-.0261932-.335785.1449489-.433271l3.0354573-1.731705c.2022587-.115408.3889591-.077398.4777797.078185zm-41.1589532 3.807369c2.7030203 1.008734 3.8860471 3.630811 3.0149754 5.964567-.9082936 2.434589-3.5453385 3.401374-5.8960306 2.524197-2.5854462-.965013-3.8271615-3.53234-2.9373805-5.916315.8897811-2.384173 3.3671066-3.487044 5.8184357-2.572449zm37.0645619 1.146711c.6392717 1.674396-.4490263 3.071301-2.0962439 3.681031-.7731918.286353-1.4695764.314909-2.018649.174096l.0915778.195563c.9297601 1.891819 1.5471713 2.733349 2.5724481 2.353843 1.3445187-.497867.1614919-2.506078 1.4219166-2.97283.6050039-.224119 1.1452141-.003741 1.357123.567782.4480416 1.210008-.7698438 2.46354-2.5176984 3.110886-2.1848675.809035-4.1556598.028951-5.1752252-2.001712l-1.5211751-2.972239c-.5638432-1.109961-1.1849962-.516774-1.3531842-.970724-.1429794-.386596.6264705-.785993 1.4331424-1.08495.9581197-.354691 1.4634712-.331452 1.8319485.353904.1642491-.691658.7147003-1.373272 1.874488-1.802605 1.8152085-.67216 3.4769998-.312939 4.0995314 1.367955zm-39.9948524 1.374927c-.6829927 1.830176-.7662989 4.821124.6607382 5.353851 1.0073551.375764 1.864247-.279854 2.4594038-1.874882.6390747-1.712602.7601937-4.804385-.7678744-5.37453-.9065211-.338345-1.7758203.35095-2.3522676 1.895561zm-8.4567016-8.555074c.859649.551633 1.1422599 1.073724.7131246 1.841795.833062-.402154 1.814027-.305062 2.8548621.362963 1.5534735.996918 2.1181043 2.871209.7919012 4.93732l-1.635795 2.549013c-.4257872.663495.0655815 1.191889-.1473121 1.523932l-.0291473.045099c-.0966983.150857-.3044714.209152-.5199253.113439l-2.0842304-.932912c-.4212576-.206591-.6087458-.412001-.4442997-.668419l2.8040511-4.269492c.9000221-1.402616.8939169-2.322135.0643998-2.854468-.7239564-.464781-1.7423402-.138646-2.4294686.932124l-1.965081 3.06165c-.4257872.663693.080746 1.20154-.1323446 1.533583l-.0289504.045296c-.0966982.15066-.3046682.208955-.5049576.123089l-2.1143625-.952409c-.4212576-.206394-.5634493-.383051-.3990032-.639468l3.5425813-5.52007c.7647233-1.191692-.3172726-1.098145.0407668-1.65608.2227407-.347011.7785092-.118165 1.6231908.424015zm43.8862562 6.825456c-.7731918.286353-.9636341 1.2169-.6331665 1.954643l.2682342.569554c.4679327.954181 1.1924799 1.259243 1.8815778 1.004204.7060348-.261341 1.0217318-1.00893.7042623-1.866019-.4293322-1.159788-1.363819-1.979655-2.2209078-1.662382zm19.3178802-7.766816c1.649187 2.008408 1.161363 4.774646-.777919 6.367114-2.132875 1.751597-4.9767078 1.536143-6.5920209-.430711-1.6151161-1.966853-1.3248246-4.663374.6971724-6.323984 2.2299675-1.831358 5.0917225-1.537521 6.6727675.387581zm-6.4214703.426575c-.7479833.61426-.5882638 1.712208.4580856 2.986419 1.2397457 1.509752 3.7848187 3.083904 4.9621347 2.117119.831093-.682402.694218-1.752778-.386596-3.068543-1.159985-1.412857-3.773396-3.070119-5.0336243-2.034995zm-61.1088968-3.170776 2.414895 2.271719c.1827616.17193.2264826.360796.0915777.50417l-.0492353.052386c-.3068346.326332-.9142018-.048054-1.4299913.500034l-2.8731775 3.054758c-.5404071.574478.023436 1.1783-.2835956 1.504632l-.0490384.052189c-.1228914.130572-.3255441.136677-.5689636.055538l-2.2539939-.742272c-.4354374-.139041-.4055023-.406093-.1721268-.65424l.9207009-.978995c-1.0729366.565419-2.1163319.445087-2.9909485-.377537-.7700407-.724547-.7097767-1.651747-.0835031-2.317606.5157894-.548284 1.178891-.834834 1.8053614-.245389 1.0181869.957726-.4945197 1.650566.2103334 2.313668.5090935.478961 1.367167-.067157 2.0424789-.785206l2.4558588-2.610851c.5155925-.548088-.0387974-1.26653.2682342-1.592862l.0490384-.052387c.1351018-.14357.3263318-.111271.4960953.048251zm74.2902221-5.5382274c2.032435 1.6192519 2.133072 4.4260604.569751 6.3883844-1.719889 2.15828-4.545604 2.541725-6.535893.95615-1.990289-1.585772-2.269946-4.283278-.639469-6.3293017 1.797878-2.2567511 4.657467-2.5673276 6.605611-1.0152327zm-81.487917-3.6680526c.53765.8472417.6627077 1.6805006.4553285 2.4911113l.3330278-.2111212c.242041-.1536142.4096381-.0901991.5536022.1368743l1.2230059 1.9617329c.1248608.1967445.110878.3753703-.0557344.4809308l-.0452965.0289504c-.3631599.2304214-.8887964-.2639014-1.5396876.1488877l-7.4154333 4.7031568c-.6810232.431892-.3302706 1.185587-.708595 1.425462l-.0452965.028753c-.1666124.105757-.2902916.077989-.5841281-.117574l-2.1460701-1.376423c-.3873836-.242435-.4787644-.587673-.100637-.827548l4.2375874-2.687462c-.6623138-.1742928-1.2677116-.6603441-1.7283575-1.3866639-1.1135064-1.7555353-.9500451-4.3421632 1.4258555-5.8489616 2.3306041-1.4780449 4.9410619-.8419243 6.1408287 1.0498945zm75.29805 5.426739c-.603035.756846-.217621 1.797287 1.071754 2.824533 1.527872 1.217295 4.345118 2.224847 5.294572 1.033351.669798-.840742.312546-1.858732-1.018974-2.919655-1.429598-1.1391092-4.331135-2.2136213-5.347352-.938229zm-79.1295442-4.8430048c-1.9067863 1.2094169-3.5069349 3.1366851-2.7390605 4.3474806.4415425.6959908 1.3978898.8320773 2.3059864.2562207l2.7392575-1.7372198c1.0290186-.6526636 1.5178271-2.0235725 1.0185807-2.8105502-.6239102-.9837221-1.8112697-1.0158235-3.3247641-.0559313zm86.6213902-8.3615396.048054.0238299c.385414.1910332.235739.896871.926412 1.2389582l7.868792 3.8976665c.722775.3578425 1.185193-.3330278 1.58656-.134314l.04825.0240269c.17646.0874419.21703.2073792.202259.5601012l-.06243 2.5490121c-.006499.456707-.253858.7143063-.655224.5153955l-4.496565-2.2274068c.194775.6566025.09335 1.4262494-.288323 2.1972748-.922867 1.8628684-3.218415 3.0655893-5.739856 1.8167841-2.473189-1.2249753-3.284194-3.7865916-2.289837-5.794015.445482-.8994312 1.092631-1.4388536 1.893001-1.6822731l-.353116-.1748839c-.257009-.1272242-.289701-.3034867-.170355-.5445429l1.042017-2.0635516c.103591-.2087579.263508-.2895038.440361-.2020619zm-2.042085 4.7683444c-.517168 1.0439861.072081 2.075565 1.67794 2.8710112 2.023179 1.0022346 4.501095 1.3697272 5.13761.0848817.365917-.7387271-.013983-1.6269326-.977617-2.1041215l-2.906855-1.4396414c-1.09204-.5409979-2.517501-.2471614-2.931078.58787zm-84.7835137-5.3570415c.9931753 2.7089285-.2276642 5.313478-2.566343 6.1711577-2.4399065.8945077-4.890251-.4783706-5.7538389-2.8339863-.9502421-2.5911575.1910331-5.2047664 2.5803258-6.0807616 2.3892926-.8761921 4.8390463.2871405 5.7398561 2.7435902zm-3.8216472-.5837342c-1.834115.6725548-4.1594017 2.555905-3.6349468 3.9858963.3702498 1.0095214 1.4256585 1.2332468 3.0242316.6471493 1.7161471-.6292277 4.1424647-2.5496029 3.5809849-4.0806251-.3332248-.9086874-1.4223106-1.1200055-2.9702697-.5524205zm92.9765699-8.6734159.070308.0147706c.438392.0917747.435634.8052932 1.172392.9594983l4.104455.8592552c.771813.1616889.993372-.6341512 1.431764-.5425735l.070308.0147707c.175278.036828.286353.2063945.343859.45651l.541589 2.3105161c.108318.4439059-.135102.557541-.468326.4878238l-1.315569-.275324c1.04182.6207591 1.482969 1.5737584 1.236989 2.7489075-.216439 1.0349269-1.039456 1.4670163-1.933964 1.279725-.736758-.1542051-1.326991-.570736-1.150729-1.4126604.286353-1.3683486 1.666321-.4383915 1.864641-1.3856794.143374-.6841743-.77004-1.1316251-1.734856-1.333687l-3.508117-.7343943c-.73656-.1542051-1.060529.6934305-1.49892.6016559l-.070309-.0147706c-.193002-.040373-.26528-.2201805-.217423-.4482386l.679448-3.2450029c.051402-.2455858.189654-.3814754.38246-.3411024zm-91.4689838-.1499905c.3982155 2.858013-1.3458973 5.1458809-3.8131787 5.4897405-2.5740236.3584333-4.6789329-1.5016779-5.0251559-3.986684-.3808846-2.7337431 1.2874057-5.0472134 3.8078613-5.3983598 2.5208495-.3511465 4.6694798 1.3037518 5.0304733 3.8953033zm-3.6121015-1.3785896c-1.934949.2696127-4.6060647 1.618858-4.3957313 3.1278228.1484938 1.0650589 1.1328067 1.5069953 2.8192156 1.2720442 1.810482-.2522818 4.588143-1.6164947 4.363039-3.2318078-.1335262-.9587105-1.1534855-1.3955265-2.7865233-1.1680592zm103.1291733-8.5646468.053765.0010651c.179216.0039388.337163.1508571.368083.3844296l.291473 2.2648257c.043721.4669479-.033677.7341974-.338345.7275014l-5.104917-.1640522c-1.666124-.0360403-2.44739.4488294-2.468857 1.434324-.018513.859846.790917 1.5585939 2.062961 1.5861657l3.637113.0785796c.788159.0171339.982934-.6955969 1.377014-.6871284l.053568.0011816c.179414.0037419.337361.1506602.368674.3665079l.290686 2.3006691c.043721.4669479-.032496.6802354-.337164.6737364l-6.55736-.1417978c-1.415417-.0307229-.771025.8436968-1.43393.8293201-.412198-.0088624-.50673-.6024437-.485066-1.6058599.02186-1.021141.319832-1.5345671 1.198979-1.5694258-.777722-.5006249-1.20666-1.3882396-1.179876-2.6244406.039782-1.8453406 1.344125-3.304873 3.798605-3.2518958l3.027777.0655815c.788356.0169369.98254-.6778722 1.376817-.6692872zm-110.9982807-2.4798447c.429923.0126043.9220795.349571.9023853 1.0303973-.057113 1.9524767-2.2811718.7582242-2.3398603 2.1547354-.0378128 1.289769 2.3751128.9299572 3.7680791.5045638l.063809-2.1854583c.0057113-.1971383.1717329-.3535098.3686743-.3477985l.3403146.0098471c.1971383.0059082.3357851.171339.3300738.3682804l-.0618396 2.1137716 5.8219806.1699604c.7702377.0224513.9396073-.8691022 1.3874519-.8559071l.0716867.0019694c.1790197.0053174.3003356.1522356.2946243.349374l-.1020157 3.4931489c-.006696.2327847-.1364803.3724162-.3155.3670988l-.0716867-.0019695c-.4478446-.013195-.5701452-.7338035-1.3405799-.7562548l-5.8217837-.1699604-.0370249 1.2718473c-.0063022.2148631-.1544021.3720223-.3513434.366114l-.3403147-.009847c-.1971383-.0057113-.3537067-.1717329-.3474046-.3865959l.0372219-1.2718474-1.1286709-.0328892c-1.8987117-.0555374-3.3716362-1.192283-3.3031006-3.5388394.043524-1.4867103 1.0463495-2.6766301 2.1748235-2.6437409zm110.7467667-4.2774089c.519137 2.7105041-1.029216 5.105508-3.528599 5.5842725-2.499382.4787644-4.729153-1.0646651-5.221309-3.6345529-.542967-2.8335924 1.082587-5.2069328 3.529189-5.6754563 2.551966-.4890054 4.748453 1.2616064 5.220719 3.7257367zm-98.5126509-3.1248686c.4047145.0785796.3464198.9435461.1825646 1.7880307-.1945781 1.0030223-.476992 1.4229013-1.2539257 1.3815436.5053516.4998372.8019453 1.3242338.5664034 2.5381803-.3686742 1.9002873-1.5390968 3.1337311-3.2985709 2.7922347-1.7628222-.3237716-2.3910651-1.9790638-2.0564618-3.7034823.1569623-.8094291.4943229-1.4193565.8998251-1.8154056l-.2144691-.023436c-2.0995919-.188079-3.1394423-.0978798-3.3476093.9754506-.2731577 1.4075399 2.0574464 1.4398383 1.8014226 2.7595424-.1228914.6333634-.5920057.9805711-1.1901166.8643757-1.2669238-.2457829-1.7055123-1.9375092-1.350427-3.7672914.4439059-2.287277 2.1342536-3.5660173 4.3988824-3.3820741l3.3302785.2444043c1.2411244.0947288 1.0571812-.7442415 1.5322038-.6520729zm94.7906559 1.7941358c-1.795317.3438597-4.499519 1.84731-4.192882 3.4490342.182171.950439 1.222809 1.3348685 2.842061 1.0246859 1.918603-.3674926 4.517244-1.850658 4.230695-3.3468216-.202259-1.0559996-1.207645-1.4471251-2.879874-1.1268985zm-99.7224616 2.4523139c-.1433733.738924.3314523 1.3971021 1.2289141 1.5711982 1.2139466.2355419 2.3999275-.1368742 2.5740237-1.034336.1569622-.8092321-.5392255-1.4555937-1.3411707-1.5564276l-.6260766-.0665662c-1.0585599-.0959105-1.6956652.3647354-1.8356905 1.0861316zm2.0090973-13.4947374c.4830972.1920178.7007174.7605875.4890055 1.2935109-.5492695 1.3823314-2.5391651.0324953-3.1148247 1.4813929-.2646892.6662526.0862603 1.2876026.6857499 1.5259017 2.2815657.9065211 2.7558005-4.1694456 5.9367974-2.9056729 1.3488514.5360744 1.8520366 2.2786116.9654066 4.5103511-.8535439 2.1482365-2.3154397 3.2065994-3.3480032 2.7963705-.6327726-.2514941-.7438476-.7968248-.5189405-1.3632281.5823556-1.4654407 2.5557081-.0257994 3.2174311-1.6911355.2713852-.6829927.1333293-1.3547597-.6162296-1.652535-2.2149995-.880131-2.6722974 4.299033-5.9531436 2.9954781-1.4156145-.5624645-1.8989086-2.3550248-1.104841-4.3535858.8338497-2.0984102 2.3292255-3.0470768 3.3615921-2.6368479zm97.3240703-.8413729c.664283 1.3906029.222544 2.7532403-1.00637 3.3401255-1.212568.5792046-2.549997.0661723-3.214083-1.3246276-.679645-1.4229014-.24598-2.8016879.966785-3.3808924 1.228914-.5868853 2.573826-.0577038 3.253668 1.3653945zm-7.139538-10.8587758c1.422901 1.753369 1.519206 3.5217055.656406 4.2218321-.403533.3275135-1.006174.2392837-1.367561-.2060007-.42948-.529403-.210381-1.0421334.058386-1.5588405l.147926-.2823588c.267029-.5188359.474834-1.0454031.024503-1.6003511-.451784-.5567532-1.165499-.5545868-1.666518-.1479029-1.906392 1.5471713 2.289837 4.4428002-.36828 6.599899-1.127096.9145957-2.893266.5016097-4.40676-1.3634251-1.456579-1.7951205-1.665139-3.5878778-.802339-4.2880043.528984-.4291352 1.05915-.2593718 1.442989.2138783.437257.5388158.252153 1.0375593.003908 1.5457203l-.138307.2784102c-.275693.5598781-.505526 1.1416726.036519 1.8096346.463206.5707361 1.116658.7789031 1.742931.2705975 1.850855-1.5018749-2.443648-4.433544.297776-6.6581937 1.183026-.9598922 2.983267-.5049577 4.338421 1.1651051zm-84.1491853 2.0446059c1.0979481.7755551 1.303161 2.193336.4137738 3.4521852-.9098691 1.2879965-2.3250898 1.5830147-3.422841.8074596-1.1125217-.7857961-1.3074937-2.2183476-.3976246-3.5063441.8893872-1.2588492 2.29417-1.5390968 3.4066918-.7533007zm76.5514233-9.7232906c1.774442 1.5095555 2.058235 3.6097383.78619 5.4921038l-1.8479 2.7804182c-.692052 1.0347299.129193 1.2862241-.184338 1.6548983-.267052.3137276-.991796-.1616889-1.64702-.7190329-.777919-.661723-1.005189-1.1139004-.587673-1.7705029-.683584.194972-1.5471716.0486445-2.4889452-.7527099-1.4739092-1.2539257-1.9739433-2.8790858-.8125801-4.2438895 1.1475773-1.3766201 2.8977953-1.1109462 4.2354213.026981.627849.534105.993569 1.1274893 1.139502 1.6751833l.125649-.1754748c1.194646-1.7362351 1.626539-2.6864772.794068-3.3946783-.52228-.4442912-1.062894-.2153988-1.59683.0491396l-.290425.1439968c-.482436.2331136-.955594.3998883-1.400681.0213327-.491566-.4181065-.563647-.9971141-.168779-1.461108.836016-.9827374 2.524788-.5343019 3.944341.6733426zm-63.8619594.7678547c1.6440665 1.9424326 1.3941479 4.6428926-.6030345 6.3334373-2.2021983 1.86405-5.0680891 1.6131467-6.6774939-.2883221-1.6787282-1.9833965-1.2320652-4.7567248.6829926-6.3775523 2.1064849-1.7831071 4.9534692-1.6099956 6.5975358.3324371zm59.3667734 3.0780162c-.8011577.9417737-1.0591509 2.1574927-.362963 2.7496954.627849.534105 1.532598.244995 2.014119-.4039267l.365326-.5126384c.603429-.8748136.515002-1.655883-.044705-2.1320872-.573297-.4876269-1.379575-.3972308-1.971777.2989569zm-65.7283734-2.5771943c-.8208516.6948091-.6680251 1.7630191.4318924 3.0624382 1.1810574 1.3953296 3.8186931 3.0135968 5.0633625 1.9597635.7387271-.6250919.5628584-1.7206767-.5023974-2.979132-1.2620003-1.4910431-3.8301157-3.0271858-4.9928575-2.0430697zm67.3086504-8.825947c1.274014.7678744 1.818163 2.2258313 1.235216 3.1930103-.221953.3684773-.757436.631591-1.340777.2800506-1.673016-1.0085367.459662-2.3597514-.728289-3.096706-1.105038-.6662526-1.9765033 1.6127529-2.290034 3.0352603l1.872715 1.128671c.168779.1018187.223923.3231808.121907.4921565l-.175672.2916701c-.101818.1687788-.313924.208364-.4829.1065453l-1.8112695-1.0918429-3.0069007 4.9887217c-.3980185.6601475.2956089 1.2456541.0642028 1.6292959l-.0372219.0614457c-.0923655.1534174-.2800506.1868974-.4488293.0850787l-2.9931149-1.8041798c-.1996986-.1203312-.2577963-.3017142-.1650369-.4553285l.0368281-.0614457c.2314061-.3836418.9193223-.1364804 1.3173407-.7964309l3.0069008-4.9887217-1.0896766-.6569964c-.1841401-.1110749-.24854-.3170756-.1465243-.4858543l.1758686-.2916702c.1016217-.1689757.3229838-.2237254.507321-.1128474l1.0898735.6569964.5829464-.9669821c.9805711-1.6271296 2.6943552-2.3520707 4.7051262-1.1398966zm-54.0743679-.1731509 3.0884345 5.7863343c.6666465 1.2490021 1.1133095.2589779 1.4254616.8438937.1939872.3637507-.2770965.7369546-1.162348 1.2096139-.9012037.4809308-1.494588.4726593-1.9556277-.2767026-.0555375.923458-.6191837 1.7320993-1.7100419 2.3144549-1.6285082.8691022-3.5398241.4470569-4.6958699-1.7189042l-1.4260524-2.6719035c-.3712345-.6955969-1.0721488-.5246518-1.2578645-.8724503l-.0254055-.0474629c-.0842909-.1579469-.0338739-.3678864.1547959-.5092903l1.8317517-1.3634251c.3858081-.2668555.6566025-.3302707.8001727-.0614457l2.3573882 4.53103c.7848113 1.4703642 1.5903015 1.9138762 2.4597976 1.4498823.7590121-.4051084.9715118-1.4530334.3724162-2.5754022l-1.712996-3.2095534c-.3712345-.6955969-1.0879041-.5161834-1.2736198-.8639818l-.0254055-.0474629c-.0842909-.157947-.0338739-.3678865.1390406-.5006249l1.8632623-1.380559c.3858081-.2668556.6093366-.3048652.7527099-.0360403zm41.854294-1.1649672c2.5708726 1.004204 3.7731996 3.590438 2.8471813 5.9608243-.9258213 2.3703862-3.4198868 3.4356421-5.8572331 2.4836275-2.6876588-1.0498944-3.8305096-3.6898934-2.9241854-6.0102566.9457124-2.4204093 3.597331-3.3472154 5.9342372-2.4341952zm-32.1398264-.7831965c.2256948.7180483.1506602 1.4366873-.6699945 1.6944836-1.3338839.4188942-1.1972066-1.239549-2.1204677-.9496513-.6668435.2095456-.6109121 1.2249753-.3155001 2.1655672l1.0739213 3.4196899c.2254979.7182452 1.1235505.5864914 1.2576676 1.0140511l.0214666.0683387c.0590824.188079-.0626274.338936-.2847772.4088502l-3.1634692.9933723c-.2392837.0752316-.4253933.0208758-.4844757-.1670063l-.0214667-.0685356c-.134314-.4273628.4895963-.7735857.2640984-1.4918308l-1.2564859-4.0012578c-.2363296-.752119-1.0390626-.5565563-1.1731797-.983919l-.0216636-.0685356c-.053568-.1709451.0401761-.3507526.2302245-.5230763l1.7512026-1.601921c.3342095-.3115613.5524205-.154796.6544362.1701573l.402942 1.2824822c.0322984-1.212568.648134-2.0633547 1.793742-2.4233635 1.0089306-.3166818 1.7878337.1900484 2.0617791 1.0621047zm29.0313039 3.2244816c-.665071 1.7027551-.8332589 4.7925682.6857498 5.3859525.9014007.3521311 1.7813347-.3239686 2.3812181-1.8597173.7107614-1.8195413.839758-4.8091112-.5790076-5.3635012-1.0016438-.3913225-1.8685797.2512972-2.4879603 1.837266zm-8.0776682-5.4631337c2.7248807.4381945 4.446739 2.7118826 4.0426154 5.2244605-.4043207 2.5125779-2.61676 4.0806251-5.2000399 3.6652757-2.8487568-.4582825-4.5237431-2.7969612-4.1282848-5.256365.4127891-2.5655552 2.8085808-4.0317836 5.2857093-3.6333712zm-13.2220131-4.8259694.2601595 5.0115669c.476992-.4913687 1.1977974-.7800848 2.0568557-.8245935 2.0761558-.1077269 4.2492069 1.3049335 4.3951404 4.1148929.1427825 2.7563913-1.6934988 4.7181243-3.9307527 4.8341227-1.0024315.0519926-1.7896062-.2479491-2.3938223-.8267598l.020285.3936858c.0147706.2863527-.1226945.4011695-.3911256.4149554l-2.3099253.1020157c-.2325877.0120134-.3814754-.0878359-.3917163-.2847773l-.0027572-.0537649c-.0222544-.4295292.6666465-.6447861.6264705-1.414236l-.4549346-8.7701929c-.0417515-.8054902-.8704808-.8702839-.8939168-1.3175377l-.0027572-.053765c-.010241-.1967444.0746408-.2908824.3893531-.4507988l2.2532061-1.1938585c.4015635-.2182111.7471956-.1284058.7702377.319045zm10.699588 7.8691073c-.2900946 1.8047707.1985169 4.860316 1.8087095 5.1192939.9553626.1536142 1.6724261-.6930367 1.9343581-2.320954.3101827-1.9286468-.1957597-4.8780407-1.6998009-5.1198847-1.0615139-.1707481-1.7728662.6406503-2.0432667 2.3215448zm-8.9869859-2.879007c-.8232149.0425393-1.4116757.8088382-1.3559413 1.8829564l.167991 3.2394885c.0632182 1.2170976 1.017596 2.3162274 1.9483409 2.2677798 1.1633327-.060264 1.7744417-1.0790417 1.6816823-2.8688448-.1169831-2.2551756-1.0101122-4.5958237-2.4420729-4.5213799z" fill="#fffef8"/></g></svg>
