<?xml version="1.0" encoding="utf-8"?>
<!-- Generator: Adobe Illustrator 25.0.1, SVG Export Plug-In . SVG Version: 6.00 Build 0)  -->
<svg version="1.1" id="Layer_1" xmlns="http://www.w3.org/2000/svg" xmlns:xlink="http://www.w3.org/1999/xlink" x="0px" y="0px"
	 viewBox="0 0 411.2 401.7" style="enable-background:new 0 0 411.2 401.7;" xml:space="preserve">
<style type="text/css">
	.st0{fill:#E5BBD5;}
	.st1{fill:#F7C4B6;}
</style>
<path class="st1" d="M407.2,139.5c-28-10.8-55.9-22-83.8-33C289.5,93,255.6,79.6,221.7,66.1c-30.8-12.2-61.7-24.5-92.5-36.7
	C105.3,20,81.4,10.5,57.5,1c-3.2-1.3-5.5-2-7.2,2.5C34.6,43.8,18.9,84.1,2.6,124.1c-3.2,7.9-3.7,14.5-0.3,22.5
	c10.6,25.2,20.4,50.8,30.2,76.3c3.9,10.2,8.6,20.1,11.5,30.6c0.2,0.2,0.5,0.5,0.7,0.7c1.1-0.7,2.1-1.5,3.3-2.1
	c25.8-13.7,53.4-17.4,82-14.8c38,3.4,71,17.3,97.3,46c13.6,14.8,23.5,31.6,30.2,50.3c5.3,14.8,7.8,30.2,8.1,45.8
	c0,1.8-0.2,3.4,2.2,4.4c13,4.9,26,10,39,15.1c2,0.8,3.4,1.4,4.6-1.5c9.9-25.5,20-50.9,30.1-76.3c11.7-29.6,23.4-59.2,35-88.8
	c11.3-28.5,22.5-57.1,33.8-85.5C411.9,143,411.5,141.1,407.2,139.5z M247.4,195.7c-21.6,21.4-55.3,23.1-78.2,0.6
	c-22.6-22.2-22.3-55.9-0.7-77.7c21.7-22,55.4-22.8,78.2-0.3C269.6,140.8,267.7,174.3,247.4,195.7z"/>
</svg>
