<?xml version="1.0" encoding="utf-8"?>
<!-- Generator: Adobe Illustrator 25.0.1, SVG Export Plug-In . SVG Version: 6.00 Build 0)  -->
<svg version="1.1" id="Layer_1" xmlns="http://www.w3.org/2000/svg" xmlns:xlink="http://www.w3.org/1999/xlink" x="0px" y="0px"
	 viewBox="0 0 287.6 323" style="enable-background:new 0 0 287.6 323;" xml:space="preserve">
<style type="text/css">
	.st0{fill:#E5BBD5;}
	.st1{fill:#F7C4B6;}
</style>
<g id="HCwPJJ.tif">
	<g>
		<path class="st0" d="M98.4,1.2c2.3-0.3,2.1,2,2.6,3.3c3.5,9.9,7.1,19.7,10.2,29.7c10.4,33.2,33.5,53.8,65.2,65.9
			c14.7,5.6,29.9,8.5,45.6,9.1c15.6,0.6,30.7-0.9,45.6-5.2c3.6-1.1,3.8-0.1,3.1,3.2C258.9,164.1,247.1,221,235.3,278
			c-0.5,2.4-1.6,3.7-3.9,4.5c-38,12.6-76,25.3-113.9,38c-4.2,1.4-5.1-0.9-6.1-4C84.8,237.1,58.2,157.7,31.7,78.3
			c-5-14.8-9.7-29.7-14.9-44.4c-1.4-3.9-0.5-5.4,3.4-6.6c25-8.1,49.8-16.5,74.7-24.8C96,2,97.1,1.7,98.4,1.2z"/>
	</g>
</g>
</svg>
