<?xml version="1.0" encoding="utf-8"?>
<!-- Generator: Adobe Illustrator 25.0.1, SVG Export Plug-In . SVG Version: 6.00 Build 0)  -->
<svg version="1.1" id="Layer_1" xmlns="http://www.w3.org/2000/svg" xmlns:xlink="http://www.w3.org/1999/xlink" x="0px" y="0px"
	 viewBox="0 0 2949.8 841.9" style="enable-background:new 0 0 2949.8 841.9;" xml:space="preserve">
<style type="text/css">
	.st0{fill:#003399;}
	.st1{fill:none;stroke:#003399;stroke-width:2.5;stroke-miterlimit:1;}
	.st2{fill:#FFCC00;}
</style>
<g>
	<path d="M1130.5,269V102.3h122.7v28.2h-89.3v37h83.1v28.1h-83.1v45.4h92.4V269H1130.5z M1363.5,269v-18.1
		c-4.4,6.4-10.1,11.5-17.2,15.2c-7.1,3.7-14.6,5.6-22.5,5.6c-8.1,0-15.3-1.8-21.7-5.3c-6.4-3.6-11-8.6-13.9-15
		c-2.9-6.4-4.3-15.4-4.3-26.7v-76.4h31.7v55.5c0,17,0.6,27.4,1.8,31.2c1.2,3.8,3.3,6.9,6.4,9.1c3.1,2.2,7,3.4,11.7,3.4
		c5.4,0,10.3-1.5,14.6-4.5c4.3-3,7.2-6.7,8.8-11.1c1.6-4.4,2.4-15.3,2.4-32.6v-50.9h31.7V269H1363.5z M1456.3,269h-31.7V148.2h29.5
		v17.2c5-8.1,9.6-13.5,13.6-16c4-2.6,8.6-3.9,13.7-3.9c7.2,0,14.2,2,20.9,6l-9.8,27.9c-5.3-3.5-10.3-5.2-14.9-5.2
		c-4.4,0-8.2,1.2-11.3,3.7c-3.1,2.5-5.5,6.9-7.3,13.4c-1.8,6.4-2.7,19.9-2.7,40.5V269z M1508.5,206.9c0-10.6,2.6-20.9,7.8-30.8
		c5.2-9.9,12.5-17.5,22.1-22.7c9.5-5.2,20.1-7.8,31.9-7.8c18.1,0,33,5.9,44.6,17.8c11.6,11.9,17.4,26.9,17.4,45
		c0,18.3-5.9,33.4-17.6,45.4c-11.7,12-26.4,18-44.2,18c-11,0-21.5-2.5-31.4-7.5c-10-5-17.5-12.3-22.7-22
		C1511.1,232.5,1508.5,220.8,1508.5,206.9L1508.5,206.9z M1541,208.6c0,12,2.8,21.1,8.5,27.5c5.6,6.4,12.6,9.5,20.9,9.5
		c8.3,0,15.2-3.2,20.8-9.5c5.6-6.4,8.4-15.6,8.4-27.7c0-11.8-2.8-20.9-8.4-27.3c-5.6-6.4-12.6-9.5-20.8-9.5
		c-8.3,0-15.2,3.2-20.9,9.5C1543.8,187.5,1541,196.6,1541,208.6L1541,208.6z M1656.2,148.2h29.6V166c3.8-6.1,9-11,15.6-14.8
		c6.5-3.8,13.8-5.7,21.8-5.7c13.9,0,25.7,5.5,35.4,16.5c9.7,11,14.6,26.3,14.6,45.9c0,20.2-4.9,35.8-14.7,47
		c-9.8,11.2-21.6,16.8-35.6,16.8c-6.6,0-12.6-1.3-18-4c-5.4-2.6-11-7.2-17-13.6v60.8h-31.7V148.2z M1687.6,206.6
		c0,13.6,2.7,23.6,8,30.1c5.3,6.5,11.9,9.7,19.5,9.7c7.4,0,13.5-3,18.4-8.9c4.9-5.9,7.3-15.7,7.3-29.3c0-12.7-2.5-22.1-7.6-28.2
		c-5-6.1-11.3-9.2-18.7-9.2c-7.7,0-14.2,3-19.3,9C1690.1,185.8,1687.6,194.7,1687.6,206.6L1687.6,206.6z M1867.8,230.6l31.6,5.3
		c-4.1,11.7-10.5,20.6-19.2,26.7c-8.8,6.1-19.7,9.2-32.9,9.2c-20.8,0-36.3-6.9-46.3-20.6c-7.9-11-11.9-24.9-11.9-41.6
		c0-20,5.2-35.7,15.6-47c10.4-11.3,23.5-17,39.4-17c17.8,0,31.9,5.9,42.2,17.8c10.3,11.9,15.2,30,14.8,54.5h-79.5
		c0.2,9.5,2.8,16.8,7.7,22.1c4.9,5.3,11,7.9,18.3,7.9c5,0,9.1-1.4,12.5-4.1C1863.5,241,1866.1,236.6,1867.8,230.6L1867.8,230.6z
		 M1869.6,198.3c-0.2-9.2-2.6-16.3-7.1-21.1c-4.5-4.8-10-7.2-16.5-7.2c-6.9,0-12.6,2.5-17.2,7.6c-4.5,5.1-6.7,12-6.7,20.7H1869.6z
		 M1950.8,185.1l-28.8-5.2c3.2-11.7,8.8-20.3,16.7-25.9c7.9-5.6,19.6-8.4,35.2-8.4c14.1,0,24.7,1.7,31.6,5.1
		c6.9,3.4,11.8,7.7,14.6,12.8c2.8,5.2,4.2,14.7,4.2,28.6l-0.3,37.3c0,10.6,0.5,18.4,1.5,23.5c1,5,2.9,10.4,5.7,16.2h-31.4
		c-0.8-2.1-1.8-5.3-3-9.4c-0.5-1.9-0.9-3.1-1.1-3.7c-5.4,5.3-11.2,9.3-17.4,11.9c-6.2,2.7-12.8,4-19.7,4c-12.3,0-22.1-3.4-29.2-10.1
		c-7.1-6.7-10.7-15.3-10.7-25.6c0-6.8,1.6-12.9,4.9-18.2c3.2-5.3,7.8-9.4,13.6-12.3c5.8-2.8,14.2-5.3,25.2-7.4
		c14.8-2.8,25.1-5.4,30.8-7.8V187c0-6.1-1.5-10.5-4.5-13.1c-3-2.6-8.7-3.9-17-3.9c-5.6,0-10,1.1-13.2,3.4
		C1955.3,175.6,1952.7,179.5,1950.8,185.1L1950.8,185.1z M1993.2,211c-4.1,1.4-10.5,3-19.3,4.9c-8.8,1.9-14.6,3.8-17.3,5.6
		c-4.1,3-6.2,6.7-6.2,11.3c0,4.5,1.7,8.3,5,11.6c3.3,3.3,7.5,4.9,12.6,4.9c5.7,0,11.2-1.9,16.4-5.7c3.8-2.9,6.4-6.4,7.6-10.6
		c0.8-2.7,1.2-7.9,1.2-15.6V211z M2164.8,269h-31.7v-61.6c0-13-0.7-21.5-2-25.3c-1.4-3.8-3.6-6.8-6.6-8.9c-3.1-2.1-6.7-3.2-11-3.2
		c-5.5,0-10.4,1.5-14.8,4.6c-4.4,3-7.4,7-9,12c-1.6,5-2.4,14.3-2.4,27.7V269h-31.7V148.2h29.5V166c10.5-13.6,23.6-20.5,39.5-20.5
		c7,0,13.4,1.3,19.2,3.8c5.8,2.5,10.2,5.8,13.1,9.7c3,3.9,5,8.4,6.2,13.4c1.2,5,1.7,12.2,1.8,21.5V269z M2261.2,102.3h33.4v90.3
		c0,14.3,0.4,23.6,1.2,27.9c1.4,6.8,4.8,12.3,10.2,16.4c5.4,4.1,12.7,6.2,22.1,6.2c9.5,0,16.6-1.9,21.4-5.9
		c4.8-3.9,7.7-8.7,8.7-14.4c1-5.7,1.5-15.1,1.5-28.3v-92.2h33.4v87.5c0,20-0.9,34.2-2.7,42.4c-1.8,8.3-5.1,15.2-10,20.9
		c-4.9,5.7-11.3,10.2-19.5,13.6c-8.1,3.4-18.7,5.1-31.8,5.1c-15.8,0-27.8-1.8-35.9-5.5c-8.2-3.7-14.6-8.4-19.4-14.3
		c-4.7-5.9-7.9-12-9.4-18.5c-2.2-9.6-3.3-23.6-3.3-42.3V102.3z M2537.2,269h-31.7v-61.6c0-13-0.7-21.5-2-25.3
		c-1.4-3.8-3.6-6.8-6.6-8.9c-3.1-2.1-6.7-3.2-11-3.2c-5.5,0-10.4,1.5-14.8,4.6c-4.4,3-7.4,7-9,12c-1.6,5-2.4,14.3-2.4,27.7V269H2428
		V148.2h29.5V166c10.5-13.6,23.6-20.5,39.5-20.5c7,0,13.4,1.3,19.2,3.8c5.8,2.5,10.2,5.8,13.1,9.7c3,3.9,5,8.4,6.2,13.4
		c1.2,5,1.7,12.2,1.8,21.5V269z M2569.5,131.9v-29.6h31.7v29.6H2569.5z M2569.5,269V148.2h31.7V269H2569.5z M2626.3,206.9
		c0-10.6,2.6-20.9,7.8-30.8c5.2-9.9,12.5-17.5,22.1-22.7c9.5-5.2,20.1-7.8,31.9-7.8c18.1,0,33,5.9,44.6,17.8
		c11.6,11.9,17.4,26.9,17.4,45c0,18.3-5.9,33.4-17.6,45.4c-11.7,12-26.4,18-44.2,18c-11,0-21.5-2.5-31.4-7.5
		c-10-5-17.6-12.3-22.7-22C2628.9,232.5,2626.3,220.8,2626.3,206.9L2626.3,206.9z M2658.8,208.6c0,12,2.8,21.1,8.5,27.5
		c5.6,6.4,12.6,9.5,20.9,9.5c8.3,0,15.2-3.2,20.8-9.5c5.6-6.4,8.4-15.6,8.4-27.7c0-11.8-2.8-20.9-8.4-27.3
		c-5.6-6.4-12.6-9.5-20.8-9.5c-8.3,0-15.2,3.2-20.9,9.5C2661.6,187.5,2658.8,196.6,2658.8,208.6L2658.8,208.6z M2884,269h-31.7
		v-61.6c0-13-0.7-21.5-2-25.3c-1.4-3.8-3.6-6.8-6.6-8.9c-3.1-2.1-6.7-3.2-11-3.2c-5.5,0-10.4,1.5-14.8,4.6c-4.4,3-7.4,7-9,12
		c-1.6,5-2.4,14.3-2.4,27.7V269h-31.7V148.2h29.5V166c10.5-13.6,23.6-20.5,39.5-20.5c7,0,13.4,1.3,19.2,3.8
		c5.8,2.5,10.2,5.8,13.1,9.7c3,3.9,5,8.4,6.2,13.4c1.2,5,1.7,12.2,1.8,21.5V269z"/>
	<path d="M1135.7,507.9V387.4h86.8v14.2h-70.9v36.9h66.4v14.1h-66.4v41h73.7v14.2H1135.7z M1302.5,507.9v-12.8
		c-6.8,9.9-16,14.8-27.6,14.8c-5.1,0-9.9-1-14.4-3c-4.5-2-7.8-4.4-9.9-7.4c-2.2-3-3.7-6.6-4.5-11c-0.6-2.9-0.9-7.5-0.9-13.8v-54.1
		h14.7V469c0,7.7,0.3,12.9,0.9,15.6c0.9,3.9,2.9,6.9,5.9,9.2c3,2.2,6.7,3.3,11.1,3.3c4.4,0,8.6-1.1,12.4-3.4
		c3.9-2.3,6.6-5.4,8.2-9.3c1.6-3.9,2.4-9.6,2.4-17.1v-46.8h14.7v87.3H1302.5z M1338.7,507.9v-87.3h13.3v13.2
		c3.4-6.2,6.5-10.3,9.4-12.2c2.9-2,6-3,9.5-3c5,0,10,1.6,15.1,4.8l-5.1,13.7c-3.6-2.1-7.2-3.2-10.8-3.2c-3.2,0-6.1,1-8.7,2.9
		c-2.6,1.9-4.4,4.6-5.5,8.1c-1.6,5.3-2.5,11-2.5,17.3v45.7H1338.7z M1389.4,464.2c0-16.2,4.5-28.1,13.4-35.9
		c7.5-6.5,16.6-9.7,27.4-9.7c12,0,21.7,3.9,29.3,11.8c7.6,7.9,11.4,18.7,11.4,32.6c0,11.2-1.7,20.1-5,26.5
		c-3.4,6.4-8.2,11.4-14.7,15c-6.4,3.6-13.4,5.3-21,5.3c-12.2,0-22-3.9-29.5-11.8C1393.2,490.3,1389.4,479,1389.4,464.2L1389.4,464.2
		z M1404.6,464.2c0,11.2,2.4,19.5,7.3,25.1c4.9,5.6,11,8.3,18.3,8.3c7.3,0,13.4-2.8,18.3-8.4c4.9-5.6,7.3-14.1,7.3-25.6
		c0-10.8-2.4-19-7.3-24.5c-4.9-5.6-11-8.3-18.2-8.3c-7.4,0-13.5,2.8-18.3,8.3C1407,444.7,1404.6,453.1,1404.6,464.2L1404.6,464.2z
		 M1488.3,541.3V420.6h13.4V432c3.2-4.4,6.7-7.8,10.7-10c4-2.2,8.8-3.3,14.5-3.3c7.4,0,14,1.9,19.7,5.8c5.7,3.8,10,9.2,12.9,16.2
		c2.9,7,4.3,14.6,4.3,23c0,8.9-1.6,17-4.8,24.1c-3.2,7.2-7.8,12.6-13.9,16.4c-6.1,3.8-12.5,5.7-19.2,5.7c-4.9,0-9.3-1-13.2-3.1
		c-3.9-2.1-7.1-4.7-9.6-7.9v42.5H1488.3z M1501.6,464.7c0,11.2,2.3,19.5,6.8,24.9c4.5,5.4,10,8.1,16.5,8.1c6.6,0,12.2-2.8,16.8-8.3
		c4.7-5.6,7-14.2,7-25.8c0-11.1-2.3-19.4-6.8-25c-4.6-5.5-10-8.3-16.3-8.3c-6.3,0-11.8,2.9-16.7,8.8
		C1504,445,1501.6,453.5,1501.6,464.7L1501.6,464.7z M1641.1,479.8l15.2,1.9c-2.4,8.9-6.9,15.9-13.3,20.8
		c-6.5,4.9-14.8,7.4-24.9,7.4c-12.7,0-22.8-3.9-30.3-11.8c-7.5-7.9-11.2-18.9-11.2-33.1c0-14.7,3.8-26.1,11.3-34.2
		c7.5-8.1,17.3-12.2,29.3-12.2c11.6,0,21.1,4,28.5,11.9c7.4,7.9,11.1,19.1,11.1,33.5c0,0.9,0,2.2-0.1,3.9h-64.9
		c0.5,9.6,3.2,16.9,8.1,22c4.9,5.1,10.9,7.6,18.2,7.6c5.4,0,10-1.4,13.8-4.3C1635.9,490.6,1638.9,486,1641.1,479.8L1641.1,479.8z
		 M1592.7,455.9h48.6c-0.7-7.3-2.5-12.8-5.6-16.5c-4.7-5.7-10.8-8.5-18.3-8.5c-6.8,0-12.5,2.3-17.1,6.8
		C1595.8,442.2,1593.2,448.3,1592.7,455.9L1592.7,455.9z M1731.7,497.1c-5.5,4.7-10.7,7.9-15.8,9.9c-5.1,1.9-10.5,2.9-16.3,2.9
		c-9.6,0-16.9-2.3-22-7c-5.1-4.7-7.7-10.7-7.7-18c0-4.3,1-8.2,2.9-11.7c1.9-3.5,4.5-6.4,7.6-8.5c3.1-2.1,6.7-3.8,10.6-4.8
		c2.9-0.8,7.3-1.5,13.1-2.2c11.9-1.4,20.7-3.1,26.3-5.1c0.1-2,0.1-3.3,0.1-3.9c0-6-1.4-10.3-4.2-12.7c-3.8-3.3-9.4-5-16.8-5
		c-6.9,0-12.1,1.2-15.4,3.7c-3.3,2.4-5.8,6.8-7.3,12.9l-14.4-2c1.3-6.2,3.5-11.2,6.5-15c3-3.8,7.3-6.7,13-8.8
		c5.7-2.1,12.3-3.1,19.7-3.1c7.4,0,13.5,0.9,18.1,2.6c4.6,1.8,8,4,10.2,6.6c2.2,2.7,3.7,6,4.6,10.1c0.5,2.5,0.7,7.1,0.7,13.6v19.7
		c0,13.8,0.3,22.4,0.9,26.1c0.6,3.6,1.9,7.1,3.7,10.5h-15.4C1733.1,504.8,1732.1,501.2,1731.7,497.1L1731.7,497.1z M1730.5,464.1
		c-5.4,2.2-13.4,4.1-24.1,5.6c-6.1,0.9-10.3,1.9-12.9,3c-2.5,1.1-4.5,2.7-5.8,4.8c-1.4,2.1-2.1,4.5-2,7c0,3.9,1.5,7.2,4.5,9.9
		c3,2.6,7.3,3.9,13.1,3.9c5.7,0,10.7-1.2,15.1-3.7c4.4-2.5,7.7-5.9,9.7-10.2c1.6-3.3,2.4-8.3,2.4-14.8V464.1z M1768.3,507.9v-87.3
		h13.3V433c6.4-9.6,15.6-14.4,27.7-14.4c5.2,0,10.1,0.9,14.5,2.8c4.4,1.9,7.7,4.4,9.9,7.4c2.2,3.1,3.7,6.7,4.6,10.9
		c0.5,2.7,0.8,7.5,0.8,14.4v53.7h-14.7v-53.1c0-6-0.6-10.5-1.7-13.5c-1.1-3-3.2-5.4-6.1-7.2c-2.9-1.8-6.3-2.7-10.3-2.7
		c-6.3,0-11.7,2-16.3,6c-4.6,4-6.8,11.6-6.8,22.8v47.7H1768.3z M1910.3,507.9V387.4h53.2c10.7,0,18.8,1.1,24.4,3.2
		c5.6,2.2,10,6,13.3,11.5c3.3,5.5,5,11.5,5,18.2c0,8.5-2.8,15.8-8.3,21.6c-5.5,5.9-14,9.6-25.5,11.2c4.2,2,7.4,4,9.6,6
		c4.6,4.3,9,9.6,13.2,16l20.9,32.8h-20l-15.9-25.1c-4.6-7.2-8.5-12.8-11.5-16.6c-3-3.8-5.7-6.5-8.1-8.1c-2.4-1.5-4.8-2.6-7.2-3.2
		c-1.8-0.4-4.8-0.6-8.8-0.6h-18.4v53.5H1910.3z M1926.2,440.6h34.1c7.3,0,12.9-0.8,17-2.3c4.1-1.5,7.2-3.9,9.3-7.2
		c2.1-3.3,3.2-6.9,3.2-10.8c0-5.7-2.1-10.4-6.2-14c-4.1-3.7-10.6-5.5-19.5-5.5h-38V440.6z M2088.9,479.8l15.2,1.9
		c-2.4,8.9-6.9,15.9-13.3,20.8c-6.5,4.9-14.8,7.4-24.9,7.4c-12.7,0-22.8-3.9-30.3-11.8c-7.5-7.9-11.2-18.9-11.2-33.1
		c0-14.7,3.8-26.1,11.3-34.2c7.5-8.1,17.3-12.2,29.3-12.2c11.6,0,21.1,4,28.5,11.9c7.4,7.9,11.1,19.1,11.1,33.5c0,0.9,0,2.2-0.1,3.9
		h-64.9c0.5,9.6,3.2,16.9,8.1,22c4.9,5.1,10.9,7.6,18.2,7.6c5.4,0,10-1.4,13.8-4.3C2083.6,490.6,2086.7,486,2088.9,479.8
		L2088.9,479.8z M2040.5,455.9h48.6c-0.7-7.3-2.5-12.8-5.6-16.5c-4.7-5.7-10.8-8.5-18.3-8.5c-6.8,0-12.5,2.3-17.1,6.8
		C2043.6,442.2,2041,448.3,2040.5,455.9L2040.5,455.9z M2120,515.1l14.3,2.1c0.6,4.4,2.3,7.7,5,9.7c3.7,2.7,8.6,4.1,15,4.1
		c6.8,0,12.1-1.4,15.8-4.1c3.7-2.7,6.2-6.6,7.5-11.5c0.8-3,1.1-9.3,1.1-19c-6.4,7.6-14.5,11.4-24.1,11.4c-12,0-21.2-4.3-27.8-13
		c-6.6-8.7-9.8-19-9.8-31.1c0-8.3,1.5-16,4.5-23.1c3-7,7.4-12.5,13.1-16.3c5.7-3.8,12.4-5.8,20.1-5.8c10.3,0,18.7,4.2,25.4,12.5
		v-10.5h13.6v75.4c0,13.6-1.4,23.2-4.1,28.9c-2.8,5.7-7.1,10.1-13.1,13.4c-6,3.3-13.3,4.9-22.1,4.9c-10.4,0-18.8-2.3-25.1-7
		C2122.9,531.6,2119.8,524.5,2120,515.1L2120,515.1z M2132.2,462.7c0,11.5,2.3,19.8,6.8,25.1c4.5,5.3,10.2,7.9,17,7.9
		c6.8,0,12.4-2.6,17-7.8c4.6-5.2,6.9-13.4,6.9-24.6c0-10.7-2.4-18.7-7.1-24.2c-4.7-5.4-10.4-8.1-17.1-8.1c-6.6,0-12.1,2.7-16.7,8
		C2134.5,444.2,2132.2,452.2,2132.2,462.7L2132.2,462.7z M2216.2,404.4v-17h14.7v17H2216.2z M2216.2,507.9v-87.3h14.7v87.3H2216.2z
		 M2247.9,464.2c0-16.2,4.5-28.1,13.4-35.9c7.5-6.5,16.6-9.7,27.4-9.7c12,0,21.7,3.9,29.3,11.8c7.6,7.9,11.4,18.7,11.4,32.6
		c0,11.2-1.7,20.1-5,26.5c-3.4,6.4-8.2,11.4-14.7,15c-6.4,3.6-13.4,5.3-21,5.3c-12.2,0-22-3.9-29.5-11.8
		C2251.7,490.3,2247.9,479,2247.9,464.2L2247.9,464.2z M2263.1,464.2c0,11.2,2.4,19.5,7.3,25.1c4.9,5.6,11,8.3,18.3,8.3
		c7.3,0,13.4-2.8,18.3-8.4c4.9-5.6,7.3-14.1,7.3-25.6c0-10.8-2.4-19-7.3-24.5c-4.9-5.6-11-8.3-18.2-8.3c-7.4,0-13.5,2.8-18.3,8.3
		C2265.5,444.7,2263.1,453.1,2263.1,464.2L2263.1,464.2z M2346.8,507.9v-87.3h13.3V433c6.4-9.6,15.6-14.4,27.7-14.4
		c5.2,0,10.1,0.9,14.5,2.8c4.4,1.9,7.7,4.4,9.9,7.4c2.2,3.1,3.7,6.7,4.6,10.9c0.5,2.7,0.8,7.5,0.8,14.4v53.7h-14.7v-53.1
		c0-6-0.6-10.5-1.7-13.5c-1.1-3-3.2-5.4-6.1-7.2c-2.9-1.8-6.3-2.7-10.3-2.7c-6.3,0-11.7,2-16.3,6c-4.6,4-6.8,11.6-6.8,22.8v47.7
		H2346.8z M2496.9,497.1c-5.5,4.7-10.7,7.9-15.8,9.9c-5.1,1.9-10.5,2.9-16.3,2.9c-9.6,0-16.9-2.3-22-7c-5.1-4.7-7.7-10.7-7.7-18
		c0-4.3,1-8.2,2.9-11.7c1.9-3.5,4.5-6.4,7.6-8.5c3.1-2.1,6.7-3.8,10.6-4.8c2.9-0.8,7.3-1.5,13.1-2.2c11.9-1.4,20.7-3.1,26.3-5.1
		c0.1-2,0.1-3.3,0.1-3.9c0-6-1.4-10.3-4.2-12.7c-3.8-3.3-9.4-5-16.8-5c-6.9,0-12.1,1.2-15.4,3.7c-3.3,2.4-5.8,6.8-7.3,12.9l-14.4-2
		c1.3-6.2,3.5-11.2,6.5-15c3-3.8,7.3-6.7,13-8.8c5.7-2.1,12.3-3.1,19.7-3.1c7.4,0,13.5,0.9,18.1,2.6c4.6,1.8,8,4,10.2,6.6
		c2.2,2.7,3.7,6,4.6,10.1c0.5,2.5,0.7,7.1,0.7,13.6v19.7c0,13.8,0.3,22.4,0.9,26.1c0.6,3.6,1.9,7.1,3.7,10.5h-15.4
		C2498.3,504.8,2497.3,501.2,2496.9,497.1L2496.9,497.1z M2495.7,464.1c-5.4,2.2-13.4,4.1-24.1,5.6c-6.1,0.9-10.3,1.9-12.9,3
		c-2.5,1.1-4.5,2.7-5.8,4.8c-1.4,2.1-2,4.5-2,7c0,3.9,1.5,7.2,4.5,9.9c3,2.6,7.3,3.9,13.1,3.9c5.7,0,10.7-1.2,15.1-3.7
		c4.4-2.5,7.7-5.9,9.7-10.2c1.6-3.3,2.4-8.3,2.4-14.8V464.1z M2533.2,507.9V387.4h14.7v120.5H2533.2z"/>
	<path d="M1135.4,718.2V597.8h41.4c9.3,0,16.5,0.6,21.4,1.7c6.9,1.6,12.7,4.5,17.6,8.6c6.3,5.4,11.1,12.2,14.2,20.6
		c3.1,8.4,4.7,17.9,4.7,28.6c0,9.1-1.1,17.3-3.2,24.3c-2.1,7.1-4.9,12.9-8.2,17.5c-3.3,4.6-7,8.3-10.9,10.9c-4,2.7-8.7,4.7-14.3,6
		c-5.6,1.4-12,2.1-19.3,2.1H1135.4z M1151.3,704h25.6c7.9,0,14.1-0.7,18.6-2.2c4.5-1.5,8.1-3.6,10.8-6.2c3.8-3.8,6.7-8.9,8.8-15.2
		c2.1-6.4,3.2-14.1,3.2-23.2c0-12.6-2.1-22.3-6.2-29c-4.1-6.8-9.1-11.3-15-13.6c-4.3-1.6-11.1-2.5-20.6-2.5h-25.2V704z
		 M1314.2,690.1l15.2,1.9c-2.4,8.9-6.9,15.9-13.3,20.8c-6.5,4.9-14.8,7.4-24.9,7.4c-12.7,0-22.8-3.9-30.3-11.8
		c-7.5-7.9-11.2-18.9-11.2-33.1c0-14.7,3.8-26.1,11.3-34.2c7.5-8.1,17.3-12.2,29.3-12.2c11.6,0,21.1,4,28.5,11.9
		c7.4,7.9,11.1,19.1,11.1,33.5c0,0.9,0,2.2-0.1,3.9H1265c0.5,9.6,3.2,16.9,8.1,22c4.9,5.1,10.9,7.6,18.2,7.6c5.4,0,10-1.4,13.8-4.3
		C1309,700.9,1312,696.4,1314.2,690.1L1314.2,690.1z M1265.8,666.2h48.6c-0.7-7.3-2.5-12.8-5.6-16.5c-4.7-5.7-10.8-8.5-18.3-8.5
		c-6.8,0-12.5,2.3-17.1,6.8C1268.9,652.5,1266.3,658.6,1265.8,666.2L1265.8,666.2z M1372.2,718.2l-33.1-87.3h15.6l18.7,52.3
		c2,5.6,3.9,11.5,5.6,17.6c1.3-4.6,3.1-10.1,5.5-16.6l19.3-53.2h15.1l-32.9,87.3H1372.2z M1491.4,690.1l15.2,1.9
		c-2.4,8.9-6.9,15.9-13.3,20.8c-6.5,4.9-14.8,7.4-24.9,7.4c-12.7,0-22.8-3.9-30.3-11.8c-7.5-7.9-11.2-18.9-11.2-33.1
		c0-14.7,3.8-26.1,11.3-34.2c7.5-8.1,17.3-12.2,29.3-12.2c11.6,0,21.1,4,28.5,11.9c7.4,7.9,11,19.1,11.1,33.5c0,0.9,0,2.2-0.1,3.9
		h-64.9c0.5,9.6,3.2,16.9,8.1,22c4.9,5.1,10.9,7.6,18.2,7.6c5.4,0,10-1.4,13.8-4.3C1486.2,700.9,1489.2,696.4,1491.4,690.1
		L1491.4,690.1z M1443,666.2h48.6c-0.7-7.3-2.5-12.8-5.6-16.5c-4.7-5.7-10.8-8.5-18.3-8.5c-6.8,0-12.5,2.3-17.1,6.8
		C1446.1,652.5,1443.5,658.6,1443,666.2L1443,666.2z M1524.9,718.2V597.8h14.7v120.5H1524.9z M1557.1,674.6
		c0-16.2,4.5-28.1,13.4-35.9c7.5-6.5,16.6-9.7,27.4-9.7c12,0,21.7,3.9,29.3,11.8c7.6,7.9,11.4,18.7,11.4,32.6
		c0,11.2-1.7,20.1-5,26.5c-3.4,6.4-8.2,11.4-14.7,15c-6.4,3.6-13.4,5.3-21,5.3c-12.2,0-22-3.9-29.5-11.8
		C1560.9,700.6,1557.1,689.4,1557.1,674.6L1557.1,674.6z M1572.3,674.6c0,11.2,2.4,19.5,7.3,25.1c4.9,5.6,11,8.3,18.3,8.3
		c7.3,0,13.4-2.8,18.3-8.4c4.9-5.6,7.3-14.1,7.3-25.6c0-10.8-2.4-19-7.3-24.5c-4.9-5.6-11-8.3-18.2-8.3c-7.4,0-13.5,2.8-18.3,8.3
		C1574.7,655.1,1572.3,663.4,1572.3,674.6L1572.3,674.6z M1656,751.7V631h13.4v11.3c3.2-4.4,6.7-7.8,10.7-10c4-2.2,8.8-3.3,14.5-3.3
		c7.4,0,14,1.9,19.7,5.8c5.7,3.8,10,9.2,12.9,16.2c2.9,7,4.3,14.6,4.3,23c0,8.9-1.6,17-4.8,24.1c-3.2,7.2-7.8,12.6-13.9,16.4
		c-6.1,3.8-12.5,5.7-19.2,5.7c-4.9,0-9.3-1-13.2-3.1c-3.9-2.1-7.1-4.7-9.6-7.9v42.5H1656z M1669.3,675.1c0,11.2,2.3,19.5,6.8,24.9
		c4.5,5.4,10,8.1,16.5,8.1c6.5,0,12.2-2.8,16.8-8.3c4.7-5.6,7-14.2,7-25.8c0-11.1-2.3-19.4-6.8-25c-4.6-5.5-10-8.3-16.3-8.3
		c-6.3,0-11.8,2.9-16.7,8.8C1671.7,655.3,1669.3,663.9,1669.3,675.1L1669.3,675.1z M1749.3,718.2V631h13.2v12.2
		c2.7-4.3,6.4-7.7,10.9-10.3c4.5-2.6,9.7-3.9,15.5-3.9c6.4,0,11.7,1.3,15.8,4c4.1,2.7,7,6.4,8.7,11.3c6.9-10.2,15.8-15.3,26.9-15.3
		c8.6,0,15.3,2.4,19.9,7.2c4.6,4.8,7,12.2,7,22.1v59.9h-14.7v-55c0-5.9-0.5-10.2-1.4-12.8c-1-2.6-2.7-4.7-5.2-6.3
		c-2.5-1.6-5.5-2.4-8.8-2.4c-6.1,0-11.2,2-15.2,6.1c-4,4.1-6.1,10.6-6.1,19.6v50.7H1801v-56.7c0-6.6-1.2-11.5-3.6-14.8
		c-2.4-3.3-6.3-4.9-11.8-4.9c-4.1,0-8,1.1-11.5,3.3c-3.5,2.2-6.1,5.4-7.7,9.6c-1.6,4.2-2.4,10.3-2.4,18.2v45.3H1749.3z
		 M1948.7,690.1l15.2,1.9c-2.4,8.9-6.9,15.9-13.3,20.8c-6.5,4.9-14.8,7.4-24.9,7.4c-12.7,0-22.8-3.9-30.3-11.8
		c-7.5-7.9-11.2-18.9-11.2-33.1c0-14.7,3.8-26.1,11.3-34.2c7.5-8.1,17.3-12.2,29.3-12.2c11.6,0,21.1,4,28.5,11.9
		c7.4,7.9,11.1,19.1,11.1,33.5c0,0.9,0,2.2-0.1,3.9h-64.9c0.5,9.6,3.2,16.9,8.1,22c4.9,5.1,10.9,7.6,18.2,7.6c5.4,0,10-1.4,13.8-4.3
		C1943.4,700.9,1946.5,696.4,1948.7,690.1L1948.7,690.1z M1900.3,666.2h48.6c-0.7-7.3-2.5-12.8-5.6-16.5c-4.7-5.7-10.8-8.5-18.3-8.5
		c-6.8,0-12.5,2.3-17.1,6.8C1903.4,652.5,1900.8,658.6,1900.3,666.2L1900.3,666.2z M1982.5,718.2V631h13.3v12.4
		c6.4-9.6,15.6-14.4,27.7-14.4c5.2,0,10.1,0.9,14.5,2.8c4.4,1.9,7.7,4.4,9.9,7.4c2.2,3.1,3.7,6.7,4.6,10.9c0.5,2.7,0.8,7.5,0.8,14.4
		v53.7h-14.7v-53.1c0-6-0.6-10.5-1.7-13.5c-1.1-3-3.2-5.4-6.1-7.2c-2.9-1.8-6.3-2.7-10.3-2.7c-6.3,0-11.7,2-16.3,6
		c-4.6,4-6.8,11.6-6.8,22.8v47.7H1982.5z M2108.1,705l2.1,13.1c-4.2,0.9-7.9,1.3-11.1,1.3c-5.4,0-9.5-0.9-12.5-2.5
		c-3-1.7-5-3.9-6.2-6.7c-1.2-2.8-1.8-8.6-1.8-17.5v-50.2h-10.8V631h10.8v-21.6l14.7-8.9V631h14.8v11.5h-14.8v51
		c0,4.2,0.3,6.9,0.8,8.1c0.5,1.2,1.4,2.2,2.5,2.9c1.2,0.7,2.9,1.1,5,1.1C2103.2,705.6,2105.4,705.4,2108.1,705L2108.1,705z
		 M2171.6,718.2V597.8h81V612h-65.1v37.3h56.3v14.2h-56.3v54.7H2171.6z M2328.4,718.2v-12.8c-6.8,9.9-16,14.8-27.6,14.8
		c-5.1,0-9.9-1-14.4-3c-4.5-2-7.8-4.5-9.9-7.4c-2.2-3-3.7-6.6-4.5-11c-0.6-2.9-0.9-7.5-0.9-13.8V631h14.7v48.4
		c0,7.7,0.3,12.9,0.9,15.6c0.9,3.9,2.9,6.9,5.9,9.2c3,2.2,6.7,3.3,11.1,3.3c4.4,0,8.6-1.1,12.4-3.4c3.9-2.3,6.6-5.4,8.2-9.3
		c1.6-3.9,2.4-9.6,2.4-17.1V631h14.7v87.3H2328.4z M2364.8,718.2V631h13.3v12.4c6.4-9.6,15.6-14.4,27.7-14.4
		c5.2,0,10.1,0.9,14.5,2.8c4.4,1.9,7.7,4.4,9.9,7.4c2.2,3.1,3.7,6.7,4.6,10.9c0.5,2.7,0.8,7.5,0.8,14.4v53.7h-14.7v-53.1
		c0-6-0.6-10.5-1.7-13.5c-1.1-3-3.2-5.4-6.1-7.2c-2.9-1.8-6.3-2.7-10.3-2.7c-6.3,0-11.7,2-16.3,6c-4.6,4-6.8,11.6-6.8,22.8v47.7
		H2364.8z M2514.6,718.2v-11c-5.5,8.7-13.6,13-24.3,13c-6.9,0-13.3-1.9-19.1-5.8c-5.8-3.8-10.3-9.2-13.5-16.1
		c-3.2-6.9-4.8-14.8-4.8-23.7c0-8.7,1.4-16.6,4.3-23.7c2.9-7.1,7.2-12.5,13-16.3c5.8-3.8,12.2-5.7,19.4-5.7c5.2,0,9.9,1.1,14,3.3
		c4.1,2.2,7.4,5.1,10,8.7v-43.2h14.7v120.5H2514.6z M2468,674.7c0,11.2,2.3,19.5,7,25.1c4.7,5.5,10.2,8.3,16.6,8.3
		c6.4,0,11.9-2.6,16.4-7.9c4.5-5.3,6.8-13.4,6.8-24.2c0-11.9-2.3-20.7-6.9-26.3c-4.6-5.6-10.2-8.4-16.9-8.4c-6.6,0-12,2.7-16.4,8.1
		C2470.2,654.7,2468,663.1,2468,674.7L2468,674.7z"/>
	<rect x="75.4" y="81.1" class="st0" width="1020.5" height="680"/>
	<rect x="75.4" y="81.1" class="st1" width="1020.5" height="680"/>
	<polygon class="st2" points="584.9,155.6 576.4,181.6 548.4,181.6 570.9,198.1 562.4,224.1 584.9,208.1 606.9,224.1 598.4,198.1 
		621.4,181.6 593.4,181.6 	"/>
	<polygon class="st2" points="357.9,383.1 349.4,409.6 321.4,409.6 344.4,425.6 335.9,451.6 357.9,436.1 380.4,451.6 371.9,425.6 
		394.4,409.6 366.4,409.6 	"/>
	<polygon class="st2" points="811.4,383.1 802.9,409.1 774.9,409.1 797.4,425.6 788.9,451.6 811.4,435.6 833.4,451.6 824.9,425.6 
		847.9,409.1 819.9,409.1 	"/>
	<polygon class="st2" points="585.4,609.1 576.9,635.1 548.9,635.1 571.9,651.6 563.4,677.6 585.4,661.6 607.9,677.6 599.4,651.6 
		621.9,635.1 593.9,635.1 	"/>
	<polygon class="st2" points="697.9,185.1 689.4,211.1 661.4,211.1 683.9,227.6 675.4,253.6 697.9,237.6 720.4,253.6 711.9,227.6 
		734.4,211.1 706.4,211.1 	"/>
	<polygon class="st2" points="780.4,268.6 771.9,294.6 743.9,294.6 766.4,311.1 757.9,337.1 780.4,321.1 802.9,337.1 793.9,311.1 
		816.9,294.6 788.9,294.6 	"/>
	<polygon class="st2" points="781.9,494.6 773.4,520.6 745.4,520.6 767.9,537.1 759.4,563.1 781.9,547.1 803.9,563.1 795.4,537.1 
		818.4,520.6 790.4,520.6 	"/>
	<polygon class="st2" points="698.9,577.6 690.4,604.1 662.4,604.1 684.9,620.1 676.4,646.1 698.9,630.1 720.9,646.1 712.4,620.1 
		735.4,604.1 707.4,604.1 	"/>
	<polygon class="st2" points="471.9,577.6 463.4,603.6 435.4,603.6 458.4,620.1 449.9,646.1 471.9,630.1 494.4,646.1 485.9,620.1 
		508.4,603.6 480.4,603.6 	"/>
	<polygon class="st2" points="388.9,494.1 380.4,520.6 352.4,520.6 374.9,536.6 366.4,562.6 388.9,547.1 411.4,562.6 402.9,536.6 
		425.4,520.6 397.4,520.6 	"/>
	<polygon class="st2" points="388.4,268.6 379.9,294.6 351.9,294.6 374.9,311.1 366.4,337.1 388.4,321.1 410.9,337.1 402.4,311.1 
		424.9,294.6 396.9,294.6 	"/>
	<polygon class="st2" points="471.9,185.1 463.4,211.6 435.4,211.6 457.9,228.1 449.4,254.1 471.9,238.1 494.4,254.1 485.9,228.1 
		508.4,211.6 480.4,211.6 	"/>
</g>
</svg>
