<?xml version="1.0" encoding="UTF-8"?>
<svg width="162px" height="162px" viewBox="0 0 162 162" version="1.1" xmlns="http://www.w3.org/2000/svg" xmlns:xlink="http://www.w3.org/1999/xlink">
    <title>Group 257</title>
    <g id="Page-1" stroke="none" stroke-width="1" fill="none" fill-rule="evenodd">
        <g id="Part-2-Finished:-Auto-Layout-rules-added" transform="translate(-1358.000000, -2254.000000)" stroke="#FFFFFF" stroke-width="1.403">
            <g id="Group-257" transform="translate(1359.000000, 2255.000000)">
                <path d="M159.788522,85.7226453 C159.735202,86.5327104 159.631963,87.6116628 159.548011,88.4205934 C159.473135,89.1444332 159.355149,90.1087965 159.255314,90.8303671 C159.148673,91.6154723 158.987576,92.6603883 158.854841,93.4420898 C158.723241,94.2181187 158.536051,95.2528238 158.370416,96.0231799 C158.221798,96.7129832 158.028936,97.6319647 157.866705,98.3183645 C157.68859,99.0694333 157.44808,100.070102 157.237065,100.814364 C156.854744,102.154261 156.319267,103.936632 155.896104,105.265184 C155.669207,105.979947 155.332265,106.922754 155.069064,107.625038 C154.171687,110.018928 153.604444,111.353153 153.287923,112.049763 C152.981612,112.722549 152.591349,113.627916 152.265752,114.29049 C151.666744,115.510126 150.857856,117.131391 150.207796,118.323798 C148.938307,120.649615 147.773191,122.477367 147.761846,122.494385 C147.033506,123.623257 146.038563,125.115184 145.275054,126.2225 C144.868909,126.812464 144.30507,127.58282 143.867158,128.150092 C143.428113,128.718499 142.854063,129.485452 142.399135,130.040244 C141.548271,131.074949 140.3945,132.437538 139.514139,133.446149 C139.500525,133.460898 138.120991,135.02657 136.210519,136.920126 C135.253013,137.867471 133.930203,139.082568 132.932991,139.987935 C132.395245,140.476924 131.64535,141.094117 131.092856,141.567222 C130.396282,142.162858 128.515306,143.652516 127.389897,144.46485 C126.793158,144.897112 126.002422,145.480268 125.3898,145.889839 C124.247373,146.655657 122.707877,147.652922 121.541626,148.382434 C120.901777,148.781794 120.027089,149.282128 119.369087,149.654259 C118.707682,150.027525 117.818246,150.511975 117.143227,150.863684 C115.89189,151.514913 114.192432,152.323844 112.912733,152.920614 C112.196872,153.253036 111.221215,153.650127 110.495145,153.960992 C109.680584,154.308163 107.358293,155.204454 105.715559,155.749035 C105.02012,155.980483 104.090976,156.290213 103.387596,156.497835 C102.204328,156.845006 100.620586,157.286344 99.4271082,157.598344 C97.95795,157.979551 95.97487,158.400467 94.4818876,158.673892 C93.0184018,158.940511 91.0580116,159.261587 89.578643,159.423827 C88.3341129,159.558838 86.6709577,159.721078 85.4218896,159.818648 C84.6027914,159.881048 83.5080133,159.92643 82.686646,159.958197 C81.0722738,160.019463 78.9167521,160.008117 77.3012453,159.958197 C75.8309526,159.912816 73.8694279,159.800496 72.4070766,159.63939 C70.6225315,159.445383 68.2457852,159.156074 66.477123,158.844074 C65.5593245,158.684103 64.3386185,158.452656 63.427627,158.257514 C62.4349526,158.043085 61.1121429,157.748104 60.1319478,157.481486 C58.2078611,156.957326 55.6552696,156.202853 53.7686209,155.557297 C52.1190796,154.992294 49.9533475,154.143654 48.3537235,153.448178 C47.1046554,152.905865 45.4415003,152.17068 44.2378116,151.5342 C42.0323725,150.364484 39.1190148,148.746623 36.9963932,147.430551 C35.8403529,146.713518 34.348505,145.682217 33.2435165,144.886901 C32.1589487,144.108603 30.7646665,142.996749 29.7027885,142.187818 C28.6068759,141.350524 27.2557041,140.099121 26.2131123,139.197157 C25.1920757,138.314481 23.9112421,137.048329 22.9707539,136.081697 C21.8759758,134.957363 20.4510625,133.421189 19.4266225,132.231051 C18.094737,130.684666 16.3952783,128.550587 15.2086069,126.889613 C14.5472021,125.963824 13.6827244,124.716959 13.0598921,123.763941 C12.4245804,122.791636 11.696241,121.666167 11.0200879,120.472626 C9.72564038,118.268205 9.46130535,115.491973 10.2372932,112.188178 C11.2787505,107.75551 14.1558047,102.561563 18.7913108,96.7504232 C23.4256824,90.9392834 29.5405571,84.8592565 36.9646276,78.6793896 C44.1357079,72.710548 52.2211832,66.8982737 60.995291,61.4070756 C69.7682642,55.9170121 78.7908242,51.0214501 87.8077118,46.8588043 C96.5160194,42.8391112 104.864695,39.6703268 112.540621,37.5702839 C113.115805,38.5505309 114.32857,39.1416288 115.247503,38.8897598 C116.166436,38.6378908 116.445519,37.6394912 115.869201,36.6592442 C115.292882,35.6789973 114.081252,35.0878993 113.162319,35.3397683 C112.243386,35.5905028 111.964303,36.5889025 112.540621,37.5702839 C104.864695,39.6703268 96.5160194,42.8391112 87.8077118,46.8588043 C78.7908242,51.0214501 69.7682642,55.9170121 60.995291,61.4070756 C52.2211832,66.8982737 44.1357079,72.710548 36.9646276,78.6793896 C29.5405571,84.8592565 23.4256824,90.9392834 18.7913108,96.7504232 C14.1558047,102.561563 11.2787505,107.75551 10.2372932,112.188178 C9.46130535,115.491973 9.72564038,118.268205 11.0200879,120.472626 C10.0852722,118.812786 8.87477656,116.576598 8.02050928,114.872511 C7.42830806,113.69145 6.69769965,112.086069 6.20419864,110.86076 C5.85364274,109.988295 5.37375554,108.827655 5.04702384,107.944979 C4.65562648,106.888718 4.16212546,105.469402 3.81383853,104.398391 C3.54383108,103.570174 3.20915798,102.458319 2.97545405,101.619891 C2.70431211,100.645316 2.36169761,99.3417241 2.13139713,98.3580736 C1.94420709,97.5570848 1.7070997,96.4860742 1.54827179,95.6794127 C1.36675418,94.7649694 1.14666407,93.5396607 0.996912033,92.6172756 C0.872118672,91.8412468 0.723501124,90.803138 0.627069891,90.022571 C0.518159321,89.1512404 0.38429008,87.9883318 0.315086489,87.1135975 C0.224327681,85.980187 0.0360031545,83.6214678 0.0212548482,81.8050612 C0.0133134525,80.9791124 -0.0127797048,79.8797382 0.00764102698,79.0537894 C0.042810065,77.6197245 0.126761962,75.7091506 0.209579375,74.2773547 C0.256093264,73.466155 0.365003833,72.3883372 0.44895573,71.5805411 C0.523831747,70.8567014 0.641818197,69.8934726 0.741652886,69.171902 C0.84942897,68.3867968 1.00939137,67.3418808 1.14212613,66.5601792 C1.2737264,65.7830159 1.45978195,64.7494453 1.62655126,63.9779547 C1.77516881,63.2892858 1.96803128,62.3691698 2.13026265,61.6839046 C2.30837681,60.9317012 2.54888765,59.9310325 2.75990188,59.1867709 C3.14222335,57.8457387 3.67770032,56.0645029 4.10086326,54.7359507 C4.32776028,54.0211873 4.66470236,53.0783803 4.9279029,52.3749624 C5.8264151,49.9810723 6.39252316,48.6468473 6.7090445,47.9502367 C7.01535548,47.2774514 7.40561836,46.3720845 7.73121558,45.7095102 C8.33022371,44.4898742 9.13911159,42.8697439 9.78917155,41.6762025 C11.0586604,39.3503851 12.2237766,37.5237676 12.2351214,37.5056149 C12.9634609,36.3767425 13.9584043,34.8848158 14.7219128,33.7774998 C15.1280584,33.1875364 15.6987044,32.4217185 16.1298088,31.8499077 C16.5620476,31.2758279 17.142904,30.5145482 17.5978325,29.9608902 C18.4486963,28.9250506 19.6024677,27.562462 20.4828281,26.5538514 C20.4964419,26.5391023 21.8759758,24.9734302 23.7864487,23.0798745 C24.7439541,22.1325293 26.0667637,20.9174316 27.0639761,20.0131992 C27.6017221,19.5230757 28.3516167,18.9058832 28.904111,18.4327779 C29.6018193,17.8371417 31.4827956,16.3486186 32.6070703,15.5351498 C33.2038095,15.1028881 33.9945456,14.519732 34.6071676,14.1101612 C35.7495941,13.3443433 37.2879559,12.3470782 38.455341,11.6187003 C39.0951906,11.2182059 39.9698786,10.7178715 40.62788,10.3468753 C41.2892848,9.9724754 42.1787211,9.48802466 42.8526053,9.13631569 C44.1039423,8.48508683 45.803401,7.6761562 47.0831002,7.08052005 C47.7989603,6.7469638 48.7746175,6.35100757 49.4995535,6.04127677 C50.2335653,5.72700779 51.2273743,5.35033883 51.9738655,5.07124075 C52.6613634,4.81369902 53.5882378,4.49375731 54.2802737,4.25096467 C54.9734441,4.00930657 55.9059908,3.70865213 56.6105061,3.50103039 C57.793774,3.1538596 59.3775152,2.71252157 60.572128,2.40165623 C62.0412862,2.01931454 64.0232317,1.59953287 65.5162141,1.32610751 C66.9796999,1.05835488 68.9389556,0.737278627 70.4183242,0.576173229 C71.6628543,0.440027822 73.3260095,0.277787879 74.5762121,0.182486094 C75.3941758,0.117817026 76.4900884,0.0735697682 77.3114557,0.0418025066 C78.9258279,-0.0194629265 81.0813496,-0.00811747591 82.6957219,0.0418025066 C84.1660146,0.0871843089 86.1264049,0.198369725 87.5887562,0.359475123 C89.3733012,0.555751418 91.751182,0.845060408 93.5198443,1.15479121 C94.6202948,1.34879841 96.8745167,1.74702373 99.8638849,2.51737982 C100.835004,2.76811428 102.129452,3.11755416 103.086957,3.42047769 C104.615109,3.90492843 106.642433,4.58338637 108.146761,5.13931345 C110.256903,5.91534227 112.993281,7.15313093 115.029682,8.10728332 C116.385391,8.74035946 118.159726,9.6627446 119.442829,10.4308316 C120.533069,11.0820605 122.001093,11.9284311 123.070912,12.6148308 C124.195187,13.3341324 125.649597,14.3608957 126.753451,15.1119645 C127.893608,15.8879933 129.358229,17.0055202 130.405358,17.9029454 C132.442894,19.6501447 135.127085,22.0224785 137.027348,23.9183032 C138.138009,25.0278883 139.55725,26.5686005 140.570345,27.7678146 C141.888616,29.3278141 143.596017,31.452817 144.78836,33.1092528 C146.132725,34.9755794 147.783401,37.5623421 148.976879,39.5273742 C149.792574,40.8706755 150.788652,42.7177149 151.482957,44.1279544 C152.738832,46.6795462 153.410447,48.1328984 154.561949,51.0350647 C155.450251,53.2780603 156.341957,56.0123138 156.726547,57.3601534 C156.961385,58.1838331 157.275638,59.2786691 157.486652,60.1080215 C157.730566,61.0633084 158.047088,62.3396716 158.23995,63.306304 C158.426006,64.2400346 158.691475,65.4846305 158.841227,66.4251684 C159.085142,67.9579388 159.386915,70.004658 159.552549,71.5465048 C159.645577,72.4064899 159.757891,73.5546495 159.804405,74.4180383 C159.845247,75.1691071 159.911047,76.1697759 159.938274,76.9208447 C159.968905,77.7467935 159.981385,78.8473022 159.996133,79.673251 C160.007478,80.4050326 159.99273,81.3807413 159.966636,82.1102538 C159.930333,83.1948789 159.85886,84.6402893 159.788522,85.7226453 Z" id="Stroke-1"></path>
                <path d="M114.828655,37 C114.224131,37.1549836 113.613322,37.3149666 113,37.4824489 C113.638458,38.5623344 114.980729,39.2135153 116,38.9360447 C115.615417,38.2848638 115.22455,37.641182 114.828655,37 Z" id="Stroke-3"></path>
                <path d="M113.8955,37 C113.6355,37.3291704 113.3725,37.6628011 113.1045,38" id="Stroke-5"></path>
                <path d="M114.4675,37 C114.4925,37.6618986 114.5155,38.3276983 114.5325,39" id="Stroke-7"></path>
                <path d="M113,36.6363174 C113.542011,37.4191251 114.077139,38.2049847 114.603663,39 C115.995684,38.6612411 116.418969,37.318413 115.544869,36 C114.705183,36.2044761 113.856893,36.415056 113,36.6363174 Z" id="Stroke-9"></path>
                <path d="M114,37 C114.673997,37.3292145 115.340233,37.662842 116,38" id="Stroke-11"></path>
                <path d="M113,37.286 C114.008606,37.424 115.008606,37.566 116,37.714" id="Stroke-13"></path>
                <path d="M114.139623,37 C114.766038,36.8222135 115.386164,36.6530097 116,36.4887104 C115.362264,35.4293479 114.01761,34.7905425 113,35.0627398 C113.38239,35.7003191 113.763522,36.3464812 114.139623,37 Z" id="Stroke-15"></path>
                <path d="M114.0925,37 C114.3685,36.6614583 114.6405,36.328125 114.9075,36" id="Stroke-17"></path>
                <path d="M114.5205,37 C114.5105,36.3256851 114.4975,35.6577438 114.4795,35" id="Stroke-19"></path>
                <path d="M115,37.4109868 C114.652208,36.5976602 114.299764,35.7934893 113.946157,35 C113.002816,35.3387589 112.716673,36.680061 113.307569,38 C113.875203,37.7955239 114.440509,37.6002035 115,37.4109868 Z" id="Stroke-21"></path>
                <path d="M115,37 C114.337278,36.6606529 113.669297,36.3281787 113,36" id="Stroke-23"></path>
                <path d="M115,36.7295 C114.336824,36.5715 113.670157,36.4175 113,36.2705" id="Stroke-25"></path>
                <path d="M111.893544,37 C104.167765,39.1003382 95.7648661,42.2678569 87,46.2859446 C95.2967062,60.3157956 112.757927,68.7704508 126,65.1708431 C123.243566,55.5741573 119.457181,46.5036902 114.619148,38.3189489 C113.693105,38.5718514 112.473606,37.9798554 111.893544,37 Z" id="Stroke-27"></path>
                <path d="M105,39 C108.190792,44.6937986 114.90694,48.1240547 120,46.66359" id="Stroke-29"></path>
                <path d="M96,43 C101.742828,52.9628636 113.832279,58.9666149 123,56.41168" id="Stroke-31"></path>
                <path d="M114,39 C109.713459,44.8309687 104.633971,51.5988983 99,59" id="Stroke-33"></path>
                <path d="M114.930616,39 C115.232197,47.221632 114.543751,56.3428814 113,66" id="Stroke-35"></path>
                <path d="M116,39.097263 C120.708337,47.2975018 124.394331,56.3851434 127.076872,66 C139.96507,62.3935766 143.869978,48.0746894 135.795685,34.0194098 C130.537283,33.8523826 124.126521,34.7602378 116.608961,36.8634166 C117.173473,37.8451274 116.900107,38.8450179 116,39.097263 Z" id="Stroke-37"></path>
                <path d="M120,47 C124.986742,45.5354792 126.497038,39.7142465 123.373547,34" id="Stroke-39"></path>
                <path d="M124,57 C132.976022,54.4063929 135.694619,44.1091066 130.072568,34" id="Stroke-41"></path>
                <path d="M116,39 C123.792036,44.8420646 130.477061,51.6094629 136,59" id="Stroke-43"></path>
                <path d="M116,38 C125.218773,40.3369938 133.246498,43.7446809 140,48" id="Stroke-45"></path>
                <path d="M116.284196,37 C124.009749,34.8581041 130.595766,33.9351922 136,34.1052023 C127.704679,19.7977541 110.243969,11.1746571 97,14.8454873 C103.117871,20.3644544 108.720781,27.3094246 113.559814,35.6549542 C114.484688,35.3982042 115.704152,36.000757 116.284196,37 Z" id="Stroke-47"></path>
                <path d="M123,35 C119.810338,29.3062014 113.09419,25.8759453 108,27.33641" id="Stroke-49"></path>
                <path d="M130,34 C124.257412,24.0371364 112.168467,18.0333851 103,20.58832" id="Stroke-51"></path>
                <path d="M115,36 C119.395774,30.0304337 122.716049,25.3732606 125,22" id="Stroke-53"></path>
                <path d="M114,35 C113.753784,26.9701894 112.712412,20.296425 111,15" id="Stroke-55"></path>
                <path d="M113,35.4567612 C108.296968,27.2526824 102.850417,20.4254246 96.9055984,15 C84.0338502,18.6086122 80.1364815,32.9350529 88.1975539,47 C96.7158347,42.971861 104.883441,39.7964187 112.390759,37.6919633 C111.827016,36.7096568 112.10001,35.7091594 113,35.4567612 Z" id="Stroke-57"></path>
                <path d="M108,28 C103.012768,29.4657096 101.503431,35.2857535 104.626122,41" id="Stroke-59"></path>
                <path d="M103,21 C94.0240297,23.5936071 91.3051122,33.8908934 96.9278247,44" id="Stroke-61"></path>
                <path d="M113,36 C104.894407,30.0435341 96.119651,25.386988 87,22" id="Stroke-63"></path>
                <path d="M112,37 C102.856217,34.9957489 93.0719112,34.02845 83,34" id="Stroke-65"></path>
                <path d="M87.6637656,47 C78.6968701,51.2141911 69.7254618,56.1692252 61,61.7284198 C75.8887922,87.5407709 107.228927,103.097327 131,96.4745344 C130.634465,86.4025143 129.017761,76.1915144 126.197273,66.1263859 C113.113593,69.772023 95.861232,61.2092554 87.6637656,47 Z" id="Stroke-67"></path>
                <path d="M78,52 C88.8481204,69.7907801 111.682203,80.5132143 129,75.9486573" id="Stroke-69"></path>
                <path d="M70,56 C82.9754276,78.0611073 110.285103,91.3566862 131,85.6961134" id="Stroke-71"></path>
                <path d="M99,59 C93.2842742,66.7183283 87.2271925,74.794163 81,83" id="Stroke-73"></path>
                <path d="M113,66 C111.457971,75.6115168 109.103154,85.3697322 106,95" id="Stroke-75"></path>
                <path d="M127,66.463605 C129.856311,76.2595111 131.493549,86.1962689 131.863727,96 C155.935575,89.5543542 163.227167,63.9651627 148.148128,38.8432415 C145.663138,36.4632935 141.56376,35.1710343 135.96539,35 C144.26583,48.8291856 140.252142,62.9154816 127,66.463605 Z" id="Stroke-77"></path>
                <path d="M129,76 C145.954907,71.376591 151.090021,53.0201613 140.469927,35" id="Stroke-79"></path>
                <path d="M131,86 C150.9474,80.3613622 156.987447,57.9767521 144.494959,36" id="Stroke-81"></path>
                <path d="M137,59 C142.898558,66.726851 147.273919,74.8021896 150,83" id="Stroke-83"></path>
                <path d="M140,47 C146.607728,51.3399699 151.655752,56.3865515 155,62" id="Stroke-85"></path>
                <path d="M134.970054,33.1894575 C140.498211,33.3579283 144.546175,34.6403011 147,37 C132.111208,12.0918205 100.771073,-2.91870213 77,3.47210297 C83.6371724,5.46604302 90.1773201,9.25552666 96.4365471,14.7319346 C109.521355,11.2139992 126.773716,19.4779331 134.970054,33.1894575 Z" id="Stroke-87"></path>
                <path d="M141,34 C130.15188,16.2098064 107.318949,5.48594603 90,10.0517478" id="Stroke-89"></path>
                <path d="M144,36 C131.024572,13.9388927 103.714897,0.643313808 83,6.30388663" id="Stroke-91"></path>
                <path d="M125,22 C127.058266,18.4305124 128.067767,16.4099379 127.996472,16" id="Stroke-93"></path>
                <path d="M111,15 C109.022801,9.14654571 106.331738,5.10786562 103,3" id="Stroke-95"></path>
                <path d="M97,14.524223 C90.6351457,8.92035831 83.9846301,5.04189403 77.2354524,3 C53.064379,9.53973283 45.7427315,35.506953 60.8850732,61 C69.7566339,55.5095738 78.8794387,50.6147001 87.9976547,46.4526394 C79.6641468,32.4191555 83.6932327,18.1247629 97,14.524223 Z" id="Stroke-97"></path>
                <path d="M90,10 C73.045451,14.623409 67.910103,32.9798387 78.5295513,51" id="Stroke-99"></path>
                <path d="M83,6 C63.0530845,11.6386378 57.0120877,34.0232479 69.5053693,56" id="Stroke-101"></path>
                <path d="M87,22 C77.5493119,18.4661881 68.1284404,16.4465433 59,16" id="Stroke-103"></path>
                <path d="M83,33.000628 C72.777653,32.9711526 62.6844469,33.9794132 53,36" id="Stroke-105"></path>
                <path d="M60.903398,61 C52.1757575,66.4948796 44.1331026,72.3110506 37,78.2838939 C56.407546,111.529051 97.2561533,131.564925 128.238487,123.035374 C130.383722,114.617082 131.286503,105.299628 130.920877,95.3441326 C107.143868,101.890305 75.7959078,86.5137249 60.903398,61 Z" id="Stroke-107"></path>
                <path d="M52,67 C68.8031674,95.4652389 104.173113,112.620124 131,105.318417" id="Stroke-109"></path>
                <path d="M45,72 C63.2921031,103.312015 101.797077,122.182479 131,114.150043" id="Stroke-111"></path>
                <path d="M81,83 C74.4589578,91.3620271 68.065655,99.4374019 62,107" id="Stroke-113"></path>
                <path d="M105,95 C102.173133,105.059494 98.8093685,114.480765 95,123" id="Stroke-115"></path>
                <path d="M129,123 C147.669528,117.899047 158.524511,103.700715 160,86" id="Stroke-117"></path>
                <path d="M131,105 C157.927856,97.6694886 166.084459,68.5686856 149.216909,40" id="Stroke-119"></path>
                <path d="M131,114 C150.513792,108.623748 160.848787,92.4757635 159.945402,73" id="Stroke-121"></path>
                <path d="M150,83 C152.625845,91.3706125 153.533194,99.4467813 152.701276,107" id="Stroke-123"></path>
                <path d="M156,62 C158.999336,67.7650463 160.322918,73.8217593 159.933572,80" id="Stroke-125"></path>
                <path d="M90,0.369856912 C83.4421367,-0.432447641 77.0056103,0.0526979935 71,2" id="Stroke-127"></path>
                <path d="M78,3.61708625 C71.240911,1.56985386 64.7230949,1.46646976 58.6280809,3.30693395 C27.0845166,11.8412346 17.5301082,45.7296335 37.288064,79 C44.5503795,73.0230357 52.7387234,67.2028518 61.624461,61.704181 C46.4610313,36.1728528 53.7934308,10.1677755 78,3.61708625 Z" id="Stroke-129"></path>
                <path d="M71,2 C44.0721444,9.32950479 35.915541,38.4308157 52.7830913,67" id="Stroke-131"></path>
                <path d="M64,2 C35.0774945,10.0064676 26.3164698,41.7936444 44.4340486,73" id="Stroke-133"></path>
                <path d="M59,16.0811124 C50.1995578,15.6967162 42.1243781,16.6800328 35,19" id="Stroke-135"></path>
                <path d="M53,36 C43.3596887,38.3196358 34.6114192,41.6852673 27,46" id="Stroke-137"></path>
                <path d="M37.1912027,78 C29.7602895,84.2034452 23.6386431,90.3066695 19,96.1399808 C40.1946816,132.334527 84.8040074,154.147375 118.639417,144.860999 C123.279196,139.027688 126.76414,131.637536 129,122.892125 C97.8240031,131.449622 56.7189252,111.349639 37.1912027,78 Z" id="Stroke-139"></path>
                <path d="M30,85 C50.4206349,119.870503 93.4002268,140.885817 126,131.939356" id="Stroke-141"></path>
                <path d="M24,91 C45.0575331,127.294616 89.3807947,149.166782 123,139.855212" id="Stroke-143"></path>
                <path d="M62,107 C56.0187234,114.595414 50.635461,121.325597 46,127" id="Stroke-145"></path>
                <path d="M95,123 C90.9413434,131.746768 86.5685043,139.149021 82,145" id="Stroke-147"></path>
                <path d="M119,145 C128.078372,142.483685 135.461021,137.967459 141,132" id="Stroke-149"></path>
                <path d="M126,131 C136.978739,127.98233 145.406387,121.974612 151,114" id="Stroke-151"></path>
                <path d="M123,139 C134.493749,135.830044 143.263427,129.458985 149,121" id="Stroke-153"></path>
                <path d="M152,108 C151.139902,115.607674 148.448557,122.336264 144,128" id="Stroke-155"></path>
                <path d="M19,29 C4.89002582,45.0401067 3.8613238,71.1924792 18.7858258,97" id="Stroke-157"></path>
                <path d="M39,12 C17.9043997,25.690175 13.484442,55.5787947 30.2475003,85" id="Stroke-159"></path>
                <path d="M26,21 C10.0416973,36.728006 8.18846069,64.0539 23.7162697,91" id="Stroke-161"></path>
                <path d="M35,19 C27.1799174,21.8114246 20.7872078,26.1841209 16,32" id="Stroke-163"></path>
                <path d="M27,46 C19.0184148,50.2574331 12.625447,55.3034033 8,61" id="Stroke-165"></path>
                <path d="M18.5460613,97 C13.9148668,102.799633 11.0404886,107.983296 10,112.407186 C29.4915937,145.565417 70.5194887,165.548222 101.63894,157.040131 C107.86487,155.143531 113.368805,151.239365 118,145.439732 C84.2271897,154.673627 39.7003967,132.98558 18.5460613,97 Z" id="Stroke-167"></path>
                <path d="M14,102 C35.0577752,138.293849 79.3804082,160.166706 113,150.855333" id="Stroke-169"></path>
                <path d="M12,108 C32.4195011,142.870503 75.4002268,163.885817 108,154.939356" id="Stroke-171"></path>
                <path d="M46,127 C41.2483349,132.799164 37.5467808,137.172879 35,140" id="Stroke-173"></path>
                <path d="M81,145 C76.549736,150.981316 72.1746417,155.018295 68,157" id="Stroke-175"></path>
                <path d="M113,151 C119.109301,149.220441 124.457691,146.496223 129,143" id="Stroke-177"></path>
                <path d="M0,79 C0.334863927,89.419232 3.57934819,100.743632 10,112" id="Stroke-179"></path>
                <path d="M11.5712019,40 C0.773285314,56.0971207 1.18661362,79.6900113 15,103" id="Stroke-181"></path>
                <path d="M2.67873893,59 C-1.21655591,73.3042202 1.57735927,90.7308552 12,108" id="Stroke-183"></path>
                <path d="M8,61 C3.17733845,67.0641825 0.486279138,73.4563185 0,80" id="Stroke-185"></path>
                <path d="M9,116 C27.0856386,146.889167 64.8828723,165.670838 94,158.460629" id="Stroke-187"></path>
                <path d="M35,141 C33.0701914,143.283616 32.0610757,144.271228 32,143.936348" id="Stroke-189"></path>
                <path d="M69,157 C66.1381509,158.00739 63.4580234,158.252909 61,157.739934" id="Stroke-191"></path>
                <path d="M114.828655,37 C114.224131,37.1549836 113.613322,37.3149666 113,37.4824489 C113.638458,38.5623344 114.980729,39.2135153 116,38.9360447 C115.615417,38.2848638 115.22455,37.641182 114.828655,37 Z" id="Stroke-193"></path>
                <path d="M114.1015,37.2969845 C114.2715,37.5859845 114.6275,37.7599845 114.8985,37.6859845" id="Stroke-195"></path>
                <path d="M113,37.0949652 C113.425879,37.6709652 114.320352,38.0189652 115,37.8709652" id="Stroke-197"></path>
                <path d="M113.8955,37 C113.6355,37.3291704 113.3725,37.6628011 113.1045,38" id="Stroke-199"></path>
                <path d="M114.4675,37 C114.4925,37.6618986 114.5155,38.3276983 114.5325,39" id="Stroke-201"></path>
                <path d="M113,36.6363174 C113.542011,37.4191251 114.077139,38.2049847 114.603663,39 C115.995684,38.6612411 116.418969,37.318413 115.544869,36 C114.705183,36.2044761 113.856893,36.415056 113,36.6363174 Z" id="Stroke-203"></path>
                <path d="M114.364202,37.828 C114.635202,37.754 114.717202,37.46 114.547202,37.172" id="Stroke-205"></path>
                <path d="M114.229103,38 C114.770103,37.7743902 114.933103,36.8795732 114.594103,36" id="Stroke-207"></path>
                <path d="M114,37 C114.673997,37.3292145 115.340233,37.662842 116,38" id="Stroke-209"></path>
                <path d="M113,37.286 C114.008606,37.424 115.008606,37.566 116,37.714" id="Stroke-211"></path>
                <path d="M114.139623,37 C114.766038,36.8222135 115.386164,36.6530097 116,36.4887104 C115.362264,35.4293479 114.01761,34.7905425 113,35.0627398 C113.38239,35.7003191 113.763522,36.3464812 114.139623,37 Z" id="Stroke-213"></path>
                <path d="M114.898,36.7030155 C114.729,36.4140155 114.373,36.2400155 114.102,36.3140155" id="Stroke-215"></path>
                <path d="M116,36.9052324 C115.575377,36.3282324 114.679648,35.9802324 114,36.1292324" id="Stroke-217"></path>
                <path d="M114.0925,37 C114.3685,36.6614583 114.6405,36.328125 114.9075,36" id="Stroke-219"></path>
                <path d="M114.5205,37 C114.5105,36.3256851 114.4975,35.6577438 114.4795,35" id="Stroke-221"></path>
                <path d="M115,37.4109868 C114.652208,36.5976602 114.299764,35.7934893 113.946157,35 C113.002816,35.3387589 112.716673,36.680061 113.307569,38 C113.875203,37.7955239 114.440509,37.6002035 115,37.4109868 Z" id="Stroke-223"></path>
                <path d="M113.635934,36.172 C113.364934,36.246 113.282934,36.54 113.451934,36.828" id="Stroke-225"></path>
                <path d="M113.770776,36 C113.230776,36.2240854 113.066776,37.1204268 113.405776,38" id="Stroke-227"></path>
                <path d="M115,37 C114.337278,36.6606529 113.669297,36.3281787 113,36" id="Stroke-229"></path>
                <path d="M115,36.7295 C114.336824,36.5715 113.670157,36.4175 113,36.2705" id="Stroke-231"></path>
                <path d="M111.893544,37 C104.167765,39.1003382 95.7648661,42.2678569 87,46.2859446 C95.2967062,60.3157956 112.757927,68.7704508 126,65.1708431 C123.243566,55.5741573 119.457181,46.5036902 114.619148,38.3189489 C113.693105,38.5718514 112.473606,37.9798554 111.893544,37 Z" id="Stroke-233"></path>
                <path d="M114,39 C109.713459,44.8309687 104.633971,51.5988983 99,59" id="Stroke-235"></path>
                <path d="M114.930616,39 C115.232197,47.221632 114.543751,56.3428814 113,66" id="Stroke-237"></path>
                <path d="M116,39.097263 C120.708337,47.2975018 124.394331,56.3851434 127.076872,66 C139.96507,62.3935766 143.869978,48.0746894 135.795685,34.0194098 C130.537283,33.8523826 124.126521,34.7602378 116.608961,36.8634166 C117.173473,37.8451274 116.900107,38.8450179 116,39.097263 Z" id="Stroke-239"></path>
                <path d="M116,39 C123.792036,44.8420646 130.477061,51.6094629 136,59" id="Stroke-241"></path>
                <path d="M116,38 C125.218773,40.3369938 133.246498,43.7446809 140,48" id="Stroke-243"></path>
                <path d="M116.284196,37 C124.009749,34.8581041 130.595766,33.9351922 136,34.1052023 C127.704679,19.7977541 110.243969,11.1746571 97,14.8454873 C103.117871,20.3644544 108.720781,27.3094246 113.559814,35.6549542 C114.484688,35.3982042 115.704152,36.000757 116.284196,37 Z" id="Stroke-245"></path>
                <path d="M115,36 C119.395774,30.0304337 122.716049,25.3732606 125,22" id="Stroke-247"></path>
                <path d="M114,35 C113.753784,26.9701894 112.712412,20.296425 111,15" id="Stroke-249"></path>
                <path d="M113,35.4567612 C108.296968,27.2526824 102.850417,20.4254246 96.9055984,15 C84.0338502,18.6086122 80.1364815,32.9350529 88.1975539,47 C96.7158347,42.971861 104.883441,39.7964187 112.390759,37.6919633 C111.827016,36.7096568 112.10001,35.7091594 113,35.4567612 Z" id="Stroke-251"></path>
                <path d="M113,36 C104.894407,30.0435341 96.119651,25.386988 87,22" id="Stroke-253"></path>
                <path d="M112,37 C102.856217,34.9957489 93.0719112,34.02845 83,34" id="Stroke-255"></path>
            </g>
        </g>
    </g>
</svg>