<?xml version="1.0" encoding="utf-8"?>
<!-- Generator: Adobe Illustrator 25.0.1, SVG Export Plug-In . SVG Version: 6.00 Build 0)  -->
<svg version="1.1" id="Layer_1" xmlns="http://www.w3.org/2000/svg" xmlns:xlink="http://www.w3.org/1999/xlink" x="0px" y="0px"
	 viewBox="0 0 420 450" style="enable-background:new 0 0 420 450;" xml:space="preserve">
<style type="text/css">
	.st0{fill:#50A497;}
	.st1{fill:#ED895A;}
	.st2{fill:#070707;}
</style>
<g id="KJRww6.tif">
	<g>
		<path class="st2" d="M419.9,147c0,2,0,4,0,6c-1.9,9.5-1.3,19.1-2.7,28.7c-3.3,21.7-6.4,43.4-9.6,65.1
			c-3.5,24.2-7.1,48.3-10.6,72.5c-2.3,16-4.6,31.9-7.1,47.8c-0.6,4.1-2.8,6.8-6.8,8.4c-18.5,7-37.1,13.9-55.6,20.8
			c-41.1,15.4-82.3,30.6-123.5,46.1c-7.6,2.9-15.2,6-23.4,6.9c-4.1,0.4-7.5-1.4-10.5-3.9c-23.2-19.6-46.5-39.2-69.7-58.8
			c-24.5-20.7-49-41.3-73.5-62.1c-7.5-6.4-14.9-12.7-22.5-18.9c-3-2.4-4-5.5-3.7-9.3c2.2-31,9.1-61.4,13.8-92.1
			c4.2-27.4,9-54.7,13.5-82.1c2.1-12.8,4.2-25.6,6.1-38.4c0.8-5.2,3.2-8.7,8.4-10.6c18.3-6.7,36.5-13.4,54.8-20.1
			c31.2-11.5,62.5-22.9,93.7-34.4c14.2-5.2,28.6-10.1,42.6-15.7c11.4-4.6,19.2,0.3,27.6,7.5c24.5,21.2,49.5,41.8,74.3,62.7
			c22.2,18.7,44.6,37.3,66.6,56.3c3.9,3.4,7.8,6.7,11.9,9.8C416.7,141.4,418.6,143.9,419.9,147z"/>
	</g>
</g>
</svg>
