<?xml version="1.0" encoding="utf-8"?>
<!-- Generator: Adobe Illustrator 25.0.1, SVG Export Plug-In . SVG Version: 6.00 Build 0)  -->
<svg version="1.1" id="Layer_1" xmlns="http://www.w3.org/2000/svg" xmlns:xlink="http://www.w3.org/1999/xlink" x="0px" y="0px"
	 viewBox="0 0 1043.1 1062.9" style="enable-background:new 0 0 1043.1 1062.9;" xml:space="preserve">
<style type="text/css">
	.st0{fill:#50A497;}
	.st1{fill:#ED895A;}
	.st2{fill:#070707;}
</style>
<g>
	<path class="st1" d="M477.3,457.5c-0.2,0.6-0.7,0.4-1.1,0.4c-9.3-0.2-18.7-0.4-28-0.7c-15.8-0.4-311.6-0.7-327.4-1.1
		c-12.4-0.3-24.8-0.6-37.2-0.9c-14.7-0.3-29.4-0.7-44-1c-1.7,0-1.6,0.4-1.6-1.7c0-0.8,0.1-1.6-0.1-2.4c0-4.1,0-8.2,0-12.3
		c-0.1-8.8-0.1-17.6-0.2-26.5c-0.1-13.1-0.2-26.1-0.3-39.2c-0.1-10.6-0.1-21.2-0.2-31.9c-0.1-9.7-0.2-19.3-0.2-29c0-2.4,0-4.7,0-7.1
		c0-1.2,1.4-2.5,2.5-2.5c11.6,0,23.2,0.4,34.7,0.7c15.8,0.4,31.5,0.7,47.3,1.1c10.4,0.2,20.8,0.5,31.1,0.7
		c13.6,0.3,307.2,0.6,320.8,0.9c1.8,0,3.4,1.7,3.4,3.5c0,12.3,0.1,14.6,0.1,26.9c0,10.3,0.1,30.7,0.1,41c0,11.8,0.1,23.6,0.2,35.4
		c0,8.5,0.1,17,0.1,25.5c0,6.5,0,12.9,0.1,19.4C477.2,457.2,477.3,457.4,477.3,457.5z"/>
</g>
</svg>
