<?xml version="1.0" encoding="utf-8"?>
<!-- Generator: Adobe Illustrator 24.0.0, SVG Export Plug-In . SVG Version: 6.00 Build 0)  -->
<svg version="1.1" id="Layer_1" xmlns="http://www.w3.org/2000/svg" xmlns:xlink="http://www.w3.org/1999/xlink" x="0px" y="0px"
	 viewBox="0 0 300 350" style="enable-background:new 0 0 300 350;" xml:space="preserve">
<style type="text/css">
	.st0{fill:#CAA551;}
</style>
<g id="BACKGROUND">
</g>
<g id="Layer_2_1_">
	<g>
		<g>
			<path class="st0" d="M112.7,315.9c0.4,1.5,2.4,1.8,3.3,0.5l23.9-38.6l29.9-48.4c1-1.7,0.5-3.9-1.2-4.9l-51.8-32
				c-1.7-1-3.9-0.5-4.9,1.2l-21.7,35c-0.5,0.8-0.7,1.9-0.4,2.8L112.7,315.9z"/>
			<path class="st0" d="M101.9,128.4c0.3-0.2,0.5-0.5,0.8-0.7c2.1-2,4.1-4.1,6.2-6.1c3.9-3.8,8.4-6.8,13.2-9.3
				c6.8-3.7,13.9-6.4,21.4-8c8.7-1.9,17.4-2.2,26.1-0.9c9.7,1.5,18.5,5.3,26.6,10.7c6.3,4.2,11.8,9.4,16.4,15.4
				c3,3.9,5.5,8.2,7.7,12.6c0.7,1.5,1.6,2.2,3.4,2.1c5.8-0.2,11.6-0.2,17.5-0.3c2.8-0.1,2.9-0.2,2.8-2.9c-0.1-4.7-0.3-9.4-0.4-14.1
				c-0.2-8.5-0.5-17-0.7-25.4c-0.3-10.1-0.7-20.2-1-30.3c-0.2-4.6-0.4-9.2-0.5-13.8c-0.2-5.9-0.3-11.8-0.5-17.6
				c-0.2-6.4-0.4-12.8-0.7-19.2c-0.1-3-0.3-6.1-0.5-9.6c-0.9,0-1.5,0-2.1,0c-2.7,0-5.4,0-8.1,0.1c-7.6,0.2-15.1,0.5-22.7,0.8
				c-4.4,0.2-8.8,0.5-13.2,0.7c-6,0.2-12.1,0.3-18.1,0.5c-3,0.1-6,0.3-8.9,0.4c-7.3,0.2-14.5,0.4-21.8,0.6
				c-8.4,0.3-16.9,0.6-25.3,0.9c-4.7,0.2-9.4,0.4-14.1,0.5c-4.8,0.2-9.6,0.3-14.5,0.5c-10.2,0.3-20.3,0.6-30.5,1
				c-1.6,0.1-3.2,0.3-4.9,0.5c0.1,4,0.2,7.9,0.3,11.7c0.3,9.3,0.7,18.6,1,27.9c0.3,9.1,0.6,18.2,1,27.3c0.1,1.7,0.5,3.1,1.7,4.3
				c2.4,2.4,4.8,4.9,7.2,7.3c4.3,4.3,8.5,8.6,12.8,12.9c2.3,2.3,4.6,4.7,6.9,7c4,4.1,7.9,8.2,12,12.2
				C100.3,130.4,100.2,129.8,101.9,128.4z M139.7,80.7c-8.3-5.2-12.6-12.8-12.9-22.4c-0.2-8.8,3.3-16.2,10.2-21.7
				c10.7-8.3,24.5-6.5,33.1,0.7c9.2,7.8,12.2,21,6.6,32c-1.9,3.8-4.6,6.9-8,9.5c-3.2,2.7-7,4.3-11,5.1
				C151.5,85.2,145.4,84.2,139.7,80.7z"/>
			<path class="st0" d="M215,325.1c2.7,3.1,5.5,6.3,8.3,9.4c1.3,1.5,2.7,2.8,4.4,4.6c0.3-1.4,0.5-2.3,0.6-3.3
				c1.1-9.3,2.3-18.7,3.4-28c1.9-16.1,3.8-32.2,5.6-48.3c1.6-13.3,3.1-26.6,4.6-39.9c1.1-9.3,2.3-18.5,3.4-27.8
				c1.1-9.1,2.1-18.2,3.2-27.3c0.2-1.7,0.2-3.5,0.4-5.4c-0.9-0.2-1.6-0.4-2.4-0.5c-6.1-0.8-12.1-1.6-18.2-2.4
				c-6.2-0.8-12.4-1.5-18.6-2.3c-8.8-1.1-17.6-2.3-26.4-3.4c-12.1-1.5-24.2-2.9-36.3-4.4c-8.1-1-16.2-2-24.3-3
				c-7.5-0.9-14.9-1.8-22.4-2.7c-3.9-0.5-7.8-1-11.7-1.5c-10.3-1.2-20.6-2.4-30.9-3.6c-1.6-0.2-3.3-0.3-4.9-0.4
				c-1.5-0.1-2,1-1.3,2.2c0.1,0.1,0.3,0.2,0.4,0.4c1.9,2.3,3.7,4.6,5.6,6.8c2.7,3.2,5.5,6.4,8.3,9.6c2.4,2.8,4.7,5.6,7.1,8.3
				c2.2,2.5,4.4,4.9,6.6,7.4c2.4,2.7,4.7,5.5,7.1,8.3c1.2,1.4,1.8,1.6,3.5,0.7c0.2-0.1,0.4-0.2,0.6-0.3c3.2-1.4,6.2-3.1,9.5-4.3
				c7.1-2.6,14.4-4,21.9-4.2c5.5-0.1,11,0.3,16.3,1.4c3.2,0.7,6.4,1.7,9.5,2.8c6.4,2.2,12.4,5.2,17.8,9.2
				c6.1,4.4,11.3,9.8,15.7,15.9c1.8,2.5,3.2,5.3,4.7,8.1c4.5,8.3,7,17.2,7.8,26.6c0.7,8.6-0.1,17.2-2.6,25.5
				c-1.5,5-3.4,9.9-6.2,14.4c-1.6,2.6-3.2,5.2-4.8,7.8c-1.1,1.8-0.9,2.5,0.4,4.1c5,5.7,10,11.4,14.9,17.2
				C202,310,208.5,317.5,215,325.1z"/>
		</g>
	</g>
</g>
</svg>
