<?xml version="1.0" encoding="utf-8"?>
<!-- Generator: Adobe Illustrator 24.0.0, SVG Export Plug-In . SVG Version: 6.00 Build 0)  -->
<svg version="1.1" id="Layer_1" xmlns="http://www.w3.org/2000/svg" xmlns:xlink="http://www.w3.org/1999/xlink" x="0px" y="0px"
	 viewBox="0 0 300 350" style="enable-background:new 0 0 300 350;" xml:space="preserve">
<style type="text/css">
	.st0{fill:#CAA551;}
</style>
<g id="BACKGROUND">
</g>
<g id="Layer_2_1_">
	<g>
		<g>
			<path class="st0" d="M276.5,65.8c-2.3-1-4.7-2-7-2.9c-5.9-2.2-11.9-4.3-17.9-6.4c-3.4-1.2-6.8-2.4-10.2-3.6
				c-1.5-0.5-1.8-0.4-2.4,1.2c-1,2.7-2.1,5.4-3.1,8.1c-2.6,7.1-5.2,14.2-7.7,21.4c-2.4,6.8-4.8,13.6-7.2,20.4
				c-2,5.6-4,11.1-6.1,16.6c-2.4,6.6-4.8,13.2-7.2,19.8c-0.9,2.5-1.7,5.1-2.6,7.6c-0.6,1.8-1.5,3.4-2.1,5.2
				c-1.9,5.2-3.7,10.4-5.5,15.5c-1.8,4.9-3.7,9.9-5.4,14.8c-0.7,1.9-1.8,3.4-3.6,4.5c-1.4,0.9-3,0.9-4.5,0.6c-2.4-0.6-4.7-1.6-7-2.5
				c-5.5-2-11-4-16.5-6c-5.3-1.9-10.7-3.9-16-5.8c-1.4-0.5-2.8-0.9-4.2-1.4c-3.3-1.2-6.5-2.5-9.8-3.8c-3.4-1.3-6.9-2.4-10.3-3.7
				c-4.3-1.6-8.5-3.3-12.7-4.9c-4.5-1.7-9.1-3.3-13.6-5c-1.1-0.4-2.2-0.8-3.3-1.4c-2.1-1.2-3.5-3.1-3.2-5.7c0.2-1.4,0.5-2.8,1-4.1
				c2.9-8.2,5.9-16.5,8.9-24.7c2.6-7.1,5.3-14.1,7.9-21.1c0.3-0.9,0.7-1.8,0.9-2.7c0.4-1.4,0.1-2.1-1.2-2.7
				c-0.7-0.3-1.4-0.6-2.2-0.8c-6.6-2.4-13.1-4.7-19.7-7.1c-4.2-1.5-8.4-3.1-12.7-4.6c-2.2-0.8-2.6-0.6-3.5,1.5
				c-0.2,0.4-0.3,0.8-0.5,1.1c-2.6,7.2-5.2,14.3-7.8,21.5c-2.7,7.3-5.3,14.7-7.9,22.1c-2.6,7.3-5.3,14.6-7.9,21.9
				c-3.2,8.9-6.5,17.8-9.7,26.7c-2.8,7.8-5.5,15.6-8.4,23.6c-0.7,4.2-1.4,8.5-2,12.8c-1.1,7.8-0.7,15.5,0.5,23.2
				c1,6.4,2.9,12.4,5.2,18.4c3,7.7,7.2,14.8,12.3,21.3c4.1,5.1,8.5,9.8,13.6,13.9c5.1,4.1,10.6,7.7,16.6,10.5
				c4.6,2.1,9.3,4.1,14.1,5.8c6.4,2.2,12.7,4.7,19,6.9c7.1,2.4,14.4,4.2,22,4.6c9.4,0.5,18.7-0.4,27.7-3.1c2.9-0.9,5.8-2.1,8.6-3.2
				c5.8-2.3,11.3-5.2,16.2-9c4.4-3.4,8.6-7,12.3-11.2c3.3-3.8,6.3-7.8,8.9-12c2.3-3.7,4-7.6,5.6-11.6c2.1-5.5,4.2-11,6.3-16.5
				c1.7-4.5,3.1-9.1,4.8-13.7c1.9-5.2,3.9-10.4,5.8-15.6c0.8-2.3,1.6-4.6,2.4-6.8c1.4-3.9,2.9-7.7,4.2-11.6
				c2.5-6.9,4.9-13.9,7.4-20.9c1.7-4.7,3.6-9.3,5.3-13.9c1.7-4.7,3.4-9.4,5.1-14.2c0.9-2.6,1.9-5.1,2.8-7.7
				c1.7-4.9,3.4-9.7,5.1-14.6c2.2-6.2,4.6-12.3,6.8-18.5c1.7-4.6,3.3-9.2,5-13.8c3.3-9,6.7-18,10-26.9c0.4-1.1,0.8-2.2,1.2-3.3
				C278.2,66.9,278,66.5,276.5,65.8z M101.5,252.1c-4.3,15.6-20,23-33.8,19c-15-4-23.1-19.6-19.4-33.3c4.1-15.3,19.2-24.2,34.2-20.1
				C97.8,221.9,105.6,237.4,101.5,252.1z M182.1,241c-4,13.9-17.5,23-32.6,19.5c-15.6-3.6-24.2-18.8-20.9-33.2
				c3.7-16,19.1-24.6,33.8-20.7C178,210.7,185.6,226.3,182.1,241z"/>
			<path class="st0" d="M68.6,51.6c8.1,9.1,16.3,18.1,24.4,27.2c6.5,7.2,13.1,14.5,19.6,21.7c3.3,3.7,6.6,7.4,9.9,11.2
				c3.4,3.8,6.9,7.7,10.3,11.5c4,4.5,8.1,9,12.1,13.5c4.1,4.6,8.2,9.3,12.3,14c4.1,4.6,8.2,9.3,12.4,13.9
				c6.2,6.9,12.3,13.7,18.5,20.6c0.5,0.5,1.1,0.9,1.9,1.6c0.1-1.1,0.2-1.8,0.3-2.5c0.4-8,0.9-16.1,1.3-24.1
				c0.5-8.4,0.9-16.9,1.4-25.3c0.3-5.9,0.6-11.8,0.9-17.7c0.5-8.7,1-17.3,1.6-26c0.5-8.6,1.1-17.2,1.6-25.8
				c0.4-6.6,0.9-13.2,1.2-19.8c0.1-1.6,0.5-3.2-0.1-4.7c-3-0.9-141.9-8.2-145.5-7.5c0.6,0.8,1,1.5,1.6,2.1
				C59,40.8,63.8,46.2,68.6,51.6z"/>
		</g>
	</g>
</g>
</svg>
