<?xml version="1.0" encoding="utf-8"?>
<!-- Generator: Adobe Illustrator 24.0.0, SVG Export Plug-In . SVG Version: 6.00 Build 0)  -->
<svg version="1.1" id="Layer_1" xmlns="http://www.w3.org/2000/svg" xmlns:xlink="http://www.w3.org/1999/xlink" x="0px" y="0px"
	 viewBox="0 0 300 350" style="enable-background:new 0 0 300 350;" xml:space="preserve">
<style type="text/css">
	.st0{fill:#CAA551;}
</style>
<g id="BACKGROUND">
</g>
<g id="Layer_2_1_">
	<g>
		<g>
			<ellipse class="st0" cx="91.2" cy="114" rx="36.3" ry="36.3"/>
			<path class="st0" d="M151.8,128.3c0.8,3,4.1,4.6,7,3.4c16.7-6.8,35.4-9.2,54.5-6c24.8,4.2,45.9,17.2,60.7,35.2
				c2.2,2.7,6.5,2.4,8.3-0.6l9.7-15.5c1.5-2.4,0.8-5.5-1.6-7.1L132.3,36.4c-2-1.3-4.5,0.6-3.9,2.8L151.8,128.3z"/>
			<path class="st0" d="M211.5,151c-0.4,0.3-0.8,0.7-1.1,1c-3.1,2.8-6.1,5.7-9.2,8.4c-5.9,5.3-12.5,9.4-19.5,12.8
				c-9.9,4.9-20.3,8.5-31.3,10.5c-12.6,2.3-25.1,2.4-37.7,0c-13.9-2.7-26.4-8.5-37.9-16.8c-8.9-6.4-16.5-14.1-22.9-23
				c-4.2-5.8-7.6-12.1-10.5-18.6c-1-2.2-2.2-3.2-4.7-3.2c-8.4,0-16.8-0.3-25.2-0.4c-4-0.1-4.1,0.1-4.1,4.1c0,6.8,0,13.6-0.1,20.4
				c-0.1,12.2-0.1,24.4-0.2,36.7c0,14.6,0,29.2,0,43.8c0,6.6,0.1,13.2,0.1,19.9c0,8.5-0.1,17-0.1,25.4c0,9.2,0,18.5,0.1,27.8
				c0,4.4,0.1,8.8,0.2,13.9c1.2,0,2.2,0,3.1,0.1c3.9,0.1,7.8,0.2,11.6,0.2c10.9,0,21.9,0,32.8-0.1c6.3,0,12.7-0.3,19-0.3
				c8.7,0,17.4,0.1,26.1,0.2c4.3,0,8.6-0.1,12.9-0.1c10.5,0,21,0.1,31.5,0.1c12.2,0,24.4,0,36.6-0.1c6.8,0,13.5-0.1,20.3-0.1
				c7,0,13.9,0,20.9,0c14.7,0,29.3,0,44,0c2.3,0,4.7-0.3,7.1-0.5c0-5.8,0.1-11.3,0.1-16.8c0-13.4-0.1-26.8-0.1-40.2
				c0-13.2,0-26.3,0-39.5c0-2.4-0.6-4.5-2.3-6.3c-3.4-3.6-6.6-7.3-10-10.9c-5.9-6.4-11.9-12.8-17.8-19.3c-3.2-3.5-6.5-7-9.7-10.5
				c-5.6-6.1-11-12.2-16.7-18.2C213.8,148.2,214.1,149,211.5,151z M154.7,218c11.7,7.9,17.6,19,17.5,32.9
				c-0.1,12.7-5.5,23.2-15.8,30.7c-15.8,11.4-35.7,8.2-47.7-2.6c-12.9-11.7-16.6-30.8-8-46.5c2.9-5.4,7-9.7,11.9-13.3
				c4.7-3.7,10.3-5.8,16-6.8C137.9,210.8,146.7,212.6,154.7,218z"/>
		</g>
	</g>
</g>
</svg>
