<?xml version="1.0" encoding="utf-8"?>
<!-- Generator: Adobe Illustrator 24.0.0, SVG Export Plug-In . SVG Version: 6.00 Build 0)  -->
<svg version="1.1" id="Layer_1" xmlns="http://www.w3.org/2000/svg" xmlns:xlink="http://www.w3.org/1999/xlink" x="0px" y="0px"
	 viewBox="0 0 300 350" style="enable-background:new 0 0 300 350;" xml:space="preserve">
<style type="text/css">
	.st0{fill:#CAA551;}
</style>
<g id="BACKGROUND">
</g>
<g id="Layer_2_1_">
	<g>
		<g>
			<path class="st0" d="M289,248.2H7.1c-1.6,0-2.8,1.3-2.8,2.8v42.6c0,1.6,1.3,2.8,2.8,2.8H289c1.6,0,2.8-1.3,2.8-2.8v-42.6
				C291.8,249.5,290.5,248.2,289,248.2z"/>
			<path class="st0" d="M200,174.8L200,174.8c-2.5,0-4.5-1.9-4.7-4.4c-2.3-32.3-29.4-57.8-62.2-57.8s-59.6,25.5-61.9,57.8
				c-0.2,2.5-2.2,4.4-4.7,4.4h-0.4c-32.7,0-59.3,25.2-61.8,57.2c-0.2,2.7,2,5,4.7,5h248.3c2.7,0,4.9-2.3,4.7-5
				C259.5,200,232.6,174.8,200,174.8z"/>
			<path class="st0" d="M201.8,140.4c-1.1,2.6,0.3,5.6,3,6.4c15.8,4.6,30.6,13.6,42.4,26.7c15.4,17.1,23.1,38.4,23.4,59.7
				c0,3.2,3.3,5.4,6.3,4.3l15.7-5.6c2.4-0.9,3.7-3.5,2.9-6L240,63.6c-0.7-2-3.6-2.2-4.4-0.2L201.8,140.4z"/>
			<path class="st0" d="M165.9,53.5c3.5,1.4,6.8,2.7,10.1,4.1c5.3,2.2,10.6,4.3,15.9,6.6c7.7,3.3,15.5,6.6,23.2,9.9
				c0.7,0.3,1.2,0.8,2,1.2c-0.8,2.1-1.4,4.1-2.2,6.1c-3.3,8.2-6.7,16.4-10.1,24.6c-1.9,4.5-3.8,9-5.8,13.5c-0.6,1.5-0.8,1.5-2.4,1.1
				c-0.5-0.1-1-0.3-1.5-0.5c-9.2-3.7-18.5-7.4-27.7-11.1c-3.3-1.3-6.6-2.5-9.9-3.9c-3.3-1.4-6.5-2.8-9.8-4.4
				c-1.6-0.7-1.6-0.9-0.9-2.6c1.9-4.6,3.9-9.2,5.8-13.8c1.8-4.4,3.6-8.8,5.4-13.2c2.1-5.1,4.2-10.2,6.3-15.3
				C164.8,55.1,165.3,54.4,165.9,53.5z"/>
		</g>
	</g>
</g>
</svg>
