<?xml version="1.0" encoding="utf-8"?>
<!-- Generator: Adobe Illustrator 25.0.1, SVG Export Plug-In . SVG Version: 6.00 Build 0)  -->
<svg version="1.1" id="Layer_1" xmlns="http://www.w3.org/2000/svg" xmlns:xlink="http://www.w3.org/1999/xlink" x="0px" y="0px"
	 viewBox="0 0 32 37.79" style="enable-background:new 0 0 32 37.79;" xml:space="preserve">
<style type="text/css">
	.st0{fill:#CAA551;}
</style>
<g>
	<g>
		<path class="st0" d="M14.3,18.79H0.7V5.19h13.6V18.79z M2.2,17.29h10.6V6.69H2.2V17.29z"/>
	</g>
	<g>
		<path class="st0" d="M14.3,35.69H0.7v-13.7h13.6V35.69z M2.2,34.19h10.6v-10.7H2.2V34.19z"/>
	</g>
	<g>
		<path class="st0" d="M31.3,18.79H17.7V5.19h13.6C31.3,5.19,31.3,18.79,31.3,18.79z M19.2,17.29h10.6V6.69H19.2V17.29z"/>
	</g>
	<g>
		<path class="st0" d="M31.3,35.69H17.7v-13.7h13.6C31.3,21.99,31.3,35.69,31.3,35.69z M19.2,34.19h10.6v-10.7H19.2V34.19z"/>
	</g>
</g>
</svg>
