<svg id="Layer_1" data-name="Layer 1" xmlns="http://www.w3.org/2000/svg" viewBox="0 0 547.96 701.95"><defs><style>.cls-1{fill:none;stroke:#f8c3a8;stroke-miterlimit:10;}</style></defs><title>misfit_rulebook_kickstarter_illustrations-15</title><line class="cls-1" x1="290.96" y1="229.45" x2="290.84" y2="215.08"/><line class="cls-1" x1="477.75" y1="361.53" x2="478.24" y2="322.8"/><polyline class="cls-1" points="478.24 322.8 478.25 322.15 290.84 215.08"/><line class="cls-1" x1="290.84" y1="229.44" x2="290.84" y2="215.08"/><polyline class="cls-1" points="240.14 244.08 290.84 214.75 290.84 215.08"/><line class="cls-1" x1="36.5" y1="407.16" x2="74.53" y2="384.23"/><polyline class="cls-1" points="36.51 362.2 36.51 361.91 240.14 244.08"/><line class="cls-1" x1="36.5" y1="362.2" x2="36.5" y2="407.16"/><line class="cls-1" x1="74.38" y1="384.14" x2="36.5" y2="407.16"/><line class="cls-1" x1="428.19" y1="390.66" x2="425.54" y2="389.15"/><polyline class="cls-1" points="36.51 407.17 223.34 514.75 242.04 503.44"/><polyline class="cls-1" points="428.19 390.66 428.34 390.75 425.54 392.44"/><path class="cls-1" d="M341.47,273.25a33.56,33.56,0,0,0-3.19-2.54c-.94-.54-4.25-1.75-4.25-1.75a18.86,18.86,0,0,0-10.65.92,10.27,10.27,0,0,0-3.93,2.44"/><path class="cls-1" d="M319.45,272.32c-.24.25-.48.51-.7.79s-.26,1,2.19,2.37a18.7,18.7,0,0,0,8.77,2,20,20,0,0,0,9.71-2.23,8.61,8.61,0,0,0,2.24-1.87l-.19-.16"/><path class="cls-1" d="M302.21,231.24c1.25.34,2.47.73,3.63,1.16"/><path class="cls-1" d="M254,244a15.72,15.72,0,0,1,2.81-4.12"/><path class="cls-1" d="M272.52,231.32c1.42-.4,2.87-.73,4.34-1"/><path class="cls-1" d="M294.29,229.73c1.38.15,2.73.36,4,.61"/><path class="cls-1" d="M272.52,231.32c-.72.19-1.42.4-2.12.63-5.86,1.88-10.55,4.66-13.59,7.92"/><path class="cls-1" d="M308.07,233.33a31,31,0,0,1,4.13,2.2"/><path class="cls-1" d="M319.8,245.29a11.46,11.46,0,0,0-1.71-4.14"/><path class="cls-1" d="M319.93,248.25a12.29,12.29,0,0,1-.22,1.33"/><path class="cls-1" d="M318.09,241.15a15.84,15.84,0,0,0-2.13-2.61"/><path class="cls-1" d="M319.71,249.58h0"/><path class="cls-1" d="M308.07,233.33c-.72-.33-1.46-.64-2.23-.93"/><path class="cls-1" d="M320,247.83a9.84,9.84,0,0,0-.15-2.54"/><path class="cls-1" d="M320,247.83h0"/><path class="cls-1" d="M316.05,256a.94.94,0,0,0-.1-.1"/><path class="cls-1" d="M319.93,248.25c0-.14,0-.28,0-.42"/><line class="cls-1" x1="319.71" y1="249.58" x2="319.71" y2="259.45"/><line class="cls-1" x1="253.25" y1="250.86" x2="253.25" y2="251.55"/><path class="cls-1" d="M253.54,251.87h0"/><line class="cls-1" x1="253.08" y1="249.99" x2="253.08" y2="251.46"/><path class="cls-1" d="M253,248.83c0-.1,0-.2,0-.3v2.87"/><path class="cls-1" d="M320,259.26c0-4.09,0-8.47,0-12h0"/><path class="cls-1" d="M319.71,249.58a11.9,11.9,0,0,0,.22-1.33"/><path class="cls-1" d="M320,247.21c0,.21,0,.42,0,.62"/><path class="cls-1" d="M253.49,251.69c-.09-.28-.17-.55-.24-.83"/><path class="cls-1" d="M320,259.26v.13"/><path class="cls-1" d="M253.2,250.6c0,.09,0,.17.05.26"/><path class="cls-1" d="M253.54,251.88l0-.12"/><path class="cls-1" d="M253,249.28a9,9,0,0,0,.11.91"/><path class="cls-1" d="M253.51,251.76s0,0,0-.07"/><path class="cls-1" d="M320,247.83c0,.14,0,.28,0,.42"/><path class="cls-1" d="M253,248.83l0,.45"/><path class="cls-1" d="M253.2,250.6c0-.14,0-.28-.07-.41"/><path class="cls-1" d="M311.75,259.53a27.85,27.85,0,0,0,2.39-1.76"/><path class="cls-1" d="M318.42,252.82a12.05,12.05,0,0,0,1.29-3.24"/><path class="cls-1" d="M316.05,256c-.28.29-.56.57-.86.85"/><path class="cls-1" d="M317,254.88c-.3.37-.62.74-1,1.1"/><path class="cls-1" d="M317.17,272a.71.71,0,0,1-.1.14"/><path class="cls-1" d="M305.84,232.4c-1.16-.43-2.38-.82-3.63-1.16"/><path class="cls-1" d="M298.34,230.34c-1.32-.25-2.67-.46-4-.61"/><path class="cls-1" d="M318.42,252.82a12.05,12.05,0,0,0,1.29-3.24"/><path class="cls-1" d="M312.2,235.53a31,31,0,0,0-4.13-2.2"/><path class="cls-1" d="M314.14,257.77a27.85,27.85,0,0,1-2.39,1.76"/><path class="cls-1" d="M253.54,251.87h0"/><path class="cls-1" d="M317,254.88c-.3.37-.62.74-1,1.1"/><path class="cls-1" d="M305.84,232.4c.77.29,1.51.6,2.23.93"/><path class="cls-1" d="M319.93,248.25a11.9,11.9,0,0,1-.22,1.33"/><path class="cls-1" d="M320,247.83a9.84,9.84,0,0,0-.15-2.54"/><path class="cls-1" d="M319.8,245.29a11.46,11.46,0,0,0-1.71-4.14"/><path class="cls-1" d="M256.81,239.87A15.72,15.72,0,0,0,254,244"/><path class="cls-1" d="M316,238.54a15.84,15.84,0,0,1,2.13,2.61"/><path class="cls-1" d="M316.05,256c-.28.29-.56.57-.86.85"/><path class="cls-1" d="M272.52,231.32c1.42-.4,2.87-.73,4.34-1"/><path class="cls-1" d="M272.52,231.32c-.72.19-1.42.4-2.12.63-5.86,1.88-10.55,4.66-13.59,7.92"/><path class="cls-1" d="M298.34,230.34q2,.38,3.87.9"/><path class="cls-1" d="M291,229.45c1.12.06,2.24.15,3.33.28"/><path class="cls-1" d="M290.84,229.44H291"/><path class="cls-1" d="M254,244a12.68,12.68,0,0,0-.75,2.17,11.09,11.09,0,0,0-.26,2.67"/><path class="cls-1" d="M276.86,230.32a58.77,58.77,0,0,1,11.14-1c.95,0,1.9,0,2.84.09"/><path class="cls-1" d="M253.13,250.19a9,9,0,0,1-.11-.91"/><path class="cls-1" d="M253.49,251.69a10.29,10.29,0,0,1-.29-1.09"/><path class="cls-1" d="M253.49,251.69s0,.05,0,.07"/><path class="cls-1" d="M316,238.54a22.76,22.76,0,0,0-3.76-3"/><path class="cls-1" d="M253.13,250.19c0,.13,0,.27.07.41"/><path class="cls-1" d="M253,248.83l0,.45"/><path class="cls-1" d="M253.54,251.87a.45.45,0,0,1,0-.11"/><path class="cls-1" d="M315.19,256.83c-.33.32-.68.63-1.05.94"/><path class="cls-1" d="M317,254.88a15.7,15.7,0,0,0,1.41-2.06"/><path class="cls-1" d="M302.57,263.8a38.26,38.26,0,0,0,9.18-4.27"/><path class="cls-1" d="M302.57,263.8A56.79,56.79,0,0,1,285,266.4"/><path class="cls-1" d="M285,266.4a57.2,57.2,0,0,1-6.32-.38"/><path class="cls-1" d="M320,247.83c0,.14,0,.28,0,.42"/><path class="cls-1" d="M320,247.21h0c0,.21,0,.41,0,.62"/><path class="cls-1" d="M320,247.83c0,.14,0,.28,0,.42"/><line class="cls-1" x1="319.98" y1="259.26" x2="319.99" y2="247.21"/><path class="cls-1" d="M320,247.83h0"/><line class="cls-1" x1="319.98" y1="259.39" x2="319.98" y2="259.26"/><path class="cls-1" d="M319.71,249.58h0"/><path class="cls-1" d="M319.71,249.58a12.29,12.29,0,0,0,.22-1.33"/><line class="cls-1" x1="319.71" y1="259.45" x2="319.71" y2="249.58"/><line class="cls-1" x1="383.99" y1="292.23" x2="384.57" y2="292.56"/><path class="cls-1" d="M320,259.39a63.39,63.39,0,0,1,12.47-1.09c10.71.07,21.61,2.48,28.64,6.38l37,20.38"/><path class="cls-1" d="M317.07,272.12a7.27,7.27,0,0,0,3.54,3.69,18.66,18.66,0,0,0,8.76,2,20.19,20.19,0,0,0,9.71-2.23c2.64-1.48,4.09-3.46,4.07-5.55s-1.37-3.85-3.82-5.21a13.1,13.1,0,0,0-2-.89"/><path class="cls-1" d="M323.15,283.3a16.09,16.09,0,0,1,4.47,1.59c2.45,1.36,3.8,3.21,3.82,5.21a5.84,5.84,0,0,1-2.58,4.54"/><path class="cls-1" d="M316.91,269.59a4.29,4.29,0,0,0-.12,1,4.4,4.4,0,0,0,.28,1.52"/><path class="cls-1" d="M323.15,283.3a22.47,22.47,0,0,0-4.3-.44,21.34,21.34,0,0,0-8.09,1.46"/><path class="cls-1" d="M316.74,260.15a35.05,35.05,0,0,0-5.87,2.14"/><path class="cls-1" d="M310.87,262.29c-.62.29-1.24.58-1.81.9l-6.49,3.64"/><path class="cls-1" d="M318.76,259.67c.31-.07.62-.16.95-.22"/><path class="cls-1" d="M320,259.39l-.27.06"/><path class="cls-1" d="M291.75,273.49a30.56,30.56,0,0,1,4.74-3.25l.34-.19"/><line class="cls-1" x1="302.57" y1="266.83" x2="296.83" y2="270.05"/><path class="cls-1" d="M316.74,260.15c.65-.18,1.34-.33,2-.48"/><path class="cls-1" d="M337.36,264a20.55,20.55,0,0,0-6.8-1.14,20.09,20.09,0,0,0-9.7,2.23c-.34.19-.65.39-.95.59"/><path class="cls-1" d="M316.91,269.59a6.57,6.57,0,0,1,2.79-3.78"/><line class="cls-1" x1="472.9" y1="326.58" x2="472.89" y2="326.58"/><line class="cls-1" x1="472.83" y1="326.55" x2="472.89" y2="326.58"/><line class="cls-1" x1="424.98" y1="299.94" x2="472.28" y2="326.24"/><line class="cls-1" x1="472.89" y1="326.58" x2="472.89" y2="326.58"/><line class="cls-1" x1="472.83" y1="326.55" x2="472.71" y2="326.48"/><line class="cls-1" x1="472.28" y1="326.24" x2="472.71" y2="326.48"/><line class="cls-1" x1="468.72" y1="328.3" x2="384.13" y2="326.13"/><line class="cls-1" x1="424.98" y1="299.94" x2="406.49" y2="310.31"/><line class="cls-1" x1="381.23" y1="324.47" x2="386.73" y2="321.39"/><polyline class="cls-1" points="386.73 321.39 393.64 317.52 406.49 310.31"/><polyline class="cls-1" points="424.98 299.94 411.96 307.24 406.49 310.31"/><polyline class="cls-1" points="381.23 324.47 382.13 323.97 386.73 321.39"/><path class="cls-1" d="M472.9,325.78a.43.43,0,0,0,0,.05"/><path class="cls-1" d="M472.9,325.78v.11"/><path class="cls-1" d="M472.89,325.83v0"/><path class="cls-1" d="M472.9,326.58v-.69"/><path class="cls-1" d="M472.71,325.46a.37.37,0,0,1,.12.13"/><path class="cls-1" d="M472.85,325.62l0,0"/><path class="cls-1" d="M472.87,325.68a.4.4,0,0,1,0,.19"/><line class="cls-1" x1="472.89" y1="325.9" x2="472.89" y2="326.58"/><line class="cls-1" x1="472.89" y1="325.87" x2="472.89" y2="325.9"/><line class="cls-1" x1="472.83" y1="325.93" x2="472.83" y2="326.55"/><line class="cls-1" x1="472.83" y1="325.57" x2="472.83" y2="325.59"/><line class="cls-1" x1="472.83" y1="325.59" x2="472.83" y2="325.93"/><line class="cls-1" x1="472.89" y1="325.75" x2="472.89" y2="325.83"/><line class="cls-1" x1="472.89" y1="325.89" x2="472.89" y2="326.58"/><line class="cls-1" x1="472.89" y1="325.83" x2="472.89" y2="325.89"/><path class="cls-1" d="M472.89,325.75a.19.19,0,0,0,0-.07"/><path class="cls-1" d="M472.89,325.75v0"/><line class="cls-1" x1="472.9" y1="325.78" x2="472.9" y2="325.89"/><path class="cls-1" d="M472.85,325.62s0,0,0-.05"/><line class="cls-1" x1="472.9" y1="326.58" x2="472.9" y2="325.89"/><path class="cls-1" d="M472.83,325.57a.43.43,0,0,0-.12-.11"/><path class="cls-1" d="M472.85,325.62s0,0,0,.06"/><line class="cls-1" x1="472.71" y1="325.46" x2="472.71" y2="325.99"/><line class="cls-1" x1="472.71" y1="325.99" x2="472.71" y2="326.48"/><path class="cls-1" d="M384,292.23,365.3,281.74h0c-3.73-3.89-14.88-3.72-17.72,9.94l-.12-.06.12.06"/><line class="cls-1" x1="383.99" y1="292.23" x2="384.57" y2="292.55"/><polyline class="cls-1" points="411.1 307.56 393.34 317.56 393.31 317.54"/><line class="cls-1" x1="347.58" y1="291.68" x2="393.31" y2="317.54"/><line class="cls-1" x1="384.57" y1="292.55" x2="397.91" y2="300.03"/><polyline class="cls-1" points="411.1 307.56 411.21 307.5 397.91 300.03"/><line class="cls-1" x1="398.06" y1="285.06" x2="411.46" y2="292.48"/><line class="cls-1" x1="384.57" y1="292.56" x2="397.78" y2="300.1"/><line class="cls-1" x1="384.57" y1="292.56" x2="384.57" y2="292.55"/><line class="cls-1" x1="398.06" y1="285.06" x2="384.57" y2="292.55"/><path class="cls-1" d="M337.36,264l-.1,0a19.78,19.78,0,0,0-15.13.14,9.46,9.46,0,0,0-2.19,1.27"/><path class="cls-1" d="M319.45,272.32a10.68,10.68,0,0,1,3.59-2.11,18.89,18.89,0,0,1,10.66-.92c3,.65,4.83,1.64,7.51,4.33l.26-.37"/><path class="cls-1" d="M316.91,269.59a5.14,5.14,0,0,1,1.39-2.8,13.61,13.61,0,0,1,1.4-1.26"/><path class="cls-1" d="M316.91,269.59a4.79,4.79,0,0,0,.26,2.39"/><path class="cls-1" d="M317.17,272a5.31,5.31,0,0,0,.7,1.33c.2.28.34.41.55.14a8.59,8.59,0,0,1,1-1.13"/><path class="cls-1" d="M341.47,273.25c1.58-2.36,1.9-4.44-.27-6.74a10.56,10.56,0,0,0-3.84-2.54"/><path class="cls-1" d="M323.15,283.3a21.81,21.81,0,0,1,2.61.82,10.56,10.56,0,0,1,3.94,2.58c2.28,2.41,1.81,4.6,0,7.11-2.68-2.69-4.51-3.68-7.51-4.33a18.7,18.7,0,0,0-3-.37"/><polyline class="cls-1" points="393.31 317.54 393.84 317.25 347.92 291.49 347.58 291.69"/><line class="cls-1" x1="393.31" y1="317.54" x2="381.12" y2="324.41"/><line class="cls-1" x1="420.77" y1="352.32" x2="421.01" y2="352.47"/><line class="cls-1" x1="469.32" y1="327.95" x2="383.7" y2="325.88"/><line class="cls-1" x1="472.28" y1="326.24" x2="469.32" y2="327.95"/><line class="cls-1" x1="472.71" y1="325.99" x2="472.28" y2="326.24"/><line class="cls-1" x1="478.24" y1="322.8" x2="472.9" y2="325.89"/><line class="cls-1" x1="472.89" y1="325.89" x2="472.89" y2="325.9"/><line class="cls-1" x1="472.9" y1="325.89" x2="472.89" y2="325.89"/><polyline class="cls-1" points="478.24 322.8 478.34 322.75 477.84 361.75 428.19 390.66"/><line class="cls-1" x1="469.32" y1="327.95" x2="468.72" y2="328.3"/><line class="cls-1" x1="472.71" y1="325.99" x2="472.83" y2="325.93"/><line class="cls-1" x1="472.89" y1="325.9" x2="472.83" y2="325.93"/><line class="cls-1" x1="425.54" y1="353.24" x2="468.72" y2="328.3"/><line class="cls-1" x1="420.77" y1="352.32" x2="223.17" y2="470.33"/><polyline class="cls-1" points="242.04 503.44 223.11 514.43 223.17 470.33"/><line class="cls-1" x1="425.54" y1="354.2" x2="425.54" y2="353.24"/><line class="cls-1" x1="425.54" y1="354.2" x2="425.54" y2="389.15"/><polyline class="cls-1" points="242.04 503.44 425.54 396.81 425.54 392.44"/><line class="cls-1" x1="425.54" y1="353.24" x2="425.54" y2="349.77"/><line class="cls-1" x1="425.54" y1="349.77" x2="425.54" y2="349.72"/><line class="cls-1" x1="420.77" y1="352.32" x2="425.4" y2="349.64"/><polyline class="cls-1" points="425.54 349.72 425.54 349.56 425.4 349.64"/><line class="cls-1" x1="425.54" y1="389.15" x2="425.54" y2="392.2"/><line class="cls-1" x1="425.54" y1="392.44" x2="425.54" y2="392.2"/><line class="cls-1" x1="397.78" y1="300.1" x2="411.1" y2="307.56"/><polyline class="cls-1" points="411.1 307.56 411.11 307.56 424.87 299.9 411.46 292.48"/><line class="cls-1" x1="411.46" y1="292.48" x2="397.91" y2="300.03"/><line class="cls-1" x1="397.78" y1="300.1" x2="397.91" y2="300.03"/><line class="cls-1" x1="74.53" y1="384.23" x2="223.17" y2="470.33"/><line class="cls-1" x1="291.75" y1="273.49" x2="290.92" y2="273.02"/><line class="cls-1" x1="328.86" y1="294.64" x2="319.17" y2="289.11"/><line class="cls-1" x1="259.25" y1="254.97" x2="253.49" y2="251.69"/><line class="cls-1" x1="74.38" y1="384.14" x2="74.53" y2="384.23"/><line class="cls-1" x1="36.5" y1="362.2" x2="74.38" y2="384.14"/><polyline class="cls-1" points="425.54 349.77 425.59 349.75 425.54 349.72"/><line class="cls-1" x1="253.25" y1="251.55" x2="253.49" y2="251.69"/><line class="cls-1" x1="335.4" y1="298.36" x2="335.46" y2="298.39"/><line class="cls-1" x1="284.96" y1="269.62" x2="278.64" y2="266.02"/><line class="cls-1" x1="274.45" y1="263.63" x2="278.64" y2="266.02"/><polyline class="cls-1" points="240.14 244.08 239.84 243.91 36.01 361.91 36.51 362.2"/><line class="cls-1" x1="240.14" y1="244.08" x2="252.98" y2="251.4"/><line class="cls-1" x1="335.46" y1="298.39" x2="381.12" y2="324.41"/><line class="cls-1" x1="259.25" y1="254.97" x2="274.45" y2="263.63"/><line class="cls-1" x1="383.7" y1="325.88" x2="381.23" y2="324.47"/><line class="cls-1" x1="425.54" y1="349.72" x2="425.4" y2="349.64"/><line class="cls-1" x1="384.13" y1="326.13" x2="425.4" y2="349.64"/><line class="cls-1" x1="383.7" y1="325.88" x2="384.13" y2="326.13"/><line class="cls-1" x1="284.96" y1="269.62" x2="290.92" y2="273.02"/><line class="cls-1" x1="253.49" y1="251.69" x2="253.49" y2="251.69"/><line class="cls-1" x1="296.83" y1="276.39" x2="302.56" y2="279.65"/><line class="cls-1" x1="335.4" y1="298.36" x2="328.86" y2="294.64"/><line class="cls-1" x1="381.12" y1="324.41" x2="381.23" y2="324.47"/><polyline class="cls-1" points="319.17 289.11 310.76 284.32 304.18 280.57 302.56 279.65"/><line class="cls-1" x1="252.98" y1="251.4" x2="253.08" y2="251.46"/><line class="cls-1" x1="381.23" y1="324.47" x2="381.23" y2="324.47"/><line class="cls-1" x1="253.25" y1="251.55" x2="253.08" y2="251.46"/><line class="cls-1" x1="291.75" y1="273.49" x2="296.83" y2="276.39"/><path class="cls-1" d="M347.64,291.77c-3.15-3.3-11.61-3.68-15.87,4.53"/><path class="cls-1" d="M411,307.53c-5.39-5.35-15-2.4-17.72,9.94"/><path class="cls-1" d="M392.85,317.28c-6.71-4.72-12-3.13-15.93,4.73"/></svg>