<svg id="Layer_1" data-name="Layer 1" xmlns="http://www.w3.org/2000/svg" viewBox="0 0 701.95 426.19"><defs><style>.cls-1,.cls-2{fill:none;stroke:#f8c3a8;stroke-width:1.42px;}.cls-1{stroke-linejoin:round;}.cls-2{stroke-miterlimit:10;}</style></defs><title>misfit_rulebook_kickstarter_illustrations-15</title><polygon class="cls-1" points="569.98 217.65 339.3 348.92 109.82 216.39 341.3 84.64 569.98 217.65"/><polygon class="cls-1" points="339.9 362.36 569.98 231.17 569.98 217.65 339.28 348.96 339.9 362.36"/><polygon class="cls-1" points="339.9 362.36 109.82 227.03 109.82 216.39 339.9 348.93 339.9 362.36"/><ellipse class="cls-2" cx="334.92" cy="212.57" rx="119.71" ry="59.74"/><polygon class="cls-1" points="408.35 200.96 338.27 240.54 338.27 226.86 408.54 186.91 408.35 200.96"/><polygon class="cls-1" points="338.27 240.54 267.74 200.37 267.73 186.62 338.27 226.86 338.27 240.54"/><path class="cls-1" d="M267.73,186.62s70.32,40.52,70.64,40.24,70.11-40,70.17-40S267.73,186.62,267.73,186.62Z"/><path class="cls-2" d="M244.1,124.72c-2.94-.94-4.45-4.22-2.76-7.51a16,16,0,0,1,11.25-8.57l.4-.09a6.18,6.18,0,0,1,3,.14c2.94.94,4.45,4.22,2.76,7.51a16,16,0,0,1-11.26,8.57l-.39.1A6.29,6.29,0,0,1,244.1,124.72Z"/><path class="cls-2" d="M243.08,124.07l-.05,0-.29-.16,0,0-.29-.19-.06,0-.27-.22,0,0a2.39,2.39,0,0,1-.23-.22l-.06,0-.23-.25,0,0a3.17,3.17,0,0,1-.21-.27h0l52.36,72.61.13.16.09.11,0,.05.23.25.05.05a2.41,2.41,0,0,0,.24.21l0,0h0l.26.2.06.05.29.19,0,0,.28.16.06,0,.32.15.07,0,.35.13.38.11.12,0,.27.05.15,0,.26,0h1l.36,0h.08l.15,0,.21,0,.39-.1h0c.22,0,.44-.08.65-.14l.14,0,.62-.16h0l.05,0,.78-.25.07,0c.26-.09.51-.19.77-.3h0l.21-.09.18-.09.23-.1.18-.09.24-.12.17-.08.25-.14.15-.08h0l.11-.06.3-.18.15-.09.25-.16.16-.1a1.88,1.88,0,0,0,.23-.16l.17-.11.22-.16,0,0,.09-.07.3-.22.14-.11.29-.24.12-.1.4-.34h0l.38-.35,0,0,.06-.06.35-.35.09-.1c.14-.14.27-.29.4-.44l.08-.09.31-.38.1-.11c.12-.16.24-.31.35-.47l.06-.08.29-.42a.57.57,0,0,0,.08-.13c.11-.16.22-.33.32-.5l0,0,.27-.46.07-.14c.09-.18.19-.35.27-.53h0a6,6,0,0,0,.7-3.07,5.35,5.35,0,0,0-.28-1.4c0-.11-.08-.21-.13-.32a5,5,0,0,0-.51-.9l-52.36-72.6a5.37,5.37,0,0,1,.22,5.68l-.27.53-.08.14c-.09.16-.17.32-.27.47l0,0-.31.5-.09.13-.29.42-.05.07-.36.47-.09.12c-.11.12-.21.25-.32.38l-.08.09-.39.43a.94.94,0,0,1-.1.1l-.34.35-.1.1-.39.36h0l-.39.35-.13.1-.28.23-.15.12-.29.22-.14.1-.22.15-.16.12-.23.15-.17.11-.25.15-.15.1-.29.17-.12.06-.14.08-.26.14-.16.08-.24.13-.18.08-.23.11-.19.08-.22.1-.77.3-.07,0c-.26.09-.51.18-.77.25l-.09,0-.63.17-.13,0-.65.14-.4.09-.35.06h-.09l-.35,0h-.62l-.27,0H245l-.26,0-.15,0-.26,0-.13,0-.37-.1-.35-.13-.07,0Z"/><polygon class="cls-1" points="338.38 226.86 408.26 187.09 408.26 113.23 338.38 226.86"/><polygon class="cls-1" points="243.14 108.59 244.34 93.8 232 84.9 229.99 99.11 243.14 108.59"/><polygon class="cls-1" points="232 84.9 230.26 99.26 217.42 105.65 219.19 91.3 232 84.9"/><polygon class="cls-1" points="243.16 108.56 229.51 114.38 217.17 105.47 230.01 99.08 243.16 108.56"/><polygon class="cls-1" points="397.84 108.55 327.59 220.77 338.38 226.86 408.26 113.23 397.84 108.55"/></svg>