<?xml version="1.0" encoding="utf-8"?>
<!-- Generator: Adobe Illustrator 24.0.0, SVG Export Plug-In . SVG Version: 6.00 Build 0)  -->
<svg version="1.1" id="Layer_1" xmlns="http://www.w3.org/2000/svg" xmlns:xlink="http://www.w3.org/1999/xlink" x="0px" y="0px"
	 viewBox="0 0 595.3 419.5" style="enable-background:new 0 0 595.3 419.5;" xml:space="preserve">
<style type="text/css">
	.st0{fill:none;stroke:#F8C3A8;stroke-width:4.252;stroke-miterlimit:10;}
</style>
<g>
	<path class="st0" d="M327.4,24.5c55.6,0,100.4,59.7,100.4,115.4v156.8h-55.7v-82.3H223.3V406l-56-0.7l1.3-279.6
		c0-55.7,52.2-101.3,107.8-101.3H327.4"/>
	<g>
		<path class="st0" d="M246.3,184.2c20.6,0,37.3-16.7,37.3-37.3c0-20.6-16.7-37.3-37.3-37.3c-20.6,0-37.3,16.7-37.3,37.3
			C209,167.5,225.7,184.2,246.3,184.2"/>
	</g>
	<g>
		<path class="st0" d="M342.9,133.9c20.6,0,37.3-16.7,37.3-37.3c0-20.6-16.7-37.3-37.3-37.3c-20.6,0-37.3,16.7-37.3,37.3
			C305.5,117.2,322.2,133.9,342.9,133.9"/>
	</g>
</g>
</svg>
