<?xml version="1.0" encoding="utf-8"?>
<!-- Generator: Adobe Illustrator 25.0.1, SVG Export Plug-In . SVG Version: 6.00 Build 0)  -->
<svg version="1.1" id="Layer_1" xmlns="http://www.w3.org/2000/svg" xmlns:xlink="http://www.w3.org/1999/xlink" x="0px" y="0px"
	 viewBox="0 0 2882 329" style="enable-background:new 0 0 2882 329;" xml:space="preserve">
<style type="text/css">
	.st0{fill:#EE531C;}
</style>
<g id="Page-1">
	<g id="Part-2-Finished:-Auto-Layout-rules-added" transform="translate(2.000000, -1943.000000)">
		<g id="pixel-divider-01" transform="translate(-2.000000, 1943.000000)">
			<path id="Shape" class="st0" d="M435.6,125.9h19.2v-9.6h-9.4v-9.7h19.1v-9.7h9.8l0,0v9.6h19.3V77.6h-9.5v-9.7h19.1v9.6h9.8l0,0
				v19.4h-9.6v9.5h9.5v-9.5h9.7l0,0v9.6h9.9v-9.6l0,0h19.4v19.5h-9.7v9.3h19.3v-19.3h9.4v-9.6h-19.2V77.4h19.4l0,0v9.7h9.6v19.3
				h19.4v9.7h29.1v-9.4h9.8V77.4l0,0h9.6v9.5h19.3v-9.4h-9.5v-9.8l0,0h9.6v-9.6h9.7v19.1h9.7v-9.4h9.8l0,0V87h9.8V67.8l0,0h9.7v9.5
				h9.6v-9.5h9.8l0,0v19.5h-19.3v9.6h-19.4v9.7h-9.5v9.6h9.5v9.5h9.5v-9.4h-9.6v-9.7h19.3v-9.7h9.6v9.6h9.6v-9.5h9.7l0,0v9.6h29.2
				v9.9h-19.2v28.8h38.4v-9.6h9.9v9.7H823v19.2h28.9v-19h-9.7v9.4h-9.6v-9.5H823v-9.7h-19.4V126h-9.7v9.5h-29.1v-9.7h9.5v-9.7h19.2
				v-9.7h-19.1v-19h9.6v9.4h9.7v-9.5H813v9.6h9.5v-9.5H813v-9.7h9.6v-9.5h19.3v9.5h-9.4v9.6h9.6v19.5h-28.9v19h9.6v-9.4h9.7v9.4h9.6
				v-19.2h9.7l0,0v9.7h9.7v9.6h9.5v-9.4h-9.6v-9.7l0,0h9.7v-9.8l0,0h9.8l0,0v29.2h9.8v9.5h9.7v-9.7h9.3V116h-9.5v-9.7l0,0h29.1v-9.8
				l0,0h9.5v-9.8h-9.5l0,0V67.4l0,0h9.7v9.5h19.2v-9.4h9.7V77h9.6v9.6h-19v9.7h9.4v19.5h9.8l0,0v9.8h9.7v-9.5l0,0h9.7v-9.7l0,0h29
				v-9.7h9.7V87h29V58.1h9.8l0,0v9.7h9.8l0,0v9.8h-9.7V97h-29.1v9.5h38.6V87.3h9.7l0,0v9.8h9.8v9.6h19.3l0,0v9.8h-9.5v9h19.3v-19.2
				l0,0h9.6V77.6h19.3V87h-9.4v9.7h9.4v9.8h9.8l0,0v9.7h-29.1v19.2h9.5v-9.6h19.3v-9.7h19.3V77.6h9.6v19.2h9.8v9.6h9.5v-9.5h-9.6
				v-9.6h9.8v-9.8l0,0h9.7l0,0v19.2h9.7V77.4l0,0h9.6l0,0v9.5h9.8v-9.5l0,0h19.4V58l0,0h9.6v19.3h9.6l0,0v19.3h9.8v9.7h-19.2v-19
				H1268v9.6h-9.5v9.6h-9.9v29h9.6v19.2h9.5v-19.2h-9.6v-29.1h9.8v9.5h9.7v-9.6h9.7v19.5h-9.6V145h9.5v-19.2h28.9V116h-9.6v-9.7h9.8
				v-9.6h9.8v9.8h29l0,0v9.8h9.8v9.6h9.4v19.4h-9.4v9.7h-19.5v-9.6h-19.2v9.6h9.6v9.7h-9.6v9.4h9.5v-9.6h29.1v-9.6h19.4v-19.5h9.7
				v-29l0,0h19.2v19.3h-9.4v9.6h9.5v9.7h9.6v-28.9h9.8v9.7h19.3v38.7h-9.7v-19.2h-9.7v19.2h9.7v9.7h9.6V329H0V116.1h9.5v-9.7H0v-9.7
				h19.3v9.5h9.8V87.1l0,0h29v9.6h9.6v9.8h29.2l0,0v9.5h9.7v-9.5l0,0h9.8v-9.8l0,0h9.7v9.6h9.5v-9.5h-9.7c0-9.7,0-19.3,0-29l0,0h9.8
				l0,0V87H155v-9.5h9.6V58.2h9.8l0,0v9.7h9.6v9.6h-9.7v9.8h-9.5v19.2h29v9.8h9.6v9.8h-9.6v9.4h28.7v-28.9h-9.6V97h-9.6v9.5h-9.7
				v-9.7h-19.4v-9.6h58.1v9.6h9.6v-9.5h-9.7V68h9.7v9.5h9.8l0,0v28.9h9.8v-9.6h28.8v19.4h9.7v9.4h9.6v-9.5h9.6V96.7h-9.5V87l0,0H329
				V67.8h9.8v19.2h9.7v9.6h9.8V116h-9.8v9.7H339v9.4h19.2V116h9.5V87.2h-9.3V58.1h19.2l0,0v9.6h-9.5v9.8h19.1l0,0v9.8h9.8v19.2h19.3
				v9.6h9.5v-9.6h-9.5v-9.7l0,0h19.4l0,0c0,8.8,0,17.7,0,26.6c0,0.9,0,1.8,0.1,2.5h-9.8v9.7h-9.5v9.5h19.2v9.8h-9.6v9.5h9.6v-9.6
				h9.6V145h-9.6V125.9z M784,174.2h9.5v-9.5H784L784,174.2l-9.4,0.1v9.5h9.5L784,174.2z M687.1,174.2h9.5v-9.5h-9.5L687.1,174.2
				l-9.4,0.1v9.5h9.5L687.1,174.2z M48.4,174.2v9.6h9.5v-9.5h-9.6v-9.6h-9.4v9.5H48.4z M1200.2,154.8h9.8v-9.6h9.5v-9.8h-9.5v-19.2
				h-9.8v9.6h-9.6v9.7h-9.6v9.5h9.5v-9.5h19.5c0,3.3,0,6.6,0,9.9h-9.8v9.6h-9.6v9.5h9.6V154.8z M464.6,145.1h9.6v-9.4h-9.5v9.5h-9.6
				v9.5h9.5V145.1z M319.3,145.1h9.5v-9.4h-9.5v9.5h-9.6v9.5h9.5V145.1z M280.6,145.1h9.8v9.6h9.5v-9.5h-9.5v-9.7h-9.7v-28.9H271v19
				h-9.7v-9.3h-9.7v9.5h-19.2v19.3h-9.6v9.5h9.5v-9.5h9.8v-9.5h9.6v9.5H271v9.5h9.6L280.6,145.1z M1064.7,135.4v9.6h9.6v-9.5h9.5
				v-19.1h-9.5v19.2h-9.7v-9.4h-9.6v9.4L1064.7,135.4z M1151.8,164.6V155h-9.5v9.5L1151.8,164.6v19.2h9.5v-19.2H1151.8z
				 M967.9,154.9v-9.6h-9.5v9.5L967.9,154.9l0.1,19.1h9.5v-19.1H967.9z M474.3,164.5h19.2V155h-19.1L474.3,164.5l-9.5,0.1v9.5h9.5
				V164.5z M600.1,145.2v-9.4h-9.5v9.5L600.1,145.2l0.1,9.6h19.1v-9.6H600.1z M145.1,135.5h9.8v-9.7h9.4v-9.4h-19.1v19.2h-9.7v-19.2
				h-9.8v9.6h-9.5v9.5h19.3v9.6h9.5V135.5z M948.4,125.8h9.7v-19.1H939v9.5h9.6v9.7h-28.9v9.5h28.8L948.4,125.8z M484.1,125.9v-9.6
				h-19.2v9.5L484.1,125.9V145h9.7v-9.6h9.4v-19.2h-9.5v9.6H484.1z M1084,164.6V155h-19.1v9.5L1084,164.6l0.1,9.5h28.9v-9.5h-9.6
				V155h-9.6v9.6H1084z M48.4,106.5V97h-9.5v9.5L48.4,106.5l0.1,9.7h-9.7v9.6h-9.8v-9.6h-9.6v9.6H9.8v9.6h19.3v9.6h9.6v9.6h19.2
				v-9.5H38.7v-19.4h19.5v9.5h9.5v-19.2H58v-9.6H48.4z M377.4,145.1h28.9v-9.7h-9.6v-9.6h9.6v-9.5h-9.5v9.5h-19.3L377.4,145.1
				l-9.5,0.1v9.5h9.5V145.1z M706.4,135.8h-28.7v19h19.3v-9.6h9.5L706.4,135.8z M658,125.9v-9.5h-19.1v9.7h9.6v19.1h9.7v-9.6h9.4
				v-9.6H658z M532.1,116.5H513v19.2h9.7v9.5h9.5V116.5z M890.5,154.8h38.4v-9.4h-38.3L890.5,154.8z M96.7,135.4v-9.6h-9.6v-9.4
				h-9.5v19.1H96.7z M725.8,145.1v-28.7h-9.4v28.7H725.8z M106.5,145.4h-9.8v9.6h-9.4v9.4h19.1L106.5,145.4z M338.6,116V97h-9.4V116
				H338.6z M377.7,96.9v19h9.4v-19H377.7z M667.8,106.4V97h-19v9.4H667.8z M174.4,154.8h9.4v-19h-9.4V154.8z M561.5,145.1h19.1v-9.4
				h-19.1V145.1z M203.5,145.3v19.1h9.4v-19.1H203.5z M28.9,174v-19.1h-9.4V174H28.9z M1393.9,174h9.4v-19h-9.4V174z M629.1,164.6
				h-9.5v19.1h9.5V164.6z M687.1,87.4h-9.4v9.4h9.5L687.1,87.4z M154.7,97h-9.4v9.4h9.4V97z M1016.4,125.6h9.4v-9.4h-9.4V125.6z
				 M1219.6,125.6h9.4v-9.4h-9.4V125.6z M629.1,125.9h-9.5v9.3h9.5V125.9z M551.6,135.8h-9.5v9.4h9.5V135.8z M745.2,135.8h-9.4v9.4
				h9.4V135.8z M1016.2,135.8h-9.4v9.4h9.4V135.8z M1112.9,145.3v-9.5h-9.4v9.5H1112.9z M1161.6,145.3h9.4v-9.5h-9.4V145.3z
				 M1054.9,145.6h-9.4v9.4h9.5L1054.9,145.6z M1248.4,155v-9.5h-9.3v9.5H1248.4z M67.9,155.1v9.5h9.3v-9.7L67.9,155.1z
				 M125.8,155.1h-9.5v9.3h9.5V155.1z M513.2,164.5h9.5v-9.3h-9.5V164.5z M542.1,155.1h-9.6v9.3h9.5L542.1,155.1z M552,155.1v9.5
				h9.3v-9.5H552z M648.5,155.1h-9.4v9.4h9.4V155.1z M726.2,164.4h9.4V155h-9.4V164.4z M774.3,164.4V155h-9.4v9.4H774.3z
				 M861.6,164.4h9.5v-9.3h-9.6L861.6,164.4z M996.9,164.4V155h-9.4v9.4H996.9z M174.1,174v-9.4h-9.4v9.4H174.1z M222.8,164.6v9.5
				h9.4v-9.5H222.8z M416.2,164.6h-9.5v9.5h9.5V164.6z M609.6,174v-9.5h-9.4v9.5L609.6,174z M667.8,164.6h-9.5v9.4h9.5V164.6z
				 M803.4,174h9.4v-9.4h-9.4L803.4,174z M919.4,164.6h-9.5v9.5h9.5V164.6z M958.1,164.6h-9.4v9.5h9.4V164.6z M1054.9,174v-9.4h-9.4
				v9.4L1054.9,174z M135.6,183.7h9.5v-9.4h-9.5V183.7z M561.2,174.3h-9.4v9.4h9.4V174.3z M929.2,183.8h9.4v-9.4h-9.4L929.2,183.8z
				 M1248.6,174.4h-9.5v9.3h9.5V174.4z"/>
			<polygon id="Path" class="st0" points="1452,106 1442,106 1442,87 1452,87 			"/>
			<polygon id="Path_1_" class="st0" points="1453,68 1443,68 1443,58 1453,58 			"/>
			<polygon id="Path_2_" class="st0" points="1453,48 1443,48 1443,38 1453,38 			"/>
			<polygon id="Path_3_" class="st0" points="1075.1,58.2 1075.1,48.5 1113.8,48.5 1113.8,39 1123.4,39 1123.4,67.9 1133,67.9 
				1133,87.2 1123.4,87.2 1123.4,97 1123.4,97 1113.6,97 1113.6,77.8 1104.1,77.8 1104.1,87.3 1094.4,87.3 1094.4,87.3 1094.4,67.9 
				1113.6,67.9 1113.6,58.4 1094.5,58.4 1094.5,68 1084.7,68 1084.7,68 1084.7,58.2 1075,58.2 			"/>
			<polygon id="Path_4_" class="st0" points="1384.2,86.5 1384.2,96.2 1394,96.2 1394,106 1394,106 1374.5,106 1374.5,96.5 
				1364.8,96.5 1364.8,106 1355.1,106 1355.1,106 1355.1,96.2 1345.2,96.2 1345.2,86.6 1326,86.6 1326,76.8 1335.6,76.8 
				1335.6,57.6 1335.6,57.6 1345.3,57.6 1345.3,48 1354.9,48 1354.9,67.1 1345.5,67.1 1345.5,76.7 1355,76.7 1355,86.4 1364.7,86.4 
				1364.7,77 1374.5,77 1374.5,86.5 1384.2,86.5 			"/>
			<polygon id="Path_5_" class="st0" points="407,68 426.1,68 426.1,58.3 416.8,58.3 416.8,48.8 426.2,48.8 426.2,39 436,39 436,39 
				436,77.6 436,77.6 416.7,77.6 416.7,97 416.7,97 407.1,97 407.1,67.9 			"/>
			<polygon id="Path_6_" class="st0" points="1297.1,77.8 1297.1,48.5 1297.1,48.5 1326.2,48.5 1326.2,39 1336,39 1336,58.4 
				1336,58.4 1326.1,58.4 1326.1,68.1 1316.5,68.1 1316.5,58.6 1306.8,58.6 1306.8,78 1297,78 			"/>
			<polygon id="Path_7_" class="st0" points="96.5,106 96.5,96.4 77,96.4 77,86.6 77,86.6 86.8,86.6 86.8,77 96.4,77 96.4,86.4 
				116,86.4 116,96.2 116,96.2 106.2,96.2 106.2,106 106.2,106 96.4,106 			"/>
			<polygon id="Path_8_" class="st0" points="997.7,97 997.7,87.4 988,87.4 988,77.7 997.5,77.7 997.5,68 1007.4,68 1007.4,68 
				1007.4,77.6 1017,77.6 1017,97 			"/>
			<path id="Path_9_" class="st0" d="M542,19.1h9.6v19.4h9.4V58h-9.3v-9.5h-9.6l0,0c0-9.8,0-19.6,0-29.5L542,19.1z"/>
			<polygon id="Path_10_" class="st0" points="19.6,77.8 10,77.8 10,39 19.4,39 19.4,58.3 29,58.3 29,68.1 19.6,68.1 19.6,78 			"/>
			<polygon id="Path_11_" class="st0" points="861.7,77 861.7,67.3 852,67.3 852,57.5 861.6,57.5 861.6,48 871.4,48 871.4,57.4 
				881,57.4 881,67.1 871.5,67.1 871.5,76.9 861.7,76.9 			"/>
			<polygon id="Path_12_" class="st0" points="436,77.1 465,77.1 465,86.5 455.5,86.5 455.5,96 436,96 436,96 436,77 			"/>
			<path id="Path_13_" class="st0" d="M1220,76.8h-9.5v-9.6h-9.5V48h18.8l0,0c0,9.7,0,19.3,0,29L1220,76.8z"/>
			<polygon id="Path_14_" class="st0" points="852.1,106.9 852.1,78 861.6,78 861.6,78 861.6,87.5 871,87.5 871,97.3 871,97.3 
				861.5,97.3 861.5,107 861.5,107 852,107 			"/>
			<polygon id="Path_15_" class="st0" points="513.1,77 513.1,67.5 522.6,67.5 522.6,58 532.5,58 532.5,58 532.5,67.4 542,67.4 
				542,77 513,77 			"/>
			<polygon id="Path_16_" class="st0" points="746.1,68.1 755.6,68.1 755.6,87.3 765,87.3 765,97 746,97 746,97 746,68 			"/>
			<polygon id="Path_17_" class="st0" points="261.5,68 261.5,58.5 242,58.5 242,49 271,49 271,67.9 261.4,67.9 			"/>
			<polygon id="Path_18_" class="st0" points="746.1,58 746.1,39 755.6,39 755.6,48.4 765,48.4 765,58 746,58 			"/>
			<polygon id="Path_19_" class="st0" points="1423.4,58 1423.4,67.4 1433,67.4 1433,77 1414,77 1414,58 			"/>
			<polygon id="Path_20_" class="st0" points="1374.4,48 1384,48 1384,48 1384,67 1365,67 1365,57.7 1374.4,57.7 1374.4,48 			"/>
			<polygon id="Path_21_" class="st0" points="1385,48.4 1385,39 1404,39 1404,58 1394.7,58 1394.7,48.4 1385,48.4 			"/>
			<polygon id="Path_22_" class="st0" points="261,77 290,77 290,77 290,87 261.1,87 261.1,77 			"/>
			<polygon id="Path_23_" class="st0" points="48.8,48 48.8,77 39,77 39,48.1 49,48.1 			"/>
			<polygon id="Path_24_" class="st0" points="348.1,48 348.1,19 358,19 358,47.9 348,47.9 			"/>
			<polygon id="Path_25_" class="st0" points="619.9,67 619.9,77 591,77 591,67 620,67 			"/>
			<polygon id="Path_26_" class="st0" points="1075.1,29 1075.1,19 1104,19 1104,28.9 1075,28.9 			"/>
			<polygon id="Path_27_" class="st0" points="1404,86.9 1384,86.9 1384,86.9 1384,77.5 1393.8,77.5 1393.8,68 1403.8,68 1403.8,87 
							"/>
			<polygon id="Path_28_" class="st0" points="929,67.9 910,67.9 910,49 919.3,49 919.3,58.3 928.9,58.3 928.9,68 			"/>
			<polygon id="Path_29_" class="st0" points="881.1,96.3 881.1,87 900,87 900,106 900,106 890.4,106 890.4,96.4 881,96.4 			"/>
			<polygon id="Path_30_" class="st0" points="126.1,29 126.1,19 155,19 155,28.9 126,28.9 			"/>
			<polygon id="Path_31_" class="st0" points="78.1,48.4 78.1,39 97,39 97,58 87.7,58 87.7,48.4 78,48.4 			"/>
			<polygon id="Path_32_" class="st0" points="629,96.4 619.5,96.4 619.5,106 610,106 610,87 629,87 			"/>
			<polygon id="Path_33_" class="st0" points="1433,105.8 1423,105.8 1423,87 1432.9,87 1432.9,106 			"/>
			<polygon id="Path_34_" class="st0" points="697,57.9 687,57.9 687,39 697,39 697,39 697,58 			"/>
			<polygon id="Path_35_" class="st0" points="1045,77 1036,77 1036,58 1045,58 			"/>
			<polygon id="Path_36_" class="st0" points="833,57.9 833,39 842,39 842,58 			"/>
			<polygon id="Path_37_" class="st0" points="1007.1,68 1007.1,58 1026,58 1026,67.9 1007,67.9 			"/>
			<polygon id="Path_38_" class="st0" points="891,58 900,58 900,77 891,77 			"/>
			<polygon id="Path_39_" class="st0" points="493,58 484,58 484,39 493,39 			"/>
			<polygon id="Path_40_" class="st0" points="310,0 310,19 301,19 301,0 			"/>
			<polygon id="Path_41_" class="st0" points="1182,39 1191,39 1191,58 1182,58 			"/>
			<polygon id="Path_42_" class="st0" points="1278,58 1268,58 1268,39 1268,39 1278,39 1278,58 			"/>
			<polygon id="Path_43_" class="st0" points="736,57.9 717,57.9 717,49 735.9,49 735.9,58 			"/>
			<polygon id="Path_44_" class="st0" points="794,67 784,67 784,67 784,48 793.9,48 793.9,66.9 			"/>
			<polygon id="Path_45_" class="st0" points="881,48 881,39 900,39 900,48 			"/>
			<polygon id="Path_46_" class="st0" points="136,47.9 136,39 155,39 155,48 			"/>
			<polygon id="Path_47_" class="st0" points="125.9,29 125.9,48 116,48 116,29.1 126,29.1 			"/>
			<polygon id="Path_48_" class="st0" points="1375,47.9 1365,47.9 1365,29 1374.9,29 1374.9,48 			"/>
			<polygon id="Path_49_" class="st0" points="213,29 232,29 232,38 213,38 			"/>
			<polygon id="Path_50_" class="st0" points="1152,48 1152,29 1161,29 1161,47.9 1152,47.9 			"/>
			<polygon id="Path_51_" class="st0" points="783.9,68 783.9,77 765,77 765,68 784,68 			"/>
			<path id="Path_52_" class="st0" d="M67.8,58c0,6.3,0.1,12.7,0.2,19l0,0H58V58.1h9.9L67.8,58z"/>
			<polygon id="Path_53_" class="st0" points="290,77 290,58 290,58 300,58 300,76.9 300,76.9 290,76.9 			"/>
			<polygon id="Path_54_" class="st0" points="610,38 591,38 591,29 610,29 			"/>
			<polygon id="Path_55_" class="st0" points="203.1,68 203.1,58 222,58 222,67.9 203,67.9 			"/>
			<polygon id="Path_56_" class="st0" points="1249,77 1249,58 1259,58 1259,77 1259,77 			"/>
			<polygon id="Path_57_" class="st0" points="136.1,68 136.1,58 155,58 155,67.9 136,67.9 			"/>
			<polygon id="Path_58_" class="st0" points="649,29 649,38 630,38 630,29 			"/>
			<polygon id="Path_59_" class="st0" points="1152,48 1152,58 1143,58 1143,48.1 1152,48.1 			"/>
			<polygon id="Path_60_" class="st0" points="1229,48.1 1239,48.1 1239,58 1229.1,58 1229.1,48 			"/>
			<polygon id="Path_61_" class="st0" points="116.1,67.9 116.1,58 126,58 126,68 126,68 116,68 			"/>
			<polygon id="Path_62_" class="st0" points="397.2,68 397.2,58 407,58 407,68 407,68 397,68 			"/>
			<polygon id="Path_63_" class="st0" points="474,58 474,67 465,67 465,58 			"/>
			<polygon id="Path_64_" class="st0" points="630,67 620,67 620,67 620,58 629.8,58 629.8,67 			"/>
			<polygon id="Path_65_" class="st0" points="659,67.9 649,67.9 649,58 658.9,58 658.9,68 			"/>
			<polygon id="Path_66_" class="st0" points="697.1,58.1 707,58.1 707,68 707,68 697,68 697,68 697,58 			"/>
			<polygon id="Path_67_" class="st0" points="746,58.1 746,68 746,68 736,68 736,68 736,58 736,58 745.9,58 			"/>
			<polygon id="Path_68_" class="st0" points="813,58 813,68 803,68 803,68 803,58 			"/>
			<polygon id="Path_69_" class="st0" points="115.9,68 115.9,77 106,77 106,68 116,68 			"/>
			<polygon id="Path_70_" class="st0" points="203.9,68 203.9,77 194,77 194,68 204,68 			"/>
			<polygon id="Path_71_" class="st0" points="262,68 262,78 262,78 252,78 252,78 252,68.1 262,68.1 			"/>
			<polygon id="Path_72_" class="st0" points="310.1,78 310.1,68 319,68 319,77.9 310,77.9 			"/>
			<polygon id="Path_73_" class="st0" points="387,78 387,68 397,68 397,68 397,78 			"/>
			<polygon id="Path_74_" class="st0" points="571.1,78 571.1,68 581,68 581,77.9 571,77.9 			"/>
			<polygon id="Path_75_" class="st0" points="638.9,77 629,77 629,67 629,67 639,67 639,77 			"/>
			<polygon id="Path_76_" class="st0" points="803.8,67.2 803.8,77 794,77 794,67 794,67 804,67 			"/>
			<polygon id="Path_77_" class="st0" points="1229.1,78 1229.1,68 1239,68 1239,78 1239,78 1229,78 			"/>
			<polygon id="Path_78_" class="st0" points="29,87 19,87 19,77 19,77 28.9,77 28.9,87 			"/>
			<polygon id="Path_79_" class="st0" points="78,87 68,87 68,77 68,77 78,77 78,87 			"/>
			<polygon id="Path_80_" class="st0" points="300,77.1 310,77.1 310,77.1 310,87 310,87 300.1,87 300.1,77 			"/>
			<polygon id="Path_81_" class="st0" points="474.1,97 474.1,88 484,88 484,97 474,97 			"/>
			<polygon id="Path_82_" class="st0" points="523.1,96.9 523.1,87 533,87 533,97 533,97 523,97 			"/>
			<polygon id="Path_83_" class="st0" points="600,96 591,96 591,87 600,87 			"/>
			<polygon id="Path_84_" class="st0" points="871,0 871,9 862,9 862,0 			"/>
			<polygon id="Path_85_" class="st0" points="1210,0 1210,9 1201,9 1201,0 			"/>
			<polygon id="Path_86_" class="st0" points="930,96.8 920,96.8 920,87 930,87 930,87 930,97 			"/>
			<polygon id="Path_87_" class="st0" points="1239,9 1230,9 1230,0 1239,0 			"/>
			<polygon id="Path_88_" class="st0" points="1404,87.1 1414,87.1 1414,97 1404.1,97 1404.1,87 			"/>
			<polygon id="Path_89_" class="st0" points="1442,0 1442,9 1433,9 1433,0 			"/>
			<polygon id="Path_90_" class="st0" points="10,10 19,10 19,19 10,19 			"/>
			<polygon id="Path_91_" class="st0" points="48,10 48,19 39,19 39,10 			"/>
			<polygon id="Path_92_" class="st0" points="106.1,20 106.1,10 116,10 116,19.9 106,19.9 			"/>
			<polygon id="Path_93_" class="st0" points="397,10 397,19 387,19 387,10 			"/>
			<polygon id="Path_94_" class="st0" points="484,10 493,10 493,19 484,19 			"/>
			<polygon id="Path_95_" class="st0" points="542,19.9 532,19.9 532,10 541.9,10 541.9,20 			"/>
			<polygon id="Path_96_" class="st0" points="765,19 765,10 774,10 774,19 			"/>
			<path id="Path_97_" class="st0" d="M987,106.9V97h10l0,0c0,3.3,0,6.7,0,10l0,0h-9.9L987,106.9z"/>
			<polygon id="Path_98_" class="st0" points="1123.1,97.1 1133,97.1 1133,107 1133,107 1123,107 1123,107 1123,97 			"/>
			<polygon id="Path_99_" class="st0" points="1171.1,107 1171.1,97 1181,97 1181,106.9 1171,106.9 			"/>
			<polygon id="Path_100_" class="st0" points="1162,19 1162,10 1171,10 1171,19 			"/>
			<polygon id="Path_101_" class="st0" points="1326,10 1326,19 1317,19 1317,10 			"/>
			<polygon id="Path_102_" class="st0" points="106.9,19 106.9,28 97,28 97,19 107,19 			"/>
			<polygon id="Path_103_" class="st0" points="368,29 368,20 377,20 377,29 			"/>
			<polygon id="Path_104_" class="st0" points="407,20 416,20 416,29 407,29 			"/>
			<polygon id="Path_105_" class="st0" points="572,28.9 562,28.9 562,19 571.9,19 571.9,29 			"/>
			<polygon id="Path_106_" class="st0" points="881,20 881,29 872,29 872,20 			"/>
			<polygon id="Path_107_" class="st0" points="978.1,115.9 978.1,106 988,106 988,106 988,116 988,116 978,116 			"/>
			<polygon id="Path_108_" class="st0" points="987,29 978,29 978,20 987,20 			"/>
			<polygon id="Path_109_" class="st0" points="1007,29 998,29 998,20 1007,20 			"/>
			<polygon id="Path_110_" class="st0" points="1026,29 1017,29 1017,20 1026,20 			"/>
			<polygon id="Path_111_" class="st0" points="1443,106.1 1443,116 1433,116 1433.2,106 1433.2,106 			"/>
			<polygon id="Path_112_" class="st0" points="1142,29 1133,29 1133,20 1142,20 			"/>
			<polygon id="Path_113_" class="st0" points="1201,28.9 1191,28.9 1191,19 1201,19 1201,29 			"/>
			<polygon id="Path_114_" class="st0" points="1259,28.9 1249,28.9 1249,20 1258.9,20 1258.9,29 			"/>
			<polygon id="Path_115_" class="st0" points="1297,29 1288,29 1288,20 1297,20 			"/>
			<polygon id="Path_116_" class="st0" points="175,38 175,29 184,29 184,38 			"/>
			<polygon id="Path_117_" class="st0" points="242,29 251,29 251,38 242,38 			"/>
			<polygon id="Path_118_" class="st0" points="281,38 281,29 290,29 290,38 			"/>
			<polygon id="Path_119_" class="st0" points="436,39 436,29 445,29 445,38.9 436,38.9 			"/>
			<polygon id="Path_120_" class="st0" points="513,38.9 503,38.9 503,29 512.9,29 512.9,39 			"/>
			<polygon id="Path_121_" class="st0" points="571,29.1 581,29.1 581,39 571.1,39 571.1,29 			"/>
			<polygon id="Path_122_" class="st0" points="697.1,39 697.1,29 707,29 707,38.9 697,38.9 			"/>
			<polygon id="Path_123_" class="st0" points="861,38 852,38 852,29 861,29 			"/>
			<polygon id="Path_124_" class="st0" points="910,29 919,29 919,38 910,38 			"/>
			<polygon id="Path_125_" class="st0" points="939,29 939,38 930,38 930,29 			"/>
			<polygon id="Path_126_" class="st0" points="1074.9,29 1074.9,39 1065,39 1065,29.1 1075,29.1 			"/>
			<polygon id="Path_127_" class="st0" points="1200,29.1 1210,29.1 1210,39 1200,39 1200,29 			"/>
			<polygon id="Path_128_" class="st0" points="1230.1,39 1230.1,29 1239,29 1239,38.9 1230,38.9 			"/>
			<polygon id="Path_129_" class="st0" points="1269,39 1259,39 1259,29 1259,29 1269,29 1269,39 			"/>
			<polygon id="Path_130_" class="st0" points="1433,38 1424,38 1424,29 1433,29 			"/>
			<polygon id="Path_131_" class="st0" points="48.2,48 48.2,39 58,39 58,48 48,48 			"/>
			<polygon id="Path_132_" class="st0" points="310,48.8 300,48.8 300,39 309.9,39 309.9,49 			"/>
			<polygon id="Path_133_" class="st0" points="339,47.9 329,47.9 329,39 339,39 339,48 			"/>
			<polygon id="Path_134_" class="st0" points="388,49 388,39 397,39 397,49 388,49 			"/>
			<polygon id="Path_135_" class="st0" points="464,48 455,48 455,39 464,39 			"/>
			<polygon id="Path_136_" class="st0" points="513,38.1 523,38.1 523,48 513.1,48 513.1,38 			"/>
			<polygon id="Path_137_" class="st0" points="959,47.9 959,39 968,39 968,48 			"/>
			<polygon id="Path_138_" class="st0" points="997,48 988,48 988,39 997,39 			"/>
			<polygon id="Path_139_" class="st0" points="1026,48 1017,48 1017,39 1026,39 			"/>
			<polygon id="Path_140_" class="st0" points="1230,48.7 1220,48.7 1220,48.7 1220,39 1230,39 1230,39 1230,49 			"/>
			<polygon id="Path_141_" class="st0" points="1298,48.8 1288,48.8 1288,39 1298,39 1298,49 			"/>
			<polygon id="Path_142_" class="st0" points="78,48 78,58 68,58 68,58 68,48 			"/>
			<polygon id="Path_143_" class="st0" points="174.1,58 174.1,48 184,48 184,57.9 174,57.9 			"/>
			<polygon id="Path_144_" class="st0" points="291,57.9 281,57.9 281,48 291,48 291,58 			"/>
			<polygon id="Path_145_" class="st0" points="310,48.1 320,48.1 320,58 310.1,58 310.1,48 			"/>
			<path id="Path_146_" class="st0" d="M348.9,48.1V58H339c0-3.3,0-6.6,0-10l0,0h10L348.9,48.1z"/>
			<polygon id="Path_147_" class="st0" points="377.1,58 377.1,48 387,48 387,48 387,58 377,58 			"/>
			<polygon id="Path_148_" class="st0" points="533,58 533,48 543,48 543,48 543,58 			"/>
			<polygon id="Path_149_" class="st0" points="581,49 590,49 590,58 581,58 			"/>
			<polygon id="Path_150_" class="st0" points="601,58 601,49 610,49 610,58 			"/>
			<polygon id="Path_151_" class="st0" points="813.1,58 813.1,48 823,48 823,57.9 813,57.9 			"/>
			<polygon id="Path_152_" class="st0" points="1317,97 1307,97 1307,78 1317,78 			"/>
			<polygon id="Path_153_" class="st0" points="281,145 271,145 271,135 281,135 			"/>
			<polygon id="Path_154_" class="st0" points="290,87 300,87 300,97 290,97 			"/>
			<polygon id="Path_155_" class="st0" points="310,116 300,116 300,106 310,106 			"/>
			<polygon id="Path_156_" class="st0" points="203,116 203,106 213,106 213,116 			"/>
			<path id="Shape_1_" class="st0" d="M1865.7,125.9h19.2v-9.6h-9.4v-9.7h19.1v-9.7h9.8l0,0v9.6h19.3V77.6h-9.5v-9.7h19.1v9.6h9.8
				l0,0v19.4h-9.5v9.5h9.5v-9.5h9.7l0,0v9.6h9.7v-9.6l0,0h19.4v19.5h-9.6v9.3h19.3v-19.3h9.4v-9.6h-19.2V77.4h19.4l0,0v9.7h9.6v19.3
				h19.4v9.7h29.1v-9.4h9.8V77.4l0,0h9.6v9.5h19.3v-9.4h-9.5v-9.8l0,0h9.6v-9.6h9.7v19.1h9.7v-9.4h9.8l0,0V87h9.8V67.8l0,0h9.7v9.5
				h9.6v-9.5h9.8l0,0v19.5h-19.8v9.6h-19.4v9.7h-9.5v9.6h9.5v9.5h9.5v-9.4h-9.6v-9.7h19.3v-9.7h9.8v9.6h9.6v-9.5h9.7l0,0v9.6h29.2
				v9.9h-19.2v28.8h38.4v-9.6h9.9v9.7h19.3v19.2h28.7v-19h-9.7v9.4h-9.6v-9.5h-9.7v-9.7h-19.4V126h-9.7v9.5h-28.9v-9.7h9.5v-9.7
				h19.2v-9.7h-19.1v-19h9.6v9.4h9.7v-9.5h19.4v9.6h9.5v-9.5h-9.7v-9.7h9.6v-9.5h19.3v9.5h-9.3v9.6h9.6v19.5h-28.9v19h9.6v-9.4h9.7
				v9.4h9.6v-19.2h9.7l0,0v9.7h9.7v9.6h9.5v-9.4h-9.7v-9.7l0,0h9.7v-9.8l0,0h9.8l0,0v29.2h9.8v9.5h9.7v-9.7h9.5V116h-9.5v-9.7l0,0
				h29.1v-9.8l0,0h9.5v-9.8h-9.5l0,0V67.4l0,0h9.7v9.5h19.2v-9.4h9.7V77h9.6v9.6h-19.1v9.7h9.4v19.5h9.8l0,0v9.8h9.7v-9.5l0,0h9.7
				v-9.7l0,0h29v-9.7h9.7V87h29V58.1h9.8l0,0v9.7h9.7l0,0v9.8h-9.7V97h-29.1v9.5h38.6V87.3h9.7l0,0v9.8h9.7v9.6h19.3l0,0v9.8h-9.5v9
				h19.3v-19.2l0,0h9.7V77.6h19.3V87h-9.6v9.7h9.4v9.8h9.8l0,0v9.7h-28.9v19.2h9.7v-9.6h19.3v-9.7h19.3V77.6h9.6v19.2h9.8v9.6h9.5
				v-9.5h-9.6v-9.6h9.8v-9.8l0,0h9.8l0,0v19.2h9.7V77.4l0,0h9.6l0,0v9.5h9.8v-9.5l0,0h19.4V58l0,0h9.6v19.3h9.6l0,0v19.3h9.8v9.7
				h-19.2v-19h-19.5v9.6h-9.5v9.6h-9.9v29h9.6v19.2h9.5v-19.2h-9.6v-29.1h9.8v9.5h9.7v-9.6h9.7v19.5h-9.6V145h9.5v-19.2h28.9V116
				h-9.6v-9.7h9.8v-9.6h9.8v9.8h29l0,0v9.8h9.8v9.6h9.4v19.4h-9.4v9.7h-19.5v-9.6h-19.2v9.6h9.6v9.7h-9.6v9.4h9.5v-9.6h29.1v-9.6
				h19.4v-19.5h9.6v-29l0,0h19.2v19.3h-9.4v9.6h9.5v9.7h9.6v-28.9h9.8v9.7h19.3v38.7h-9.7v-19.2h-9.5v19.2h9.6v9.7h9.6V329H1430
				V116.1h9.5v-9.7h-9.5v-9.7h19.3v9.5h9.8V87.1l0,0h29v9.6h9.6v9.8h29l0,0v9.5h9.7v-9.5l0,0h9.8v-9.8l0,0h9.7v9.6h9.5v-9.5h-9.5
				c0-9.7,0-19.3,0-29l0,0h9.8l0,0V87h19.4v-9.5h9.6V58.2h9.8l0,0v9.7h9.6v9.6h-9.5v9.8h-9.5v19.2h29v9.8h9.6v9.8h-9.6v9.4h28.7
				v-28.9h-9.6V97h-9.6v9.5h-9.7v-9.7h-19.8v-9.6h58.1v9.6h9.5v-9.5h-9.6V68h9.7v9.5h9.8l0,0v28.9h9.8v-9.6h28.8v19.4h9.7v9.4h9.6
				v-9.5h9.6V96.7h-9.5V87l0,0h19.3V67.8h9.6v19.2h9.7v9.6h9.8V116h-9.8v9.7h-9.6v9.4h19.2V116h9.5V87.2h-9.3V58.1h19.2l0,0v9.6
				h-9.5v9.8h19.3l0,0v9.8h9.8v19.2h19.3v9.6h9.5v-9.6h-9.5v-9.7l0,0h19.4l0,0c0,8.8,0,17.7,0,26.6
				C1865.7,124.2,1865.7,125.1,1865.7,125.9l-9.8,0v9.7h-9.5v9.5h19.4c0,3.3,0,6.5,0,9.8h-9.6v9.5h9.5v-9.6h9.6V145h-9.5V125.9z
				 M2214,174.2h9.5v-9.5h-9.5L2214,174.2l-9.5,0.1v9.5h9.5V174.2z M2117.2,174.2h9.6v-9.5h-9.5L2117.2,174.2l-9.4,0.1v9.5h9.5
				L2117.2,174.2z M1478.4,174.2v9.6h9.5v-9.5h-9.6v-9.6h-9.5v9.5H1478.4z M2630.2,154.8h9.8v-9.6h9.5v-9.8h-9.5v-19.2h-9.7v9.6
				h-9.6v9.7h-9.6v9.5h9.5v-9.5h19.5c0,3.3,0,6.6,0,9.9h-9.8v9.6h-9.6v9.5h9.6L2630.2,154.8z M1894.6,145.1h9.6v-9.4h-9.5v9.5h-9.6
				v9.5h9.5V145.1z M1749.3,145.1h9.5v-9.4h-9.5v9.5h-9.6v9.5h9.5V145.1z M1710.6,145.1h9.8v9.6h9.5v-9.5h-9.5v-9.7h-9.7v-28.9h-9.7
				v19h-9.7v-9.3h-9.7v9.5h-19.2v19.3h-9.6v9.5h9.5v-9.5h9.6v-9.5h9.6v9.5h19.3v9.5h9.6L1710.6,145.1z M2494.7,135.4v9.6h9.6v-9.5
				h9.5v-19.1h-9.5v19.2h-9.7v-9.4h-9.6v9.4L2494.7,135.4z M2581.8,164.6V155h-9.5v9.5L2581.8,164.6v19.2h9.5v-19.2H2581.8z
				 M2397.9,154.9v-9.6h-9.5v9.5L2397.9,154.9V174h9.5v-19.1H2397.9z M1904.3,164.5h19.2V155h-19.1L1904.3,164.5l-9.5,0.1v9.5h9.5
				V164.5z M2030.1,145.2v-9.4h-9.5v9.5L2030.1,145.2l0.1,9.6h19v-9.6H2030.1z M1575.1,135.5h9.8v-9.7h9.4v-9.4h-19.2V135.5
				l-9.7,0.1v-19.2h-9.8v9.6h-9.5v9.5h19.3v9.6h9.6V135.5z M2378.5,125.8h9.7v-19.1h-19.1v9.5h9.6v9.7h-29v9.5h28.8L2378.5,125.8z
				 M1913.9,125.8v-9.6h-19.2v9.5h19.4v19.2h9.7v-9.6h9.4v-19.2h-9.5v9.6H1913.9z M2514,164.5v-9.6h-19.2v9.5L2514,164.5l0.1,9.5
				h28.9v-9.5h-9.5V155h-9.6v9.6L2514,164.5z M1478.3,106.5V97h-9.5v9.5L1478.3,106.5l0.1,9.7h-9.7v9.6h-9.7v-9.6h-9.6v9.6h-9.5v9.6
				h19.3v9.6h9.6v9.6h19.2v-9.5h-19.2v-19.4h19.5v9.5h9.5v-19.2h-9.6v-9.6H1478.3z M1807.4,145.1h29v-9.7h-9.6v-9.6h9.6v-9.5h-9.5
				v9.5h-19.3v19.3h-9.6v9.5h9.5L1807.4,145.1z M2136.4,135.8h-28.8v19h19.3v-9.6h9.5V135.8z M2088,125.9v-9.5h-19.1v9.7h9.6v19.1
				h9.7v-9.6h9.4v-9.6H2088z M1962.1,116.5H1943v19.2h9.7v9.5h9.5V116.5z M2320.5,154.8h38.4v-9.4h-38.3L2320.5,154.8z
				 M1526.7,135.4v-9.6h-9.6v-9.4h-9.5v19.1H1526.7z M2155.9,145.1v-28.7h-9.4v28.7H2155.9z M1536.6,145.4h-9.8v9.6h-9.4v9.4h19.1
				L1536.6,145.4z M1768.7,116V97h-9.4V116H1768.7z M1807.8,96.9v19h9.4v-19H1807.8z M2097.6,106.4V97h-19v9.4H2097.6z
				 M1604.2,154.8h9.4v-19h-9.4V154.8z M1991.4,145.1h19.1v-9.4h-19.1V145.1z M1633.3,145.4v19h9.4v-19H1633.3z M1458.9,174v-19.1
				h-9.4V174H1458.9z M2823.9,174h9.4v-19h-9.4V174z M2059.1,164.6h-9.5v19.1h9.5V164.6z M2117.1,87.4h-9.5v9.4h9.5V87.4z
				 M1584.7,97h-9.4v9.4h9.4V97z M2446.4,125.6h9.4v-9.4h-9.4V125.6z M2649.6,125.6h9.4v-9.4h-9.4V125.6z M2059.1,125.9h-9.5v9.3
				h9.5V125.9z M1981.6,135.8h-9.5v9.4h9.5V135.8z M2175.3,135.8h-9.4v9.4h9.4V135.8z M2446.3,135.8h-9.4v9.4h9.4V135.8z
				 M2543.1,145.3v-9.5h-9.4v9.5H2543.1z M2591.8,145.3h9.4v-9.5h-9.4V145.3z M2485.1,145.6h-9.4v9.4h9.3L2485.1,145.6z M2678.6,155
				v-9.5h-9.3v9.5H2678.6z M1498.1,155.1v9.5h9.3v-9.7L1498.1,155.1z M1556,155.1h-9.5v9.3h9.5V155.1z M1943.4,164.5h9.5v-9.3h-9.5
				V164.5z M1972.3,155.1h-9.8v9.3h9.5L1972.3,155.1z M1982.3,155.1v9.5h9.3v-9.5H1982.3z M2078.7,155.1h-9.4v9.4h9.4V155.1z
				 M2156.4,164.5h9.4v-9.4h-9.4V164.5z M2204.5,164.5v-9.4h-9.4v9.4H2204.5z M2291.9,164.5h9.5v-9.3h-9.5V164.5z M2427.2,164.5
				v-9.4h-9.4v9.4H2427.2z M1604.1,174v-9.4h-9.4v9.4H1604.1z M1652.8,164.6v9.5h9.4v-9.5H1652.8z M1846.2,164.6h-9.5v9.5h9.5V164.6
				z M2039.6,174v-9.5h-9.4v9.5L2039.6,174z M2097.8,164.6h-9.5v9.4h9.5V164.6z M2233.5,174h9.4v-9.4h-9.4V174z M2349.4,164.6h-9.5
				v9.5h9.5V164.6z M2388.1,164.6h-9.4v9.5h9.5L2388.1,164.6z M2484.9,174v-9.4h-9.4v9.4L2484.9,174z M1565.7,183.6h9.4v-9.4h-9.4
				V183.6z M1991.3,174.2h-9.4v9.4h9.4V174.2z M2359.3,183.7h9.4v-9.4h-9.4V183.7z M2678.5,174.3h-9.5v9.3h9.5V174.3z"/>
			<polygon id="Path_157_" class="st0" points="2883,106 2873,106 2873,87 2883,87 			"/>
			<polygon id="Path_158_" class="st0" points="2882.9,68 2873,68 2873,58 2883,58 			"/>
			<polygon id="Path_159_" class="st0" points="2882.9,48 2873,48 2873,38 2883,38 			"/>
			<polygon id="Path_160_" class="st0" points="2505.1,58.2 2505.1,48.5 2543.7,48.5 2543.7,39 2553.3,39 2553.3,67.9 2563,67.9 
				2563,87.2 2553.4,87.2 2553.4,97 2553.4,97 2543.6,97 2543.6,77.8 2534.1,77.8 2534.1,87.3 2524.4,87.3 2524.4,87.3 2524.4,67.9 
				2543.7,67.9 2543.7,58.4 2524.5,58.4 2524.5,68 2514.7,68 2514.7,68 2514.7,58.2 2505,58.2 			"/>
			<polygon id="Path_161_" class="st0" points="2814.2,86.5 2814.2,96.2 2824,96.2 2824,106 2824,106 2804.4,106 2804.4,96.5 
				2794.7,96.5 2794.7,106 2785,106 2785,106 2785,96.2 2775.2,96.2 2775.2,86.6 2756,86.6 2756,76.8 2765.6,76.8 2765.6,57.6 
				2765.6,57.6 2775.3,57.6 2775.3,48 2784.9,48 2784.9,67.1 2775.6,67.1 2775.6,76.7 2785.1,76.7 2785.1,86.4 2794.8,86.4 
				2794.8,77 2804.5,77 2804.5,86.5 2814.3,86.5 			"/>
			<polygon id="Path_162_" class="st0" points="1837,68 1856.1,68 1856.1,58.3 1846.8,58.3 1846.8,48.8 1856.2,48.8 1856.2,39 
				1866,39 1866,39 1866,77.6 1866,77.6 1846.7,77.6 1846.7,97 1846.7,97 1837.1,97 1837.1,67.9 			"/>
			<polygon id="Path_163_" class="st0" points="2727.1,77.8 2727.1,48.5 2727.1,48.5 2756.2,48.5 2756.2,39 2766,39 2766,58.4 
				2766,58.4 2756.1,58.4 2756.1,68.1 2746.5,68.1 2746.5,58.6 2736.8,58.6 2736.8,78 2727,78 			"/>
			<polygon id="Path_164_" class="st0" points="1526.4,106 1526.4,96.4 1507,96.4 1507,86.6 1507,86.6 1516.7,86.6 1516.7,77 
				1526.4,77 1526.4,86.4 1546,86.4 1546,96.2 1546,96.2 1536.2,96.2 1536.2,106 1536.2,106 1526.4,106 			"/>
			<polygon id="Path_165_" class="st0" points="2427.7,97 2427.7,87.4 2418,87.4 2418,77.7 2427.5,77.7 2427.5,68 2437.3,68 
				2437.3,68 2437.3,77.6 2447,77.6 2447,97 2427.7,97 			"/>
			<path id="Path_166_" class="st0" d="M1972,19.1h9.6v19.4h9.4V58h-9.3v-9.5h-9.6l0,0c0-9.8,0-19.6,0-29.5L1972,19.1z"/>
			<polygon id="Path_167_" class="st0" points="1449.6,77.8 1440,77.8 1440,39 1449.4,39 1449.4,58.3 1459,58.3 1459,68.1 
				1449.5,68.1 1449.5,78 			"/>
			<polygon id="Path_168_" class="st0" points="2291.8,77 2291.8,67.3 2282,67.3 2282,57.5 2291.5,57.5 2291.5,48 2301.3,48 
				2301.3,57.4 2311,57.4 2311,67.1 2301.5,67.1 2301.5,76.9 2291.6,76.9 			"/>
			<polygon id="Path_169_" class="st0" points="1866,77.1 1895,77.1 1895,86.5 1885.6,86.5 1885.6,96 1866,96 1866,96 1866,77 			
				"/>
			<path id="Path_170_" class="st0" d="M2650,76.8h-9.5v-9.6h-9.5V48h18.9l0,0c0,9.7,0,19.3,0,29L2650,76.8z"/>
			<polygon id="Path_171_" class="st0" points="2282.2,106.9 2282.2,78 2292.2,78 2292.2,78 2292.2,87.5 2302,87.5 2302,97.3 
				2302,97.3 2291.9,97.3 2291.9,107 2291.9,107 2282,107 			"/>
			<polygon id="Path_172_" class="st0" points="1943.1,77 1943.1,67.5 1952.6,67.5 1952.6,58 1962.4,58 1962.4,58 1962.4,67.4 
				1972,67.4 1972,77 1943,77 			"/>
			<polygon id="Path_173_" class="st0" points="2176,68.1 2185.6,68.1 2185.6,87.3 2195,87.3 2195,97 2176,97 2176,97 2176,68 			
				"/>
			<polygon id="Path_174_" class="st0" points="1691.5,68 1691.5,58.5 1672,58.5 1672,49 1701,49 1701,67.9 1691.4,67.9 			"/>
			<polygon id="Path_175_" class="st0" points="2176.1,58 2176.1,39 2185.6,39 2185.6,48.4 2195,48.4 2195,58 2176,58 			"/>
			<polygon id="Path_176_" class="st0" points="2853.4,58 2853.4,67.4 2863,67.4 2863,77 2844,77 2844,58 			"/>
			<polygon id="Path_177_" class="st0" points="2805.4,48 2815,48 2815,48 2815,67 2796,67 2796,57.7 2805.5,57.7 2805.5,48 			"/>
			<polygon id="Path_178_" class="st0" points="2815,48.4 2815,39 2834,39 2834,58 2824.8,58 2824.8,48.4 2815,48.4 			"/>
			<polygon id="Path_179_" class="st0" points="1692,77 1721,77 1721,77 1721,87 1692.1,87 1692.1,77 			"/>
			<polygon id="Path_180_" class="st0" points="1478.9,48 1478.9,77 1469,77 1469,48.1 1479,48.1 			"/>
			<polygon id="Path_181_" class="st0" points="1778.1,48 1778.1,19 1788,19 1788,47.9 1778,47.9 			"/>
			<polygon id="Path_182_" class="st0" points="2049.9,67 2049.9,77 2021,77 2021,67 2050,67 			"/>
			<polygon id="Path_183_" class="st0" points="2505.1,29 2505.1,19 2534,19 2534,28.9 2505,28.9 			"/>
			<polygon id="Path_184_" class="st0" points="2834,86.9 2814,86.9 2814,86.9 2814,77.5 2823.8,77.5 2823.8,68 2833.9,68 
				2833.9,87 			"/>
			<polygon id="Path_185_" class="st0" points="2360,67.9 2341,67.9 2341,49 2350.3,49 2350.3,58.3 2359.9,58.3 2359.9,68 			"/>
			<polygon id="Path_186_" class="st0" points="2311.1,96.3 2311.1,87 2330,87 2330,106 2330,106 2320.4,106 2320.4,96.4 2311,96.4 
							"/>
			<polygon id="Path_187_" class="st0" points="1556.1,29 1556.1,19 1585,19 1585,28.9 1556,28.9 			"/>
			<polygon id="Path_188_" class="st0" points="1508,48.4 1508,39 1527,39 1527,58 1517.7,58 1517.7,48.4 			"/>
			<polygon id="Path_189_" class="st0" points="2059,96.4 2049.5,96.4 2049.5,106 2040,106 2040,87 2059,87 			"/>
			<polygon id="Path_190_" class="st0" points="2863,105.8 2853,105.8 2853,87 2862.9,87 2862.9,106 			"/>
			<polygon id="Path_191_" class="st0" points="2128,57.9 2118,57.9 2118,39 2128,39 2128,39 2128,58 			"/>
			<polygon id="Path_192_" class="st0" points="2475,77 2466,77 2466,58 2475,58 			"/>
			<polygon id="Path_193_" class="st0" points="2263,57.9 2263,39 2272,39 2272,58 			"/>
			<polygon id="Path_194_" class="st0" points="2437,68 2437,58 2456,58 2456,67.9 2437,67.9 			"/>
			<polygon id="Path_195_" class="st0" points="2321,58 2330,58 2330,77 2321,77 			"/>
			<polygon id="Path_196_" class="st0" points="1924,58 1915,58 1915,39 1924,39 			"/>
			<polygon id="Path_197_" class="st0" points="1740,0 1740,19 1731,19 1731,0 			"/>
			<polygon id="Path_198_" class="st0" points="2612,39 2621,39 2621,58 2612,58 			"/>
			<polygon id="Path_199_" class="st0" points="2708,58 2698,58 2698,39 2698,39 2708,39 2708,58 			"/>
			<polygon id="Path_200_" class="st0" points="2166,57.9 2147,57.9 2147,49 2165.9,49 2165.9,58 			"/>
			<polygon id="Path_201_" class="st0" points="2224,67 2214,67 2214,67 2214,48 2223.9,48 2223.9,66.9 			"/>
			<polygon id="Path_202_" class="st0" points="2311,48 2311,39 2330,39 2330,48 			"/>
			<polygon id="Path_203_" class="st0" points="1566,47.9 1566,39 1585,39 1585,48 			"/>
			<polygon id="Path_204_" class="st0" points="1555.9,29 1555.9,48 1546,48 1546,29.1 1556,29.1 			"/>
			<polygon id="Path_205_" class="st0" points="2805,47.9 2795,47.9 2795,29 2804.9,29 2804.9,48 			"/>
			<polygon id="Path_206_" class="st0" points="1643,29 1662,29 1662,38 1643,38 			"/>
			<polygon id="Path_207_" class="st0" points="2583,48 2583,29 2592,29 2592,47.9 2583,47.9 			"/>
			<polygon id="Path_208_" class="st0" points="2213.9,68 2213.9,77 2195,77 2195,68 2214,68 			"/>
			<path id="Path_209_" class="st0" d="M1497.8,58c0,6.3,0.1,12.7,0.2,19l0,0h-10V58.1h9.8V58z"/>
			<polygon id="Path_210_" class="st0" points="1721,77 1721,58 1721,58 1731,58 1731,76.9 1731,76.9 1721,76.9 			"/>
			<polygon id="Path_211_" class="st0" points="2040,38 2021,38 2021,29 2040,29 			"/>
			<polygon id="Path_212_" class="st0" points="1634.1,68 1634.1,58 1653,58 1653,67.9 1634,67.9 			"/>
			<polygon id="Path_213_" class="st0" points="2679.2,77 2679.2,58 2689,58 2689,77 2689,77 2679,77 			"/>
			<polygon id="Path_214_" class="st0" points="1566.1,68 1566.1,58 1585,58 1585,67.9 1566,67.9 			"/>
			<polygon id="Path_215_" class="st0" points="2079,29 2079,38 2060,38 2060,29 			"/>
			<polygon id="Path_216_" class="st0" points="2582,48 2582,58 2573,58 2573,48.1 2582,48.1 			"/>
			<polygon id="Path_217_" class="st0" points="2660,48.1 2670,48.1 2670,58 2660.1,58 2660.1,48 			"/>
			<polygon id="Path_218_" class="st0" points="1546.1,67.9 1546.1,58 1556,58 1556,68 1556,68 1546,68 			"/>
			<polygon id="Path_219_" class="st0" points="1827.1,68 1827.1,58 1837,58 1837,68 1837,68 1827,68 			"/>
			<polygon id="Path_220_" class="st0" points="1904,58 1904,67 1895,67 1895,58 			"/>
			<polygon id="Path_221_" class="st0" points="2060,67 2050,67 2050,67 2050,58 2059.8,58 2059.8,67 			"/>
			<polygon id="Path_222_" class="st0" points="2089,67.9 2079,67.9 2079,58 2088.9,58 2088.9,68 			"/>
			<polygon id="Path_223_" class="st0" points="2127.1,58.1 2137,58.1 2137,68 2137,68 2127,68 2127,68 2127,58 			"/>
			<path id="Path_224_" class="st0" d="M2176,58.1c0,3.3,0,6.6,0,9.9l0,0h-10l0,0V58l0,0h9.9L2176,58.1z"/>
			<polygon id="Path_225_" class="st0" points="2243,58 2243,68 2233,68 2233,68 2233,58 			"/>
			<polygon id="Path_226_" class="st0" points="1546.9,68 1546.9,77 1537,77 1537,68 1547,68 			"/>
			<polygon id="Path_227_" class="st0" points="1633.9,68 1633.9,77 1624,77 1624,68 1634,68 			"/>
			<polygon id="Path_228_" class="st0" points="1692,68 1692,78 1692,78 1682,78 1682,78 1682,68.1 1691.9,68.1 			"/>
			<polygon id="Path_229_" class="st0" points="1740.1,78 1740.1,68 1749,68 1749,77.9 1740,77.9 			"/>
			<polygon id="Path_230_" class="st0" points="1817,78 1817,68 1827,68 1827,68 1827,78 			"/>
			<polygon id="Path_231_" class="st0" points="2001.1,78 2001.1,68 2011,68 2011,77.9 2001,77.9 			"/>
			<polygon id="Path_232_" class="st0" points="2069.9,77 2060,77 2060,67 2060,67 2070,67 2070,77 			"/>
			<polygon id="Path_233_" class="st0" points="2233.8,67.2 2233.8,77 2224,77 2224,67 2224,67 2234,67 			"/>
			<polygon id="Path_234_" class="st0" points="2660.1,78 2660.1,68 2670,68 2670,78 2670,78 2660,78 			"/>
			<polygon id="Path_235_" class="st0" points="1459,87 1449,87 1449,77 1449,77 1459,77 1459,87 			"/>
			<polygon id="Path_236_" class="st0" points="1508,87 1498,87 1498,77 1498,77 1508,77 1508,87 			"/>
			<polygon id="Path_237_" class="st0" points="1730,77.1 1740,77.1 1740,77.1 1740,87 1740,87 1730.1,87 1730.1,77 			"/>
			<polygon id="Path_238_" class="st0" points="1904.1,97 1904.1,88 1914,88 1914,97 1904,97 			"/>
			<polygon id="Path_239_" class="st0" points="1953.1,96.9 1953.1,87 1963,87 1963,97 1963,97 1953,97 			"/>
			<polygon id="Path_240_" class="st0" points="2030,96 2021,96 2021,87 2030,87 			"/>
			<polygon id="Path_241_" class="st0" points="2301,0 2301,9 2292,9 2292,0 			"/>
			<polygon id="Path_242_" class="st0" points="2640,0 2640,9 2631,9 2631,0 			"/>
			<polygon id="Path_243_" class="st0" points="2360,96.8 2350,96.8 2350,87 2360,87 2360,87 2360,97 			"/>
			<polygon id="Path_244_" class="st0" points="2669,9 2660,9 2660,0 2669,0 			"/>
			<polygon id="Path_245_" class="st0" points="2834,87.1 2844,87.1 2844,97 2834.1,97 2834.1,87 			"/>
			<polygon id="Path_246_" class="st0" points="2872,0 2872,9 2863,9 2863,0 			"/>
			<polygon id="Path_247_" class="st0" points="1440,10 1449,10 1449,19 1440,19 			"/>
			<polygon id="Path_248_" class="st0" points="1478,10 1478,19 1469,19 1469,10 			"/>
			<polygon id="Path_249_" class="st0" points="1536.1,20 1536.1,10 1546,10 1546,19.9 1536,19.9 			"/>
			<polygon id="Path_250_" class="st0" points="1827,10 1827,19 1818,19 1818,10 			"/>
			<polygon id="Path_251_" class="st0" points="1915,10 1924,10 1924,19 1915,19 			"/>
			<polygon id="Path_252_" class="st0" points="1973,19.9 1963,19.9 1963,10 1972.9,10 1972.9,20 			"/>
			<polygon id="Path_253_" class="st0" points="2195,19 2195,10 2204,10 2204,19 			"/>
			<path id="Path_254_" class="st0" d="M2418,106.9V97h10l0,0c0,3.3,0,6.7,0,10l0,0h-9.9L2418,106.9z"/>
			<polygon id="Path_255_" class="st0" points="2553.1,97.1 2563,97.1 2563,107 2563,107 2553,107 2553,107 2553,97 			"/>
			<polygon id="Path_256_" class="st0" points="2601.1,107 2601.1,97 2611,97 2611,106.9 2601,106.9 			"/>
			<polygon id="Path_257_" class="st0" points="2592,19 2592,10 2601,10 2601,19 			"/>
			<polygon id="Path_258_" class="st0" points="2756,10 2756,19 2747,19 2747,10 			"/>
			<polygon id="Path_259_" class="st0" points="1536.9,19 1536.9,28 1527,28 1527,19 1537,19 			"/>
			<polygon id="Path_260_" class="st0" points="1798,29 1798,20 1807,20 1807,29 			"/>
			<polygon id="Path_261_" class="st0" points="1837,20 1846,20 1846,29 1837,29 			"/>
			<polygon id="Path_262_" class="st0" points="2002,28.9 1992,28.9 1992,19 2001.9,19 2001.9,29 			"/>
			<polygon id="Path_263_" class="st0" points="2311,20 2311,29 2302,29 2302,20 			"/>
			<polygon id="Path_264_" class="st0" points="2408.1,115.9 2408.1,106 2418,106 2418,106 2418,116 2418,116 2408,116 			"/>
			<polygon id="Path_265_" class="st0" points="2417,29 2408,29 2408,20 2417,20 			"/>
			<polygon id="Path_266_" class="st0" points="2437,29 2428,29 2428,20 2437,20 			"/>
			<polygon id="Path_267_" class="st0" points="2456,29 2447,29 2447,20 2456,20 			"/>
			<polygon id="Path_268_" class="st0" points="2873,106.1 2873,116 2863,116 2863.2,106 2863.2,106 			"/>
			<polygon id="Path_269_" class="st0" points="2572,29 2563,29 2563,20 2572,20 			"/>
			<polygon id="Path_270_" class="st0" points="2631,28.9 2621,28.9 2621,19 2631,19 2631,29 			"/>
			<polygon id="Path_271_" class="st0" points="2689,28.9 2679,28.9 2679,20 2688.9,20 2688.9,29 			"/>
			<polygon id="Path_272_" class="st0" points="2727,29 2718,29 2718,20 2727,20 			"/>
			<polygon id="Path_273_" class="st0" points="1605,38 1605,29 1614,29 1614,38 			"/>
			<polygon id="Path_274_" class="st0" points="1673,29 1682,29 1682,38 1673,38 			"/>
			<polygon id="Path_275_" class="st0" points="1711,38 1711,29 1720,29 1720,38 			"/>
			<polygon id="Path_276_" class="st0" points="1866.1,39 1866.1,29 1876,29 1876,38.9 1866,38.9 			"/>
			<polygon id="Path_277_" class="st0" points="1944,38.9 1934,38.9 1934,29 1943.9,29 1943.9,39 			"/>
			<polygon id="Path_278_" class="st0" points="2001,29.1 2011,29.1 2011,39 2001.1,39 2001.1,29 			"/>
			<polygon id="Path_279_" class="st0" points="2127.1,39 2127.1,29 2137,29 2137,38.9 2127,38.9 			"/>
			<polygon id="Path_280_" class="st0" points="2292,38 2283,38 2283,29 2292,29 			"/>
			<polygon id="Path_281_" class="st0" points="2341,29 2350,29 2350,38 2341,38 			"/>
			<polygon id="Path_282_" class="st0" points="2369,29 2369,38 2360,38 2360,29 			"/>
			<polygon id="Path_283_" class="st0" points="2504.9,29 2504.9,39 2495,39 2495,29.1 2505,29.1 			"/>
			<polygon id="Path_284_" class="st0" points="2631,29.1 2641,29.1 2641,39 2631,39 2631,29 			"/>
			<polygon id="Path_285_" class="st0" points="2660.1,39 2660.1,29 2669,29 2669,38.9 2660,38.9 			"/>
			<polygon id="Path_286_" class="st0" points="2699,39 2689,39 2689,29 2689,29 2699,29 2699,39 			"/>
			<polygon id="Path_287_" class="st0" points="2863,38 2854,38 2854,29 2863,29 			"/>
			<polygon id="Path_288_" class="st0" points="1478.1,48 1478.1,39 1488,39 1488,48 1478,48 			"/>
			<polygon id="Path_289_" class="st0" points="1740,48.8 1730,48.8 1730,39 1739.9,39 1739.9,49 			"/>
			<polygon id="Path_290_" class="st0" points="1769,47.9 1759,47.9 1759,39 1769,39 1769,48 			"/>
			<polygon id="Path_291_" class="st0" points="1818,49 1818,39 1827,39 1827,49 1818,49 			"/>
			<polygon id="Path_292_" class="st0" points="1895,48 1886,48 1886,39 1895,39 			"/>
			<polygon id="Path_293_" class="st0" points="1943,38.1 1953,38.1 1953,48 1943.1,48 1943.1,38 			"/>
			<polygon id="Path_294_" class="st0" points="2389,47.9 2389,39 2398,39 2398,48 			"/>
			<polygon id="Path_295_" class="st0" points="2427,48 2418,48 2418,39 2427,39 			"/>
			<polygon id="Path_296_" class="st0" points="2456,48 2447,48 2447,39 2456,39 			"/>
			<path id="Path_297_" class="st0" d="M2660,48.7h-10l0,0V39h10l0,0c0,3.3,0,6.7,0,10V48.7z"/>
			<polygon id="Path_298_" class="st0" points="2728,48.8 2718,48.8 2718,39 2727.9,39 2727.9,49 			"/>
			<polygon id="Path_299_" class="st0" points="1508,48 1508,58 1498,58 1498,58 1498,48 			"/>
			<polygon id="Path_300_" class="st0" points="1604.1,58 1604.1,48 1614,48 1614,57.9 1604,57.9 			"/>
			<polygon id="Path_301_" class="st0" points="1721,57.9 1711,57.9 1711,48 1721,48 1721,58 			"/>
			<polygon id="Path_302_" class="st0" points="1740,48.1 1750,48.1 1750,58 1740.1,58 1740.1,48 			"/>
			<path id="Path_303_" class="st0" d="M1778.9,48.1V58h-9.9c0-3.3,0-6.6,0-10l0,0h10L1778.9,48.1z"/>
			<polygon id="Path_304_" class="st0" points="1808,58 1808,48 1818,48 1818,48 1818,58 			"/>
			<polygon id="Path_305_" class="st0" points="1963,58 1963,48 1973,48 1973,48 1973,58 			"/>
			<polygon id="Path_306_" class="st0" points="2012,49 2021,49 2021,58 2012,58 			"/>
			<polygon id="Path_307_" class="st0" points="2031,58 2031,49 2040,49 2040,58 			"/>
			<polygon id="Path_308_" class="st0" points="2243.2,58 2243.2,48 2253,48 2253,57.9 2243,57.9 			"/>
			<polygon id="Path_309_" class="st0" points="2747,97 2737,97 2737,78 2747,78 			"/>
			<polygon id="Path_310_" class="st0" points="1711,145 1701,145 1701,135 1711,135 			"/>
			<polygon id="Path_311_" class="st0" points="1721,87 1731,87 1731,97 1721,97 			"/>
			<polygon id="Path_312_" class="st0" points="1740,116 1730,116 1730,106 1740,106 			"/>
			<polygon id="Path_313_" class="st0" points="1633,116 1633,106 1643,106 1643,116 			"/>
		</g>
	</g>
</g>
</svg>
