<?xml version="1.0" encoding="utf-8"?>
<!-- Generator: Adobe Illustrator 25.0.1, SVG Export Plug-In . SVG Version: 6.00 Build 0)  -->
<svg version="1.1" id="Layer_1" xmlns="http://www.w3.org/2000/svg" xmlns:xlink="http://www.w3.org/1999/xlink" x="0px" y="0px"
	 viewBox="0 0 287.6 323" style="enable-background:new 0 0 287.6 323;" xml:space="preserve">
<style type="text/css">
	.st0{fill:#FFFFFF;}
	.st1{fill:#E5BBD5;}
</style>
<g id="HCwPJJ.tif">
	<g>
		<path class="st0" d="M272.3,161.5c0,52.5,0,104.9,0.1,157.4c0,3.4-0.7,4.1-4.1,4.1c-83.3-0.1-166.5-0.1-249.8,0
			c-3.4,0-4.1-0.7-4.1-4.1C14.5,214,14.5,109,14.4,4.1c0-3.4,0.7-4.1,4.1-4.1C101.8,0.1,185,0.1,268.3,0c3.4,0,4.1,0.7,4.1,4.1
			C272.3,56.6,272.3,109,272.3,161.5z M98.4,1.2C97.1,1.7,96,2,94.9,2.4C70,10.7,45.1,19.1,20.1,27.2c-3.9,1.3-4.8,2.7-3.4,6.6
			c5.2,14.7,9.9,29.6,14.9,44.4c26.6,79.4,53.2,158.8,79.7,238.2c1,3.1,1.9,5.4,6.1,4c37.9-12.8,75.9-25.4,113.9-38
			c2.3-0.8,3.4-2.1,3.9-4.5c11.8-56.9,23.6-113.9,35.5-170.8c0.7-3.3,0.5-4.2-3.1-3.2c-14.9,4.3-30.1,5.8-45.6,5.2
			c-15.8-0.6-31-3.5-45.6-9.1c-31.7-12.1-54.7-32.7-65.2-65.9c-3.1-10-6.7-19.8-10.2-29.7C100.6,3.2,100.8,0.9,98.4,1.2z"/>
		<path class="st1" d="M98.4,1.2c2.3-0.3,2.1,2,2.6,3.3c3.5,9.9,7.1,19.7,10.2,29.7c10.4,33.2,33.5,53.8,65.2,65.9
			c14.7,5.6,29.9,8.5,45.6,9.1c15.6,0.6,30.7-0.9,45.6-5.2c3.6-1.1,3.8-0.1,3.1,3.2C258.9,164.1,247.1,221,235.3,278
			c-0.5,2.4-1.6,3.7-3.9,4.5c-38,12.6-76,25.3-113.9,38c-4.2,1.4-5.1-0.9-6.1-4C84.8,237.1,58.2,157.7,31.7,78.3
			c-5-14.8-9.7-29.7-14.9-44.4c-1.4-3.9-0.5-5.4,3.4-6.6c25-8.1,49.8-16.5,74.7-24.8C96,2,97.1,1.7,98.4,1.2z"/>
	</g>
</g>
</svg>
