<?xml version="1.0" encoding="utf-8"?>
<!-- Generator: Adobe Illustrator 25.0.1, SVG Export Plug-In . SVG Version: 6.00 Build 0)  -->
<svg version="1.1" id="Layer_1" xmlns="http://www.w3.org/2000/svg" xmlns:xlink="http://www.w3.org/1999/xlink" x="0px" y="0px"
	 viewBox="0 0 243.88 44.41" style="enable-background:new 0 0 243.88 44.41;" xml:space="preserve">
<style type="text/css">
	.st0{fill:#CAA551;}
	.st1{fill:#CAA551;}
</style>
<g>
	<path class="st1" d="M186.45,21.25c0.87-1.51,1.8-3.23,2.83-4.9c0.52-0.83,1.18-1.58,1.83-2.33c0.52-0.61,3.93-1.45,4.49-0.98
		c0.37,0.31,0.59,1.13,0.48,1.63c-0.43,1.93-1.06,3.82-1.55,5.74c-0.58,2.29-1.08,4.61-1.7,7.31c-0.46-0.32-1.32-0.61-1.42-1.06
		c-0.3-1.31-0.51-2.73-0.34-4.04c0.23-1.74,0.85-3.42,1.15-5.21c-1.65,3.33-5.31,5.45-5.61,9.6c-0.02,0.34-0.45,0.83-0.77,0.91
		c-0.33,0.08-0.92-0.15-1.11-0.44c-0.43-0.63-0.79-1.35-0.97-2.08c-0.44-1.81-0.77-3.65-1.49-5.54c-0.87,2.88-1.75,5.75-2.58,8.64
		c-0.23,0.8-0.42,1.74-1.44,1.21c-0.54-0.28-1.18-1.29-1.06-1.81c0.85-3.65,1.86-7.27,2.87-10.89c0.27-0.96,0.32-2.22,1.83-2.15
		c1.39,0.06,2.72,0.44,3.26,1.85C185.71,18.23,186.05,19.85,186.45,21.25"/>
	<path class="st1" d="M163.63,15.56c-2.2,1.7-3.92,2.99-5.59,4.32c-2.69,2.16-4.01,5.12-4.7,8.39c-0.13,0.62,0.01,1.82,0.29,1.9
		c0.65,0.2,1.69,0.15,2.16-0.26c1.32-1.17,2.42-2.58,3.81-4.1c-1.73-0.22-3.21,1.51-4.36-0.62c3.26-2.15,6.4-4.56,11.04-3.46
		c-0.64,0.44-1.04,0.71-1.43,1c-1.16,0.85-2.05,1.8-2.65,3.23c-1.23,2.91-3.31,5.26-6.14,6.78c-2.31,1.25-6.22-1.43-6.1-4.23
		c0.12-2.71,1.07-5.21,2.78-7.33c1.25-1.55,2.56-3.09,4.05-4.39c1.04-0.91,2.37-1.64,3.7-2.01C161.27,14.56,162.3,15.2,163.63,15.56
		"/>
	<path class="st1" d="M53.56,36.17c0.1,0.12,0.27,0.23,0.3,0.37c0.39,1.72,1.27,2.56,3.04,2.53c2-0.03,3.62-0.98,4.86-2.52
		c0.72-0.9,0.44-1.58-0.71-1.73c-1.04-0.14-2.1-0.12-3.15-0.21c-2.52-0.23-3.79-2.69-2.48-4.85c2.01-3.3,5.39-4.46,8.84-5.28
		c0.8-0.19,1.9,0.9,2.85,1.75c-4.04,0.83-7.18,2.73-9.55,6.04c1.71,0.41,3.3,0.82,4.9,1.17c1.77,0.39,2.34,1.69,2.5,3.27
		c0.19,1.83-0.63,3.6-2.04,4.12c-1.64,0.62-3.31,1.27-5.02,1.53c-2.23,0.33-4.39-1.09-5.37-3.12C51.81,37.76,52,37.19,53.56,36.17"
		/>
	<path class="st1" d="M125.34,28.21c0.44-2.11,0.74-3.84,1.17-5.55c0.5-2.02,0.77-2.15,3.19-1.81c-0.49,2.31-0.99,4.61-1.47,6.91
		c-0.38,1.78-0.74,3.57-1.11,5.35c-0.12,0.6-0.22,1.21-0.44,1.76c-0.12,0.3-0.49,0.68-0.76,0.7c-0.23,0.01-0.57-0.4-0.73-0.7
		c-1.32-2.42-2.62-4.85-4.34-7.29c-0.57,1.97-1.14,3.94-1.71,5.91c-0.15,0.53-0.15,1.15-0.44,1.58c-0.28,0.42-0.93,0.96-1.28,0.88
		c-0.44-0.11-1.03-0.79-1.04-1.23c-0.02-1.15,0.19-2.32,0.4-3.46c0.54-2.87,1.11-5.74,1.75-8.58c0.09-0.38,0.67-0.89,1.06-0.92
		c1.68-0.12,2.83,0.8,3.6,2.21C123.87,25.27,124.51,26.6,125.34,28.21"/>
	<path class="st1" d="M202.06,17.13c2.09-0.05,3.92-1.89,6.21-0.16c-0.8,0.55-1.39,1.1-2.1,1.41c-1.81,0.8-3.76,1.34-5.48,2.29
		c-0.88,0.48-1.41,1.62-2.35,2.77c3.26-0.15,5.59-2.38,9.01-1.66c-0.98,1.17-1.56,2.32-2.49,2.86c-1.88,1.09-3.91,1.94-5.95,2.72
		c-0.97,0.37-1.82-0.27-1.92-1.3c-0.12-1.28-0.26-2.68,0.13-3.85c0.78-2.35,1.91-4.59,2.84-6.72c-0.54-0.37-1.01-0.71-1.49-1.04
		c0.44-0.34,0.82-0.82,1.32-0.99c2.4-0.79,4.82-1.52,7.25-2.19c0.43-0.12,1,0.01,1.42,0.21c0.32,0.16,0.72,0.63,0.7,0.92
		c-0.03,0.31-0.48,0.71-0.82,0.83c-1.09,0.37-2.22,0.65-3.35,0.93C203.47,14.55,202.45,15.43,202.06,17.13"/>
	<path class="st1" d="M133.84,32.48c1.14-1.24,2.1-2.29,2.98-3.25c-0.86-0.68-1.63-1.27-2.4-1.87c0.07-0.19,0.13-0.38,0.2-0.56
		c2.87-0.26,5.23-3.27,8.46-1.62c0.11,0.22,0.22,0.43,0.33,0.65c-0.67,0.5-1.36,0.98-2,1.51c-0.55,0.46-1.15,0.93-1.54,1.51
		c-0.95,1.43-1.66,3.02-2.69,4.38c-1.39,1.85-3.57,1.97-5.18,0.33c-1.6-1.63-2.47-3.54-1.55-5.87c1.1-2.76,2.14-5.58,4.42-7.62
		c1.41-1.26,3.66-1.05,4.99,0.31c0.2,0.2,0.41,0.6,0.33,0.81c-0.09,0.24-0.55,0.57-0.73,0.51c-1.31-0.46-2.38,0.09-3.12,0.99
		c-1.11,1.35-2.28,2.78-2.89,4.38C132.85,28.63,132.58,30.48,133.84,32.48"/>
	<path class="st1" d="M171.75,26.02c-1.92,0.82-4.23,0.87-5.13,3.36c-0.12,0.34-1.37,0.6-1.88,0.39c-0.88-0.38-0.84-1.04-0.27-1.99
		c2.16-3.6,4.13-7.31,6.2-10.96c0.29-0.52,0.64-1.1,1.12-1.39c1.57-0.97,2.75-0.34,2.97,1.5c0.08,0.66,0.15,1.32,0.14,1.99
		c-0.02,3.21-0.05,6.42-0.1,9.62c0,0.32-0.13,0.64-0.19,0.95C172.53,29.65,172.53,29.65,171.75,26.02 M169.42,24.16
		c2.57-0.87,2.57-0.87,2.3-3.88C171,21.51,170.32,22.66,169.42,24.16"/>
	<path class="st1" d="M81.29,36.07c-2.01,0.86-4.3,1.01-5.1,3.55c-0.12,0.37-1.32,0.75-1.8,0.56c-0.82-0.32-1.11-1.13-0.57-2.06
		c2.18-3.78,4.36-7.55,6.45-11.38c0.74-1.36,1.99-1.05,3.04-1.12c0.33-0.02,1.04,1.09,1.07,1.7c0.1,2.46-0.02,4.94-0.04,7.4
		c-0.01,1.21,0.09,2.43-0.01,3.64c-0.04,0.51-0.46,1-0.71,1.49c-0.54-0.28-1.35-0.43-1.57-0.87C81.63,38.17,81.55,37.19,81.29,36.07
		 M79.47,33.94c1.99,0.01,2.54-1.26,1.6-3.96C80.49,31.42,79.99,32.66,79.47,33.94"/>
	<path class="st1" d="M102.95,27.5c1.14-1.43,1.97-2.46,2.79-3.5c0.83-1.05,2.36-1.33,3.29-0.46c0.24,0.23,0.26,1.09,0.04,1.35
		c-1.11,1.28-2.32,2.49-3.55,3.66c-0.84,0.8-1.78,1.49-2.57,2.14c1.7,2.04,3.21,3.85,4.72,5.65c-1.27,1.3-1.29,1.29-6.63-3.39
		c-0.25,1.41-0.41,2.71-0.74,3.97c-0.14,0.53-0.64,0.97-0.97,1.45c-0.45-0.49-1.23-0.95-1.29-1.49c-0.15-1.3-0.18-2.69,0.12-3.95
		c0.7-2.9,1.56-5.76,2.51-8.58c0.18-0.53,1.09-0.81,1.66-1.21c0.24,0.58,0.59,1.14,0.69,1.74C103.12,25.57,102.99,26.29,102.95,27.5
		"/>
	<path class="st1" d="M96.44,31.79c-0.04,0.45,0.06,1.01-0.16,1.34c-1.17,1.7-2.3,3.46-3.68,4.98c-1.14,1.25-2.82,1.15-4.38,0.87
		c-0.97-0.18-2.09-2.2-1.91-3.7c0.48-4.13,2-7.8,5.3-10.51c1.44-1.18,3.67-0.66,5.13,1.21c-5.81,1.12-6.99,5.47-7.48,10.34
		c3-0.62,5.04-2.49,6.79-4.78C96.18,31.62,96.31,31.7,96.44,31.79"/>
	<path class="st1" d="M47.87,10.44c-0.24,0.94-0.37,1.94-0.76,2.82c-0.69,1.57-1.63,3.02-2.29,4.6c-0.44,1.05-0.64,2.21-0.82,3.35
		c-0.15,0.92-0.16,1.94-1.43,1.74c-1.07-0.17-1.93-0.84-1.53-2.1c0.55-1.73,1.19-3.43,1.92-5.1c0.65-1.51,1.47-2.94,2.34-4.66
		c-1.15,0.4-2.11,0.71-3.05,1.06c-0.99,0.36-1.77,0.21-2.16-0.85c-0.42-1.14,0.66-1.07,1.21-1.35c2.89-1.44,5.88-2.6,9.13-2.79
		c0.84-0.05,1.74,0.13,2.55,0.38c0.34,0.11,0.53,0.7,0.78,1.07C53.39,8.77,53.02,9,52.63,9.07c-1.71,0.32-3.43,0.59-5.15,0.87
		C47.61,10.11,47.74,10.27,47.87,10.44"/>
	<path class="st1" d="M68.18,41.72c-2.29-0.72-1.91-2.25-1.44-3.59c0.93-2.65,2.04-5.24,3.18-8.12c-0.87,0.17-1.59,0.42-2.3,0.39
		c-0.47-0.02-0.92-0.44-1.39-0.68c0.24-0.38,0.4-0.97,0.74-1.12c2.43-1.01,4.87-2.05,7.38-2.83c0.91-0.28,2.03,0.13,3.08,0.23
		c-0.36,1.93-1.56,2.28-2.76,2.53c-1.53,0.32-2.22,1.17-2.28,2.76c-0.03,0.84-0.48,1.68-0.78,2.49c-0.71,1.91-1.4,3.84-2.17,5.72
		C69.12,40.32,68.58,41.03,68.18,41.72"/>
	<path class="st1" d="M51.81,14.8c1.92-0.18,2.95-0.99,3.43-2.55c0.21-0.68,0.43-1.45,0.9-1.94c0.39-0.4,1.15-0.44,1.74-0.64
		c0.09,0.5,0.38,1.09,0.22,1.5c-1.21,3.22-2.49,6.42-3.82,9.6c-0.17,0.4-0.8,0.6-1.22,0.9c-0.32-0.53-0.94-1.09-0.9-1.6
		c0.09-1.06,0.53-2.1,0.86-3.27c-1.9,0.34-3.14,1.08-3.55,3.01c-0.13,0.61-1.09,1.6-1.46,1.51c-1.13-0.27-1.24-1.33-0.79-2.29
		c1.11-2.41,2.28-4.8,3.49-7.16c0.18-0.35,0.73-0.51,1.11-0.76c0.13,0.44,0.37,0.89,0.35,1.32C52.14,13.19,51.95,13.94,51.81,14.8"
		/>
	<path class="st1" d="M74.6,19.58c-1.44-0.64-1.19-1.73-0.84-2.82c0.91-2.83,1.84-5.64,2.78-8.49c-1.26-0.6-3.32,2.4-4.37-0.77
		c3.23-1.74,6.55-3.17,10.19-3.64c0.52-0.07,1.14,0.61,1.71,0.94c-0.33,0.48-0.57,1.27-1,1.39c-2.64,0.73-3.86,2.7-4.79,5.04
		c-1.02,2.57-2.1,5.11-3.17,7.65C75.01,19.14,74.79,19.33,74.6,19.58"/>
	<path class="st1" d="M67.21,8.82c-1.1,0.67-2.16,1.39-3.3,1.99c-1.16,0.62-2.55,0.96-2.51,2.73c1.44-0.4,2.89-0.81,4.34-1.22
		c0.12,0.25,0.24,0.51,0.37,0.76c-1.38,0.88-2.75,1.78-4.13,2.65c-1.1,0.69-3.04,0.62-2.43,2.85c1.94-0.81,3.86-1.62,6.29-2.63
		c-0.41,0.84-0.5,1.43-0.85,1.69c-1.62,1.24-3.22,2.54-4.99,3.53c-1.34,0.75-3.25-1.31-2.78-3.04c0.35-1.32,1.06-2.54,1.61-3.8
		c0.24-0.56,0.54-1.1,0.75-1.66c0.34-0.92,0.36-2.18,1-2.72c1.63-1.36,4.53-1.89,6.39-1.58C67.05,8.51,67.13,8.67,67.21,8.82"/>
	<path class="st1" d="M84.99,16.01c-1.1,0.26-2.2,0.31-3.08,0.78c-0.77,0.41-1.28,1.29-1.94,2c-1.19-0.63-1.62-1.19-0.7-2.56
		c1.24-1.86,2.1-3.99,3.17-5.97c0.75-1.4,1.48-2.85,3.32-3.16c0.88-0.15,1.38-0.02,1.42,1.01c0.11,3.13,0.29,6.26,0.37,9.39
		c0.01,0.33-0.39,0.92-0.67,0.96c-0.34,0.05-0.89-0.25-1.1-0.56C85.42,17.35,85.26,16.69,84.99,16.01 M84.57,10.02
		c-0.89,1.71-1.55,2.98-2.33,4.48C84.81,13.48,84.81,13.48,84.57,10.02"/>
	<path class="st1" d="M123.79,10.82c-1.54,0.7-3.49,0.5-3.68,2.8c-0.02,0.24-0.75,0.42-1.14,0.62c-0.22-0.57-0.78-1.28-0.6-1.67
		c1.4-3.1,2.97-6.13,4.42-9.21c0.56-1.18,1.57-0.98,2.41-0.76c0.38,0.1,0.77,0.97,0.79,1.51c0.08,2.86,0.08,5.72,0.03,8.58
		c-0.01,0.41-0.36,0.81-0.56,1.21c-0.41-0.3-0.98-0.52-1.19-0.92C123.99,12.42,123.97,11.72,123.79,10.82 M121.94,9.53
		c2.1-0.58,2.15-0.7,1.69-3.41C123.05,7.27,122.56,8.26,121.94,9.53"/>
	<path class="st1" d="M97.57,7.51c-3.33-0.03-4.7,2.08-5.75,4.42c-0.51,1.14-0.64,2.46-1.03,4.08c3.01-0.69,4.32-2.82,6.17-4.32
		c0.5,2.41-3.16,6.48-5.9,5.96c-1.35-0.26-2.29-1.28-2.14-2.85c0.31-3.29,1.61-6.16,4.12-8.37C94.22,5.4,95.84,5.73,97.57,7.51"/>
	<path class="st1" d="M101.42,7.89c-1.1-0.41-2.63,1.25-3.07-1.14c2.24-0.88,4.4-1.84,6.64-2.55c0.61-0.2,1.46,0.31,2.2,0.49
		c-0.47,0.57-0.83,1.39-1.43,1.64c-1.22,0.51-1.9,1.23-2.3,2.51c-0.74,2.36-1.67,4.67-2.63,6.96c-0.21,0.49-0.88,0.78-1.34,1.17
		c-0.29-0.54-0.93-1.17-0.81-1.6c0.56-2.01,1.31-3.97,2.02-5.94C100.87,8.92,101.16,8.44,101.42,7.89"/>
	<path class="st1" d="M111.34,37.07c-1.49-0.51-1.78-1.66-1.51-2.83c0.84-3.7,1.83-7.37,2.73-11.06c0.2-0.83,0.65-1.43,1.45-1.07
		c0.47,0.21,1.03,1.08,0.94,1.53c-0.81,4-1.73,7.98-2.68,11.95C112.15,36.1,111.7,36.52,111.34,37.07"/>
	<path class="st1" d="M132.96,2.34c-0.93,2.71-1.8,5.26-2.76,8.04c1.68,0.06,3.22,0.11,5.09,0.18c-1.71,2.18-3.65,2.99-5.8,3.36
		c-0.8,0.14-2-1.87-1.66-2.98c0.83-2.68,1.76-5.32,2.7-7.96C130.98,1.74,131.93,1.99,132.96,2.34"/>
	<path class="st1" d="M118.85,5.47c-4.27,1.11-7.05,5.15-5.6,8.4c1.44-0.8,2.86-1.58,4.28-2.37c-0.14,1.74-2.61,4.32-4.11,3.95
		c-0.9-0.22-1.79-1.21-2.3-2.07c-0.4-0.69-0.49-1.81-0.24-2.6C111.74,8,113,5.41,115.7,3.91C117.19,3.07,118.52,3.76,118.85,5.47"/>
	<path class="st1" d="M106.22,16.29c-0.23-0.73-0.82-1.6-0.63-2.18c1.06-3.14,2.31-6.22,3.56-9.29c0.1-0.24,0.95-0.47,1.06-0.35
		c0.31,0.34,0.67,0.94,0.56,1.3c-0.74,2.37-1.6,4.71-2.43,7.06c-0.41,1.16-0.87,2.3-1.31,3.45
		C106.76,16.28,106.49,16.29,106.22,16.29"/>
</g>
</svg>
