<svg id="a67bb3e1-e184-4797-a3f5-c8e1f482b17a" data-name="Layer 1" xmlns="http://www.w3.org/2000/svg" viewBox="0 0 550 550"><defs><style>.a0431fc5-408a-450c-82e9-e5bfaa3f5e0c{fill:#ee531c;}.f7754e18-814b-49a8-8767-e485e8c09994{fill:none;stroke:#ee531c;stroke-miterlimit:10;stroke-width:2.83px;}</style></defs><path class="a0431fc5-408a-450c-82e9-e5bfaa3f5e0c" d="M161.32,435.66c0,13.95-12.79,23.25-36.27,23.25H92.62c-1.63,0-2.56-.7-2.56-2v-.46c0-2.79,4.42-3.84,4.42-8.72V387.54c0-4.89-4.42-5.93-4.42-8.84v-.46c0-1.17.93-1.86,2.56-1.86h30.22c20.23,0,30.46,9.06,30.46,20.8,0,8.84-5.7,15.35-14.42,17.32C152.83,416.36,161.32,424.5,161.32,435.66Zm-49.4-29.41c0,3.37,2.32,5.58,5.81,5.58h8.14c7.32,0,12.08-5,12.08-12,0-10.46-6.16-16.39-15.69-16.39H116.8c-2.67,0-4.88,1.16-4.88,5.23Zm31.15,32.08c0-9.3-7.91-19.64-23-19.64h-8.13v24.76c0,4.76,3,8.37,7.55,8.37H127C137.61,451.82,143.07,446.82,143.07,438.33Z"/><path class="a0431fc5-408a-450c-82e9-e5bfaa3f5e0c" d="M218.86,442.52c-.7,6.74-8.61,17.55-23.6,17.55-16.16,0-28.13-11.62-28.13-29.52,0-16.86,12.9-28.6,28.13-28.6s22,8.83,22,16.51c0,4-2,6.27-5.12,7.67l-25.8,11.74c3,6.39,8.37,10.11,15.34,10.11,6.16,0,11-3.14,13.25-6.74C216.3,439.5,219,440.08,218.86,442.52Zm-35.57-20a38.37,38.37,0,0,0,1.16,10l15-7.55a5.66,5.66,0,0,0,3-5.47c0-4.18-3-12.44-9.3-12.44S183.29,413.69,183.29,422.53Z"/><path class="a0431fc5-408a-450c-82e9-e5bfaa3f5e0c" d="M283.37,456.24c0,2.67-5.58,3.37-11.16,3.37-6.63,0-9.65-1.28-10.35-6.28-2.55,3.84-7.44,6.74-15.46,6.74-12.55,0-21.85-5.93-21.85-17.55s9.65-17.67,21-17.67a22.08,22.08,0,0,1,12.67,3.49l-.12-1.4c-1.39-13.6-3.25-20.11-10.34-20.11-9.3,0-6.63,14.88-15.35,14.88-4.18,0-7-2.56-7-6.51,0-8.37,10.23-13.25,22.32-13.25,15.11,0,25.34,9.18,27,23.83l2.55,21.5C278.25,455.31,283.37,453.1,283.37,456.24Zm-23.6-11.74-.35-4.07c-.7-6.86-4.42-10.35-9.18-10.35s-8.49,3.84-8.49,9.77c0,8,3.84,15.11,9.77,15.11C256.86,455,260.12,449.73,259.77,444.5Z"/><path class="a0431fc5-408a-450c-82e9-e5bfaa3f5e0c" d="M349,456.24c0,2.67-3.83,3.37-10.34,3.37s-10-1.86-10.35-7.56c-3.14,5.12-8.83,8-16.85,8-12,0-21.63-8.25-21.63-24.18V416.25c0-5.12-4.53-6.28-4.53-8.84v-.35a2.62,2.62,0,0,1,2.44-2.44l14.65-2.2c3-.35,4.76.11,4.76,2.09l-.34,33.13c0,10.81,3.25,15.81,9.64,15.81,5.58,0,10-5.35,10-13.6v-23.6c0-5.12-4.65-6.28-4.65-8.84v-.35a2.6,2.6,0,0,1,2.33-2.44l14.88-2.2c3-.35,4.41.11,4.41,2.09v42.54C343.46,456.24,349,451.93,349,456.24Z"/><path class="a0431fc5-408a-450c-82e9-e5bfaa3f5e0c" d="M359.85,440v-30.1h-5.46a2.2,2.2,0,0,1-2.33-2.33v-2a2.17,2.17,0,0,1,2.33-2.44h2.9c6.51,0,11-4.65,12.32-11.5.35-1.75,1.4-2.8,2.68-2.8h2.32c1.63,0,2.56,1.05,2.56,2.8l.12,11.5h13.36a2.36,2.36,0,0,1,2.33,2.44v2a2.26,2.26,0,0,1-2.33,2.33H377.29v30.33c0,4.65,2.55,7.44,5.92,7.44,4.65,0,7-2.55,7.91-5.23,1.39-2,4.18-1.51,4.18.7,0,8.37-6.27,17-17.9,17C366.82,460.07,359.85,453.21,359.85,440Z"/><path class="a0431fc5-408a-450c-82e9-e5bfaa3f5e0c" d="M459.58,405v.58c0,2.91-3.6,4-5.93,9.07l-22,47.78c-3.72,8.25-9.76,21.38-21.73,21.38-10.46,0-17.09-6.39-17.09-12.43,0-4.07,2.56-7,7-7,9.54,0,6.51,13.95,12.56,13.95,4.07,0,8.72-8.25,12-16.27l-23.13-47.43c-2.56-5.23-6.28-6.16-6.28-9.07V405c0-1.16,1.05-1.86,2.44-1.86h21.74a2,2,0,0,1,2.21,2v.46c0,2.91-4.3,3.26-1.74,9.3l13.6,31.51,12.55-29.88c3-7.32-5.11-8-5.11-10.93v-.46c0-1.16.93-2,2.44-2h14.18C458.65,403.11,459.58,403.81,459.58,405Z"/><rect class="f7754e18-814b-49a8-8767-e485e8c09994" x="85.83" y="86.05" width="376.56" height="238.14"/><path class="f7754e18-814b-49a8-8767-e485e8c09994" d="M355.82,270.63c9,.88,17.77-6.65,19.5-16.73,1.68-9.75-4.73-20.22-13.81-22.52-19.63-5-41.65,11.1-44,32.15-3.08,27.68,17.4,54.86,44.91,59.6,14.82,2.55,29.17.38,43-5,23.63-9.13,40.64-25.44,51-48.57,8.55-19,9.09-38.82,5.92-59a140.34,140.34,0,0,0-35.29-74.05c-25.2-27.77-56.62-43.74-94-47.12-28.2-2.55-55.87,1.49-82.81,9.86a224.14,224.14,0,0,0-75.16,40c-26.64,21.55-48.33,47.15-63.51,78.14-11.46,23.41-19.24,47.86-22.46,73.7-1.23,9.85-1.68,19.8-2.46,29.28,3.92,2.59,5.32.22,7.35-1.89"/></svg>