<svg id="ab7a7db2-a779-42bd-8222-8c471f431a64" data-name="Layer 1" xmlns="http://www.w3.org/2000/svg" viewBox="0 0 550 550"><defs><style>.a6cdd296-13a1-4301-896a-4820de9e2c1f{fill:#ee531c;}.b46d8c8b-b876-4778-8d75-9abfdcc499ff{fill:none;stroke:#ee531c;stroke-miterlimit:10;stroke-width:2.83px;}</style></defs><path class="a6cdd296-13a1-4301-896a-4820de9e2c1f" d="M119.52,458.56v.34c0,1.23-1,1.9-2.46,1.9H92.57c-1.45,0-2.45-.67-2.45-1.9v-.34c0-2.79,6.26-3.8,4.47-8.5l-3.36-8.94H60l-3.25,8.94c-1.79,4.7,4.48,5.71,4.48,8.5v.34c0,1.23-.9,1.9-2.57,1.9H44.05c-1.46,0-2.46-.67-2.46-1.9v-.34c0-2.79,4-3.13,6-8.5l22.25-57.13C71.44,388.79,66,386,66,383.64v-.44c0-1,.9-1.79,2.24-1.79H79.83c3.35,0,5.36,1.45,6.82,4.81l26.72,63.84C115.61,455.32,119.52,455.77,119.52,458.56Zm-31-24.71L75.47,399.07,62.72,433.85Z"/><path class="a6cdd296-13a1-4301-896a-4820de9e2c1f" d="M179.9,458.56v.34c0,1.23-.9,1.9-2.24,1.9H163.8a2.38,2.38,0,0,1-2.58-2.46l-.22-2.46c-3.35,3.91-8.83,6-14.54,6-13.64,0-26.27-10.07-26.27-28.07,0-16.55,12.07-27.84,26.39-27.84a19.6,19.6,0,0,1,13.08,4.36V392.48c0-5.15-5.59-5.48-5.59-8.28v-.33a2.9,2.9,0,0,1,2.35-2.57l14.64-4.48c3-1,4.36-.33,4.36,2.24v71C175.42,454.76,179.9,455.88,179.9,458.56Zm-20.24-13.42V425.46c0-7.15-5.59-14.64-12.19-14.64-6.82,0-11.07,6-11.29,16.43-.45,12.3,4.69,29.52,14,29.86C154.74,457.11,159.66,453.08,159.66,445.14Z"/><path class="a6cdd296-13a1-4301-896a-4820de9e2c1f" d="M245.08,458.56v.34c0,1.23-.89,1.9-2.23,1.9H229a2.38,2.38,0,0,1-2.57-2.46l-.23-2.46c-3.35,3.91-8.83,6-14.53,6-13.64,0-26.28-10.07-26.28-28.07,0-16.55,12.08-27.84,26.39-27.84,5.48,0,9.73,1.56,13.08,4.36V392.48c0-5.15-5.59-5.48-5.59-8.28v-.33a2.91,2.91,0,0,1,2.35-2.57l14.65-4.48c3-1,4.36-.33,4.36,2.24v71C240.61,454.76,245.08,455.88,245.08,458.56Zm-20.24-13.42V425.46c0-7.15-5.59-14.64-12.18-14.64-6.83,0-11.07,6-11.3,16.43-.45,12.3,4.7,29.52,14,29.86C219.92,457.11,224.84,453.08,224.84,445.14Z"/><path class="a6cdd296-13a1-4301-896a-4820de9e2c1f" d="M251.34,458.9v-.45c0-2.8,4.25-3.69,4.25-8.5V424.68c0-4.92-4.25-6.15-4.25-8.61v-.33c0-1,.89-1.57,2.35-2.35l14-6.93c2.8-1.35,4.59.22,4.59,2.23V450c0,4.81,4.7,5.7,4.7,8.5v.45c0,1.11-1,1.9-2.58,1.9H253.8C252.35,460.8,251.34,460,251.34,458.9Zm1.56-69.55c0-5.59,4.48-9.73,11.07-9.73s10.85,4.14,10.85,9.73-4.25,9.84-10.85,9.84S252.9,395.05,252.9,389.35Z"/><path class="a6cdd296-13a1-4301-896a-4820de9e2c1f" d="M282.2,433.85c0-17.22,13.08-27.73,28.18-27.84,12.85-.11,23.14,6.93,23.14,15.65,0,2.91-1.79,5.82-6.93,5.59-9.62-.56-8.95-16.43-18.67-16.32-6.38,0-10.4,6.6-10.4,14.87,0,14.87,7.6,24.6,19,24.6a15,15,0,0,0,13.41-7.83c1.34-1.79,4.14-1.34,3.92,1.12-.67,9.17-8.28,18.23-22.81,18.23C294.16,461.92,282.2,448.94,282.2,433.85Z"/><path class="a6cdd296-13a1-4301-896a-4820de9e2c1f" d="M344.92,442.57v-29h-5.25a2.11,2.11,0,0,1-2.24-2.23v-1.91a2.09,2.09,0,0,1,2.24-2.34h2.79c6.27,0,10.63-4.48,11.86-11.07.33-1.68,1.34-2.69,2.57-2.69h2.23c1.57,0,2.46,1,2.46,2.69l.12,11.07h12.85a2.27,2.27,0,0,1,2.24,2.34v1.91a2.17,2.17,0,0,1-2.24,2.23H361.7v29.18c0,4.48,2.46,7.16,5.7,7.16,4.47,0,6.71-2.46,7.6-5,1.34-1.9,4-1.45,4,.67,0,8.05-6,16.33-17.22,16.33C351.63,461.92,344.92,455.32,344.92,442.57Z"/><path class="a6cdd296-13a1-4301-896a-4820de9e2c1f" d="M383.5,458.9v-.45c0-2.8,4.25-3.69,4.25-8.5V424.68c0-4.92-4.25-6.15-4.25-8.61v-.33c0-1,.89-1.57,2.34-2.35l14-6.93c2.8-1.35,4.59.22,4.59,2.23V450c0,4.81,4.69,5.7,4.69,8.5v.45c0,1.11-1,1.9-2.57,1.9H386C384.5,460.8,383.5,460,383.5,458.9Zm1.56-69.55c0-5.59,4.47-9.73,11.07-9.73S407,383.76,407,389.35s-4.25,9.84-10.85,9.84S385.06,395.05,385.06,389.35Z"/><path class="a6cdd296-13a1-4301-896a-4820de9e2c1f" d="M472.72,408.92v.44c0,2.8-5.14,3.92-6.93,8.5l-15.43,40.25a3.5,3.5,0,0,1-3.69,2.69H439.4c-1.9,0-2.79-.79-3.58-2.69l-18.56-40.25c-1.9-4.25-5.48-5.7-5.48-8.5v-.44c0-1.12.9-1.79,2.24-1.79h22.25a2,2,0,0,1,2.24,1.9v.44c0,2.58-4.25,3.58-2.35,8.73l11.74,30.07,10.51-27.95c2.8-7.6-3.91-8.16-3.91-10.85V409c0-1.23.89-1.9,2.34-1.9h13.53C471.83,407.13,472.72,407.8,472.72,408.92Z"/><path class="a6cdd296-13a1-4301-896a-4820de9e2c1f" d="M522.48,445c-.67,6.49-8.28,16.89-22.7,16.89-15.54,0-27.06-11.19-27.06-28.41,0-16.21,12.41-27.5,27.06-27.5s21.13,8.5,21.13,15.88c0,3.8-1.9,6-4.92,7.38l-24.82,11.29c2.91,6.15,8.05,9.73,14.76,9.73,5.93,0,10.62-3,12.75-6.49C520,442.12,522.59,442.68,522.48,445ZM488.26,425.8a37.35,37.35,0,0,0,1.12,9.62l14.42-7.27a5.44,5.44,0,0,0,2.91-5.26c0-4-2.91-12-8.94-12S488.26,417.3,488.26,425.8Z"/><line class="b46d8c8b-b876-4778-8d75-9abfdcc499ff" x1="408.05" y1="80.66" x2="254.31" y2="234.39"/><circle class="b46d8c8b-b876-4778-8d75-9abfdcc499ff" cx="214.56" cy="267.46" r="51.12"/><path class="b46d8c8b-b876-4778-8d75-9abfdcc499ff" d="M253.76,135.26c-25.77.22-45-32.86-32.1-55.16"/><path class="b46d8c8b-b876-4778-8d75-9abfdcc499ff" d="M189.54,165c-25.73-1.56-42.65-35.89-28.22-57.25"/></svg>