<svg id="f63ae2d6-13e8-42a6-bd0c-316725292293" data-name="Layer 1" xmlns="http://www.w3.org/2000/svg" viewBox="0 0 550 550"><defs><style>.b109f663-aba3-451d-a0fc-a071110a9ab7{fill:#ee531c;}.afa216df-afcb-4daf-9489-a1941efcb282{fill:none;stroke:#ee531c;stroke-miterlimit:10;stroke-width:2.83px;}</style></defs><path class="b109f663-aba3-451d-a0fc-a071110a9ab7" d="M198.54,222.35v-.57c0-1.41,1.27-2.26,3.26-2.26h26.64c2,0,3.26.85,3.26,2.26v.57c0,3.54-5.95,4.82-5.95,10.77l-.14,44.93c-.14,31.9-13.18,43.38-33.74,43.52-25.51.14-32.88-15.17-32.88-24.81,0-6.23,3.83-10.48,9.78-10.48,16.58,0,7.94,26.64,24.24,26.64,6.94,0,11.05-8.64,11.05-22.39V233.12C204.06,227.17,198.54,225.89,198.54,222.35Z"/><path class="b109f663-aba3-451d-a0fc-a071110a9ab7" d="M237.08,285.71c0-20.55,16.87-35,36.72-35,21.82,0,38.12,15.59,38.12,35.72s-15.3,35.15-36,35.15C253.1,321.57,237.08,305.41,237.08,285.71Zm53.58,9.07c0-15.45-7.65-37.84-19.7-37.84-8.5,0-13,7.22-13,20.69,0,14.46,7.65,37.7,20.55,37.7C286.13,315.33,290.66,307.82,290.66,294.78Z"/><path class="b109f663-aba3-451d-a0fc-a071110a9ab7" d="M391,254.38v.71c0,3.55-4.39,4.82-7.23,11.06L357,324.4c-4.53,10.07-11.9,26.08-26.5,26.08-12.76,0-20.84-7.79-20.84-15.16,0-5,3.12-8.51,8.51-8.51,11.62,0,7.93,17,15.3,17,5,0,10.63-10.06,14.6-19.84l-28.2-57.83c-3.12-6.38-7.66-7.51-7.66-11.06v-.71c0-1.41,1.28-2.26,3-2.26h26.5a2.47,2.47,0,0,1,2.7,2.41v.56c0,3.55-5.25,4-2.13,11.34l16.58,38.41,15.31-36.42c3.69-8.93-6.23-9.78-6.23-13.33v-.56c0-1.42,1.13-2.41,3-2.41h17.29C389.88,252.12,391,253,391,254.38Z"/><line class="afa216df-afcb-4daf-9489-a1941efcb282" x1="277.36" y1="8.57" x2="277.36" y2="134.52"/><polygon class="b109f663-aba3-451d-a0fc-a071110a9ab7" points="272.56 14.22 277.36 9.41 282.17 14.22 282.17 10.14 277.36 5.33 272.56 10.14 272.56 14.22"/><line class="afa216df-afcb-4daf-9489-a1941efcb282" x1="272.64" y1="415.48" x2="272.64" y2="541.43"/><polygon class="b109f663-aba3-451d-a0fc-a071110a9ab7" points="267.83 535.78 272.64 540.59 277.44 535.78 277.44 539.86 272.64 544.67 267.83 539.86 267.83 535.78"/><line class="afa216df-afcb-4daf-9489-a1941efcb282" x1="545.48" y1="275" x2="419.53" y2="275"/><polygon class="b109f663-aba3-451d-a0fc-a071110a9ab7" points="539.83 270.19 544.64 275 539.83 279.81 543.91 279.81 548.72 275 543.91 270.19 539.83 270.19"/><line class="afa216df-afcb-4daf-9489-a1941efcb282" x1="130.47" y1="275" x2="4.52" y2="275"/><polygon class="b109f663-aba3-451d-a0fc-a071110a9ab7" points="10.17 270.19 5.36 275 10.17 279.81 6.09 279.81 1.28 275 6.09 270.19 10.17 270.19"/><line class="afa216df-afcb-4daf-9489-a1941efcb282" x1="167.06" y1="134.38" x2="119.09" y2="83.12"/><polygon class="b109f663-aba3-451d-a0fc-a071110a9ab7" points="126.46 83.96 119.66 83.73 119.44 90.53 116.65 87.55 116.88 80.75 123.67 80.98 126.46 83.96"/><line class="afa216df-afcb-4daf-9489-a1941efcb282" x1="367.18" y1="134.9" x2="418.44" y2="86.93"/><polygon class="b109f663-aba3-451d-a0fc-a071110a9ab7" points="417.61 94.3 417.83 87.51 411.04 87.28 414.02 84.5 420.81 84.72 420.58 91.51 417.61 94.3"/><line class="afa216df-afcb-4daf-9489-a1941efcb282" x1="440.04" y1="432.16" x2="392.08" y2="380.9"/><polygon class="b109f663-aba3-451d-a0fc-a071110a9ab7" points="439.69 424.75 439.47 431.55 432.67 431.32 435.46 434.3 442.25 434.53 442.48 427.73 439.69 424.75"/><line class="afa216df-afcb-4daf-9489-a1941efcb282" x1="95.31" y1="411.39" x2="144.95" y2="361.74"/><polygon class="b109f663-aba3-451d-a0fc-a071110a9ab7" points="102.7 410.79 95.9 410.79 95.9 404 93.02 406.88 93.02 413.68 99.81 413.68 102.7 410.79"/></svg>