<?xml version="1.0" encoding="utf-8"?>
<!-- Generator: Adobe Illustrator 25.0.1, SVG Export Plug-In . SVG Version: 6.00 Build 0)  -->
<svg version="1.1" id="Layer_1" xmlns="http://www.w3.org/2000/svg" xmlns:xlink="http://www.w3.org/1999/xlink" x="0px" y="0px"
	 viewBox="0 0 778.4 1062.9" style="enable-background:new 0 0 778.4 1062.9;" xml:space="preserve">
<style type="text/css">
	.st0{fill:#50A497;}
</style>
<g id="vw72GN.tif">
	<g>
		<g id="I59mPu.tif">
			<g>
				<path class="st0" d="M770.1,312.9c-1.2,0.7-2.5,1.3-3.7,2l0.1,0.1c0-0.3-0.1-0.6-0.2-1.2c-1.1,0.4-2.2,0.7-3.3,1.1
					c-1.4,0.5-4.2,0.1-5-1c-0.4-0.5-0.6-1.4-0.5-2c0.1-0.7,0.5-1.6,1.1-2.1c2.5-2.3,5.1-4.5,7.7-6.7c1.3-1.1,2.6-2.1,3.9-3.2
					C770.1,304.3,770.1,308.6,770.1,312.9z"/>
				<path class="st0" d="M770.1,326.8c-1.4,0.2-2.3-0.6-2.9-1.7c-0.5-0.8-0.8-1.7-1.2-2.5c0.7-1.1,2.6-1,2.4-2.8
					c-1.7-0.7-3.5,1.9-5.3-0.1c0-0.8,0.3-1.2,1.2-1.5c2-0.8,3.8-1.9,5.7-2.9C770.1,319.2,770.1,323,770.1,326.8z"/>
				<path class="st0" d="M502.5,398c0.6,1.2,1,2,1.5,3c0.4-0.3,0.8-0.6,1.2-0.9c2.5-2.3,5-4.7,7.6-7c1-0.9,2.2-1.5,3.7-1.3
					c0.5,0.1,1.1-0.2,1.6-0.3c1.2-0.4,2.4-0.7,3.5-1.1c0.1,0.2,0.3,0.3,0.4,0.5c-0.7,1.2-1.3,2.4-2,3.8c2.2-0.2,2.2-0.2,2.9-2.3
					c0.4,0.1,0.9,0.2,1.2,0.3c-0.7,1.2-1.4,2.4-2.1,3.5c0.1,0.1,0.3,0.3,0.4,0.4c2.5-1,5-2,7.8-3.1c-0.1,1-0.2,1.5-0.3,2.2
					c1.2,1.1,2.3,0.8,3.6,0c2-1.2,4.2-2.1,6.3-3.1c1.1,1,1,1.9,0.1,2.6c-0.7,0.6-1.5,1.1-2.3,1.7c-0.5,0.4-0.9,0.8-1.7,1.4
					c1.4,0.4,2.3,0.7,3.4,1c-0.1,0.5-0.2,0.9-0.4,1.7c1.7-1.1,3.1-2,4.4-2.9c-0.3,1.1-0.5,2.2-0.9,3.3c-0.2,0.6-0.5,1.3-1,1.5
					c-1.7,1-3.5,2-5.3,2.6c-2.7,0.8-3.4,3-4.4,5.2c1.9-0.6,4.2-0.5,4.9-3.2c0.3-1.2,1.6-1.8,3.1-1.8c-0.9,2.4-3.6,3.3-4.3,5.7
					c1.1,0.8,1.6-0.1,2.3-0.6c1.7-1.3,3.4-2.7,5.1-3.9c0.7-0.4,1.6-0.6,2.3-0.8c0.1,0.2,0.2,0.3,0.4,0.5c-1,1.2-1.9,2.4-2.9,3.6
					c-0.6,0.7-1.4,1.5-1.5,2.3c-0.4,2.8-2.5,4.5-3.9,6.7c-0.2,0.3-0.6,0.4-0.7,0.6c-0.1,0.3-0.1,1,0,1c0.4,0.1,0.8,0.1,1.3,0
					c0.2,0,0.4-0.3,0.4-0.5c0.2-1.9,1.8-2.5,3.1-3.4c0.6-0.5,1.2-1,1.7-1.6c2.1-2.3,4.2-4.6,6.2-6.9c0.8-0.8,2-1.3,1.8-2.8
					c0-0.3,0.7-0.8,1.1-1.2c0.8-0.6,1.7-1.1,2.4-1.9c1.4-1.5,2.7-3.3,4.2-4.7c0.5-0.5,1.6-0.9,2.4-0.9c1.4,0,2.8,0.4,4.2,0.7
					c0.9,2,0.5,4-1.1,5.5c-2.5,2.3-4.9,4.6-8,6.1c-0.5,0.3-0.9,0.9-1.4,1.3c-1.1,0.9-2.1,1.9-3.3,2.7c-1,0.6-2,1.2-2.3,2.5
					c-0.2,0.9-0.8,1.6-1,2.8c1.6-0.7,3.2-1.4,4.7-2.2c0.1,0.1,0.2,0.2,0.3,0.4c-1.1,1.1-2,2.3-3.2,3.2c-1.6,1.2-2.9,2.4-3.7,4.5
					c-0.6,1.7-2,3-3.1,4.5c-1,1.4-1.9,2.9-3,4.6c0.7,0.3,1.4,0.7,1.7,0.6c1.5-0.7,3.2-1.4,3.5-3.3c0.2-1.5,1-2.4,2.2-3.2
					c2.3-1.6,4.3-3.6,6.7-5.1c2.6-1.7,5.4-3,8.1-4.5c0.1,0.3,0.2,0.5,0.1,0.5c-1.2,1.2-1.8,2.7-2.6,4.1c-1.5,2.9-3,5.8-5.3,8.2
					c-2.9,3-5.8,5.9-8.3,9.2c-2.5,3.4-5.5,6.2-8.4,9.2c-0.3,0.3-0.5,0.6-0.7,0.9c1.5,1.1,2.7,0.5,5.5-2.4c-0.2-0.3-0.4-0.6-0.6-0.9
					c0.1-0.2,0.2-0.3,0.3-0.4c1.8-1.2,3.6-2.4,5.3-3.6c1.4-1,2.9-1.7,4.6-1.9c0.8-0.1,1.6-0.4,2.2-0.8c1.2-0.8,2.3-0.7,3.8-0.3
					c-2.6,2.8-5,5.4-7.4,8.1c0.1,0.2,0.3,0.3,0.4,0.5c1.3-1,2.6-2.2,3.9-3.1c1.4-0.9,2.9-1.7,4.6-2.6c-0.7,1.3-1.2,2.2-1.7,3.1
					c-0.9,1.7-2.1,3.1-3.4,4.5c-2.3,2.5-5.1,4.6-6.4,7.9c-0.2,0.4-0.5,0.9-0.4,1.3c0.1,1.7-0.6,3.1-1.8,4.3
					c-0.3,0.3-0.6,0.8-0.7,1.2c-1.4,4.9-4.8,8.2-8.5,11.3c-2.3,1.9-4.4,3.9-7.2,5.1c-0.8,0.3-1.3,1.2-2,1.7
					c-3.7,2.7-7.3,5.7-11.3,8.1c-1.9,1.2-3.9,2.4-6.3,3c-1.9,0.5-3.6,1.9-5.4,3.1c-1.5,1-2.9,2-4.2,3.1c-2,1.7-3.9,3.5-5.8,5.3
					c-2.4,2.2-4.7,4.5-7.2,6.7c-3.4,3-7,5.8-10.5,8.7c-0.5,0.4-0.8,1.1-1.2,1.7c-0.4,0.6-0.8,1.2-1.3,1.7
					c-5.2,4.8-10,10.1-15.9,14.2c-3.6,2.5-7.2,5-10.8,7.5c-5.1,3.5-10.2,7.2-15.4,10.6c-3.6,2.3-7.5,4.2-11.3,6.3
					c-7.2,4.1-14.8,7.5-21.6,12.3c-2.5,1.8-5.3,3.2-8,4.8c-1,0.6-2,1.3-3,2c-0.9,0.6-1.8,1.3-3,1.3c-0.6,0-1.3,0.5-1.9,0.8
					c-2.8,1.4-5.5,2.9-8.3,4.3c-1.5,0.8-3,1.4-4.5,2.2c-1.8,1-3.5,1.9-5.6,1.6c-1-0.1-2,0.3-3,0.5c-2.2,0.4-4.3,0.7-6.5,1
					c-0.7,0.1-1.4-0.1-2.1-0.3c-3.9-0.9-7.5-2.7-11.1-4.3c-2-0.9-4-1.6-6-2.2c-2.4-0.8-4.2-2.4-5.6-4.3c-1.6-2.1-3.4-3.7-5.6-5
					c-1.3-0.8-2.4-1.8-3.5-2.9c-2.7-2.9-5.4-5.9-8-8.8c-0.4-0.5-0.7-1.1-1-1.6c-0.8-1.6-0.6-2.7,0.9-3.3c2.7-1.2,5-3.2,6.9-5.3
					c4-4.7,8.4-9,12.9-13.2c4.8-4.4,9.2-9.1,14-13.5c1.8-1.7,4.2-2.9,6.3-4.3c5.2-3.7,11.2-5.7,17-8.1c7.1-3,13.6-6.9,20.1-11
					c2-1.2,4.1-2.1,6.1-3.4c7.9-5,15.8-10,22.2-17c1.5-1.7,3.2-3.1,4.8-4.6c9.2-8.5,17.2-18,24.7-28c3.6-4.8,7.6-9.5,11.9-13.8
					c4-4,7.4-8.4,11.1-12.7c1.2-1.4,2.6-2.6,4.1-3.7c3.3-2.3,5.9-5.3,8.7-8.2c4.5-4.7,9.2-9.4,13.9-13.9
					C499.4,399.6,500.9,399,502.5,398z M533.2,404.7c0.9,0.2,1.5,0.7,2,0.5c1.5-0.6,3.2-1.2,4.2-2.7c-1.7,0.3-3.4,0.7-5,1.2
					C534,403.8,533.7,404.1,533.2,404.7z"/>
				<path class="st0" d="M305.2,242.2c-0.3,2.9-0.5,5.7-0.8,8.6c0,0.5,0,1.1-0.2,1.4c-1.9,2.7-1.5,5.8-1.7,8.8
					c-0.2,2.1-0.4,4.1-0.8,6.2c-0.5,2.9,0.1,5.7,0.6,8.5c0.1,0.5,0.5,0.9,0.8,1.5c1-0.4,1.8-0.8,2.6-1.1c0.3-1.1,0.4-2.3,0.8-3.4
					s1.1-2,1.7-3.1c0.2,0.1,0.6,0.2,1.2,0.3c0.1-2.3,0.2-4.4,0.4-6.5c0.2-1.9,0.6-3.9,1.1-5.7c0.2-0.8,1.1-1.5,1.8-2.4
					c-1.8-1.5-0.1-3.3-0.2-5.1c0-1.2,0.5-2.4,0.9-3.6c0.8-2.5,0.9-5.3,1.2-8c0.1-0.8,0-1.6,0-2.4c2.1,0.1,0.9,1.7,1.8,2.7
					c1.3,0.3,1.9,1.6,2,3.3c0.1,1.8,0.4,3.7,0.7,5.5c0.1,0.4,0.3,0.8,0.6,1.7c0.3-1.3,0.5-2.2,0.7-3.2c2.2,0.9,1.9-1.8,3.3-2.2
					c-0.3-1.5,1.3-0.9,1.6-1.3c0.5-5.7,1-11,1.5-16.4c0.5,4.7,0,9.3-0.8,13.9c-0.4,2.6,0.8,5.1,3.2,6.5c2.6-1,1.7-3.2,1.7-5.7
					c0.4,1.2,0.7,1.9,0.9,2.7c0.5-0.3,0.8-0.5,1.2-0.8c1,2.3,2.3,4.5,1.6,7.2c-0.3,1-0.1,1.4,1,3c0.2-2.5,0.4-4.6,0.5-6.7
					c0-2.3,0.1-4.6,1.6-7.1c0.2,1,0.5,1.8,0.6,2.6c0.1,3.3-0.1,6.7,0.8,10c0.1,0.5-0.1,1.1-0.2,1.6c-0.2,1.3-0.4,2.7-0.6,4
					c-0.1,0.4-0.1,0.8-0.2,1.2c-0.4,2-1.1,3.9-1.2,5.9c-0.1,1.2-0.6,1.9-1.2,2.6c-1.2,1.4-1.2,1.4-0.5,3.6c1.9-1,2.9,0.6,4.3,1.5
					c1.2-1.3,2.5-2.2,1.7-4.3c-0.3-0.8,0-1.8,0.1-3.1c0.4,0.5,0.6,0.8,0.8,1.2c1.8,3.4,1.5,7.1,2,10.7c0.4,3.5,1.1,7.1,1.6,10.6
					c0.1,0.6,0.2,1.3,0.1,1.9c-0.5,2.9-1.1,5.8-1.5,8.7c-1.7,12.3-4.9,24.2-9.6,35.8c-2.7,6.8-4.3,13.9-5.9,20.9
					c-0.5,2.2-1.1,4.3-1.5,6.5c-0.6,3.7-1,7.5-1.7,11.3c-0.4,2.4-0.9,4.7-1.7,7c-1.8,5.3-3.7,10.5-3.9,16.1
					c-0.2,5.6-2.4,10.5-3.8,15.7c-0.5,1.9-1,3.8-0.7,5.9c0.1,1.1-0.3,2.2-0.2,3.3c0.1,2.4,0.1,4.8,0.4,7.2c0.6,5.6-0.7,11-1.9,16.3
					c-1,4.5-1.8,9.1-2.4,13.7c-0.2,1.8-1.3,3-2.3,4.3c-0.1,0.2-0.5,0.3-0.8,0.3c-1.4,0.1-2.8,0.2-4.2,0.4c-0.9,0.1-1.9,0.3-2.8,0.4
					c-0.7,0.1-1.4,0.2-2.2,0.2c-0.1,0.4-0.2,1-0.3,1.7c-0.3-0.1-0.6-0.1-0.7-0.2c-0.2-0.6-0.3-1.1-0.3-1.7c0-0.4,0.4-0.7,0.4-1.1
					c0.1-0.9,0-1.7-1.1-1.8c-1-0.1-1.2,0.6-1.2,1.4c0,1.2-0.1,2.4-0.1,3.7c-0.2,0-0.4,0.1-0.5,0.1c-0.3-0.7-0.6-1.5-1-2.5
					c-2,1-4.4,0-6.1,1.6c-0.7-0.1-1.6-0.5-2.1-0.3c-1.3,0.5-2.5,0.1-3.7-0.3c-0.9-0.3-1.8-0.6-2.8-0.8c-0.4-0.1-1-0.2-1.1,0
					c-1.1,1.4-2.6,0.2-3.9,0.7c-0.4,0.1-1.3-0.5-1.7-1c-1.2-1.4-2.2-2.9-3.6-4.8c-0.8,2.9,0.1,5.3,0.7,7.9c-0.4-0.5-0.7-0.9-1.1-1.4
					c-0.4,0.4-0.8,0.8-1.2,1.3c-0.5-0.2-1-0.4-1.6-0.7c-0.3,0.5-0.6,1-0.9,1.6c-2.2-0.5-3.4-2.2-4.9-3.8c-0.2,0.4-0.3,0.6-0.3,0.7
					c0.1,2.7-1.7,4-4.3,3c-0.6-0.2-1.2-0.5-1.8-0.5c-4.4,0.1-6.9-2.3-8.1-5.8c-1-3-1.7-6.1-2.4-9.3c-0.8-3.8-1.7-7.6-3.4-11.2
					c-1-2.2-1.9-4.4-2.7-6.6c-0.4-1.2-0.5-2.5-0.8-3.7c-0.2-1-0.5-2-0.9-3c-1.2-3.7-2.6-7.4-2.8-11.3c-0.1-2.2,0-4.3,0.9-6.3
					c0.5-1,0.7-2.3,0.4-3.3c-0.5-1.7-0.1-3.2,0.1-4.7c0.4-3.5,0.7-7,1.3-10.4c1.3-7,2.8-13.9,4.2-20.9c0.4-2.1,0.7-4.3,1-6.4
					c0.8-4.6,1.6-9.3,2.2-13.9c0.7-5,1.2-10.1,1.9-15.2c0.2-1.7,0.6-3.5,1.3-5.1c1.4-3.5,1.6-7.1,2.1-10.8c0.1-0.9,0.2-1.7,0.5-2.6
					c0.2-0.8,0.5-1.4-0.1-2.2c-0.3-0.4-0.2-1.2-0.1-1.8c0.7-3.2,1.1-6.5,2.6-9.4c0.3-0.6,0.6-1.2,0.6-1.8c0-3,2.4-5.1,3-7.9
					c0-0.1,0-0.2,0.1-0.2c1.7-2.5,2.4-4.4,2.5-6.6c0-1.4,0.2-2.7,0.3-4.1c0.2-2.5,0.4-5.1,0.7-7.6c0.2-1.5,0.8-2.9,1.1-4.4
					c0.2-0.8,0.5-1.7,0.6-2.5c0.3-2.1,1.3-3.6,3.1-4.7c0.7,0.8,1.3,1.6,2,2.6c0.1-1.5,0.8-2.9-1.1-4c2.6,0.1,3.3-2.3,5.2-3.2
					c0.8,3.9,1.6,7.6,2.4,11.3c0.2,0,0.4,0,0.6,0c1.4-4.6,1.7-9.5,3.5-14.2c0.1,0.6,0.3,1.3,0.4,1.9c0.4,2.1-0.6,4.5,1.5,6.2
					c0.2,1.6,0.3,3.2,0.5,4.8c0.1,0.7,0.1,1.4,0.4,2.1c0.9-1.3,0.9-2.8,1.1-4.3c0.2-1.7,0.7-3.3,0.8-4.9c0.1-1.6,0-3.2,0.8-4.6
					c0.6,2.7,1.2,5.3,1.9,8.3c1.8-1.4,1.6-3.2,2-4.7s0.6-3,1-4.6c1.7,0.5,0.6-2.4,2.6-2.2c0.4,2.9,0.8,5.9,1.3,8.9
					c1,0,1.3-0.6,1.4-1.3c0.3-2.2,0.6-4.4,0.9-6.6c0.1-0.7,0.4-1.4,0.6-2.1c0.2,0,0.3,0,0.5,0.1c0.3,1.4,0.6,2.8,0.8,4.2
					c0.2,0,0.3,0,0.5,0c1.2-3.6,1.2-7.5,1.8-11.3c0.7-3.8,1.4-7.6,2.4-11.4c0.1,0.9,0.3,1.9,0.5,3c1,0.3,2.2,0.7,3.5,1.1
					c0.1,1.2,0.1,2.7,0.2,4.4C304.2,242.2,304.7,242.2,305.2,242.2L305.2,242.2z M338.2,306.4c0.5-0.2,0.7-0.3,0.8-0.4
					c1.2-2.5,1-5.4,2.9-7.7c0-0.1,0.1-0.2,0-0.2c-0.4-0.8,0.6-2.2-0.7-2.4c-1.3-0.2-1.3,1.2-1.5,2c-0.4,2.1-0.7,4.2-1,6.3
					C338.5,304.8,338.4,305.5,338.2,306.4z M312.8,321.1c0.3-0.4,0.6-0.6,0.6-0.9s-0.2-0.5-0.6-1.3
					C312.8,320,312.8,320.4,312.8,321.1z"/>
				<path class="st0" d="M628.5,371c1.3-1.7,2.5-3.3,3.8-5c0.7,0.7,1.3,1.8,2.2,2.1s2.1-0.3,3.4-0.6c0.9,2,1.9,4,2.8,6
					c0.2,0.4,0.2,0.8,0.5,1.1c0.3,0.4,0.8,0.6,1.2,0.8c0.2-0.4,0.5-0.7,0.6-1.2c0.7-2.8,0-5.4-1-8c-0.6-1.6-1.1-3.2-1.7-5
					c1.5,0.4,2.8,0.6,4.1,1.2c1.8,0.8,3.9,1.4,6,0.6c0.9-0.4,1.6-1.2,2.6-2c0.7,0.9,1.5,2,2.2,3.1c1.7,3.3,3.4,6.7,5.1,10.1
					c0.4,0.7,0.9,1.3,1.4,1.9c0.1,0.2,0.4,0.3,0.5,0.5c1.4,2.8,3,5.4,4.6,8c1.9,3.1,3.4,6.5,4.9,9.8c1.2,2.6,2.2,5.3,3.3,8
					c1.9,4.6,1.9,9.5,2.4,14.3c0.6,6,1,12,1.6,17.9c0.3,2.3,1,4.6,1.6,7c0.5,2.3,1.2,4.6,1.6,7c2,13,4.3,25.8,8,38.4
					c2.6,8.7,4.2,17.5,5,26.6c0.2,1.7,0.5,3.5,0.8,5.2c0.9,5.2,2,10.3,2.8,15.6c0.4,2.9,0.4,5.9,0.6,8.8c0.2,2.5,0.7,5.1,1,7.6
					c0.5,3.4,0.9,6.8,1.6,10.2c1.2,5.8,1.2,11.8,3.6,17.6c-2-0.3-3.2,0.8-4.3,2.1c-1,1.2-2.2,2-3.9,1.7s-2.8,0.8-3.8,1.9
					c-0.5,0.6-1.2,1-1.8,1.5c-0.4,0.3-1.2,0.6-1.3,1c-0.7,2.2-2.8,2.6-4.5,3.2c-1.7,0.6-3.1,1.5-4.5,2.7c-0.9,0.8-1.8,1.5-2.8,2.2
					c-1.3,0.9-2.7,1.4-4.3,1.2c-0.4,0-0.7,0.1-1.2,0.2c0.3,1.5,1.4,2.2,2.6,2.9c-1.9,0.9-3.6,1-5.5,0.4c-1.9-0.5-2.3,0.2-1.6,2.6
					c-3.1,2.6-6.6,4.3-10.7,3.5c-1.9-0.4-3.6-1.5-5.4-2.4c-2.8-1.4-4.8-3.6-6.5-6.2c-2.3-3.7-4.8-7.2-7.1-10.8
					c-3.3-5.2-5.7-10.7-7.6-16.5c-1.6-5-3.5-9.9-5.7-14.7c-2.9-6.2-5.1-12.7-6.7-19.5c-1.9-7.8-4-15.6-6.2-23.4
					c-2.3-8.1-3.5-16.4-4-24.8c-0.5-8.9-1.4-17.8-1.8-26.8c-0.4-8.6-0.4-17.3-0.6-25.9c-0.1-2.3-0.2-4.6-0.2-7c0-2.9,0-5.9,0.4-8.8
					c0.2-1.4,0-2.5-0.2-3.7c-0.8-3.7-1.8-7.3-2.5-11c-0.4-2-0.3-4.1-0.3-6.2c0-0.4,0.1-1.1,0.4-1.3c1.1-0.8,1.2-1.9,1.1-3
					c-0.1-1.8-0.4-3.6-0.6-5.5c-0.1-1-0.6-2,0.5-2.8c0.4-0.3,0.3-1.2,0.5-1.8c0.6,0.1,1.1,0.2,1.6,0.2c0.4-0.1,1-0.3,1.1-0.6
					c0.5-1.5,0.9-3.1,1.4-4.7c0.5-1.7,1-3.3,0.7-5.1c-0.1-0.7,1.1-1.5,1.7-2.4c0.6,0.3,1.2,0.6,1.7,1c2.6,2,5.3,1.7,8.1,0.5
					c1-0.4,2.1-0.5,3.2-0.7C626.3,371.4,627.4,371.2,628.5,371c0.3,0.3,0.5,0.7,0.7,1.1c0.1-0.2,0.3-0.3,0.4-0.5
					C629.2,371.4,628.8,371.2,628.5,371z"/>
				<path class="st0" d="M394.8,267.2c0.5-1.3,0.6-2.4-0.4-3.4c-2.4-2.3-2.4-2.8-0.7-5.4c-1.1-0.5-2.2-0.8-3.3-1.4
					c-1.4-0.7-1.4-1.1-0.9-2.8c1.8,0.8,3.5,1.7,5.3,2.3c1.9,0.7,2.2,0.4,2.3-1.6c0.2-2.4-0.3-3.4-2.7-4.4c-1.9-0.8-3.3-2.1-4.3-3.9
					c-0.8-1.5-1.8-2.9-2.9-4.1c-1.3-1.4-2.1-2.9-1.7-5.3c-1.9,0.3-3.5,0.6-5.4,0.9c-0.2-0.6-0.4-1.4-0.6-2.1c-0.9-0.5-2-1.1-3-1.7
					c0-0.2,0.1-0.4,0.1-0.6c2.3-0.3,4.5-0.7,6.8-0.9c2.9-0.1,5.5-0.9,8-2.2c2.1-1.1,2.2-1.3,0.6-3.2c-0.1-0.2-0.3-0.4-0.7-0.8
					c-1.4,0.6-2.9,1.1-4.3,1.7c-1.7,0.8-1.7,0.8-3-0.6c-0.9-0.9-2.7-1-4.4-0.2c-1.4,0.6-2.8,1.1-4.2,1.5c-1.1,0.3-1.6-0.1-1.7-1.3
					c-0.1-1.8-0.4-3.5-1.8-4.9c-1.2-1.3-0.9-4.2,0.7-5.3c2.7-2,5.6-3.7,8.4-5.5c0.9-0.6,2-0.9,3-1.5c1.2-0.7,2.6-0.6,3.9-1
					c3-0.9,5.9-2,8.7-3.3c2.4-1.1,4.5-2.7,6.7-4.1c2.2-1.5,4.5-2.6,7.3-3.3c-0.2,0.7-0.3,1.1-0.5,1.7c1,1,2,0.7,2.9,0.3
					c5-1.8,10-3.9,15.1-5.3c5.7-1.6,11-4.4,16.7-5.9c3.2-0.9,6.3-1.8,9.6-1c1,0.3,2.2-0.1,3.3-0.4c1.4-0.4,2.7-0.9,4.1-1.3
					c3.9-1.2,8-1.5,12-1.6c0.8,0,1.6-0.1,2.4-0.2c0.4,0,0.8-0.3,1.2-0.2c2.3,0.8,4.4-0.3,6.5-0.5c2.2-0.2,4.4-0.7,6.7-0.8
					c3.3-0.1,6.5-1.3,9.9-0.6c0.4,0.1,0.8-0.2,1.2-0.2c2.3-0.4,4.7-0.9,7-1.3c4.5-0.8,9-1.6,13.4-2.5c1.5-0.3,2.9-0.8,4.4-0.2
					c0.3,0.1,0.8,0.1,1.2,0c3.1-0.4,6.2-0.9,9.3-1.3c0.1,0.2,0.1,0.4,0.2,0.6c-2.4,1.1-4.8,2.1-7.1,3.2c0,0.1,0.1,0.3,0.1,0.4
					c1.2,0.3,2.8,0.2,3.5,0.9c1.2,1.2,2.3,0.6,3.5,0.8c0.2,0,0.6,0,0.7-0.2c1-1.8,2.8-1.1,4.5-1.6c-0.2,0.5-0.3,0.7-0.5,1.2
					c0.6,0.3,1.2,0.6,1.9,0.9c-0.1,0.2,0,0.6-0.2,0.6c-0.6,0.3-1.3,0.6-1.9,0.8c-1.4,0.4-2.8,0.8-4.2,1.5c0.9,0.9,1.9,0.5,2.8,0.2
					c1.5-0.5,2.9-0.9,4.2,0.5c0.3,0.3,1.1,0.4,1.6,0.3c2.3-0.4,4.6-0.9,7.3-1.5c0.1,0.9,0.1,1.6,0.2,2.6c0.3,0.1,0.8,0.4,1.4,0.7
					c-1.6,1.6-4.1,1.3-5.6,3c1-0.1,1.9-0.2,3-0.3c-0.4,0.4-0.7,0.7-1.2,1.4c3.7-0.3,6.5-2.3,10.1-2.9c-2.5,2.3-5.8,2.3-8.2,4.1
					c1,2.9,3.4,0.6,5.1,1.5c-0.9,0.9-0.5,1.8,0.4,2.2c2.5,1.1,4,3.3,5.9,5.1c0.8,0.7,1.2,1.8,1.7,2.8c0.5,0.9,0.8,2.1,1.6,2.6
					c2.1,1.3,2.8,3.6,4.1,5.5c1.4,2.2,2.5,4.6,3.4,7.1c0.8,2.2,2.6,3.8,4.8,5.1c-1.3,0.8-1.4,1.9-1.1,3.4c0.6,3.1,2.1,5.3,5,6.4
					c0,0.3,0.1,0.5,0,0.5c-0.8,0.8-2.2,1.5-2.2,2.3c0,2.2-1.3,4.5,0.2,6.7c0.9,1.2,1.5,2.6,2.3,3.8c0.6,0.9,0.4,1.7-0.7,1.8
					c-0.9,0.1-1.9,0.2-2.9,0.2c-1.3-0.1-2.1,0.2-3.1,1.2c-1,0.9-2.7,1.1-4.1,1.7c-5.6,2.2-11.2,4.5-16.9,6.7
					c-2.8,1.1-5.6,2.2-8.4,3.4c-0.7,0.3-1.2,0.8-2.3,1.5c1.1,0.3,1.6,0.5,2.4,0.7c-0.7,0.3-1.1,0.5-1.5,0.6
					c-13.6,4.9-27.7,7.5-42.2,8.1c-7,0.3-14.1,0.6-21.1,0.8c-10.1,0.4-20.3,0.7-30.4,1.1c-6.5,0.3-12.9,0.8-19.4,1.3
					c-1.9,0.1-3.8,0-5.7-0.5c-2.7-0.8-5.4-1.2-8.2-1.6c-2-0.3-4.3-0.7-6.1-0.1c-1.9,0.7-3.7,0-5.6,0.8c-1.3,0.6-3.2-0.4-4.1-1.8
					c-0.9-1.3-2-2.2-3.3-3c-0.9-0.5-2.1-1-1.9-2.5c0-0.3-0.5-0.7-0.9-0.9C396.9,268.5,395.9,267.9,394.8,267.2z M571.8,252.9
					c-2.4-1.4-3.6-1.3-5.2,0c-0.3,0.3-0.7,0.6-1.2,0.7c-1.7,0.5-3.4,0.8-5,1.3c-1.1,0.4-2.4,0.7-3.1,2.3
					C562.5,256.9,566.8,254.3,571.8,252.9z M577.7,251.7c-1.5-1.4-2.9-1.1-4.3-0.9c-1.5,0.2-1.4,0.9-1,2.1
					C574.2,252.5,575.8,252.1,577.7,251.7z M581.7,240.1c-0.7-0.2-1-0.4-1.2-0.4s-0.6,0.3-0.6,0.5s0.3,0.6,0.4,0.6
					C580.5,240.8,580.7,240.6,581.7,240.1z"/>
				<path class="st0" d="M722.8,630.8c-0.1,2-0.2,3.7-0.3,5.5c-0.1,2.3,0.8,4,2.7,5.3c0.4,0.3,0.9,0.7,1,1.1
					c0.7,2.2,1.9,3.8,4.1,4.5c0.2,0.7,0.5,1.4,0.4,2c-0.3,1.6,0.1,2.7,1.2,4c0.8,0.9,0.9,2.7,0.9,4.1c0,1.5,0.4,2.6,1.7,3.5
					c0.3,0.2,0.5,0.4,0.7,0.7c0.3,0.7,0.4,1.6,0.9,2.1c0.4,0.5,1.2,0.8,1.6,1.1c-0.3,1.3-0.6,2.4-0.9,3.5c-0.2,0.5-0.5,0.9-0.7,1.4
					c-0.4,0.6-1,1.1-1.1,1.7c-1.1,4.5,0.6,8.5,4.4,11c2.6,1.7,2.6,3.3,0,5.2c-1.6,1.2-3.1,2.6-4.8,3.9c-0.7,0.5-1.5,0.9-2.3,1.3
					c-2.2,1.1-4.6,2-6.6,3.4c-5.1,3.4-10.8,5.7-16.2,8.8c-4.2,2.4-8.7,4-13.3,5.4c-6.6,1.9-13.2,3.9-19.4,6.7
					c-4.2,1.9-8.6,2.6-13.3,2.7c-5.2,0.1-10.6,0.6-15.7,1.6c-5.5,1.1-11,1.7-16.6,2c-3.8,0.2-7.6,0.8-11.5,0.9
					c-2.3,0.1-4.7,0-6.9-0.5c-6.2-1.6-12.4-1.2-18.5-0.1c-6.8,1.3-13.6,2.6-20.5,3.9c-2.3,0.4-4.6,0.5-6.9,0.6
					c-1.6,0.1-2.6-0.6-3.5-2c-1-1.6-2.3-3.1-3.6-4.4c-2.7-2.6-5.7-4.9-8.5-7.4c-1.9-1.7-3.5-3.7-5-5.8c-3.1-4.7-5.1-9.9-7.2-15.1
					c-0.7-1.8-1-3.9-1.5-5.8c-0.4-1.6-1-3.1-2.2-4.5c-1.5-1.8-2.5-3.9-2.1-6.4c0.1-0.5,0.1-1-0.1-1.4c-1.1-2.7,0.6-4.1,2.5-5.2
					c2.4-1.4,5-2.5,7.6-3.5s5.3-1.7,7.9-2.7c3.4-1.2,6.8-2.4,10-3.9c3.7-1.6,7.5-2.6,11.5-3.2c5.3-0.8,10.6-1.6,15.8-2.5
					c2-0.3,3.9-0.8,5.8-1.5c8.8-2.9,17.8-4.3,27-4.8c3.3-0.2,6.7,0.2,10,0.1c3-0.1,6-0.6,9-0.9c3.7-0.4,7.4-0.8,11.2-1.3
					c0.9-0.1,1.8-0.1,2.6-0.4c4.3-1.4,8.6-2.5,13-3.1c0.9-0.1,1.8-0.6,2.8-0.8c2.3-0.4,4.7-0.7,7.1-0.9c5.7-0.3,11.1-2,16.6-3.6
					c3.9-1.2,7.8-2.3,11.7-3.4c0.3-0.1,0.7-0.3,0.9-0.2c2.2,0.8,4.2-0.3,6.3-0.7C716.2,632,719.5,631.4,722.8,630.8z"/>
				<path class="st0" d="M349.9,453.8c-0.9-1.1-1.8-2.5-3.6-3.1c-0.6-0.2-1.3-1.5-1.3-2.3c-0.2-2,0-4,0.1-6c0-0.2,0-0.5,0.1-0.7
					c1-2.9,1.7-6,2.9-8.8c1.6-3.6,3.7-7.1,5.5-10.6c2.2-4.3,5.1-8,8.3-11.4c5-5.4,9.1-11.3,13.1-17.4c3.1-4.8,6-9.8,9.1-14.6
					c3.8-5.9,8.4-11.3,13.2-16.4c1-1.1,2-2.3,2.7-3.6c2.4-4.8,5.8-8.8,9.2-12.8c4.2-4.9,8.3-9.9,12.3-15c3.7-4.6,7.8-8.7,12.2-12.6
					c3.1-2.8,6.2-5.5,9.4-8.2c2.5-2.1,5.5-3.5,8.7-4.5c1.2-0.4,2.3-0.8,3.7-0.4c0.6,0.2,1.4,0,2.1-0.3c2-0.8,4-1.1,6.1-0.8
					c0.1,0,0.2,0,0.2,0c1.4-1.6,3.7-1,5.3-2.2c1-0.7,1.7-0.7,2.5,0.1c0.3,0.3,0.9,0.7,1.2,0.6c1.9-0.7,3.4,0.4,5.1,0.9
					c0.6,0.2,1.4-0.1,2-0.3c0.5-0.2,0.9-0.6,1.6-1.2c0.5,1.3,1.2,2.3,1.3,3.5c0.1,1.3,0.8,1.6,1.8,1.8c0.8,0.1,1.5,0.3,2.3,0.5
					c0.3,0.1,0.7,0.3,0.7,0.5c0.2,1.4,0.8,2,2.3,1.8c0.2,0,0.4,0.8,0.7,1c0.6,0.5,1.2,1.1,1.9,1.3c0.6,0.1,1.3-0.4,1.9-0.6
					c0.5,4.7,1.4,4.1,5.4,2.7c0.3-0.1,0.5-0.3,1.1-0.6c0.1,1.3,0.2,2.3,0.2,3.1c0.8,0.6,1.3,1.2,2,1.5c0.8,0.4,1.9,0.8,2.7,0.6
					c1.3-0.3,2.1,0.2,3.2,0.6c0.1,0.6,0.3,1.2,0.4,1.7c1.4,0.5,2.8,1,4.3,1.5c0.1,0.2,0.1,0.8,0.3,1.1c1,1,0.9,2.1,0.8,3.3
					c-0.1,1.2-0.3,2.3,1.2,3.1c0.5,0.3,0.7,1.3,1.1,2.2c0.1,0,0.4,0.1,0.7,0.2c1.5,0.2,2,0.7,1.5,1.9c-1,2.3-1.8,4.7-3.4,6.6
					c-4.2,5.1-8.6,10.2-13.3,14.8c-9.9,9.6-20,19.1-30.9,27.7c-1.9,1.5-3.4,3.3-4.6,5.4c-2.8,5.4-7.1,9.6-11.7,13.5
					s-9.2,7.7-13.1,12.3c-2.2,2.6-4.3,5.4-6.4,8.1c-2.5,3.2-5.4,5.9-8.6,8.3c-3,2.3-6,4.8-8.9,7.3c-0.7,0.6-1.3,1.2-1.8,1.9
					c-2.7,4.4-6.3,8-9.6,11.9c-1.6,1.8-3.1,3.7-4.6,5.5c-0.4,0.5-1.1,1.2-1.4,1.1c-1.8-0.8-3.4,0.6-5.1,0.2
					c-1.1-0.2-2.2-0.3-3.3-0.5c-0.7-0.1-1.4-0.1-2.1-0.2c-1.3-0.3-2.7-0.4-3.9-0.9c-2.3-1-4.6-1.3-7.2-1c-1.9,0.2-3.9-0.2-5.9-0.4
					c-2-0.2-3.9-0.6-5.9-0.7c-2.6-0.2-5-0.9-7.3-1.9c-0.9-0.4-1.8-0.7-2.7-0.1c-0.4,0.2-0.9,0.3-1.3,0.3
					C354.4,454.1,352.2,453.9,349.9,453.8z"/>
				<path class="st0" d="M601.7,270.8c-1.1,1.5-2.2,3.1-3.4,4.6c-1.7,2.1-3.4,4.2-4.6,6.7c-0.6,1.3-2.1,2.4-3.4,3.2
					c-2.7,1.5-5.2,3.3-8.1,4.5c-2.9,1.2-5.4,3.4-8,5.1c-0.8,0.5-1.2,1.2-0.8,2.2c0.3,1,0.9,1.3,1.8,1c1-0.4,1.9-0.8,2.8-1.3
					c3.7-2.1,7.3-4.3,10.9-6.5c1-0.6,2-1,3-1.4c2.8-1.2,4.9-3.1,7-5.2c0.2-0.2,0.3-0.6,0.7-1.5c-1.8,1.1-3.2,1.9-4.5,2.6
					c-0.1-0.1-0.2-0.3-0.3-0.4c0.4-0.6,0.7-1.4,1.3-1.8c3.3-2.4,5.5-5.7,8.1-8.7c3-3.5,5.8-7.3,9.3-10.3c2.4-2.1,4.7-4.2,6.9-6.5
					c1.4-1.5,3.1-2.8,4.5-4.3c2.5-2.6,5.4-4.7,8.6-6.5c4.8-2.8,9.7-5.6,14.5-8.4c0.6-0.4,0.6-0.4,0.2-1.5c1.2-0.6,3.6,0.2,3.1-2.6
					c-1.5-0.5-2.9,0-4.3,0.3c-1.4,0.3-2.7,0.7-4.1,1c-0.1-0.2-0.1-0.3-0.2-0.5c1.4-0.7,2.9-1.4,4.3-2c2.9-1.3,5.8-2.5,8.7-3.8
					c1.9-0.9,3.9-0.7,5.9-0.8c0.6,0,1.2,0.6,1.9,1c2.6-1,5.6-1.6,8-3.7c1.2-1,2.8-1.4,4.3-2.1c3.1-1.5,6.3-3.1,9.7-3.8
					c0.4-0.1,1-0.3,1-0.5c0.1-0.9,0.7-1.2,1.4-1.4c2.4-1,4.7-1.9,7.1-2.8c0.2-0.1,0.6,0.1,1,0.2c-0.3,1.5-1.5,2.3-2.5,2.7
					c-3.3,1.2-3.3,1.1-2.6,4.4c-1.1,0.6-2.4,1.1-3.6,1.7c0.1,0.3,0.2,0.5,0.3,0.5c1.3,0.2,5.5-0.7,6.6-1.3c0.2-0.1,0.4-0.3,0.6-0.4
					c0.8-0.1,1.6-0.1,2.5-0.1c-0.3,1.5-2.1,1.5-2.5,2.7c1.2,1.6,2.1,1.8,4,0.9c1.7-0.8,3.3-1.5,5-2.2c0.5-0.2,1-0.3,1.8-0.4
					c-0.7,1.5-1.7,2.3-2.9,2.9c-0.8,0.4-1.8,0.9-1.6,2.1c0.1,0.8,1.5,1.3,2.8,1.2c0.4,0,0.7-0.1,1.7-0.2c-0.8,0.8-1.4,1.3-1.8,1.8
					c-0.8,0.9-1.6,1.7-2.3,2.7c-0.2,0.3,0.1,1.1,0.4,1.4c0.2,0.2,1.1,0.1,1.2-0.1c0.8-1.8,2.5-1.7,4-2.2c0.6-0.2,1.2-0.3,1.9-0.4
					c2.4-0.5,2.4-0.5,4.2,1.5c-0.4,0.5-0.8,1.1-1.3,1.8c0.5,0.2,0.9,0.4,1.4,0.6c-0.7,0.6-1.3,1.2-2,1.7c-0.8,0.6-1.2,1.2-1.2,2.2
					c0.1,1.5,0.9,2.1,2.4,1.8c1.6-0.3,3.3-0.6,4.9-0.9c0.2,0,0.3,0,0.5,0c1.3,0,2.7,0.7,4.1-0.7c-0.1,0.7-0.1,1-0.2,1.5
					c0.9-0.4,1.7-0.7,2.5-1c0.1,0.1,0.2,0.3,0.3,0.4c-0.6,0.4-1.3,0.8-1.9,1.2c0.5,2,0.6,2.1-1.1,3.2c-1.1,0.7-2.4,1.3-3.6,1.9
					c-1.3,0.6-1.5,1-1.1,2.4c0.9,2.9,2.4,4.1,5,3.7c0.6-0.1,1.3-0.1,2.1-0.1c0,0.6,0.1,1.2,0.1,2c5.1-1.1,9.7-3.5,14.7-4.4
					c0.1,0.2,0.1,0.4,0.2,0.7c-1.1,0.3-2.3,0.4-3.3,0.8c-1,0.4-1.8,1.2-3.1,2.1c1.1,0.3,1.7,0.5,2.6,0.7c-1.6,1.2-3,2.1-4.6,3.3
					c0.7,0.3,1.1,0.6,1.6,0.8c-0.1,0.2-0.2,0.4-0.3,0.5c-0.4,0.3-0.9,0.5-1.1,0.9c-0.2,0.3-0.3,0.9-0.2,1.3c0.1,0.3,0.7,0.6,0.9,0.5
					c3-0.8,6,0,9-0.2c1.8-0.1,3.5,0.5,5.4,0.3c-3,2.3-6,4.6-8.9,6.9c0,0.1,0.1,0.3,0.1,0.4c1.1-0.3,2.1-0.6,3.4-0.9
					c-1.4,1.2-2.7,2.3-4.3,3.8c1.3,0.1,1.9,0.2,2.9,0.2c-2.1,2.2-5.2,3.1-5.8,6.4c1.7-0.1,3.2-1.5,5-0.5c-0.6,1-2.3,1.5-1.6,3.2
					c0.1,0.2-0.7,0.9-1.3,1.5c1-0.1,1.7-0.2,2.6-0.4c-1.2,1.5-4.1,3.3-5.7,3.9c-2.8,1-5.7,2-8.2,3.8c-0.9,0.6-1.7,1.3-1,2.8
					c2.7-0.8,5.5-1.3,8-3c-0.4,0.4-0.8,0.8-1.3,1.1c-5.4,3.1-10.7,6.4-16.2,9.3c-8.3,4.3-17.3,6.7-25.9,9.9
					c-1.1,0.4-2.2,0.9-3.5,1.4c1.6-2.1,3.8-3,5.9-4c6.5-3,13.1-5.8,19.7-8.7c1.1-0.5,2.3-0.9,3.5-2.3c-0.9,0.1-1.4,0.1-1.7,0.2
					c-5.8,2.2-11.6,4.5-17.4,6.8c-2.1,0.8-4.2,1.6-6.2,2.4c-5.4,2.2-10.3,5.4-15.3,8.4c-0.7,0.4-1.4,1.1-1.8,1.8
					c-0.8,1.7-2.2,2.7-3.6,3.8c-2.2,1.6-4.3,3.3-6.5,4.9c-1.8,1.4-3.5,3.1-5.5,4.2c-1.8,1-3.8,1.6-5.8,2.1c-1.3,0.4-2.6,0.5-3.8,1.2
					c-1.1,0.7-2.5,0.8-3.8,1.3c-1.5,0.5-3,1.2-4.5,1.6c-1.7,0.4-3.4,0.6-5.1,0.9c-2.2,0.3-3.9,1.3-4.6,3.4c-3.1,0.7-6.1,1.4-9.1,2.1
					c-0.6,0.1-1.3,0.6-1.5,1c-0.4,1.4-1.5,1.6-2.6,1.7c-2.2,0.4-4.4,0.8-6.6,0.9c-3.7,0.2-7.4,1-11.2,0.3c-2-0.3-3.9-0.4-5.6-1.7
					c-1.6-1.2-3.7-1.4-5.6-1.8c-1-0.2-2-0.4-3-0.6c-0.5-0.1-1.2-0.3-1.5-0.7c-2.1-2.8-4.8-4.8-7.9-6.4c-0.1-0.1-0.2-0.3-0.4-0.6
					c0.6,0.1,1,0.1,1.3,0.3c1,0.4,2,0.9,3,1.3c0.8,0.3,1.5,0,2.1-0.9c-2.4-1.4-5.7-0.4-7.7-2.7c0.1-0.2,0.1-0.3,0.1-0.3
					c0.3-0.1,0.6-0.1,1.1-0.1c-0.1-1.3-0.9-1.9-2.1-2.1c-1-0.1-1.9,0-2.9-0.1c-0.8-0.1-1.6-0.4-2.4-0.9c2.4,0,4.7,1.2,7.2,0.3
					c-1.2-0.7-3-0.2-3.4-2.1c-0.3-1.3-1.3-2.5,1-3.8c-2.3-0.1-3.9-0.1-5.5-0.2c-2.9-0.1-4.2-1.6-3.8-4.7c1.1-0.3,2.3-0.6,3.4-0.9
					c-2-1-3.7,0-5.6,0c-1.8,0-3.5,0.1-5.4-0.1c0.8-0.3,1.5-0.7,2.3-0.9c4.2-0.9,8.4-1.8,12.7-2.7c0.8-0.2,1.8,0,2.6,0
					c2.6-0.2,5.1-0.5,7.5-1.5c0.7-0.3,1.6-0.6,2.3-0.4c1.8,0.5,3.6,0.7,5.4,0.3c0.9-0.2,1.9-0.1,2.8-0.3c2.9-0.6,5.7-1.2,8.6-2
					c1.1-0.3,2.2-1,3.3-1.4c3.7-1.2,7.4-2.2,11.2-3.3c1.4-0.4,2.7-0.9,4.1-1.2c0.5-0.1,1.2-0.1,1.8,0.3c-0.8,0.4-1.6,0.8-2.4,1.2
					c0.2,1.1,0.9,1.1,1.6,0.9c1.7-0.6,3.5-1.2,5.2-1.8c1.8-0.6,5.9-3.7,6.7-5.1c-0.7-0.7-1.2-0.1-1.6,0.4c-1.1,1.1-2.4,1.6-3.9,1.7
					c-0.4,0-1-0.2-1.2-0.5c-0.4-0.7,0.2-1,0.8-1.2c0.1,0,0.2-0.2,0.5-0.4c-0.7-0.3-1.3-0.5-1.9-0.7c2.6,0.7,4.3-0.7,6.4-1.8
					c2.3-1.2,3.9-2.9,5.5-4.9c0.4-0.5,0.7-1,1-1.5c-2-2.3-4.3-0.9-6.3-0.4c-1.2,0.3-2.3,1.9-3,3.1c-0.6,1-1.1,1.9-2.2,2.3
					c-0.1,0.1-0.3,0.1-0.4,0.3c-2.2,2.7-5.4,3.5-8.4,4.7c-1.5,0.6-2.9,1.6-4.4,2.3c-0.7,0.4-1.4,0.7-2.2,1
					c-4.1,1.4-8.1,2.9-12.2,4.2c-1.9,0.6-3.8,0.9-5.7,1.4c-0.1-0.2-0.1-0.4-0.2-0.6c0.6-0.3,1.2-0.5,1.8-0.8c4.8-2,9.8-3.6,14.3-6
					c4.6-2.5,9.3-4.5,14.1-6.6c1.1-0.5,2.1-1.3,3.7-2.3c-1.5-0.5-2.4-0.8-3.4-1.2c0.6-1,1.5-0.9,2.2-0.9c1.8,0.1,3.2-0.5,4.3-2
					c0.3-0.5,0.9-0.9,1.4-1.5c-0.4-0.7-0.8-1.3-1.3-2c1.2-1.1,3.3-0.9,4.2-2.5c-1.7-1.4-2.6-1.2-4.3,1.1c0.3-2.6,3-3.5,3.6-6
					c-1.9,0.5-2.8,1.8-4,2.8c-0.9,0.8-1.7,1.7-2.8,1c-1.3,1.2-2.5,2.3-3.6,3.4c-0.3,0.3-0.8,0.6-1.2,0.7c-4.4,0.9-4.4,0.9-6.8,4
					c0.6,1.2,1.2,2.3,1.9,3.5c-0.4,0.5-0.7,0.9-1.1,1.1c-2.9,1.7-5.9,3.4-8.8,5.1c-2.3,1.3-4.9,1.3-7.4,1c-2-0.3-3.6,0.3-5.3,1.1
					c-1.8,0.9-3.6,1.7-5.4,2.6c-1.5,0.8-3,1-4.8,0.9c-1.6-0.1-3.3,0.5-4.9,0.9c-3.2,0.8-6.5,1.7-9.7,2.5c-0.2,0.1-0.5,0-0.7,0.2
					c-2.8,2.3-6.5,2.5-9.8,3.6c-0.2,0.1-0.4,0.1-0.7,0.2c-0.1-0.5-0.3-0.9-0.5-1.5c-2.9,0.1-5.6,1.2-8.3,1.9
					c-0.5-0.6-0.8-1.2-1.4-1.5c-1.7-0.8-2.1-2.4-2.7-3.9c-0.5-1.3-0.1-2.3,0.9-2.9c1.8-1,3.7-1.9,5.6-2.7c3.3-1.4,6.6-2.8,10-4
					c3.8-1.5,7.4-3.4,10.8-5.5c2.2-1.4,4.7-2.3,7-3.6c1-0.6,1.8-1.5,2.7-2.3c1.2-1.1,2.5-2.3,3.6-3.5c0.6-0.6,1.1-1.4,1.6-2.1
					c0.9-1.3,1.6-2.6,2.5-3.8c0.6-0.8,0.7-0.8,2.4-0.8c0,1.6-2.3,2.5-1.5,4.6c1.1-0.5,1.6-1.1,1.9-2.1c0.6-1.7,0.9-1.7,3.1-1.5
					c-1.6,1.9-3.6,3.4-4.1,6.3c1.7-0.9,3.1-1.6,4.1-3.1c1.2-1.8,2-3.9,4.4-4.8c0.9-0.3,1.4-1.7,2.2-2.5
					C599.5,272.9,600.1,271.4,601.7,270.8L601.7,270.8z M632,275.4c1.2,0.5,1.8-0.3,2.5-0.8c7.3-5.8,15.4-10.5,23.4-15.4
					c4.2-2.6,8.4-5.2,12.6-7.9c0.4-0.3,0.7-0.7,1.3-1.3c-0.7,0-1.1-0.1-1.3-0.1c-2.9,0.8-5.8,1.6-8.5,3.2c-2.7,1.7-5.6,3.1-8.3,4.7
					c-2.2,1.3-4.3,2.7-6.4,4.1c-1.3,0.9-2.5,1.9-3.8,2.9c-0.6,0.4-1.1,0.9-1.7,1.3c-2.3,2-4.6,3.9-6.9,5.9
					C633.7,273.1,632.7,274,632,275.4z M648.3,287.7c-1.5-0.9-3.5-0.1-4.6,1.7c0.1,0,0.3,0.1,0.4,0.1
					C645.5,289,646.9,288.4,648.3,287.7z M730.5,286.6c2.3-0.1,2.6-0.3,3.2-1.9C731.4,285,731.4,285,730.5,286.6z M645.7,267.8
					c-0.1,0.2-0.2,0.4-0.2,0.6c0,0.1,0.3,0.2,0.4,0.2c0.1-0.2,0.2-0.4,0.2-0.6C646.1,268,645.9,267.9,645.7,267.8z"/>
				<path class="st0" d="M418.2,630.7c-1.3-0.8-2.8-1.3-2.8-3.3c0-0.5-0.7-1-1.2-1.3c-1.4-0.7-1.8-1.8-1.6-3.2
					c0.3-1.6,0.7-3.3,1.3-4.8c0.8-2.2,1.8-4.4,2.8-6.6c2.4-5,4.9-9.9,9.4-13.6c3.2-2.6,5.8-6,8.6-9c1.2-1.3,2.2-3,4.3-3.1
					c0.5,0,1.1-0.8,1.3-1.3c0.5-2.1,2-3.4,3.4-4.8c5.2-5.1,11.3-9.1,17.2-13.3c2.7-1.9,5.2-4.2,7.6-6.4c3.7-3.5,7.3-7.2,11-10.7
					c0.7-0.7,1.8-1,2.7-1.4c1-0.4,2.1-0.4,2.5,0.8c1.8-0.7,3.3-1.4,5-1.8c0.6-0.2,1.4,0.3,2.1,0.4c-0.3,0.7-0.5,1.2-0.9,2.4
					c2.7-1.2,4.8-2.7,7.6-2.5c-1,3.8-4.8,5.3-6.5,8.5c1.3,0.5,2.1,0,2.9-0.7c2.5-1.8,5-3.5,7.5-5.2c0.3-0.2,0.7-0.4,1.1-0.6
					c0.6,1.9-1.3,2.3-1.8,3.3c-0.6,1.1-1.6,1.9-2.5,2.9c1,1.7,1.2,1.7,2.6,0.6c1.6-1.2,3.2-2.4,4.7-3.7c1-0.8,2-0.7,3.3,0
					c-0.3,0.4-0.4,0.7-0.7,0.9c-1.9,1.6-2.2,4-2.6,6.2c-0.1,0.8,0.4,1.9,1,2.5c2.1,2.1,4.6,3.3,7.8,2.6c0.5-0.1,1,0,1.6,0.1
					c-0.1,0.9-0.3,1.7-0.2,2.4c0.1,0.4,0.8,0.7,1.3,1c1.1,0.7,2.1,0.5,3-0.4c1.3-1.4,2.8-2.7,4.2-3.9c0.7-0.6,1.4-1.2,2.4-1.9
					c1,2.7-2.1,2.9-2.3,4.8c0.5,0.4,1,0.8,1.6,1.2c0,0.3,0,0.6-0.1,0.7c-0.5,0.5-1.1,1-1.5,1.5c-0.2,0.3-0.4,0.7-0.4,1
					c0.4,3.4,0.3,3.7-1.6,5.9c-1.1,1.3-0.6,3.9,1,4.7c1.9,0.9,3.9,1.4,5.8-0.2c0.9-0.8,1.9-1.6,3.4-1.6c0.7,0,1.4-0.7,2.3-1.2
					c0,0.6,0.1,1.1-0.1,1.3c-0.8,0.8-1.2,1.8-1.5,2.9c-0.1,0.6-0.7,1.1-1.1,1.5c-0.3,0.3-0.8,0.6-1.1,0.9c-1,0.8-2,1.7-1.9,3.1
					c0.1,1.6,1.6,1.4,2.8,1.9c-1.1,2-0.5,3.8,0.5,5.5s2.1,1.8,3.7,0.6c1.2-0.9,2.6-1.6,3.9-2.4c0.1,0.1,0.2,0.3,0.4,0.4
					c-0.2,0.3-0.4,0.6-0.7,0.9s-0.8,0.5-0.8,0.8c-0.6,3.1-3.6,4.4-5.3,6.8c-0.5,0.6-0.9,1.3-1.3,2c-0.4,0.6-0.6,1.2-1.1,1.7
					c-0.9,1.1-2,2-2.8,3.2c3.3-0.8,4.4-4.8,8.4-5.5c-0.7,1.1-1.1,1.9-1.7,2.6c-0.5,0.7-1.1,1.2-1,2.3c0.1,0.5-0.5,1.1-0.9,1.5
					c-2.7,2.7-5.5,5.4-8.1,8.2c-1.5,1.6-2.7,3.4-3.8,5.2c-1.4,2.2-2.9,4.2-4.8,5.9c-3.3,3-6.4,6.3-9.7,9.2c-5.8,5-11.6,10-18.4,13.7
					c-2.2,1.2-4.7,1.9-7,2.8c-0.7,0.3-1.5,0.5-2.2,0.8c-4.6,1.9-9.2,3.5-14,4.5c-0.9,0.2-1.9,0.3-2.8,0.3c-0.6,0-1.6-0.1-1.8-0.5
					c-0.7-1.7-2.6-1.8-3.7-3c-0.5-0.6-1.4-1-2.3-1.2c-3.3-0.7-3.3-0.7-5.8-3.3c1.8-1.5,2.2-3.2,0.5-5c-0.1-0.1-0.1-0.5-0.1-0.7
					c0-2.7-1.2-3-3.2-3.4c-2.5-0.5-4.8-1-6.7-2.8c-0.7-0.6-1.4-1.3-1.9-2c-1.4-1.7-2.4-3.8-4.7-4.3c-0.5-1-0.9-1.9-1.6-3.2
					c-1.6,2-2.9,3.7-4.3,5.4c-0.7-1.7-0.1-2.9,1.1-4c0.8-0.8,1.6-1.6,2.4-2.4c0.9-0.9,0.7-1.8,0-2.5c-0.2-0.3-1.3-0.3-1.4-0.1
					c-1,2.1-3.2,2.4-5,3.7c-0.5-0.9-1-1.7-1.5-2.6C421.5,629.8,419.9,630.2,418.2,630.7z"/>
				<path class="st0" d="M236.3,674.2c-0.1,0.7-0.1,1.3-0.1,1.9c-3.6,0.3-7-0.3-10.6-0.8c0.8-2.2,2.7-2.6,4.3-2.5
					c4.3,0.3,8.5,0.6,12.9,0c1.8-0.2,3.6,0.2,5.6-0.5c-0.3-0.4-0.6-0.7-1-1.2c1,0,1.8,0,2.7,0c1.3,0,2.7,0.5,3.8-0.7
					c0.2-0.3,0.9-0.1,1.4-0.1c1.3-0.1,2.7-0.2,4-0.2c0-0.2,0-0.3,0-0.5c-1-0.1-2.1-0.3-3.1-0.3c-3.7-0.1-7.4,0-11-0.1
					c-2.2-0.1-4.4-0.6-6.7-1.2c0.4-0.1,0.7-0.3,1.1-0.2c3.7,0.2,7.3,0.4,11,0.5c1.7,0.1,3.4,0.1,5,0.1c1-0.1,2.1,0.1,3-0.9
					c0.5-0.5,1.8-0.4,2.8-0.5c4.9-0.2,9.9-0.3,14.9-0.4c1.9,0,3.8,0,5.7,0.1c4.6,0.4,9.2,1,13.8,1.4c0.6,0.1,1.2-0.1,2.3-0.2
					c-1.8-1.1-3.1-1.7-4.6-1.8c-6.4-0.4-12.7-1-19.1-1.3c-2.9-0.1-5.9,0.4-8.8,0.5c-7.3,0.3-14.7,0.6-22,0.8c-1,0-2-0.3-3-0.7
					c4.1-1,8.3-0.9,12.4-2.1c-3-0.9-6.2-0.1-9.6-0.5c2.2-0.6,4.1,0.2,5.9-1.1c-0.8-0.2-1.7-0.3-2.3-0.4c1.2-0.2,2.7-0.3,4.2-0.5
					c0-0.2,0-0.4-0.1-0.5c-5-1-9.9-1-14.8,0.8c0-0.7,0.1-1.2,0.1-1.8c4.6-0.3,9.3-0.2,14-1.1c-2.4-0.8-4.7-1.6-6.8-2.3
					c0-0.7,0.1-1.1,0.1-1.6c-2.4,0-4.8,0.1-7.2,0c-2.3-0.1-4.7,0.6-6.9-0.8c3.2-1.6,6.8-1.2,10.2-1.8c3.3-0.6,6.6-0.7,9.9-1.4
					c0-0.2,0-0.3,0-0.5c-0.4-0.1-0.9-0.2-1.3-0.2c-3.7-0.1-7.4,0-11-0.2c-2.7-0.1-5.4-0.6-8.1-0.7c-2.2-0.1-4.4,0.1-6.7,0.2
					c-1,0-2.1,0.5-2.7-1c2.8-0.5,5.6-1.1,8.3-1.4c2.9-0.4,5.7-0.5,8.6-0.7c1-0.1,2.1,0.1,3.1,0.1s2.1,0.2,2.8-0.2
					c2.2-1.4,4.8-1.2,7.2-1.5c4.5-0.6,9-1.1,13.6-1.6c2.8-0.3,5.6-0.7,8.7-1.1c-0.8-1.2-2-0.8-2.8-0.7c-3.1,0.4-6.1,0.5-9.3,0.3
					c-2.4-0.1-4.8,0.4-7.1,0.7c-1.2,0.1-2.5,0.2-3.7,0.3c0-0.2-0.1-0.4-0.1-0.6c1.1-0.4,2.2-0.9,3.4-1.1c4.6-0.8,9.1-1.6,13.7-2.3
					c3.9-0.6,7.7-1.3,11.6-1.7c2.7-0.3,5.4-0.1,8.1-0.1c1.3,0,2.5,0,3.8,0.1c5.3,0.4,10.5,0.8,15.8,1.1c4.9,0.3,9.7,0.7,14.6,0.6
					c4.5,0,8.9-0.6,13.4-0.9c3.1-0.2,6.2-1.1,9.3-0.3c0.7,0.2,1.3,0.7,1.9,1c0,0.2,0,0.4,0,0.6c-1.6,0.6-3.3,1.3-5,2
					c1.2,1.2,1.9,2.4,0.2,3.8c0.3,0.4,0.5,0.8,0.8,1c2,0.8,4,1.5,6,2.3c0.5,0.2,1.2,0.3,1.5,0.6c1.3,1.2,2.8,1.8,4.6,1.9
					c-1.9-0.2-3.1,1-4.4,2c1.1,1.1,2.3,0.9,3.5,0.8c3.1-0.3,6.2-0.7,9.2-1.1c0.5-0.1,0.9-0.1,1.4-0.3c0.4-0.1,0.8-0.5,1.1-0.4
					c3.8,0.6,7-1.7,10.7-2c1.7-0.1,3.4-0.4,5.5-0.7c-0.5,0.6-0.7,1-1,1.1c-2.1,0.9-4.2,1.9-6.4,2.6c-1.7,0.6-3.6,0.7-5.4,1
					c-0.3,0.1-0.7,0.1-0.9,0.3c-1.3,1-2.6,2-3.9,3c1.9,2.1,4.5,2,7.1,2.5c-0.6,0.3-1.2,0.6-1.9,0.8c-1.2,0.4-2.6,0.7-2.8,2.2
					c-0.2,1.1,1.1,2.1,2.9,2.7c2.2,0.7,4.3,1.4,6.6,2.3c-2.5-0.2-4,1.8-6,2.7c-0.7,0.3-0.9,0.9-0.3,1.8c2.7-0.5,5.5-1.1,8.3-1.3
					c2.3-0.2,4-2.1,6.3-2.1c0.6,0,1.2,0,2.1,0c-2.4,2.7-5.5,3.6-8.3,5.2c0.6,2,0,3.2-2,4.1c-1.2,0.5-2,1.8-3,2.9
					c2.4,1.2,4.8,1.6,7.4,2c-0.4,0.1-0.7,0.2-1.1,0.2c-1.6,0.2-3.3,0.5-4.9,0.5c-3.2,0-6.3-0.7-9.3-2c-1.2-0.5-2.1-0.7-3.3,0
					c-1.4,0.7-3,0.9-4.6,1.1c-1.5,0.2-3,0.1-4.5,0.2c-0.8,0-1.9-0.1-2.3,0.3c-1.3,1.5-2.9,0.9-4.4,1c-2.4,0.1-4.9,0.4-7.3,0.2
					c-5.8-0.5-11.6-0.3-17.4-0.3c-7.9,0-15.7-0.3-23.4-1.8c-6.7-1.3-13.5-1.4-20.3-1.5c-5.1,0-10.2-0.4-15.3-0.6
					c-0.6,0-1.3-0.1-1.9-0.2c-3.1-0.7-6.1-1.7-9.8-1.1c1.8-2.8,4.5-1,6.8-2.2c-1.1-0.3-1.7-0.6-2.4-0.6
					C247.1,675,241.9,673,236.3,674.2z M330.2,640.5c-0.9-1.5-2-1.1-3-1c-2.8,0.3-5.7,0.8-8.5,1.2c-0.7,0.1-1.5,0.2-2.1-0.1
					c-2.4-1.2-4.4-0.1-7.1,0.6c1,0.7,1.4,1.4,2,1.4c1.2,0.1,2.4-0.1,3.5-0.2c0.9-0.1,1.9-0.4,2.8-0.5c3.4-0.3,6.8-0.6,10.1-0.9
					C328.7,641,329.2,640.9,330.2,640.5z M266.9,676.6c0,0.3-0.1,0.5-0.1,0.8c2.3,0.7,4.8,0,7.2,0.6c2.5,0.6,4.9,0.3,7.4,0
					c-1-0.6-2-1.2-3-1.3C274.5,676.5,270.7,676.6,266.9,676.6z M331.4,667.5c-1.8-1.4-2.5-1.4-4.2,0
					C328.7,667.5,329.9,667.5,331.4,667.5z"/>
				<path class="st0" d="M253.4,158c2.2-0.4,3.8-0.7,5.4-0.9c6.7-0.7,13.5-1.4,20.2-2.1c2.1-0.2,4.3-0.5,6.4-0.7
					c2.1-0.1,4.1-0.2,6.2-0.2c1.4,0,2.1,1,2,2.6c0,0.3,0,0.6-0.1,1.1c0.5,0.1,0.9,0.4,1.4,0.4c5.5-0.2,11-0.5,16.5-0.8
					c6.2-0.4,12.4-0.8,18.7-1.3c8-0.6,15.9-1.4,23.9-1.9c8.8-0.5,17.6-0.8,26.3-1.2c1.4-0.1,2.9-0.1,4.7-0.2c-0.7,0.5-1.1,0.8-1.5,1
					c-2,0.9-2.8,2.8-4.2,4.2s-2.2,3.1-4,4.2c-1.9,1.2-3.6,2.7-5.2,4.5c-1.4,1.7-3,3.4-5.6,4.2c-3.3,1.1-6.2,3.2-9.2,5
					c-9.8,5.8-20.1,10.5-30.7,14.6c-9,3.5-18.2,6.5-27.3,9.6c-2.2,0.8-4.3,1.7-6.7,1.7c-0.4,0-1,0.3-1.2,0.6
					c-0.7,1.4-1.8,1.6-3.2,1.6c-0.6,0-1.2,0.3-2,0.4c-0.1-0.4,0-0.9-0.2-1.2c-0.2-0.4-0.7-1.1-1-1.1c-2,0.2-3.2-1.2-4.7-2.1
					c-0.5-0.3-1.1-0.7-1.2-1.2c-0.1-1.9-1.9-2.8-2.3-4.5c-0.1-0.5-0.6-1-1-1.2c-1.2-0.5-1.8-1.5-2.1-2.7c-0.3-1.1-1.1-1.8-1.7-2.7
					c-1.3-2-3.5-3.5-3.3-6.4c0.2-1.6-1.4-2.6-2.5-3.6c-1.5-1.5-3.2-2.8-3.2-5.3c0-1.1-0.7-1.8-1.6-2.2c-1.3-0.6-1.7-1.4-2-2.8
					c-0.4-2.2-1.7-4.2-2.6-6.3C254.6,160.3,254.1,159.4,253.4,158z"/>
				<path class="st0" d="M375.2,699.5c-0.6,0.8-1.1,1.5-1.8,2.4c0.7,0.2,1.3,0.3,1.8,0.4c0,0.1,0,0.3-0.1,0.4c-2.1,1-2.1,1-0.9,3
					c0.3,0.5,0.6,1,0.6,1.5c-0.1,1.4,0.7,2.2,1.9,2.8c-0.7,0.3-1.2,0.5-1.7,0.7c-2.9,0.6-5.7,1.2-8.6,1.9s-5.9,1.3-8.8,2.1
					c-2.5,0.7-4.8,1.5-7.5,1.2c-1.8-0.2-3.8,0.5-5.7,0.7c-3.9,0.5-7.7,1-11.7,0.6c-3.8-0.4-7.7,0.2-11.5,0.1
					c-5.4-0.1-10.7-0.2-16.1-0.5c-3.9-0.2-7.8-0.4-11.7-0.8c-3.5-0.4-6.9-1.1-10.4-1.9c-2.8-0.7-5.6-1-8.5-0.6c-1.7,0.2-3.5,0.2-5-1
					c-0.4-0.3-1.2-0.3-1.8-0.4c-2.7-0.3-5.4-0.5-8-1c-3.8-0.7-7.5-1.6-11.2-2.4c-0.4-0.1-0.9-0.3-1.2-0.1c-2.1,1.5-3.5-0.3-5.2-0.8
					c-0.4-2.7,1.8-2.1,3.5-2.6c-1.1-0.5-1.8-0.9-2.9-1.4c0.4-0.4,0.6-0.9,0.9-1.1c0.8-0.7,0.9-1.3,0.2-1.9c-0.2-0.2-0.4-0.3-0.6-0.3
					c-3.2-0.3-4.9-3.1-7.4-4.6c-0.2-0.1-0.3-0.5-0.7-1c1.2-0.9,2.3-1.9,3.6-2.7c0.9-0.6,2-0.4,3,0.1c1.3,0.6,2.6,1.5,3.8-0.1
					c0.2-0.2,0.9,0,1.3,0.1c3.2,0.6,6.4,1.3,9.6,1.8c1.5,0.2,3,0.1,4.5,0.1c6.9-0.2,13.7,0.8,20.4,2.1c0.6,0.1,1.4,0.2,1.8,0.5
					c1.4,1.2,3.1,1.1,4.8,1.2c6,0.4,11.9,0.9,17.9,1.3c1.1,0.1,2.2,0.1,3.3,0.2c3.2,0.2,6.3-0.2,9.5,0.1c3,0.2,6.2-0.6,9.2-1.2
					c4.2-0.7,8.3-1.7,12.4-2.5c2-0.4,4.1-0.5,6.2-0.6c2-0.1,3.9,0.1,4.3,2.8c3.2,0,6.2,0,9.2,0c1,0,1.9,0,2.9,0c0.4,0,1,0,1.1,0.2
					c1.1,2,3,1.1,4.5,1c2-0.1,3.9-0.3,5.9-0.5C374.9,699,375.1,699.2,375.2,699.5z"/>
				<path class="st0" d="M248.6,682.2c4.1-0.6,7.5,0.6,11.1,1c0.9,0.1,1.9,0,2.8,0c0.3,0,0.6-0.1,0.9-0.1c5.2,0.3,10.3,0.7,15.5,1
					c3.3,0.2,6.5,0.3,9.8,0.3c5.2,0,10.1,1.4,15.1,2.3c1.6,0.3,3.1,0.6,4.7,0.7c4.5,0.3,9.1,0.4,13.6,0.7c1,0.1,2,0.4,3.1,0.6
					c0.1,0.9-0.3,1.4-1.2,1.4c-4.6-0.1-9.2-0.1-13.8-0.3c-8.6-0.3-17.1-2-25.6-3.2c-0.9-0.1-1.9-0.3-2.9-0.2
					c-7.6,0.1-15.1-0.7-22.7-1.6c-3.2-0.4-6.4-1.2-9.6-1.9C249.3,682.8,249.1,682.6,248.6,682.2z"/>
				<path class="st0" d="M357.6,688.9c-0.8,0.3-2,0.9-3.2,1.1c-2.7,0.4-5.5,0.7-8.2,0.9c-2.7,0.3-5.4,0.5-8.1,0.7
					c-0.9,0.1-1.7,0-3.1,0c0.8-0.3,1.2-0.5,1.7-0.7c-1.3-0.8-2.3,0.4-3.1,0.4c-1.2-0.1-2.3-0.1-3.5,0.2c-1.1,0.3-2.2,0.3-3.3,0.5
					c-1.2,0.2-2.4,0.4-3.5,0.6c-1.2,0.2-2.4,0.3-3.5,0.4C336.9,688.8,342.8,689.4,357.6,688.9z"/>
				<path class="st0" d="M275,691.9c-6.9-1.2-13.9-1.6-21-1.1c-2.2,0.1-4.4,0.2-6.6-0.4c-0.5-0.2-1-0.4-1.5-0.8c0.9,0,1.8,0,2.7,0
					c4.7,0.1,9.5,0.1,14.2,0.4c3.6,0.2,7.3,0.9,10.9,1.4C274.2,691.2,274.6,691.7,275,691.9L275,691.9z"/>
				<path class="st0" d="M218.7,658.9c1.1-1.5,2.4-1.3,3.7-1.3c2.3,0.1,4.6,0.3,6.9,0.3c1.9,0,3.8-0.2,5.8-0.4
					c-4.9,2.6-10.2,0.5-15.1,1.8C219.7,659.5,219.3,659.2,218.7,658.9z"/>
				<path class="st0" d="M601.8,270.9c0.2-0.5,0.3-1.1,0.6-1.4c2.2-2.5,4.4-5,6.6-7.5c1-1.1,1.5-2.6,3.3-2.9c0,0.3,0,0.6-0.1,0.7
					C608.7,263.4,605.2,267.1,601.8,270.9C601.7,270.8,601.8,270.9,601.8,270.9z"/>
				<path class="st0" d="M536.4,388.8c2.3-2.5,5-4.3,8.5-4.7C542.7,386.8,539.2,387.1,536.4,388.8z"/>
				<path class="st0" d="M352.5,632.7c1.9-0.2,3.6-0.4,5.4-0.6C356.9,634,355.1,634.2,352.5,632.7z"/>
				<path class="st0" d="M233.7,661.2c-0.7,0.1-1.4,0.4-2,0.3c-1.6-0.5-3.1-0.7-4.8-0.4c2.3-0.3,4.5-1,6.8-0.5
					C233.7,660.7,233.7,661,233.7,661.2z"/>
				<path class="st0" d="M479.7,411.8c1-0.7,1.6-1.2,2.1-1.3c0.4,0,1,0.7,1.2,1.1c0.2,0.7-0.4,1.3-1.1,1.2
					C481.2,412.8,480.8,412.3,479.7,411.8z"/>
				<path class="st0" d="M393.5,668.5c-0.6,0.5-1.2,0.9-1.8,1.4c-0.9-0.4-1.8-0.8-3-1.3c1.8-0.2,3.3-0.4,4.7-0.6
					C393.4,668.2,393.4,668.5,393.5,668.5z"/>
				<path class="st0" d="M639.3,337.4c-2.1,1.7-4.6,1.2-7,1.5C634.6,338.4,636.9,337.9,639.3,337.4z"/>
				<path class="st0" d="M274.9,691.9c1.2,0,2.4,0,3.5,0.1c1.7,0.2,3.3,0.5,4.9,1.2C280.6,692.8,277.8,692.2,274.9,691.9
					C275,691.9,274.9,691.9,274.9,691.9z"/>
				<path class="st0" d="M551.6,313.5c-1.5,0.4-3,0.9-4.6,1.3C548.7,313.5,549.2,313.3,551.6,313.5z"/>
				<path class="st0" d="M465.6,419.3c0.8-0.4,1.2-0.7,1.6-0.7c0.3,0,0.6,0.5,0.9,0.8c-0.4,0.3-0.8,0.7-1.2,0.7
					C466.6,420.2,466.2,419.8,465.6,419.3z"/>
				<path class="st0" d="M596,303.4c-1.1,0.6-2.3,1.2-3.4,1.8c-0.1-0.1-0.1-0.2-0.2-0.3c0.3-0.2,0.6-0.4,0.9-0.6
					c0.5-0.3,1-0.5,1.5-0.8c0.4-0.2,0.8-0.3,1.2-0.5C595.9,303.2,595.9,303.3,596,303.4z"/>
				<path class="st0" d="M255.1,285.4c0.2,0.7,0.7,1.5-1,2c0.2-0.9,0.3-1.6,0.4-2.2C254.7,285.3,254.9,285.3,255.1,285.4z"/>
				<path class="st0" d="M284.2,682.5c0.6,0.1,1.3,0.2,1.9,0.3c0,0.2,0,0.3-0.1,0.5c-0.7-0.1-1.3-0.2-2-0.2
					C284.1,682.9,284.1,682.7,284.2,682.5z"/>
				<path class="st0" d="M305.2,242.2c-0.1-1.3-0.2-2.7-0.2-4c0.1,0,0.2,0,0.2,0C305.2,239.6,305.2,240.9,305.2,242.2L305.2,242.2z"
					/>
				<path class="st0" d="M363.5,687.2c-0.4,0-0.9-0.1-1.3-0.1c0-0.2,0-0.3,0.1-0.5c0.4,0.1,0.9,0.1,1.3,0.2
					C363.5,687,363.5,687.1,363.5,687.2z"/>
				<path class="st0" d="M616,256c-0.4,0.3-0.8,0.6-1.2,0.9c-0.1-0.1-0.1-0.2-0.2-0.2c0.4-0.3,0.8-0.7,1.2-1
					C615.9,255.8,615.9,255.9,616,256z"/>
				<path class="st0" d="M380.5,647.2c1-0.2,1.6-0.3,2.2-0.4c-0.1,0.3,0,0.5-0.1,0.5C382,647.5,381.4,647.9,380.5,647.2z"/>
				<path class="st0" d="M339.6,259.3c0.1,0.4,0.3,0.8,0.4,1.3c-0.2,0.1-0.4,0.1-0.6,0.2c-0.1-0.4-0.2-0.9-0.3-1.3
					C339.4,259.4,339.5,259.3,339.6,259.3z"/>
				<path class="st0" d="M425.6,634.2c0.2-0.4,0.5-0.7,0.7-1.1c0.1,0,0.2,0.1,0.3,0.1c0,0.2,0,0.5-0.1,0.7s-0.3,0.4-0.5,0.6
					C425.8,634.5,425.7,634.4,425.6,634.2z"/>
				<path class="st0" d="M330,689.5c-0.1,0.1-0.2,0.3-0.2,0.3c-0.1,0-0.3-0.1-0.4-0.1c0.1-0.1,0.1-0.2,0.2-0.2
					C329.7,689.4,329.8,689.5,330,689.5z"/>
				<path class="st0" d="M766.4,314.9c-0.4,0.3-0.9,0.6-1.3,0.9c-0.1-0.1-0.1-0.3-0.2-0.4C765.4,315.3,765.9,315.1,766.4,314.9
					C766.5,315,766.4,314.9,766.4,314.9z"/>
				<path class="st0" d="M759.6,320.3c1.4,0.5,2.6,0.9,3.8,1.4c1.6,0.6,3,0.3,4.3-0.8c0.3-0.2,0.7-0.5,1-0.5c1.7,0,3.1-0.5,4-1.9
					c0.5,0,1.1-0.1,1.5,0.1c1.1,0.5,1.9,0.5,3.1,0c0.8-0.4,2.1-0.1,3.1,0.2c1.1,0.3,1.9,0.3,2.8-0.5c0.2-0.2,0.4-0.3,0.6-0.3
					c0.6-0.1,1.2,0.1,1.7-0.2c0.4-0.2,0.8-0.7,1.1-0.9c0.9,0.5,1.6,0.9,2.3,1.4c0.3,0.2,0.5,0.5,0.8,0.8c0.3,0.4,0.6,0.9,1,1.1
					c2.9,1.7,6.1,1.4,8.7-0.8c1.7-1.5,2.9-1.1,3.7,1.1c0.5,1.4,1.2,2.7,1.7,4.2c0.2,0.6,0.3,1.2,0.4,1.9c0.3,1.8,0.4,3.7,1,5.4
					c1.3,4.3,1.7,8.8,2.8,13.2c0.8,3.5,1,7,1,10.5c-0.1,5,0,10.1,0.6,15.1c0.4,3.4,0,6.6-0.9,9.9c-1,3.7-1.8,7.6-2.2,11.4
					c-0.4,4.1-1.1,8.1-2.1,12.1c-0.7,2.7-1,5.5-1.8,8.3c-0.4,1.6-1,3.3-1.8,4.7c-2.4,4-3.5,8.5-4,13c-0.5,5.1-1,10.1-1.6,15.2
					c-0.2,1.7-0.6,3.3-1,5c-0.3,1.1-1,1.7-2.1,2c-1.3,0.4-2.7,1-3.9,1.6c-2.4,1.4-4.6,3-7,4.4c-1.6,1-3.3,1.7-5.1,2.3
					c-4,1.2-8,1.5-12.1,1.9c-1.4,0.1-3-0.1-4.4-0.2c-1.2-0.1-2.4,0-3.6,0.6c-1.6,0.7-3.3,0.9-4.9,0.1c-0.3-0.2-0.7-0.3-1-0.2
					c-2.1,0.2-2.8-1.3-3.1-2.9c-0.5-2-0.7-4-0.9-6.1c-0.2-2-0.1-4.1-0.2-6.1c-0.1-2.6-0.3-5.3-0.6-7.9c-0.3-2.9-0.2-5.8,0.2-8.8
					c0.6-3.9,1.1-7.8,1.6-11.6c0.2-1.5,0.3-2.9,0.2-4.4c-0.2-6.8,0.7-13.4,2.3-20c0.6-2.4,1.6-4.7,2.2-7c0.6-2.1,0.8-4.3,1.3-6.5
					c0.5-2.7,1-5.4,1.4-8.1c0.1-0.7,0.3-1.3,0.3-1.9c-0.1-3.3,0.1-6.6,0.6-9.8c0.1-0.7,0-1.4,0-2.1c0.2-1.7,0.5-3.5,0.9-5.2
					c1-4.1,0.9-8.2,1-12.4c0-3,0-6,0.1-8.9c0-0.2-0.1-0.6,0-0.7c1-1.4,0.7-3,0.8-4.6C759.1,325.2,759.3,322.7,759.6,320.3z"/>
				<path class="st0" d="M260.4,179.4c-1.3-0.8-2.8-1.3-2.8-3.3c0-0.5-0.7-1-1.2-1.3c-1.4-0.7-1.8-1.8-1.6-3.2
					c0.3-1.6,0.7-3.3,1.3-4.8c0.8-2.2,1.8-4.4,2.8-6.6c2.4-5,4.9-9.9,9.4-13.6c3.2-2.6,5.8-6,8.6-9c1.2-1.3,2.2-3,4.3-3.1
					c0.5,0,1.1-0.8,1.3-1.3c0.5-2.1,2-3.4,3.4-4.8c5.2-5.1,11.3-9.1,17.2-13.3c2.7-1.9,5.2-4.2,7.6-6.4c3.7-3.5,7.3-7.2,11-10.7
					c0.7-0.7,1.8-1,2.7-1.4c1-0.4,2.1-0.4,2.5,0.8c1.8-0.7,3.3-1.4,5-1.8c0.6-0.2,1.4,0.3,2.1,0.4c-0.3,0.7-0.5,1.2-0.9,2.4
					c2.7-1.2,4.8-2.7,7.6-2.5c-1,3.8-4.8,5.3-6.5,8.5c1.3,0.5,2.1,0,2.9-0.7c2.5-1.8,5-3.5,7.5-5.2c0.3-0.2,0.7-0.4,1.1-0.6
					c0.6,1.9-1.3,2.3-1.8,3.3c-0.6,1.1-1.6,1.9-2.5,2.9c1,1.7,1.2,1.7,2.6,0.6c1.6-1.2,3.2-2.4,4.7-3.7c1-0.8,2-0.7,3.3,0
					c-0.3,0.4-0.4,0.7-0.7,0.9c-1.9,1.6-2.2,4-2.6,6.2c-0.1,0.8,0.4,1.9,1,2.5c2.1,2.1,4.6,3.3,7.8,2.6c0.5-0.1,1,0,1.6,0.1
					c-0.1,0.9-0.3,1.7-0.2,2.4c0.1,0.4,0.8,0.7,1.3,1c1.1,0.7,2.1,0.5,3-0.4c1.3-1.4,2.8-2.7,4.2-3.9c0.7-0.6,1.4-1.2,2.4-1.9
					c1,2.7-2.1,2.9-2.3,4.8c0.5,0.4,1,0.8,1.6,1.2c0,0.3,0,0.6-0.1,0.7c-0.5,0.5-1.1,1-1.5,1.5c-0.2,0.3-0.4,0.7-0.4,1
					c0.4,3.4,0.3,3.7-1.6,5.9c-1.1,1.3-0.6,3.9,1,4.7c1.9,0.9,3.9,1.4,5.8-0.2c0.9-0.8,1.9-1.6,3.4-1.6c0.7,0,1.4-0.7,2.3-1.2
					c0,0.6,0.1,1.1-0.1,1.3c-0.8,0.8-1.2,1.8-1.5,2.9c-0.1,0.6-0.7,1.1-1.1,1.5c-0.3,0.3-0.8,0.6-1.1,0.9c-1,0.8-2,1.7-1.9,3.1
					c0.1,1.6,1.6,1.4,2.8,1.9c-1.1,2-0.5,3.8,0.5,5.5s2.1,1.8,3.7,0.6c1.2-0.9,2.6-1.6,3.9-2.4c0.1,0.1,0.2,0.3,0.4,0.4
					c-0.2,0.3-0.4,0.6-0.7,0.9c-0.3,0.3-0.8,0.5-0.8,0.8c-0.6,3.1-3.6,4.4-5.3,6.8c-0.5,0.6-0.9,1.3-1.3,2c-0.4,0.6-0.6,1.2-1.1,1.7
					c-0.9,1.1-2,2-2.8,3.2c3.3-0.8,4.4-4.8,8.4-5.5c-0.7,1.1-1.1,1.9-1.7,2.6c-0.5,0.7-1.1,1.2-1,2.3c0.1,0.5-0.5,1.1-0.9,1.5
					c-2.7,2.7-5.5,5.4-8.1,8.2c-1.5,1.6-2.7,3.4-3.8,5.2c-1.4,2.2-2.9,4.2-4.8,5.9c-3.3,3-6.4,6.3-9.7,9.2c-5.8,5-11.6,10-18.4,13.7
					c-2.2,1.2-4.7,1.9-7,2.8c-0.7,0.3-1.5,0.5-2.2,0.8c-4.6,1.9-9.2,3.5-14,4.5c-0.9,0.2-1.9,0.3-2.8,0.3c-0.6,0-1.6-0.1-1.8-0.5
					c-0.7-1.7-2.6-1.8-3.7-3c-0.5-0.6-1.4-1-2.3-1.2c-3.3-0.7-3.3-0.7-5.8-3.3c1.8-1.5,2.2-3.2,0.5-5c-0.1-0.1-0.1-0.5-0.1-0.7
					c0-2.7-1.2-3-3.2-3.4c-2.5-0.5-4.8-1-6.7-2.8c-0.7-0.6-1.4-1.3-1.9-2c-1.4-1.7-2.4-3.8-4.7-4.3c-0.5-1-0.9-1.9-1.6-3.2
					c-1.6,2-2.9,3.7-4.3,5.4c-0.7-1.7-0.1-2.9,1.1-4c0.8-0.8,1.6-1.6,2.4-2.4c0.9-0.9,0.7-1.8,0-2.5c-0.2-0.3-1.3-0.3-1.4-0.1
					c-1,2.1-3.2,2.4-5,3.7c-0.5-0.9-1-1.7-1.5-2.6C263.6,178.5,262,178.9,260.4,179.4z"/>
				<path class="st0" d="M630.6,177.9c0.5-1.3,0.6-2.4-0.4-3.4c-2.4-2.3-2.4-2.8-0.7-5.4c-1.1-0.5-2.2-0.8-3.3-1.4
					c-1.4-0.7-1.4-1.1-0.9-2.8c1.8,0.8,3.5,1.7,5.3,2.3c1.9,0.7,2.2,0.4,2.3-1.6c0.2-2.4-0.3-3.4-2.7-4.4c-1.9-0.8-3.3-2.1-4.3-3.9
					c-0.8-1.5-1.8-2.9-2.9-4.1c-1.3-1.4-2.1-2.9-1.7-5.3c-1.9,0.3-3.5,0.6-5.4,0.9c-0.2-0.6-0.4-1.4-0.6-2.1c-0.9-0.5-2-1.1-3-1.7
					c0-0.2,0.1-0.4,0.1-0.6c2.3-0.3,4.5-0.7,6.8-0.9c2.9-0.1,5.5-0.9,8-2.2c2.1-1.1,2.2-1.3,0.6-3.2c-0.1-0.2-0.3-0.4-0.7-0.8
					c-1.4,0.6-2.9,1.1-4.3,1.7c-1.7,0.8-1.7,0.8-3-0.6c-0.9-0.9-2.7-1-4.4-0.2c-1.4,0.6-2.8,1.1-4.2,1.5c-1.1,0.3-1.6-0.1-1.7-1.3
					c-0.1-1.8-0.4-3.5-1.8-4.9c-1.2-1.3-0.9-4.2,0.7-5.3c2.7-2,5.6-3.7,8.4-5.5c0.9-0.6,2-0.9,3-1.5c1.2-0.7,2.6-0.6,3.9-1
					c3-0.9,5.9-2,8.7-3.3c2.4-1.1,4.5-2.7,6.7-4.1c2.2-1.5,4.5-2.6,7.3-3.3c-0.2,0.7-0.3,1.1-0.5,1.7c1,1,2,0.7,2.9,0.3
					c5-1.8,10-3.9,15.1-5.3c5.7-1.6,11-4.4,16.7-5.9c3.2-0.9,6.3-1.8,9.6-1c1,0.3,2.2-0.1,3.3-0.4c1.4-0.4,2.7-0.9,4.1-1.3
					c3.9-1.2,8-1.5,12-1.6c0.8,0,1.6-0.1,2.4-0.2c0.4,0,0.8-0.3,1.2-0.2c2.3,0.8,4.4-0.3,6.5-0.5c2.2-0.2,4.4-0.7,6.7-0.8
					c3.3-0.1,6.5-1.3,9.9-0.6c0.4,0.1,0.8-0.2,1.2-0.2c2.3-0.4,4.7-0.9,7-1.3c4.5-0.8,9-1.6,13.4-2.5c1.5-0.3,2.9-0.8,4.4-0.2
					c0.3,0.1,0.8,0.1,1.2,0c3.1-0.4,6.2-0.9,9.3-1.3c0.1,0.2,0.1,0.4,0.2,0.6c-2.4,1.1-4.8,2.1-7.1,3.2c0,0.1,0.1,0.3,0.1,0.4
					c1.2,0.3,2.8,0.2,3.5,0.9c1.2,1.2,2.3,0.6,3.5,0.8c0.2,0,0.6,0,0.7-0.2c1-1.8,2.8-1.1,4.5-1.6c-0.2,0.5-0.3,0.7-0.5,1.2
					c0.6,0.3,1.2,0.6,1.9,0.9c-0.1,0.2,0,0.6-0.2,0.6c-0.6,0.3-1.3,0.6-1.9,0.8c-1.4,0.4-2.8,0.8-4.2,1.5c0.9,0.9,1.9,0.5,2.8,0.2
					c1.5-0.5,2.9-0.9,4.2,0.5c0.3,0.3,1.1,0.4,1.6,0.3c2.3-0.4,4.6-0.9,7.3-1.5c0.1,0.9,0.1,1.6,0.2,2.6c0.3,0.1,0.8,0.4,1.4,0.7
					c-1.6,1.6-4.1,1.3-5.6,3c1-0.1,1.9-0.2,3-0.3c-0.4,0.4-0.7,0.7-1.2,1.4c3.7-0.3,6.5-2.3,10.1-2.9c-2.5,2.3-5.8,2.3-8.2,4.1
					c1,2.9,3.4,0.6,5.1,1.5c-0.9,0.9-0.5,1.8,0.4,2.2c2.5,1.1,4,3.3,5.9,5.1c0.8,0.7,1.2,1.8,1.7,2.8c0.5,0.9,0.8,2.1,1.6,2.6
					c2.1,1.3,2.8,3.6,4.1,5.5c1.4,2.2,2.5,4.6,3.4,7.1c0.8,2.2,2.6,3.8,4.8,5.1c-1.3,0.8-1.4,1.9-1.1,3.4c0.6,3.1,2.1,5.3,5,6.4
					c0,0.3,0.1,0.5,0,0.5c-0.8,0.8-2.2,1.5-2.2,2.3c0,2.2-1.3,4.5,0.2,6.7c0.9,1.2,1.5,2.6,2.3,3.8c0.6,0.9,0.4,1.7-0.7,1.8
					c-0.9,0.1-1.9,0.2-2.9,0.2c-1.3-0.1-2.1,0.2-3.1,1.2c-1,0.9-2.7,1.1-4.1,1.7c-5.6,2.2-11.2,4.5-16.9,6.7
					c-2.8,1.1-5.6,2.2-8.4,3.4c-0.7,0.3-1.2,0.8-2.3,1.5c1.1,0.3,1.6,0.5,2.4,0.7c-0.7,0.3-1.1,0.5-1.5,0.6
					c-13.6,4.9-27.7,7.5-42.2,8.1c-7,0.3-14.1,0.6-21.1,0.8c-10.1,0.4-20.3,0.7-30.4,1.1c-6.5,0.3-12.9,0.8-19.4,1.3
					c-1.9,0.1-3.8,0-5.7-0.5c-2.7-0.8-5.4-1.2-8.2-1.6c-2-0.3-4.3-0.7-6.1-0.1c-1.9,0.7-3.7,0-5.6,0.8c-1.3,0.6-3.2-0.4-4.1-1.8
					c-0.9-1.3-2-2.2-3.3-3c-0.9-0.5-2.1-1-1.9-2.5c0-0.3-0.5-0.7-0.9-0.9C632.7,179.2,631.7,178.6,630.6,177.9z M807.6,163.6
					c-2.4-1.4-3.6-1.3-5.2,0c-0.3,0.3-0.7,0.6-1.2,0.7c-1.7,0.5-3.4,0.8-5,1.3c-1.1,0.4-2.4,0.7-3.1,2.3
					C798.3,167.6,802.6,165,807.6,163.6z M813.5,162.4c-1.5-1.4-2.9-1.1-4.3-0.9c-1.5,0.2-1.4,0.9-1,2.1
					C810,163.2,811.6,162.8,813.5,162.4z M817.5,150.8c-0.7-0.2-1-0.4-1.2-0.4s-0.6,0.3-0.6,0.5s0.3,0.6,0.4,0.6
					C816.3,151.5,816.5,151.3,817.5,150.8z"/>
			</g>
		</g>
		<path class="st0" d="M575.4,973.7c-1.2,0.7-1.9,1.1-2.9,1.7c0.3,0.4,0.7,0.8,1,1.1c2.5,2.3,5,4.7,7.5,7.1c1,0.9,1.6,2.1,1.5,3.6
			c-0.1,0.5,0.3,1.1,0.4,1.6c0.5,1.2,0.9,2.3,1.3,3.4c-0.2,0.1-0.3,0.3-0.5,0.4c-1.2-0.6-2.5-1.1-3.9-1.7c0.3,2.2,0.3,2.2,2.5,2.7
			c-0.1,0.4-0.1,0.9-0.2,1.2c-1.2-0.6-2.5-1.2-3.6-1.9c-0.1,0.1-0.3,0.3-0.4,0.4c1.2,2.4,2.3,4.9,3.6,7.6c-1,0-1.5-0.1-2.2-0.1
			c-1,1.3-0.6,2.3,0.2,3.6c1.3,1.9,2.4,4,3.5,6.1c-0.9,1.2-1.8,1.1-2.6,0.3c-0.6-0.7-1.2-1.4-1.9-2.2c-0.4-0.5-0.9-0.8-1.5-1.6
			c-0.3,1.4-0.5,2.3-0.8,3.5c-0.5-0.1-0.9-0.1-1.7-0.3c1.2,1.6,2.2,3,3.2,4.2c-1.1-0.2-2.2-0.3-3.4-0.7c-0.6-0.2-1.3-0.4-1.6-0.9
			c-1.1-1.6-2.2-3.4-3-5.1c-1-2.6-3.2-3.2-5.5-4c0.7,1.9,0.8,4.2,3.5,4.7c1.2,0.2,1.9,1.5,2,3c-2.5-0.7-3.5-3.4-6-3.9
			c-0.7,1.2,0.2,1.6,0.8,2.3c1.4,1.6,2.9,3.2,4.2,4.8c0.4,0.7,0.7,1.6,1,2.2c-0.2,0.1-0.3,0.2-0.5,0.4c-1.3-0.9-2.5-1.7-3.8-2.6
			c-0.7-0.6-1.6-1.3-2.4-1.3c-2.8-0.2-4.7-2.2-7-3.4c-0.3-0.2-0.4-0.6-0.6-0.7c-0.3-0.1-1,0-1,0.1c-0.1,0.4,0,0.8,0.1,1.3
			c0,0.2,0.3,0.4,0.5,0.4c1.9,0.1,2.6,1.6,3.6,2.9c0.5,0.6,1.1,1.1,1.7,1.6c2.4,1.9,4.9,3.9,7.3,5.7c0.9,0.7,1.4,1.9,2.9,1.6
			c0.3,0,0.8,0.6,1.3,1c0.7,0.8,1.2,1.6,2.1,2.3c1.6,1.3,3.5,2.5,5,3.9c0.5,0.5,1,1.5,1.1,2.3c0.1,1.4-0.2,2.8-0.4,4.2
			c-1.9,1-4,0.8-5.6-0.7c-2.5-2.3-4.9-4.6-6.6-7.6c-0.3-0.5-1-0.8-1.4-1.3c-1-1-2-2-2.9-3.1c-0.7-1-1.3-1.9-2.7-2.1
			c-0.9-0.1-1.7-0.7-2.9-0.8c0.8,1.5,1.6,3.1,2.5,4.5c-0.1,0.1-0.2,0.2-0.4,0.3c-1.2-1-2.4-1.8-3.4-3c-1.3-1.5-2.6-2.7-4.7-3.4
			c-1.7-0.5-3.1-1.8-4.7-2.8c-1.5-0.9-3-1.7-4.8-2.7c-0.3,0.7-0.6,1.4-0.5,1.7c0.8,1.4,1.6,3.1,3.5,3.3c1.5,0.1,2.5,0.8,3.3,2
			c1.8,2.2,3.9,4,5.5,6.3c1.9,2.5,3.4,5.2,5,7.8c-0.3,0.1-0.5,0.2-0.5,0.1c-1.3-1.1-2.8-1.6-4.3-2.3c-3-1.3-6-2.6-8.5-4.7
			c-3.2-2.7-6.3-5.4-9.7-7.7c-3.6-2.3-6.6-5.1-9.8-7.8c-0.3-0.3-0.6-0.5-0.9-0.6c-1,1.6-0.3,2.7,2.8,5.3c0.3-0.2,0.6-0.4,0.9-0.7
			c0.2,0.1,0.3,0.2,0.4,0.3c1.3,1.7,2.6,3.4,4,5c1.1,1.3,1.9,2.8,2.2,4.5c0.2,0.8,0.5,1.6,0.9,2.1c0.9,1.1,0.9,2.2,0.6,3.8
			c-3-2.4-5.7-4.6-8.6-6.8c-0.2,0.1-0.3,0.3-0.5,0.4c1.1,1.2,2.4,2.4,3.4,3.7c1,1.3,1.9,2.8,2.9,4.4c-1.3-0.6-2.3-1-3.2-1.5
			c-1.8-0.8-3.2-1.9-4.7-3.1c-2.7-2.1-4.9-4.8-8.3-5.8c-0.4-0.2-0.9-0.4-1.3-0.3c-1.7,0.2-3.1-0.4-4.4-1.5c-0.3-0.3-0.8-0.5-1.2-0.6
			c-5-1.1-8.5-4.2-11.9-7.7c-2.1-2.2-4.2-4.1-5.6-6.8c-0.4-0.8-1.3-1.2-1.8-1.9c-2.9-3.5-6.2-6.9-8.9-10.7c-1.3-1.8-2.7-3.7-3.4-6.1
			c-0.6-1.9-2.1-3.5-3.5-5.2c-1.1-1.4-2.2-2.8-3.4-4c-1.8-1.9-3.8-3.7-5.7-5.4c-2.4-2.2-4.8-4.4-7.2-6.7c-3.2-3.2-6.3-6.6-9.4-9.9
			c-0.4-0.5-1.2-0.7-1.8-1.1c-0.6-0.4-1.3-0.7-1.8-1.2c-5.1-4.9-10.8-9.3-15.3-14.9c-2.7-3.4-5.5-6.8-8.2-10.3
			c-3.8-4.8-7.9-9.7-11.6-14.6c-2.5-3.4-4.7-7.2-7.1-10.8c-4.6-6.9-8.5-14.3-13.7-20.7c-2-2.4-3.6-5.1-5.3-7.7
			c-0.7-1-1.4-1.9-2.2-2.9c-0.7-0.9-1.4-1.7-1.5-2.9c0-0.6-0.6-1.3-0.9-1.8c-1.6-2.7-3.3-5.3-4.9-8c-0.9-1.4-1.6-2.9-2.5-4.3
			c-1.1-1.7-2.1-3.4-2-5.5c0-1-0.4-2-0.7-3c-0.5-2.2-1-4.2-1.4-6.4c-0.1-0.7,0-1.4,0.2-2.1c0.6-4,2.2-7.7,3.5-11.4
			c0.8-2.1,1.3-4.1,1.8-6.1c0.6-2.4,2.1-4.4,3.9-5.9c2-1.7,3.5-3.6,4.6-5.9c0.7-1.4,1.6-2.5,2.7-3.7c2.7-2.9,5.5-5.8,8.2-8.6
			c0.5-0.4,1-0.8,1.5-1.1c1.5-0.9,2.7-0.8,3.4,0.7c1.4,2.6,3.5,4.8,5.8,6.5c5,3.7,9.6,7.8,14.1,12c4.7,4.5,9.7,8.6,14.4,13
			c1.8,1.7,3.2,4,4.7,6c4,4.9,6.5,10.8,9.2,16.4c3.5,6.9,7.8,13.1,12.3,19.3c1.3,1.9,2.4,3.9,3.8,5.9c5.5,7.5,11.1,15.1,18.5,21
			c1.8,1.4,3.3,3,4.9,4.5c9.1,8.6,19.1,15.9,29.6,22.7c5,3.3,10,6.9,14.6,10.9c4.3,3.7,8.9,6.8,13.4,10.2c1.5,1.1,2.8,2.4,4,3.8
			c2.5,3.1,5.7,5.5,8.8,8.1c5,4.2,10,8.5,14.8,12.9C573.5,970.7,574.2,972.2,575.4,973.7z M570.8,1004.8c-0.1,0.9-0.6,1.5-0.4,2
			c0.7,1.5,1.4,3.1,3,4c-0.4-1.7-0.9-3.3-1.5-4.9C571.7,1005.5,571.4,1005.3,570.8,1004.8z"/>
	</g>
</g>
</svg>
