<svg id="Layer_1" data-name="Layer 1" xmlns="http://www.w3.org/2000/svg" viewBox="0 0 712.32 692.54"><defs><style>.cls-1{fill:#fff;}.cls-2{fill:#fdf4ea;}.cls-3{fill:#fcead4;}.cls-4{fill:#efa345;}.cls-5{fill:#fcead6;}</style></defs><g id="LnkG6e.tif"><path class="cls-1" d="M394,5.36q159.45,0,318.89-.1c3.76,0,4.74.55,4.74,4.59q-.2,337.7,0,675.38c0,4.32-1.14,4.86-5,4.86q-351.07-.15-702.15,0c-3.92,0-5-.57-5-4.87q.21-337.39,0-674.81C5.38,6,6.57,5.26,10.7,5.26q179.1.18,358.19.1a1.1,1.1,0,0,1-.2,1.59,72.34,72.34,0,0,1-16.82,2.16,533.83,533.83,0,0,0-121,16c-26.54,6.73-50.72,18.9-71.59,37.25-7.54,6.63-15,13.33-22.69,19.85-9.48,8.07-16.67,18.19-23.84,28.2C92.19,139.16,73.29,169,55,199.16c-7.74,12.77-11.89,27.49-17.14,41.52-9.76,26.06-14.06,53.54-20.58,80.44-4.76,19.62-6.93,39.58-9,59.58-.55,5.34.87,10.55,1.08,15.86,1.27,32.25,5.35,64,20.73,93a309.26,309.26,0,0,0,29.36,44.66c10.23,13.2,20.28,26.51,31,39.31,14.32,17,30.79,31.24,50.39,42,13.8,7.55,26.87,16.44,41.11,23.25,3.78,1.8,7.53,3.89,11.69,4.33,4.6.49,6.65,4.7,10.61,6.18A715.43,715.43,0,0,0,282,673.39c26.31,6.52,53.09,8.15,79.87,10.87,30.09,3.06,58.88-3.23,88.06-7.94,26.66-4.29,51.94-13,76.56-23.47,17-7.2,31.66-18.82,45.49-31,32-28.15,60.33-59.86,86.36-93.55,9.75-12.61,17-26.84,24.28-41.09,14.83-29,20.56-60.63,28.11-91.73,3.41-14.05,3.1-28.53,1.75-43A624.58,624.58,0,0,0,696.1,259c-8.88-35.55-22.1-69.46-40.83-101-7.55-12.74-17.38-23.93-27-35.18-32.39-37.86-73-64.38-118.13-84.15-31.5-13.81-64.08-24.8-98.31-30-3.94-1.06-7.95-.45-11.94-.56-1.92,0-3.86,0-5.6-1A1.18,1.18,0,0,1,394,5.36Z"/><path class="cls-2" d="M368.9,6.57V5.36H383.7a1.28,1.28,0,0,1-.51,1.79C378.37,8.41,373.56,9.26,368.9,6.57Z"/><path class="cls-3" d="M383.7,6.5q0-.57,0-1.14H394c0,.34,0,.68,0,1C390.59,8.94,387.16,8.83,383.7,6.5Z"/><path class="cls-4" d="M383.7,6.5,394,6.37l5.45.25c4.17,1.3,8.57-.4,12.74,1C439.37,10.77,464.87,20,490.47,29,524.83,41.11,556,59.08,585.3,80.32c20.47,14.86,37.75,33.37,53.81,53,30.44,37.18,46.78,80.87,58.68,126.52a552.23,552.23,0,0,1,17.1,105.45,108.34,108.34,0,0,1-2.42,29.44c-4.8,22.24-9.54,44.6-17.14,66a267.35,267.35,0,0,1-48.41,84.46c-24.7,29.15-50.09,57.55-79.27,82.33-21.42,18.18-46,30.22-72.68,39-22.5,7.43-45.82,10.39-68.73,15.52-29.64,6.63-59.23,4.11-89,1.71-46.82-3.77-91.37-16.78-134.61-34.11-13.43-5.38-27.09-11.06-39.44-19.11-19.18-12.52-40.48-21.8-57.12-38.17a361.82,361.82,0,0,1-31.93-36.32c-16.51-21.28-33.28-42.46-45.8-66.47C17.81,469.38,12.29,447.53,10,424.89c-1.35-13.59-3-27.24-2.88-40.85a239.12,239.12,0,0,1,5.41-48C18.26,309.13,23.22,282,31.28,255.7c8.16-26.6,18-52.61,33.88-76.11,19.41-28.76,36-59.59,58.82-85.84,35.14-40.43,78.29-67.55,132.33-76.09C293.67,11.76,331.1,7.55,368.9,6.57Z"/><path class="cls-5" d="M412.18,7.6c-4.28.09-8.58.51-12.74-1C403.7,6.75,408.08,5.4,412.18,7.6Z"/></g></svg>