<?xml version="1.0" encoding="utf-8"?>
<!-- Generator: Adobe Illustrator 24.0.0, SVG Export Plug-In . SVG Version: 6.00 Build 0)  -->
<svg version="1.1" xmlns="http://www.w3.org/2000/svg" xmlns:xlink="http://www.w3.org/1999/xlink" x="0px" y="0px"
	 viewBox="0 0 146.5 251.3" style="enable-background:new 0 0 146.5 251.3;" xml:space="preserve">
<style type="text/css">
	.st0{fill:#10784F;stroke:#10784F;stroke-width:0.25;stroke-miterlimit:10;}
	.st1{fill-rule:evenodd;clip-rule:evenodd;fill:#10784F;}
</style>
<g id="Capa_1">
	<g>
		<g>
			<path class="st0" d="M143.9,84.5c-21.4-29.4-47.1-55.7-71-82.6c-2.4-2.4-7.3-2.4-9.8,0C47.8,19,31.9,35.5,17.8,53.2
				C9.8,63,1.9,71.6,0.1,83.8c-0.6,3.1,4.3,3.7,5.5,0.6C8.6,75.3,23.3,63,30,56.3C42.3,42.8,54.5,29.4,68,16.5
				c20.8,25.1,44.1,49,63,75.3C136.5,100.4,150,92.4,143.9,84.5z"/>
		</g>
	</g>
	<g>
		<g>
			<g>
				<path class="st1" d="M66.8,191.4c0.9,1,1.4,2.3,2.9,2.6c1.4,1.5-0.3,4.3,1.6,5.6c-1.3,0.3,0.5,2-1.3,2c2.6,3.4,3.6,8.9,2.6,13.7
					c0.8,3.3,2,7.4,0.7,10.1c1.5,1.3,0.1,1.7,0.7,3.6c-0.6,0.1-0.6,0.9-1.6,0.7c-0.2,1.4-0.7,2.6-1.3,3.6c-2.4,0.2-5.9,2.2-9.2,0.7
					c0.4-1.9-0.8-2.2-2-2.6c0.4-2.7,2.4-1.8,3.3-3.9c0-1.2-0.9-1.5-1.3-2.3c1-1.4,1.4-4,1.3-5.6c-0.8,0-1.6,0.1-2-0.3
					c1.5-4.5-3.5-7.5-2.9-11.5c0,0,0.6,0.4,0.7,0.3c0,0,0.4-4.2,2.6-2.9c-0.1-2.4,1.3-3.3,1.6-5.2c-1.3,0.3-1.5,1.8-2.9,2
					c1.5,0.8-0.6,0.5-0.3,2c-1-0.4-1.4,0.2-2.6-0.3c0.5-0.4,0.2-1.5,0.7-2c-1.2-1-2.6-1.8-2.9-3.6c1.1-1.2,0.7-3,1.6-4.9
					C60.5,192.7,62.9,190.9,66.8,191.4z"/>
			</g>
			<g>
				<path class="st1" d="M66.6,189.2c0.9,1,1.4,2.3,2.9,2.6c1.4,1.5-0.3,4.3,1.6,5.6c-1.3,0.3,0.5,2-1.3,2c2.6,3.4,3.6,8.9,2.6,13.7
					c0.8,3.3,2,7.4,0.7,10.1c1.5,1.3,0.1,1.7,0.7,3.6c-0.6,0.1-0.6,0.9-1.6,0.7c-0.2,1.4-0.7,2.6-1.3,3.6c-2.4,0.2-5.9,2.2-9.2,0.7
					c0.4-1.9-0.8-2.2-2-2.6c0.4-2.7,2.4-1.8,3.3-3.9c0-1.2-0.9-1.5-1.3-2.3c1-1.3,1.4-4,1.3-5.6c-0.8,0-1.6,0.1-2-0.3
					c1.5-4.5-3.5-7.5-2.9-11.5c0,0,0.6,0.4,0.7,0.3c0,0,0.4-4.2,2.6-2.9c-0.1-2.4,1.3-3.3,1.6-5.2c-1.3,0.3-1.5,1.8-2.9,2
					c1.5,0.8-0.6,0.5-0.3,2c-1-0.4-1.4,0.2-2.6-0.3c0.5-0.4,0.2-1.5,0.7-2c-1.2-1-2.6-1.8-2.9-3.6c1.1-1.2,0.7-3,1.6-4.9
					C60.4,190.5,62.7,188.8,66.6,189.2z"/>
			</g>
			<g>
				<path class="st1" d="M66.4,187.1c0.9,1,1.4,2.3,2.9,2.6c1.4,1.5-0.3,4.3,1.6,5.6c-1.3,0.3,0.5,2-1.3,2c2.6,3.4,3.6,8.9,2.6,13.7
					c0.8,3.3,2,7.4,0.7,10.1c1.5,1.3,0.1,1.7,0.7,3.6c-0.6,0.1-0.6,0.9-1.6,0.7c-0.2,1.4-0.7,2.6-1.3,3.6c-2.4,0.2-5.9,2.2-9.2,0.7
					c0.4-1.9-0.8-2.2-2-2.6c0.4-2.7,2.4-1.8,3.3-3.9c0-1.2-0.9-1.5-1.3-2.3c1-1.3,1.4-4,1.3-5.6c-0.8,0-1.6,0.1-2-0.3
					c1.5-4.5-3.5-7.5-2.9-11.5c0,0,0.6,0.4,0.7,0.3c0,0,0.4-4.2,2.6-2.9c-0.1-2.4,1.3-3.3,1.6-5.2c-1.3,0.3-1.5,1.8-2.9,2
					c1.5,0.8-0.6,0.5-0.3,2c-1-0.4-1.4,0.2-2.6-0.3c0.5-0.4,0.2-1.5,0.7-2c-1.2-1-2.6-1.8-2.9-3.6c1.1-1.2,0.7-3,1.6-4.9
					C60.2,188.4,62.5,186.6,66.4,187.1z"/>
			</g>
			<g>
				<path class="st1" d="M66.3,184.9c0.9,1,1.4,2.3,2.9,2.6c1.4,1.5-0.3,4.3,1.6,5.6c-1.3,0.3,0.5,2-1.3,2c2.6,3.4,3.6,8.9,2.6,13.7
					c0.8,3.3,2,7.4,0.7,10.1c1.5,1.3,0.1,1.7,0.7,3.6c-0.6,0.1-0.6,0.9-1.6,0.7c-0.2,1.4-0.7,2.6-1.3,3.6c-2.4,0.2-5.9,2.2-9.2,0.7
					c0.4-1.9-0.8-2.2-2-2.6c0.4-2.7,2.4-1.8,3.3-3.9c0-1.2-0.9-1.5-1.3-2.3c1-1.4,1.4-4,1.3-5.6c-0.8,0-1.6,0.1-2-0.3
					c1.5-4.5-3.5-7.5-2.9-11.5c0,0,0.6,0.4,0.7,0.3c0,0,0.4-4.2,2.6-2.9c-0.1-2.4,1.3-3.3,1.6-5.2c-1.3,0.3-1.5,1.8-2.9,2
					c1.5,0.8-0.6,0.5-0.3,2c-1-0.4-1.4,0.2-2.6-0.3c0.5-0.4,0.2-1.5,0.7-2c-1.2-1-2.6-1.8-2.9-3.6c1.1-1.2,0.7-3,1.6-4.9
					C60.1,186.2,62.4,184.5,66.3,184.9z"/>
			</g>
			<g>
				<path class="st1" d="M66.1,182.8c0.9,1,1.4,2.3,2.9,2.6c1.4,1.5-0.3,4.3,1.6,5.6c-1.3,0.3,0.5,2-1.3,2c2.6,3.4,3.6,8.9,2.6,13.7
					c0.8,3.3,2,7.4,0.7,10.1c1.5,1.3,0.1,1.7,0.7,3.6c-0.6,0.1-0.6,0.9-1.6,0.7c-0.2,1.4-0.7,2.6-1.3,3.6c-2.4,0.2-5.9,2.2-9.2,0.7
					c0.4-1.9-0.8-2.2-2-2.6c0.4-2.7,2.4-1.8,3.3-3.9c0-1.2-0.9-1.5-1.3-2.3c1-1.4,1.4-4,1.3-5.6c-0.8,0-1.6,0.1-2-0.3
					c1.5-4.5-3.5-7.5-2.9-11.5c0,0,0.6,0.4,0.7,0.3c0,0,0.4-4.2,2.6-2.9c-0.1-2.4,1.3-3.3,1.6-5.2c-1.3,0.3-1.5,1.8-2.9,2
					c1.5,0.8-0.6,0.5-0.3,2c-1-0.4-1.4,0.2-2.6-0.3c0.5-0.4,0.2-1.5,0.7-2c-1.2-1-2.6-1.8-2.9-3.6c1.1-1.2,0.7-3,1.6-4.9
					C59.9,184.1,62.2,182.3,66.1,182.8z"/>
			</g>
			<g>
				<path class="st1" d="M66,180.6c0.9,1,1.4,2.3,2.9,2.6c1.4,1.5-0.3,4.3,1.6,5.6c-1.3,0.3,0.5,2-1.3,2c2.6,3.4,3.6,8.9,2.6,13.7
					c0.8,3.3,2,7.4,0.7,10.1c1.5,1.3,0.1,1.7,0.7,3.6c-0.6,0.1-0.6,0.9-1.6,0.7c-0.2,1.4-0.7,2.6-1.3,3.6c-2.4,0.2-5.9,2.2-9.2,0.7
					c0.4-1.9-0.8-2.2-2-2.6c0.4-2.7,2.4-1.8,3.3-3.9c0-1.2-0.9-1.5-1.3-2.3c1-1.3,1.4-4,1.3-5.6c-0.8,0-1.6,0.1-2-0.3
					c1.5-4.5-3.5-7.5-2.9-11.5c0,0,0.6,0.4,0.7,0.3c0,0,0.4-4.2,2.6-2.9c-0.1-2.4,1.3-3.3,1.6-5.2c-1.3,0.3-1.5,1.8-2.9,2
					c1.5,0.8-0.6,0.5-0.3,2c-1-0.4-1.4,0.2-2.6-0.3c0.5-0.4,0.2-1.5,0.7-2c-1.2-1-2.6-1.8-2.9-3.6c1.1-1.2,0.7-3,1.6-4.9
					C59.7,181.9,62.1,180.2,66,180.6z"/>
			</g>
			<g>
				<path class="st1" d="M65.8,178.5c0.9,1,1.4,2.3,2.9,2.6c1.4,1.5-0.3,4.3,1.6,5.6c-1.3,0.3,0.5,2-1.3,2c2.6,3.4,3.6,8.9,2.6,13.7
					c0.8,3.3,2,7.4,0.7,10.1c1.5,1.3,0.1,1.7,0.7,3.6c-0.6,0.1-0.6,0.9-1.6,0.7c-0.2,1.4-0.7,2.6-1.3,3.6c-2.4,0.2-5.9,2.2-9.2,0.7
					c0.4-1.9-0.8-2.2-2-2.6c0.4-2.7,2.4-1.8,3.3-3.9c0-1.2-0.9-1.5-1.3-2.3c1-1.3,1.4-4,1.3-5.6c-0.8,0-1.6,0.1-2-0.3
					c1.5-4.5-3.5-7.5-2.9-11.5c0,0,0.6,0.4,0.7,0.3c0,0,0.4-4.2,2.6-2.9c-0.1-2.4,1.3-3.3,1.6-5.2c-1.3,0.3-1.5,1.8-2.9,2
					c1.5,0.8-0.6,0.5-0.3,2c-1-0.4-1.4,0.2-2.6-0.3c0.5-0.4,0.2-1.5,0.7-2c-1.2-1-2.6-1.8-2.9-3.6c1.1-1.2,0.7-3,1.6-4.9
					C59.6,179.7,61.9,178,65.8,178.5z"/>
			</g>
			<g>
				<path class="st1" d="M65.7,176.3c0.9,1,1.4,2.3,2.9,2.6c1.4,1.5-0.3,4.3,1.6,5.6c-1.3,0.3,0.5,2-1.3,2c2.6,3.4,3.6,8.9,2.6,13.7
					c0.8,3.3,2,7.4,0.7,10.1c1.5,1.3,0.1,1.7,0.7,3.6c-0.6,0.1-0.6,0.9-1.6,0.7c-0.2,1.4-0.7,2.6-1.3,3.6c-2.4,0.2-5.9,2.2-9.2,0.7
					c0.4-1.9-0.8-2.2-2-2.6c0.4-2.7,2.4-1.8,3.3-3.9c0-1.2-0.9-1.5-1.3-2.3c1-1.4,1.4-4,1.3-5.6c-0.8,0-1.6,0.1-2-0.3
					c1.5-4.5-3.5-7.5-2.9-11.5c0,0,0.6,0.4,0.7,0.3c0,0,0.4-4.2,2.6-2.9c-0.1-2.4,1.3-3.3,1.6-5.2c-1.3,0.3-1.5,1.8-2.9,2
					c1.5,0.8-0.6,0.5-0.3,2c-1-0.4-1.4,0.2-2.6-0.3c0.5-0.4,0.2-1.5,0.7-2c-1.2-1-2.6-1.8-2.9-3.6c1.1-1.2,0.7-3,1.6-4.9
					C59.4,177.6,61.8,175.9,65.7,176.3z"/>
			</g>
			<g>
				<path class="st1" d="M65.5,174.1c0.9,1,1.4,2.3,2.9,2.6c1.4,1.5-0.3,4.3,1.6,5.6c-1.3,0.3,0.5,2-1.3,2c2.6,3.4,3.6,8.9,2.6,13.7
					c0.8,3.3,2,7.4,0.7,10.1c1.5,1.3,0.1,1.7,0.7,3.6c-0.6,0.1-0.6,0.9-1.6,0.7c-0.2,1.4-0.7,2.6-1.3,3.6c-2.4,0.2-5.9,2.2-9.2,0.7
					c0.4-1.9-0.8-2.2-2-2.6c0.4-2.7,2.4-1.8,3.3-3.9c0-1.2-0.9-1.5-1.3-2.3c1-1.4,1.4-4,1.3-5.6c-0.8,0-1.6,0.1-2-0.3
					c1.5-4.5-3.5-7.5-2.9-11.5c0,0,0.6,0.4,0.7,0.3c0,0,0.4-4.2,2.6-2.9c-0.1-2.4,1.3-3.3,1.6-5.2c-1.3,0.3-1.5,1.8-2.9,2
					c1.5,0.8-0.6,0.5-0.3,2c-1-0.4-1.4,0.2-2.6-0.3c0.5-0.4,0.2-1.5,0.7-2c-1.2-1-2.6-1.8-2.9-3.6c1.1-1.2,0.7-3,1.6-4.9
					C59.3,175.4,61.6,173.7,65.5,174.1z"/>
			</g>
			<g>
				<path class="st1" d="M65.3,172c0.9,1,1.4,2.3,2.9,2.6c1.4,1.5-0.3,4.3,1.6,5.6c-1.3,0.3,0.5,2-1.3,2c2.6,3.4,3.6,8.9,2.6,13.7
					c0.8,3.3,2,7.4,0.7,10.1c1.5,1.3,0.1,1.7,0.7,3.6c-0.6,0.1-0.6,0.9-1.6,0.7c-0.2,1.4-0.7,2.6-1.3,3.6c-2.4,0.2-5.9,2.2-9.2,0.7
					c0.4-1.9-0.8-2.2-2-2.6c0.4-2.7,2.4-1.8,3.3-3.9c0-1.2-0.9-1.5-1.3-2.3c1-1.3,1.4-4,1.3-5.6c-0.8,0-1.6,0.1-2-0.3
					c1.5-4.5-3.5-7.5-2.9-11.5c0,0,0.6,0.4,0.7,0.3c0,0,0.4-4.2,2.6-2.9c-0.1-2.4,1.3-3.3,1.6-5.2c-1.3,0.3-1.5,1.8-2.9,2
					c1.5,0.8-0.6,0.5-0.3,2c-1-0.4-1.4,0.2-2.6-0.3c0.5-0.4,0.2-1.5,0.7-2c-1.2-1-2.6-1.8-2.9-3.6c1.1-1.2,0.7-3,1.6-4.9
					C59.1,173.3,61.4,171.5,65.3,172z"/>
			</g>
			<g>
				<path class="st1" d="M65.2,169.8c0.9,1,1.4,2.3,2.9,2.6c1.4,1.5-0.3,4.3,1.6,5.6c-1.3,0.3,0.5,2-1.3,2c2.6,3.4,3.6,8.9,2.6,13.7
					c0.8,3.3,2,7.4,0.7,10.1c1.5,1.3,0.1,1.7,0.7,3.6c-0.6,0.1-0.6,0.9-1.6,0.7c-0.2,1.4-0.7,2.6-1.3,3.6c-2.4,0.2-5.9,2.2-9.2,0.7
					c0.4-1.9-0.8-2.2-2-2.6c0.4-2.7,2.4-1.8,3.3-3.9c0-1.2-0.9-1.5-1.3-2.3c1-1.4,1.4-4,1.3-5.6c-0.8,0-1.6,0.1-2-0.3
					c1.5-4.5-3.5-7.5-2.9-11.5c0,0,0.6,0.4,0.7,0.3c0,0,0.4-4.2,2.6-2.9c-0.1-2.4,1.3-3.3,1.6-5.2c-1.3,0.3-1.5,1.8-2.9,2
					c1.5,0.8-0.6,0.5-0.3,2c-1-0.4-1.4,0.2-2.6-0.3c0.5-0.4,0.2-1.5,0.7-2c-1.2-1-2.6-1.8-2.9-3.6c1.1-1.2,0.7-3,1.6-4.9
					C59,171.1,61.3,169.4,65.2,169.8z"/>
			</g>
			<g>
				<path class="st1" d="M65,167.7c0.9,1,1.4,2.3,2.9,2.6c1.4,1.5-0.3,4.3,1.6,5.6c-1.3,0.3,0.5,2-1.3,2c2.6,3.4,3.6,8.9,2.6,13.7
					c0.8,3.3,2,7.4,0.7,10.1c1.5,1.3,0.1,1.7,0.7,3.6c-0.6,0.1-0.6,0.9-1.6,0.7c-0.2,1.4-0.7,2.6-1.3,3.6c-2.4,0.2-5.9,2.2-9.2,0.7
					c0.4-1.9-0.8-2.2-2-2.6c0.4-2.7,2.4-1.8,3.3-3.9c0-1.2-0.9-1.5-1.3-2.3c1-1.4,1.4-4,1.3-5.6c-0.8,0-1.6,0.1-2-0.3
					c1.5-4.5-3.5-7.5-2.9-11.5c0,0,0.6,0.4,0.7,0.3c0,0,0.4-4.2,2.6-2.9c-0.1-2.4,1.3-3.3,1.6-5.2c-1.3,0.3-1.5,1.8-2.9,2
					c1.5,0.8-0.6,0.5-0.3,2c-1-0.4-1.4,0.2-2.6-0.3c0.5-0.4,0.2-1.5,0.7-2c-1.2-1-2.6-1.8-2.9-3.6c1.1-1.2,0.7-3,1.6-4.9
					C58.8,169,61.1,167.2,65,167.7z"/>
			</g>
			<g>
				<path class="st1" d="M64.9,165.5c0.9,1,1.4,2.3,2.9,2.6c1.4,1.5-0.3,4.3,1.6,5.6c-1.3,0.3,0.5,2-1.3,2c2.6,3.4,3.6,8.9,2.6,13.7
					c0.8,3.3,2,7.4,0.7,10.1c1.5,1.3,0.1,1.7,0.7,3.6c-0.6,0.1-0.6,0.9-1.6,0.7c-0.2,1.4-0.7,2.6-1.3,3.6c-2.4,0.2-5.9,2.2-9.2,0.7
					c0.4-1.9-0.8-2.2-2-2.6c0.4-2.7,2.4-1.8,3.3-3.9c0-1.2-0.9-1.5-1.3-2.3c1-1.3,1.4-4,1.3-5.6c-0.8,0-1.6,0.1-2-0.3
					c1.5-4.5-3.5-7.5-2.9-11.5c0,0,0.6,0.4,0.7,0.3c0,0,0.4-4.2,2.6-2.9c-0.1-2.4,1.3-3.3,1.6-5.2c-1.3,0.3-1.5,1.8-2.9,2
					c1.5,0.8-0.6,0.5-0.3,2c-1-0.4-1.4,0.2-2.6-0.3c0.5-0.4,0.2-1.5,0.7-2c-1.2-1-2.6-1.8-2.9-3.6c1.1-1.2,0.7-3,1.6-4.9
					C58.6,166.8,61,165.1,64.9,165.5z"/>
			</g>
			<g>
				<path class="st1" d="M64.7,163.4c0.9,1,1.4,2.3,2.9,2.6c1.4,1.5-0.3,4.3,1.6,5.6c-1.3,0.3,0.5,2-1.3,2c2.6,3.4,3.6,8.9,2.6,13.7
					c0.8,3.3,2,7.4,0.7,10.1c1.5,1.3,0.1,1.7,0.7,3.6c-0.6,0.1-0.6,0.9-1.6,0.7c-0.2,1.4-0.7,2.6-1.3,3.6c-2.4,0.2-5.9,2.2-9.2,0.7
					c0.4-1.9-0.8-2.2-2-2.6c0.4-2.7,2.4-1.8,3.3-3.9c0-1.2-0.9-1.5-1.3-2.3c1-1.3,1.4-4,1.3-5.6c-0.8,0-1.6,0.1-2-0.3
					c1.5-4.5-3.5-7.5-2.9-11.5c0,0,0.6,0.4,0.7,0.3c0,0,0.4-4.2,2.6-2.9c-0.1-2.4,1.3-3.3,1.6-5.2c-1.3,0.3-1.5,1.8-2.9,2
					c1.5,0.8-0.6,0.5-0.3,2c-1-0.4-1.4,0.2-2.6-0.3c0.5-0.4,0.2-1.5,0.7-2c-1.2-1-2.6-1.8-2.9-3.6c1.1-1.2,0.7-3,1.6-4.9
					C58.5,164.7,60.8,162.9,64.7,163.4z"/>
			</g>
			<g>
				<path class="st1" d="M64.5,161.2c0.9,1,1.4,2.3,2.9,2.6c1.4,1.5-0.3,4.3,1.6,5.6c-1.3,0.3,0.5,2-1.3,2c2.6,3.4,3.6,8.9,2.6,13.7
					c0.8,3.3,2,7.4,0.7,10.1c1.5,1.3,0.1,1.7,0.7,3.6c-0.6,0.1-0.6,0.9-1.6,0.7c-0.2,1.4-0.7,2.6-1.3,3.6c-2.4,0.2-5.9,2.2-9.2,0.7
					c0.4-1.9-0.8-2.2-2-2.6c0.4-2.7,2.4-1.8,3.3-3.9c0-1.2-0.9-1.5-1.3-2.3c1-1.4,1.4-4,1.3-5.6c-0.8,0-1.6,0.1-2-0.3
					c1.5-4.5-3.5-7.5-2.9-11.5c0,0,0.6,0.4,0.7,0.3c0,0,0.4-4.2,2.6-2.9c-0.1-2.4,1.3-3.3,1.6-5.2c-1.3,0.3-1.5,1.8-2.9,2
					c1.5,0.8-0.6,0.5-0.3,2c-1-0.4-1.4,0.2-2.6-0.3c0.5-0.4,0.2-1.5,0.7-2c-1.2-1-2.6-1.8-2.9-3.6c1.1-1.2,0.7-3,1.6-4.9
					C58.3,162.5,60.7,160.8,64.5,161.2z"/>
			</g>
			<g>
				<path class="st1" d="M64.4,159.1c0.9,1,1.4,2.3,2.9,2.6c1.4,1.5-0.3,4.3,1.6,5.6c-1.3,0.3,0.5,2-1.3,2c2.6,3.4,3.6,8.9,2.6,13.7
					c0.8,3.3,2,7.4,0.7,10.1c1.5,1.3,0.1,1.7,0.7,3.6c-0.6,0.1-0.6,0.9-1.6,0.7c-0.2,1.4-0.7,2.6-1.3,3.6c-2.4,0.2-5.9,2.2-9.2,0.7
					c0.4-1.9-0.8-2.2-2-2.6c0.4-2.7,2.4-1.8,3.3-3.9c0-1.2-0.9-1.5-1.3-2.3c1-1.4,1.4-4,1.3-5.6c-0.8,0-1.6,0.1-2-0.3
					c1.5-4.5-3.5-7.5-2.9-11.5c0,0,0.6,0.4,0.7,0.3c0,0,0.4-4.2,2.6-2.9c-0.1-2.4,1.3-3.3,1.6-5.2c-1.3,0.3-1.5,1.8-2.9,2
					c1.5,0.8-0.6,0.5-0.3,2c-1-0.4-1.4,0.2-2.6-0.3c0.5-0.4,0.2-1.5,0.7-2c-1.2-1-2.6-1.8-2.9-3.6c1.1-1.2,0.7-3,1.6-4.9
					C58.2,160.4,60.5,158.6,64.4,159.1z"/>
			</g>
			<g>
				<path class="st1" d="M64.3,156.9c0.9,1,1.4,2.3,2.9,2.6c1.4,1.5-0.3,4.3,1.6,5.6c-1.3,0.3,0.5,2-1.3,2c2.6,3.4,3.6,8.9,2.6,13.7
					c0.8,3.3,2,7.4,0.7,10.1c1.5,1.3,0.1,1.7,0.7,3.6c-0.6,0.1-0.6,0.9-1.6,0.7c-0.2,1.4-0.7,2.6-1.3,3.6c-2.4,0.2-5.9,2.2-9.2,0.7
					c0.4-1.9-0.8-2.2-2-2.6c0.4-2.7,2.4-1.8,3.3-3.9c0-1.2-0.9-1.5-1.3-2.3c1-1.3,1.4-4,1.3-5.6c-0.8,0-1.6,0.1-2-0.3
					c1.5-4.5-3.5-7.5-2.9-11.5c0,0,0.6,0.4,0.7,0.3c0,0,0.4-4.2,2.6-2.9c-0.1-2.4,1.3-3.3,1.6-5.2c-1.3,0.3-1.5,1.8-2.9,2
					c1.5,0.8-0.6,0.5-0.3,2c-1-0.4-1.4,0.2-2.6-0.3c0.5-0.4,0.2-1.5,0.7-2c-1.2-1-2.6-1.8-2.9-3.6c1.1-1.2,0.7-3,1.6-4.9
					C58.1,158.2,60.4,156.5,64.3,156.9z"/>
			</g>
			<g>
				<path class="st1" d="M64.2,154.7c0.9,1,1.4,2.3,2.9,2.6c1.4,1.5-0.3,4.3,1.6,5.6c-1.3,0.3,0.5,2-1.3,2c2.6,3.4,3.6,8.9,2.6,13.7
					c0.8,3.3,2,7.4,0.7,10.1c1.5,1.3,0.1,1.7,0.7,3.6c-0.6,0.1-0.6,0.9-1.6,0.7c-0.2,1.4-0.7,2.6-1.3,3.6c-2.4,0.2-5.9,2.2-9.2,0.7
					c0.4-1.9-0.8-2.2-2-2.6c0.4-2.7,2.4-1.8,3.3-3.9c0-1.2-0.9-1.5-1.3-2.3c1-1.3,1.4-4,1.3-5.6c-0.8,0-1.6,0.1-2-0.3
					c1.5-4.5-3.5-7.5-2.9-11.5c0,0,0.6,0.4,0.7,0.3c0,0,0.4-4.2,2.6-2.9c-0.1-2.4,1.3-3.3,1.6-5.2c-1.3,0.3-1.5,1.8-2.9,2
					c1.5,0.8-0.6,0.5-0.3,2c-1-0.4-1.4,0.2-2.6-0.3c0.5-0.4,0.2-1.5,0.7-2c-1.2-1-2.6-1.8-2.9-3.6c1.1-1.2,0.7-3,1.6-4.9
					C58,156,60.3,154.3,64.2,154.7z"/>
			</g>
			<g>
				<path class="st1" d="M64.2,152.6c0.9,1,1.4,2.3,2.9,2.6c1.4,1.5-0.3,4.3,1.6,5.6c-1.3,0.3,0.5,2-1.3,2c2.6,3.4,3.6,8.9,2.6,13.7
					c0.8,3.3,2,7.4,0.7,10.1c1.5,1.3,0.1,1.7,0.7,3.6c-0.6,0.1-0.6,0.9-1.6,0.7c-0.2,1.4-0.7,2.6-1.3,3.6c-2.4,0.2-5.9,2.2-9.2,0.7
					c0.4-1.9-0.8-2.2-2-2.6c0.4-2.7,2.4-1.8,3.3-3.9c0-1.2-0.9-1.5-1.3-2.3c1-1.3,1.4-4,1.3-5.6c-0.8,0-1.6,0.1-2-0.3
					c1.5-4.5-3.5-7.5-2.9-11.5c0,0,0.6,0.4,0.7,0.3c0,0,0.4-4.2,2.6-2.9c-0.1-2.4,1.3-3.3,1.6-5.2c-1.3,0.3-1.5,1.8-2.9,2
					c1.5,0.8-0.6,0.5-0.3,2c-1-0.4-1.4,0.2-2.6-0.3c0.5-0.4,0.2-1.5,0.7-2c-1.2-1-2.6-1.8-2.9-3.6c1.1-1.2,0.7-3,1.6-4.9
					C58,153.9,60.3,152.1,64.2,152.6z"/>
			</g>
			<g>
				<path class="st1" d="M64.1,150.4c0.9,1,1.4,2.3,2.9,2.6c1.4,1.5-0.3,4.3,1.6,5.6c-1.3,0.3,0.5,2-1.3,2c2.6,3.4,3.6,8.9,2.6,13.7
					c0.8,3.3,2,7.4,0.7,10.1c1.5,1.3,0.1,1.7,0.7,3.6c-0.6,0.1-0.6,0.9-1.6,0.7c-0.2,1.4-0.7,2.6-1.3,3.6c-2.4,0.2-5.9,2.2-9.2,0.7
					c0.4-1.9-0.8-2.2-2-2.6c0.4-2.7,2.4-1.8,3.3-3.9c0-1.2-0.9-1.5-1.3-2.3c1-1.3,1.4-4,1.3-5.6c-0.8,0-1.6,0.1-2-0.3
					c1.5-4.5-3.5-7.5-2.9-11.5c0,0,0.6,0.4,0.7,0.3c0,0,0.4-4.2,2.6-2.9c-0.1-2.4,1.3-3.3,1.6-5.2c-1.3,0.3-1.5,1.8-2.9,2
					c1.5,0.8-0.6,0.5-0.3,2c-1-0.4-1.4,0.2-2.6-0.3c0.5-0.4,0.2-1.5,0.7-2c-1.2-1-2.6-1.8-2.9-3.6c1.1-1.2,0.7-3,1.6-4.9
					C57.9,151.7,60.2,150,64.1,150.4z"/>
			</g>
			<g>
				<path class="st1" d="M64.1,148.3c0.9,1,1.4,2.3,2.9,2.6c1.4,1.5-0.3,4.3,1.6,5.6c-1.3,0.3,0.5,2-1.3,2c2.6,3.4,3.6,8.9,2.6,13.7
					c0.8,3.3,2,7.4,0.7,10.1c1.5,1.3,0.1,1.7,0.7,3.6c-0.6,0.1-0.6,0.9-1.6,0.7c-0.2,1.4-0.7,2.6-1.3,3.6c-2.4,0.2-5.9,2.2-9.2,0.7
					c0.4-1.9-0.8-2.2-2-2.6c0.4-2.7,2.4-1.8,3.3-3.9c0-1.2-0.9-1.5-1.3-2.3c1-1.3,1.4-4,1.3-5.6c-0.8,0-1.6,0.1-2-0.3
					c1.5-4.5-3.5-7.5-2.9-11.5c0,0,0.6,0.4,0.7,0.3c0,0,0.4-4.2,2.6-2.9c-0.1-2.4,1.3-3.3,1.6-5.2c-1.3,0.3-1.5,1.8-2.9,2
					c1.5,0.8-0.6,0.5-0.3,2c-1-0.4-1.4,0.2-2.6-0.3c0.5-0.4,0.2-1.5,0.7-2c-1.2-1-2.6-1.8-2.9-3.6c1.1-1.2,0.7-3,1.6-4.9
					C57.8,149.6,60.2,147.8,64.1,148.3z"/>
			</g>
			<g>
				<path class="st1" d="M64,146.1c0.9,1,1.4,2.3,2.9,2.6c1.4,1.5-0.3,4.3,1.6,5.6c-1.3,0.3,0.5,2-1.3,2c2.6,3.4,3.6,8.9,2.6,13.7
					c0.8,3.3,2,7.4,0.7,10.1c1.5,1.3,0.1,1.7,0.7,3.6c-0.6,0.1-0.6,0.9-1.6,0.7c-0.2,1.4-0.7,2.6-1.3,3.6c-2.4,0.2-5.9,2.2-9.2,0.7
					c0.4-1.9-0.8-2.2-2-2.6c0.4-2.7,2.4-1.8,3.3-3.9c0-1.2-0.9-1.5-1.3-2.3c1-1.3,1.4-4,1.3-5.6c-0.8,0-1.6,0.1-2-0.3
					c1.5-4.5-3.5-7.5-2.9-11.5c0,0,0.6,0.4,0.7,0.3c0,0,0.4-4.2,2.6-2.9c-0.1-2.4,1.3-3.3,1.6-5.2c-1.3,0.3-1.5,1.8-2.9,2
					c1.5,0.8-0.6,0.5-0.3,2c-1-0.4-1.4,0.2-2.6-0.3c0.5-0.4,0.2-1.5,0.7-2c-1.2-1-2.6-1.8-2.9-3.6c1.1-1.2,0.7-3,1.6-4.9
					C57.8,147.4,60.1,145.7,64,146.1z"/>
			</g>
			<g>
				<path class="st1" d="M63.9,143.9c0.9,1,1.4,2.3,2.9,2.6c1.4,1.5-0.3,4.3,1.6,5.6c-1.3,0.3,0.5,2-1.3,2c2.6,3.4,3.6,8.9,2.6,13.7
					c0.8,3.3,2,7.4,0.7,10.1c1.5,1.3,0.1,1.7,0.7,3.6c-0.6,0.1-0.6,0.9-1.6,0.7c-0.2,1.4-0.7,2.6-1.3,3.6c-2.4,0.2-5.9,2.2-9.2,0.7
					c0.4-1.9-0.8-2.2-2-2.6c0.4-2.7,2.4-1.8,3.3-3.9c0-1.2-0.9-1.5-1.3-2.3c1-1.3,1.4-4,1.3-5.6c-0.8,0-1.6,0.1-2-0.3
					c1.5-4.5-3.5-7.5-2.9-11.5c0,0,0.6,0.4,0.7,0.3c0,0,0.4-4.2,2.6-2.9c-0.1-2.4,1.3-3.3,1.6-5.2c-1.3,0.3-1.5,1.8-2.9,2
					c1.5,0.8-0.6,0.5-0.3,2c-1-0.4-1.4,0.2-2.6-0.3c0.5-0.4,0.2-1.5,0.7-2c-1.2-1-2.6-1.8-2.9-3.6c1.1-1.2,0.7-3,1.6-4.9
					C57.7,145.2,60,143.5,63.9,143.9z"/>
			</g>
			<g>
				<path class="st1" d="M63.9,141.8c0.9,1,1.4,2.3,2.9,2.6c1.4,1.5-0.3,4.3,1.6,5.6c-1.3,0.3,0.5,2-1.3,2c2.6,3.4,3.6,8.9,2.6,13.7
					c0.8,3.3,2,7.4,0.7,10.1c1.5,1.3,0.1,1.7,0.7,3.6c-0.6,0.1-0.6,0.9-1.6,0.7c-0.2,1.4-0.7,2.6-1.3,3.6c-2.4,0.2-5.9,2.2-9.2,0.7
					c0.4-1.9-0.8-2.2-2-2.6c0.4-2.7,2.4-1.8,3.3-3.9c0-1.2-0.9-1.5-1.3-2.3c1-1.3,1.4-4,1.3-5.6c-0.8,0-1.6,0.1-2-0.3
					c1.5-4.5-3.5-7.5-2.9-11.5c0,0,0.6,0.4,0.7,0.3c0,0,0.4-4.2,2.6-2.9c-0.1-2.4,1.3-3.3,1.6-5.2c-1.3,0.3-1.5,1.8-2.9,2
					c1.5,0.8-0.6,0.5-0.3,2c-1-0.4-1.4,0.2-2.6-0.3c0.5-0.4,0.2-1.5,0.7-2c-1.2-1-2.6-1.8-2.9-3.6c1.1-1.2,0.7-3,1.6-4.9
					C57.7,143.1,60,141.3,63.9,141.8z"/>
			</g>
			<g>
				<path class="st1" d="M63.8,139.6c0.9,1,1.4,2.3,2.9,2.6c1.4,1.5-0.3,4.3,1.6,5.6c-1.3,0.3,0.5,2-1.3,2c2.6,3.4,3.6,8.9,2.6,13.7
					c0.8,3.3,2,7.4,0.7,10.1c1.5,1.3,0.1,1.7,0.7,3.6c-0.6,0.1-0.6,0.9-1.6,0.7c-0.2,1.4-0.7,2.6-1.3,3.6c-2.4,0.2-5.9,2.2-9.2,0.7
					c0.4-1.9-0.8-2.2-2-2.6c0.4-2.7,2.4-1.8,3.3-3.9c0-1.2-0.9-1.5-1.3-2.3c1-1.3,1.4-4,1.3-5.6c-0.8,0-1.6,0.1-2-0.3
					c1.5-4.5-3.5-7.5-2.9-11.5c0,0,0.6,0.4,0.7,0.3c0,0,0.4-4.2,2.6-2.9c-0.1-2.4,1.3-3.3,1.6-5.2c-1.3,0.3-1.5,1.8-2.9,2
					c1.5,0.8-0.6,0.5-0.3,2c-1-0.4-1.4,0.2-2.6-0.3c0.5-0.4,0.2-1.5,0.7-2c-1.2-1-2.6-1.8-2.9-3.6c1.1-1.2,0.7-3,1.6-4.9
					C57.6,140.9,59.9,139.2,63.8,139.6z"/>
			</g>
			<g>
				<path class="st1" d="M63.8,137.5c0.9,1,1.4,2.3,2.9,2.6c1.4,1.5-0.3,4.3,1.6,5.6c-1.3,0.3,0.5,2-1.3,2c2.6,3.4,3.6,8.9,2.6,13.7
					c0.8,3.3,2,7.4,0.7,10.1c1.5,1.3,0.1,1.7,0.7,3.6c-0.6,0.1-0.6,0.9-1.6,0.7c-0.2,1.4-0.7,2.6-1.3,3.6c-2.4,0.2-5.9,2.2-9.2,0.7
					c0.4-1.9-0.8-2.2-2-2.6c0.4-2.7,2.4-1.8,3.3-3.9c0-1.2-0.9-1.5-1.3-2.3c1-1.4,1.4-4,1.3-5.6c-0.8,0-1.6,0.1-2-0.3
					c1.5-4.5-3.5-7.5-2.9-11.5c0,0,0.6,0.4,0.7,0.3c0,0,0.4-4.2,2.6-2.9c-0.1-2.4,1.3-3.3,1.6-5.2c-1.3,0.3-1.5,1.8-2.9,2
					c1.5,0.8-0.6,0.5-0.3,2c-1-0.4-1.4,0.2-2.6-0.3c0.5-0.4,0.2-1.5,0.7-2c-1.2-1-2.6-1.8-2.9-3.6c1.1-1.2,0.7-3,1.6-4.9
					C57.5,138.8,59.9,137,63.8,137.5z"/>
			</g>
			<g>
				<path class="st1" d="M63.7,135.3c0.9,1,1.4,2.3,2.9,2.6c1.4,1.5-0.3,4.3,1.6,5.6c-1.3,0.3,0.5,2-1.3,2c2.6,3.4,3.6,8.9,2.6,13.7
					c0.8,3.3,2,7.4,0.7,10.1c1.5,1.3,0.1,1.7,0.7,3.6c-0.6,0.1-0.6,0.9-1.6,0.7c-0.2,1.4-0.7,2.6-1.3,3.6c-2.4,0.2-5.9,2.2-9.2,0.7
					c0.4-1.9-0.8-2.2-2-2.6c0.4-2.7,2.4-1.8,3.3-3.9c0-1.2-0.9-1.5-1.3-2.3c1-1.4,1.4-4,1.3-5.6c-0.8,0-1.6,0.1-2-0.3
					c1.5-4.5-3.5-7.5-2.9-11.5c0,0,0.6,0.4,0.7,0.3c0,0,0.4-4.2,2.6-2.9c-0.1-2.4,1.3-3.3,1.6-5.2c-1.3,0.3-1.5,1.8-2.9,2
					c1.5,0.8-0.6,0.5-0.3,2c-1-0.4-1.4,0.2-2.6-0.3c0.5-0.4,0.2-1.5,0.7-2c-1.2-1-2.6-1.8-2.9-3.6c1.1-1.2,0.7-3,1.6-4.9
					C57.5,136.6,59.8,134.9,63.7,135.3z"/>
			</g>
			<g>
				<path class="st1" d="M63.7,133.1c0.9,1,1.4,2.3,2.9,2.6c1.4,1.5-0.3,4.3,1.6,5.6c-1.3,0.3,0.5,2-1.3,2c2.6,3.4,3.6,8.9,2.6,13.7
					c0.8,3.3,2,7.4,0.7,10.1c1.5,1.3,0.1,1.7,0.7,3.6c-0.6,0.1-0.6,0.9-1.6,0.7c-0.2,1.4-0.7,2.6-1.3,3.6c-2.4,0.2-5.9,2.2-9.2,0.7
					c0.4-1.9-0.8-2.2-2-2.6c0.4-2.7,2.4-1.8,3.3-3.9c0-1.2-0.9-1.5-1.3-2.3c1-1.3,1.4-4,1.3-5.6c-0.8,0-1.6,0.1-2-0.3
					c1.5-4.5-3.5-7.5-2.9-11.5c0,0,0.6,0.4,0.7,0.3c0,0,0.4-4.2,2.6-2.9c-0.1-2.4,1.3-3.3,1.6-5.2c-1.3,0.3-1.5,1.8-2.9,2
					c1.5,0.8-0.6,0.5-0.3,2c-1-0.4-1.4,0.2-2.6-0.3c0.5-0.4,0.2-1.5,0.7-2c-1.2-1-2.6-1.8-2.9-3.6c1.1-1.2,0.7-3,1.6-4.9
					C57.4,134.4,59.8,132.7,63.7,133.1z"/>
			</g>
			<g>
				<path class="st1" d="M63.7,131c0.9,1,1.4,2.3,2.9,2.6c1.4,1.5-0.3,4.3,1.6,5.6c-1.3,0.3,0.5,2-1.3,2c2.6,3.4,3.6,8.9,2.6,13.7
					c0.8,3.3,2,7.4,0.7,10.1c1.5,1.3,0.1,1.7,0.7,3.6c-0.6,0.1-0.6,0.9-1.6,0.7c-0.2,1.4-0.7,2.6-1.3,3.6c-2.4,0.2-5.9,2.2-9.2,0.7
					c0.4-1.9-0.8-2.2-2-2.6c0.4-2.7,2.4-1.8,3.3-3.9c0-1.2-0.9-1.5-1.3-2.3c1-1.4,1.4-4,1.3-5.6c-0.8,0-1.6,0.1-2-0.3
					c1.5-4.5-3.5-7.5-2.9-11.5c0,0,0.6,0.4,0.7,0.3c0,0,0.4-4.2,2.6-2.9c-0.1-2.4,1.3-3.3,1.6-5.2c-1.3,0.3-1.5,1.8-2.9,2
					c1.5,0.8-0.6,0.5-0.3,2c-1-0.4-1.4,0.2-2.6-0.3c0.5-0.4,0.2-1.5,0.7-2c-1.2-1-2.6-1.8-2.9-3.6c1.1-1.2,0.7-3,1.6-4.9
					C57.5,132.3,59.8,130.5,63.7,131z"/>
			</g>
			<g>
				<path class="st1" d="M63.8,128.8c0.9,1,1.4,2.3,2.9,2.6c1.4,1.5-0.3,4.3,1.6,5.6c-1.3,0.3,0.5,2-1.3,2c2.6,3.4,3.6,8.9,2.6,13.7
					c0.8,3.3,2,7.4,0.7,10.1c1.5,1.3,0.1,1.7,0.7,3.6c-0.6,0.1-0.6,0.9-1.6,0.7c-0.2,1.4-0.7,2.6-1.3,3.6c-2.4,0.2-5.9,2.2-9.2,0.7
					c0.4-1.9-0.8-2.2-2-2.6c0.4-2.7,2.4-1.8,3.3-3.9c0-1.2-0.9-1.5-1.3-2.3c1-1.4,1.4-4,1.3-5.6c-0.8,0-1.6,0.1-2-0.3
					c1.5-4.5-3.5-7.5-2.9-11.5c0,0,0.6,0.4,0.7,0.3c0,0,0.4-4.2,2.6-2.9c-0.1-2.4,1.3-3.3,1.6-5.2c-1.3,0.3-1.5,1.8-2.9,2
					c1.5,0.8-0.6,0.5-0.3,2c-1-0.4-1.4,0.2-2.6-0.3c0.5-0.4,0.2-1.5,0.7-2c-1.2-1-2.6-1.8-2.9-3.6c1.1-1.2,0.7-3,1.6-4.9
					C57.6,130.1,59.9,128.4,63.8,128.8z"/>
			</g>
			<g>
				<path class="st1" d="M63.9,126.7c0.9,1,1.4,2.3,2.9,2.6c1.4,1.5-0.3,4.3,1.6,5.6c-1.3,0.3,0.5,2-1.3,2c2.6,3.4,3.6,8.9,2.6,13.7
					c0.8,3.3,2,7.4,0.7,10.1c1.5,1.3,0.1,1.7,0.7,3.6c-0.6,0.1-0.6,0.9-1.6,0.7c-0.2,1.4-0.7,2.6-1.3,3.6c-2.4,0.2-5.9,2.2-9.2,0.7
					c0.4-1.9-0.8-2.2-2-2.6c0.4-2.7,2.4-1.8,3.3-3.9c0-1.2-0.9-1.5-1.3-2.3c1-1.3,1.4-4,1.3-5.6c-0.8,0-1.6,0.1-2-0.3
					c1.5-4.5-3.5-7.5-2.9-11.5c0,0,0.6,0.4,0.7,0.3c0,0,0.4-4.2,2.6-2.9c-0.1-2.4,1.3-3.3,1.6-5.2c-1.3,0.3-1.5,1.8-2.9,2
					c1.5,0.8-0.6,0.5-0.3,2c-1-0.4-1.4,0.2-2.6-0.3c0.5-0.4,0.2-1.5,0.7-2c-1.2-1-2.6-1.8-2.9-3.6c1.1-1.2,0.7-3,1.6-4.9
					C57.7,128,60,126.2,63.9,126.7z"/>
			</g>
			<g>
				<path class="st1" d="M64,124.5c0.9,1,1.4,2.3,2.9,2.6c1.4,1.5-0.3,4.3,1.6,5.6c-1.3,0.3,0.5,2-1.3,2c2.6,3.4,3.6,8.9,2.6,13.7
					c0.8,3.3,2,7.4,0.7,10.1c1.5,1.3,0.1,1.7,0.7,3.6c-0.6,0.1-0.6,0.9-1.6,0.7c-0.2,1.4-0.7,2.6-1.3,3.6c-2.4,0.2-5.9,2.2-9.2,0.7
					c0.4-1.9-0.8-2.2-2-2.6c0.4-2.7,2.4-1.8,3.3-3.9c0-1.2-0.9-1.5-1.3-2.3c1-1.3,1.4-4,1.3-5.6c-0.8,0-1.6,0.1-2-0.3
					c1.5-4.5-3.5-7.5-2.9-11.5c0,0,0.6,0.4,0.7,0.3c0,0,0.4-4.2,2.6-2.9c-0.1-2.4,1.3-3.3,1.6-5.2c-1.3,0.3-1.5,1.8-2.9,2
					c1.5,0.8-0.6,0.5-0.3,2c-1-0.4-1.4,0.2-2.6-0.3c0.5-0.4,0.2-1.5,0.7-2c-1.2-1-2.6-1.8-2.9-3.6c1.1-1.2,0.7-3,1.6-4.9
					C57.7,125.8,60.1,124.1,64,124.5z"/>
			</g>
			<g>
				<path class="st1" d="M64,122.3c0.9,1,1.4,2.3,2.9,2.6c1.4,1.5-0.3,4.3,1.6,5.6c-1.3,0.3,0.5,2-1.3,2c2.6,3.4,3.6,8.9,2.6,13.7
					c0.8,3.3,2,7.4,0.7,10.1c1.5,1.3,0.1,1.7,0.7,3.6c-0.6,0.1-0.6,0.9-1.6,0.7c-0.2,1.4-0.7,2.6-1.3,3.6c-2.4,0.2-5.9,2.2-9.2,0.7
					c0.4-1.9-0.8-2.2-2-2.6c0.4-2.7,2.4-1.8,3.3-3.9c0-1.2-0.9-1.5-1.3-2.3c1-1.4,1.4-4,1.3-5.6c-0.8,0-1.6,0.1-2-0.3
					c1.5-4.5-3.5-7.5-2.9-11.5c0,0,0.6,0.4,0.7,0.3c0,0,0.4-4.2,2.6-2.9c-0.1-2.4,1.3-3.3,1.6-5.2c-1.3,0.3-1.5,1.8-2.9,2
					c1.5,0.8-0.6,0.5-0.3,2c-1-0.4-1.4,0.2-2.6-0.3c0.5-0.4,0.2-1.5,0.7-2c-1.2-1-2.6-1.8-2.9-3.6c1.1-1.2,0.7-3,1.6-4.9
					C57.8,123.6,60.1,121.9,64,122.3z"/>
			</g>
			<g>
				<path class="st1" d="M64.1,120.2c0.9,1,1.4,2.3,2.9,2.6c1.4,1.5-0.3,4.3,1.6,5.6c-1.3,0.3,0.5,2-1.3,2c2.6,3.4,3.6,8.9,2.6,13.7
					c0.8,3.3,2,7.4,0.7,10.1c1.5,1.3,0.1,1.7,0.7,3.6c-0.6,0.1-0.6,0.9-1.6,0.7c-0.2,1.4-0.7,2.6-1.3,3.6c-2.4,0.2-5.9,2.2-9.2,0.7
					c0.4-1.9-0.8-2.2-2-2.6c0.4-2.7,2.4-1.8,3.3-3.9c0-1.2-0.9-1.5-1.3-2.3c1-1.4,1.4-4,1.3-5.6c-0.8,0-1.6,0.1-2-0.3
					c1.5-4.5-3.5-7.5-2.9-11.5c0,0,0.6,0.4,0.7,0.3c0,0,0.4-4.2,2.6-2.9c-0.1-2.4,1.3-3.3,1.6-5.2c-1.3,0.3-1.5,1.8-2.9,2
					c1.5,0.8-0.6,0.5-0.3,2c-1-0.4-1.4,0.2-2.6-0.3c0.5-0.4,0.2-1.5,0.7-2c-1.2-1-2.6-1.8-2.9-3.6c1.1-1.2,0.7-3,1.6-4.9
					C57.9,121.5,60.2,119.7,64.1,120.2z"/>
			</g>
			<g>
				<path class="st1" d="M64.2,118c0.9,1,1.4,2.3,2.9,2.6c1.4,1.5-0.3,4.3,1.6,5.6c-1.3,0.3,0.5,2-1.3,2c2.6,3.4,3.6,8.9,2.6,13.7
					c0.8,3.3,2,7.4,0.7,10.1c1.5,1.3,0.1,1.7,0.7,3.6c-0.6,0.1-0.6,0.9-1.6,0.7c-0.2,1.4-0.7,2.6-1.3,3.6c-2.4,0.2-5.9,2.2-9.2,0.7
					c0.4-1.9-0.8-2.2-2-2.6c0.4-2.7,2.4-1.8,3.3-3.9c0-1.2-0.9-1.5-1.3-2.3c1-1.3,1.4-4,1.3-5.6c-0.8,0-1.6,0.1-2-0.3
					c1.5-4.5-3.5-7.5-2.9-11.5c0,0,0.6,0.4,0.7,0.3c0,0,0.4-4.2,2.6-2.9c-0.1-2.4,1.3-3.3,1.6-5.2c-1.3,0.3-1.5,1.8-2.9,2
					c1.5,0.8-0.6,0.5-0.3,2c-1-0.4-1.4,0.2-2.6-0.3c0.5-0.4,0.2-1.5,0.7-2c-1.2-1-2.6-1.8-2.9-3.6c1.1-1.2,0.7-3,1.6-4.9
					C57.9,119.3,60.3,117.6,64.2,118z"/>
			</g>
			<g>
				<path class="st1" d="M64.2,115.9c0.9,1,1.4,2.3,2.9,2.6c1.4,1.5-0.3,4.3,1.6,5.6c-1.3,0.3,0.5,2-1.3,2c2.6,3.4,3.6,8.9,2.6,13.7
					c0.8,3.3,2,7.4,0.7,10.1c1.5,1.3,0.1,1.7,0.7,3.6c-0.6,0.1-0.6,0.9-1.6,0.7c-0.2,1.4-0.7,2.6-1.3,3.6c-2.4,0.2-5.9,2.2-9.2,0.7
					c0.4-1.9-0.8-2.2-2-2.6c0.4-2.7,2.4-1.8,3.3-3.9c0-1.2-0.9-1.5-1.3-2.3c1-1.3,1.4-4,1.3-5.6c-0.8,0-1.6,0.1-2-0.3
					c1.5-4.5-3.5-7.5-2.9-11.5c0,0,0.6,0.4,0.7,0.3c0,0,0.4-4.2,2.6-2.9c-0.1-2.4,1.3-3.3,1.6-5.2c-1.3,0.3-1.5,1.8-2.9,2
					c1.5,0.8-0.6,0.5-0.3,2c-1-0.4-1.4,0.2-2.6-0.3c0.5-0.4,0.2-1.5,0.7-2c-1.2-1-2.6-1.8-2.9-3.6c1.1-1.2,0.7-3,1.6-4.9
					C58,117.2,60.4,115.4,64.2,115.9z"/>
			</g>
			<g>
				<path class="st1" d="M64.3,113.7c0.9,1,1.4,2.3,2.9,2.6c1.4,1.5-0.3,4.3,1.6,5.6c-1.3,0.3,0.5,2-1.3,2c2.6,3.4,3.6,8.9,2.6,13.7
					c0.8,3.3,2,7.4,0.7,10.1c1.5,1.3,0.1,1.7,0.7,3.6c-0.6,0.1-0.6,0.9-1.6,0.7c-0.2,1.4-0.7,2.6-1.3,3.6c-2.4,0.2-5.9,2.2-9.2,0.7
					c0.4-1.9-0.8-2.2-2-2.6c0.4-2.7,2.4-1.8,3.3-3.9c0-1.2-0.9-1.5-1.3-2.3c1-1.4,1.4-4,1.3-5.6c-0.8,0-1.6,0.1-2-0.3
					c1.5-4.5-3.5-7.5-2.9-11.5c0,0,0.6,0.4,0.7,0.3c0,0,0.4-4.2,2.6-2.9c-0.1-2.4,1.3-3.3,1.6-5.2c-1.3,0.3-1.5,1.8-2.9,2
					c1.5,0.8-0.6,0.5-0.3,2c-1-0.4-1.4,0.2-2.6-0.3c0.5-0.4,0.2-1.5,0.7-2c-1.2-1-2.6-1.8-2.9-3.6c1.1-1.2,0.7-3,1.6-4.9
					C58.1,115,60.4,113.3,64.3,113.7z"/>
			</g>
			<g>
				<path class="st1" d="M64.5,111.6c0.9,1,1.4,2.3,2.9,2.6c1.4,1.5-0.3,4.3,1.6,5.6c-1.3,0.3,0.5,2-1.3,2c2.6,3.4,3.6,8.9,2.6,13.7
					c0.8,3.3,2,7.4,0.7,10.1c1.5,1.3,0.1,1.7,0.7,3.6c-0.6,0.1-0.6,0.9-1.6,0.7c-0.2,1.4-0.7,2.6-1.3,3.6c-2.4,0.2-5.9,2.2-9.2,0.7
					c0.4-1.9-0.8-2.2-2-2.6c0.4-2.7,2.4-1.8,3.3-3.9c0-1.2-0.9-1.5-1.3-2.3c1-1.4,1.4-4,1.3-5.6c-0.8,0-1.6,0.1-2-0.3
					c1.5-4.5-3.5-7.5-2.9-11.5c0,0,0.6,0.4,0.7,0.3c0,0,0.4-4.2,2.6-2.9c-0.1-2.4,1.3-3.3,1.6-5.2c-1.3,0.3-1.5,1.8-2.9,2
					c1.5,0.8-0.6,0.5-0.3,2c-1-0.4-1.4,0.2-2.6-0.3c0.5-0.4,0.2-1.5,0.7-2c-1.2-1-2.6-1.8-2.9-3.6c1.1-1.2,0.7-3,1.6-4.9
					C58.2,112.8,60.6,111.1,64.5,111.6z"/>
			</g>
			<g>
				<path class="st1" d="M64.6,109.4c0.9,1,1.4,2.3,2.9,2.6c1.4,1.5-0.3,4.3,1.6,5.6c-1.3,0.3,0.5,2-1.3,2c2.6,3.4,3.6,8.9,2.6,13.7
					c0.8,3.3,2,7.4,0.7,10.1c1.5,1.3,0.1,1.7,0.7,3.6c-0.6,0.1-0.6,0.9-1.6,0.7c-0.2,1.4-0.7,2.6-1.3,3.6c-2.4,0.2-5.9,2.2-9.2,0.7
					c0.4-1.9-0.8-2.2-2-2.6c0.4-2.7,2.4-1.8,3.3-3.9c0-1.2-0.9-1.5-1.3-2.3c1-1.4,1.4-4,1.3-5.6c-0.8,0-1.6,0.1-2-0.3
					c1.5-4.5-3.5-7.5-2.9-11.5c0,0,0.6,0.4,0.7,0.3c0,0,0.4-4.2,2.6-2.9c-0.1-2.4,1.3-3.3,1.6-5.2c-1.3,0.3-1.5,1.8-2.9,2
					c1.5,0.8-0.6,0.5-0.3,2c-1-0.4-1.4,0.2-2.6-0.3c0.5-0.4,0.2-1.5,0.7-2c-1.2-1-2.6-1.8-2.9-3.6c1.1-1.2,0.7-3,1.6-4.9
					C58.4,110.7,60.7,109,64.6,109.4z"/>
			</g>
			<g>
				<path class="st1" d="M64.8,107.2c0.9,1,1.4,2.3,2.9,2.6c1.4,1.5-0.3,4.3,1.6,5.6c-1.3,0.3,0.5,2-1.3,2c2.6,3.4,3.6,8.9,2.6,13.7
					c0.8,3.3,2,7.4,0.7,10.1c1.5,1.3,0.1,1.7,0.7,3.6c-0.6,0.1-0.6,0.9-1.6,0.7c-0.2,1.4-0.7,2.6-1.3,3.6c-2.4,0.2-5.9,2.2-9.2,0.7
					c0.4-1.9-0.8-2.2-2-2.6c0.4-2.7,2.4-1.8,3.3-3.9c0-1.2-0.9-1.5-1.3-2.3c1-1.4,1.4-4,1.3-5.6c-0.8,0-1.6,0.1-2-0.3
					c1.5-4.5-3.5-7.5-2.9-11.5c0,0,0.6,0.4,0.7,0.3c0,0,0.4-4.2,2.6-2.9c-0.1-2.4,1.3-3.3,1.6-5.2c-1.3,0.3-1.5,1.8-2.9,2
					c1.5,0.8-0.6,0.5-0.3,2c-1-0.4-1.4,0.2-2.6-0.3c0.5-0.4,0.2-1.5,0.7-2c-1.2-1-2.6-1.8-2.9-3.6c1.1-1.2,0.7-3,1.6-4.9
					C58.6,108.5,60.9,106.8,64.8,107.2z"/>
			</g>
			<g>
				<path class="st1" d="M65,105.1c0.9,1,1.4,2.3,2.9,2.6c1.4,1.5-0.3,4.3,1.6,5.6c-1.3,0.3,0.5,2-1.3,2c2.6,3.4,3.6,8.9,2.6,13.7
					c0.8,3.3,2,7.4,0.7,10.1c1.5,1.3,0.1,1.7,0.7,3.6c-0.6,0.1-0.6,0.9-1.6,0.7c-0.2,1.4-0.7,2.6-1.3,3.6c-2.4,0.2-5.9,2.2-9.2,0.7
					c0.4-1.9-0.8-2.2-2-2.6c0.4-2.7,2.4-1.8,3.3-3.9c0-1.2-0.9-1.5-1.3-2.3c1-1.3,1.4-4,1.3-5.6c-0.8,0-1.6,0.1-2-0.3
					c1.5-4.5-3.5-7.5-2.9-11.5c0,0,0.6,0.4,0.7,0.3c0,0,0.4-4.2,2.6-2.9c-0.1-2.4,1.3-3.3,1.6-5.2c-1.3,0.3-1.5,1.8-2.9,2
					c1.5,0.8-0.6,0.5-0.3,2c-1-0.4-1.4,0.2-2.6-0.3c0.5-0.4,0.2-1.5,0.7-2c-1.2-1-2.6-1.8-2.9-3.6c1.1-1.2,0.7-3,1.6-4.9
					C58.8,106.4,61.1,104.7,65,105.1z"/>
			</g>
			<g>
				<path class="st1" d="M65.2,102.9c0.9,1,1.4,2.3,2.9,2.6c1.4,1.5-0.3,4.3,1.6,5.6c-1.3,0.3,0.5,2-1.3,2c2.6,3.4,3.6,8.9,2.6,13.7
					c0.8,3.3,2,7.4,0.7,10.1c1.5,1.3,0.1,1.7,0.7,3.6c-0.6,0.1-0.6,0.9-1.6,0.7c-0.2,1.4-0.7,2.6-1.3,3.6c-2.4,0.2-5.9,2.2-9.2,0.7
					c0.4-1.9-0.8-2.2-2-2.6c0.4-2.7,2.4-1.8,3.3-3.9c0-1.2-0.9-1.5-1.3-2.3c1-1.3,1.4-4,1.3-5.6c-0.8,0-1.6,0.1-2-0.3
					c1.5-4.5-3.5-7.5-2.9-11.5c0,0,0.6,0.4,0.7,0.3c0,0,0.4-4.2,2.6-2.9c-0.1-2.4,1.3-3.3,1.6-5.2c-1.3,0.3-1.5,1.8-2.9,2
					c1.5,0.8-0.6,0.5-0.3,2c-1-0.4-1.4,0.2-2.6-0.3c0.5-0.4,0.2-1.5,0.7-2c-1.2-1-2.6-1.8-2.9-3.6c1.1-1.2,0.7-3,1.6-4.9
					C58.9,104.2,61.3,102.5,65.2,102.9z"/>
			</g>
			<g>
				<path class="st1" d="M65.3,100.8c0.9,1,1.4,2.3,2.9,2.6c1.4,1.5-0.3,4.3,1.6,5.6c-1.3,0.3,0.5,2-1.3,2c2.6,3.4,3.6,8.9,2.6,13.7
					c0.8,3.3,2,7.4,0.7,10.1c1.5,1.3,0.1,1.7,0.7,3.6c-0.6,0.1-0.6,0.9-1.6,0.7c-0.2,1.4-0.7,2.6-1.3,3.6c-2.4,0.2-5.9,2.2-9.2,0.7
					c0.4-1.9-0.8-2.2-2-2.6c0.4-2.7,2.4-1.8,3.3-3.9c0-1.2-0.9-1.5-1.3-2.3c1-1.3,1.4-4,1.3-5.6c-0.8,0-1.6,0.1-2-0.3
					c1.5-4.5-3.5-7.5-2.9-11.5c0,0,0.6,0.4,0.7,0.3c0,0,0.4-4.2,2.6-2.9c-0.1-2.4,1.3-3.3,1.6-5.2c-1.3,0.3-1.5,1.8-2.9,2
					c1.5,0.8-0.6,0.5-0.3,2c-1-0.4-1.4,0.2-2.6-0.3c0.5-0.4,0.2-1.5,0.7-2c-1.2-1-2.6-1.8-2.9-3.6c1.1-1.2,0.7-3,1.6-4.9
					C59.1,102.1,61.5,100.3,65.3,100.8z"/>
			</g>
			<g>
				<path class="st1" d="M65.5,98.6c0.9,1,1.4,2.3,2.9,2.6c1.4,1.5-0.3,4.3,1.6,5.6c-1.3,0.3,0.5,2-1.3,2c2.6,3.4,3.6,8.9,2.6,13.7
					c0.8,3.3,2,7.4,0.7,10.1c1.5,1.3,0.1,1.7,0.7,3.6c-0.6,0.1-0.6,0.9-1.6,0.7c-0.2,1.4-0.7,2.6-1.3,3.6c-2.4,0.2-5.9,2.2-9.2,0.7
					c0.4-1.9-0.8-2.2-2-2.6c0.4-2.7,2.4-1.8,3.3-3.9c0-1.2-0.9-1.5-1.3-2.3c1-1.4,1.4-4,1.3-5.6c-0.8,0-1.6,0.1-2-0.3
					c1.5-4.5-3.5-7.5-2.9-11.5c0,0,0.6,0.4,0.7,0.3c0,0,0.4-4.2,2.6-2.9c-0.1-2.4,1.3-3.3,1.6-5.2c-1.3,0.3-1.5,1.8-2.9,2
					c1.5,0.8-0.6,0.5-0.3,2c-1-0.4-1.4,0.2-2.6-0.3c0.5-0.4,0.2-1.5,0.7-2c-1.2-1-2.6-1.8-2.9-3.6c1.1-1.2,0.7-3,1.6-4.9
					C59.3,99.9,61.6,98.2,65.5,98.6z"/>
			</g>
			<g>
				<path class="st1" d="M65.7,96.5c0.9,1,1.4,2.3,2.9,2.6c1.4,1.5-0.3,4.3,1.6,5.6c-1.3,0.3,0.5,2-1.3,2c2.6,3.4,3.6,8.9,2.6,13.7
					c0.8,3.3,2,7.4,0.7,10.1c1.5,1.3,0.1,1.7,0.7,3.6c-0.6,0.1-0.6,0.9-1.6,0.7c-0.2,1.4-0.7,2.6-1.3,3.6c-2.4,0.2-5.9,2.2-9.2,0.7
					c0.4-1.9-0.8-2.2-2-2.6c0.4-2.7,2.4-1.8,3.3-3.9c0-1.2-0.9-1.5-1.3-2.3c1-1.4,1.4-4,1.3-5.6c-0.8,0-1.6,0.1-2-0.3
					c1.5-4.5-3.5-7.5-2.9-11.5c0,0,0.6,0.4,0.7,0.3c0,0,0.4-4.2,2.6-2.9c-0.1-2.4,1.3-3.3,1.6-5.2c-1.3,0.3-1.5,1.8-2.9,2
					c1.5,0.8-0.6,0.5-0.3,2c-1-0.4-1.4,0.2-2.6-0.3c0.5-0.4,0.2-1.5,0.7-2c-1.2-1-2.6-1.8-2.9-3.6c1.1-1.2,0.7-3,1.6-4.9
					C59.5,97.8,61.8,96,65.7,96.5z"/>
			</g>
			<g>
				<path class="st1" d="M65.9,94.3c0.9,1,1.4,2.3,2.9,2.6c1.4,1.5-0.3,4.3,1.6,5.6c-1.3,0.3,0.5,2-1.3,2c2.6,3.4,3.6,8.9,2.6,13.7
					c0.8,3.3,2,7.4,0.7,10.1c1.5,1.3,0.1,1.7,0.7,3.6c-0.6,0.1-0.6,0.9-1.6,0.7c-0.2,1.4-0.7,2.6-1.3,3.6c-2.4,0.2-5.9,2.2-9.2,0.7
					c0.4-1.9-0.8-2.2-2-2.6c0.4-2.7,2.4-1.8,3.3-3.9c0-1.2-0.9-1.5-1.3-2.3c1-1.3,1.4-4,1.3-5.6c-0.8,0-1.6,0.1-2-0.3
					c1.5-4.5-3.5-7.5-2.9-11.5c0,0,0.6,0.4,0.7,0.3c0,0,0.4-4.2,2.6-2.9c-0.1-2.4,1.3-3.3,1.6-5.2c-1.3,0.3-1.5,1.8-2.9,2
					c1.5,0.8-0.6,0.5-0.3,2c-1-0.4-1.4,0.2-2.6-0.3c0.5-0.4,0.2-1.5,0.7-2c-1.2-1-2.6-1.8-2.9-3.6c1.1-1.2,0.7-3,1.6-4.9
					C59.7,95.6,62,93.9,65.9,94.3z"/>
			</g>
			<g>
				<path class="st1" d="M66.1,92.2c0.9,1,1.4,2.3,2.9,2.6c1.4,1.5-0.3,4.3,1.6,5.6c-1.3,0.3,0.5,2-1.3,2c2.6,3.4,3.6,8.9,2.6,13.7
					c0.8,3.3,2,7.4,0.7,10.1c1.5,1.3,0.1,1.7,0.7,3.6c-0.6,0.1-0.6,0.9-1.6,0.7c-0.2,1.4-0.7,2.6-1.3,3.6c-2.4,0.2-5.9,2.2-9.2,0.7
					c0.4-1.9-0.8-2.2-2-2.6c0.4-2.7,2.4-1.8,3.3-3.9c0-1.2-0.9-1.5-1.3-2.3c1-1.4,1.4-4,1.3-5.6c-0.8,0-1.6,0.1-2-0.3
					c1.5-4.5-3.5-7.5-2.9-11.5c0,0,0.6,0.4,0.7,0.3c0,0,0.4-4.2,2.6-2.9c-0.1-2.4,1.3-3.3,1.6-5.2c-1.3,0.3-1.5,1.8-2.9,2
					c1.5,0.8-0.6,0.5-0.3,2c-1-0.4-1.4,0.2-2.6-0.3c0.5-0.4,0.2-1.5,0.7-2c-1.2-1-2.6-1.8-2.9-3.6c1.1-1.2,0.7-3,1.6-4.9
					C59.8,93.5,62.2,91.7,66.1,92.2z"/>
			</g>
			<g>
				<path class="st1" d="M66.3,90c0.9,1,1.4,2.3,2.9,2.6c1.4,1.5-0.3,4.3,1.6,5.6c-1.3,0.3,0.5,2-1.3,2c2.6,3.4,3.6,8.9,2.6,13.7
					c0.8,3.3,2,7.4,0.7,10.1c1.5,1.3,0.1,1.7,0.7,3.6c-0.6,0.1-0.6,0.9-1.6,0.7c-0.2,1.4-0.7,2.6-1.3,3.6c-2.4,0.2-5.9,2.2-9.2,0.7
					c0.4-1.9-0.8-2.2-2-2.6c0.4-2.7,2.4-1.8,3.3-3.9c0-1.2-0.9-1.5-1.3-2.3c1-1.3,1.4-4,1.3-5.6c-0.8,0-1.6,0.1-2-0.3
					c1.5-4.5-3.5-7.5-2.9-11.5c0,0,0.6,0.4,0.7,0.3c0,0,0.4-4.2,2.6-2.9c-0.1-2.4,1.3-3.3,1.6-5.2c-1.3,0.3-1.5,1.8-2.9,2
					c1.5,0.8-0.6,0.5-0.3,2c-1-0.4-1.4,0.2-2.6-0.3c0.5-0.4,0.2-1.5,0.7-2c-1.2-1-2.6-1.8-2.9-3.6c1.1-1.2,0.7-3,1.6-4.9
					C60,91.3,62.4,89.6,66.3,90z"/>
			</g>
			<g>
				<path class="st1" d="M66.5,87.9c0.9,1,1.4,2.3,2.9,2.6c1.4,1.5-0.3,4.3,1.6,5.6c-1.3,0.3,0.5,2-1.3,2c2.6,3.4,3.6,8.9,2.6,13.7
					c0.8,3.3,2,7.4,0.7,10.1c1.5,1.3,0.1,1.7,0.7,3.6c-0.6,0.1-0.6,0.9-1.6,0.7c-0.2,1.4-0.7,2.6-1.3,3.6c-2.4,0.2-5.9,2.2-9.2,0.7
					c0.4-1.9-0.8-2.2-2-2.6c0.4-2.7,2.4-1.8,3.3-3.9c0-1.2-0.9-1.5-1.3-2.3c1-1.3,1.4-4,1.3-5.6c-0.8,0-1.6,0.1-2-0.3
					c1.5-4.5-3.5-7.5-2.9-11.5c0,0,0.6,0.4,0.7,0.3c0,0,0.4-4.2,2.6-2.9c-0.1-2.4,1.3-3.3,1.6-5.2c-1.3,0.3-1.5,1.8-2.9,2
					c1.5,0.8-0.6,0.5-0.3,2c-1-0.4-1.4,0.2-2.6-0.3c0.5-0.4,0.2-1.5,0.7-2c-1.2-1-2.6-1.8-2.9-3.6c1.1-1.2,0.7-3,1.6-4.9
					C60.2,89.2,62.6,87.4,66.5,87.9z"/>
			</g>
			<g>
				<path class="st1" d="M66.7,85.7c0.9,1,1.4,2.3,2.9,2.6c1.4,1.5-0.3,4.3,1.6,5.6c-1.3,0.3,0.5,2-1.3,2c2.6,3.4,3.6,8.9,2.6,13.7
					c0.8,3.3,2,7.4,0.7,10.1c1.5,1.3,0.1,1.7,0.7,3.6c-0.6,0.1-0.6,0.9-1.6,0.7c-0.2,1.4-0.7,2.6-1.3,3.6c-2.4,0.2-5.9,2.2-9.2,0.7
					c0.4-1.9-0.8-2.2-2-2.6c0.4-2.7,2.4-1.8,3.3-3.9c0-1.2-0.9-1.5-1.3-2.3c1-1.3,1.4-4,1.3-5.6c-0.8,0-1.6,0.1-2-0.3
					c1.5-4.5-3.5-7.5-2.9-11.5c0,0,0.6,0.4,0.7,0.3c0,0,0.4-4.2,2.6-2.9c-0.1-2.4,1.3-3.3,1.6-5.2c-1.3,0.3-1.5,1.8-2.9,2
					c1.5,0.8-0.6,0.5-0.3,2c-1-0.4-1.4,0.2-2.6-0.3c0.5-0.4,0.2-1.5,0.7-2c-1.2-1-2.6-1.8-2.9-3.6c1.1-1.2,0.7-3,1.6-4.9
					C60.4,87,62.8,85.3,66.7,85.7z"/>
			</g>
			<g>
				<path class="st1" d="M66.8,83.6c0.9,1,1.4,2.3,2.9,2.6c1.4,1.5-0.3,4.3,1.6,5.6c-1.3,0.3,0.5,2-1.3,2c2.6,3.4,3.6,8.9,2.6,13.7
					c0.8,3.3,2,7.4,0.7,10.1c1.5,1.3,0.1,1.7,0.7,3.6c-0.6,0.1-0.6,0.9-1.6,0.7c-0.2,1.4-0.7,2.6-1.3,3.6c-2.4,0.2-5.9,2.2-9.2,0.7
					c0.4-1.9-0.8-2.2-2-2.6c0.4-2.7,2.4-1.8,3.3-3.9c0-1.2-0.9-1.5-1.3-2.3c1-1.3,1.4-4,1.3-5.6c-0.8,0-1.6,0.1-2-0.3
					c1.5-4.5-3.5-7.5-2.9-11.5c0,0,0.6,0.4,0.7,0.3c0,0,0.4-4.2,2.6-2.9c-0.1-2.4,1.3-3.3,1.6-5.2c-1.3,0.3-1.5,1.8-2.9,2
					c1.5,0.8-0.6,0.5-0.3,2c-1-0.4-1.4,0.2-2.6-0.3c0.5-0.4,0.2-1.5,0.7-2c-1.2-1-2.6-1.8-2.9-3.6c1.1-1.2,0.7-3,1.6-4.9
					C60.6,84.9,63,83.1,66.8,83.6z"/>
			</g>
			<g>
				<path class="st1" d="M67,81.4c0.9,1,1.4,2.3,2.9,2.6c1.4,1.5-0.3,4.3,1.6,5.6c-1.3,0.3,0.5,2-1.3,2c2.6,3.4,3.6,8.9,2.6,13.7
					c0.8,3.3,2,7.4,0.7,10.1c1.5,1.3,0.1,1.7,0.7,3.6c-0.6,0.1-0.6,0.9-1.6,0.7c-0.2,1.4-0.7,2.6-1.3,3.6c-2.4,0.2-5.9,2.2-9.2,0.7
					c0.4-1.9-0.8-2.2-2-2.6c0.4-2.7,2.4-1.8,3.3-3.9c0-1.2-0.9-1.5-1.3-2.3c1-1.3,1.4-4,1.3-5.6c-0.8,0-1.6,0.1-2-0.3
					c1.5-4.5-3.5-7.5-2.9-11.5c0,0,0.6,0.4,0.7,0.3c0,0,0.4-4.2,2.6-2.9c-0.1-2.4,1.3-3.3,1.6-5.2c-1.3,0.3-1.5,1.8-2.9,2
					c1.5,0.8-0.6,0.5-0.3,2c-1-0.4-1.4,0.2-2.6-0.3c0.5-0.4,0.2-1.5,0.7-2c-1.2-1-2.6-1.8-2.9-3.6c1.1-1.2,0.7-3,1.6-4.9
					C60.8,82.7,63.2,81,67,81.4z"/>
			</g>
			<g>
				<path class="st1" d="M67.2,79.3c0.9,1,1.4,2.3,2.9,2.6c1.4,1.5-0.3,4.3,1.6,5.6c-1.3,0.3,0.5,2-1.3,2c2.6,3.4,3.6,8.9,2.6,13.7
					c0.8,3.3,2,7.4,0.7,10.1c1.5,1.3,0.1,1.7,0.7,3.6c-0.6,0.1-0.6,0.9-1.6,0.7c-0.2,1.4-0.7,2.6-1.3,3.6c-2.4,0.2-5.9,2.2-9.2,0.7
					c0.4-1.9-0.8-2.2-2-2.6c0.4-2.7,2.4-1.8,3.3-3.9c0-1.2-0.9-1.5-1.3-2.3c1-1.3,1.4-4,1.3-5.6c-0.8,0-1.6,0.1-2-0.3
					c1.5-4.5-3.5-7.5-2.9-11.5c0,0,0.6,0.4,0.7,0.3c0,0,0.4-4.2,2.6-2.9c-0.1-2.4,1.3-3.3,1.6-5.2c-1.3,0.3-1.5,1.8-2.9,2
					c1.5,0.8-0.6,0.5-0.3,2c-1-0.4-1.4,0.2-2.6-0.3c0.5-0.4,0.2-1.5,0.7-2c-1.2-1-2.6-1.8-2.9-3.6c1.1-1.2,0.7-3,1.6-4.9
					C61,80.6,63.4,78.8,67.2,79.3z"/>
			</g>
			<g>
				<path class="st1" d="M67.4,77.1c0.9,1,1.4,2.3,2.9,2.6c1.4,1.5-0.3,4.3,1.6,5.6c-1.3,0.3,0.5,2-1.3,2c2.6,3.4,3.6,8.9,2.6,13.7
					c0.8,3.3,2,7.4,0.7,10.1c1.5,1.3,0.1,1.7,0.7,3.6c-0.6,0.1-0.6,0.9-1.6,0.7c-0.2,1.4-0.7,2.6-1.3,3.6c-2.4,0.2-5.9,2.2-9.2,0.7
					c0.4-1.9-0.8-2.2-2-2.6c0.4-2.7,2.4-1.8,3.3-3.9c0-1.2-0.9-1.5-1.3-2.3c1-1.4,1.4-4,1.3-5.6c-0.8,0-1.6,0.1-2-0.3
					c1.5-4.5-3.5-7.5-2.9-11.5c0,0,0.6,0.4,0.7,0.3c0,0,0.4-4.2,2.6-2.9c-0.1-2.4,1.3-3.3,1.6-5.2c-1.3,0.3-1.5,1.8-2.9,2
					c1.5,0.8-0.6,0.5-0.3,2c-1-0.4-1.4,0.2-2.6-0.3c0.5-0.4,0.2-1.5,0.7-2c-1.2-1-2.6-1.8-2.9-3.6c1.1-1.2,0.7-3,1.6-4.9
					C61.2,78.4,63.5,76.7,67.4,77.1z"/>
			</g>
			<g>
				<path class="st1" d="M67.6,75c0.9,1,1.4,2.3,2.9,2.6c1.4,1.5-0.3,4.3,1.6,5.6c-1.3,0.3,0.5,2-1.3,2c2.6,3.4,3.6,8.9,2.6,13.7
					c0.8,3.3,2,7.4,0.7,10.1c1.5,1.3,0.1,1.7,0.7,3.6c-0.6,0.1-0.6,0.9-1.6,0.7c-0.2,1.4-0.7,2.6-1.3,3.6c-2.4,0.2-5.9,2.2-9.2,0.7
					c0.4-1.9-0.8-2.2-2-2.6c0.4-2.7,2.4-1.8,3.3-3.9c0-1.2-0.9-1.5-1.3-2.3c1-1.3,1.4-4,1.3-5.6c-0.8,0-1.6,0.1-2-0.3
					c1.5-4.5-3.5-7.5-2.9-11.5c0,0,0.6,0.4,0.7,0.3c0,0,0.4-4.2,2.6-2.9c-0.1-2.4,1.3-3.3,1.6-5.2c-1.3,0.3-1.5,1.8-2.9,2
					c1.5,0.8-0.6,0.5-0.3,2c-1-0.4-1.4,0.2-2.6-0.3c0.5-0.4,0.2-1.5,0.7-2c-1.2-1-2.6-1.8-2.9-3.6c1.1-1.2,0.7-3,1.6-4.9
					C61.4,76.3,63.7,74.5,67.6,75z"/>
			</g>
			<g>
				<path class="st1" d="M67.8,72.8c0.9,1,1.4,2.3,2.9,2.6c1.4,1.5-0.3,4.3,1.6,5.6c-1.3,0.3,0.5,2-1.3,2c2.6,3.4,3.6,8.9,2.6,13.7
					c0.8,3.3,2,7.4,0.7,10.1c1.5,1.3,0.1,1.7,0.7,3.6c-0.6,0.1-0.6,0.9-1.6,0.7c-0.2,1.4-0.7,2.6-1.3,3.6c-2.4,0.2-5.9,2.2-9.2,0.7
					c0.4-1.9-0.8-2.2-2-2.6c0.4-2.7,2.4-1.8,3.3-3.9c0-1.2-0.9-1.5-1.3-2.3c1-1.3,1.4-4,1.3-5.6c-0.8,0-1.6,0.1-2-0.3
					c1.5-4.5-3.5-7.5-2.9-11.5c0,0,0.6,0.4,0.7,0.3c0,0,0.4-4.2,2.6-2.9c-0.1-2.4,1.3-3.3,1.6-5.2c-1.3,0.3-1.5,1.8-2.9,2
					c1.5,0.8-0.6,0.5-0.3,2c-1-0.4-1.4,0.2-2.6-0.3c0.5-0.4,0.2-1.5,0.7-2c-1.2-1-2.6-1.8-2.9-3.6c1.1-1.2,0.7-3,1.6-4.9
					C61.6,74.1,63.9,72.4,67.8,72.8z"/>
			</g>
			<g>
				<path class="st1" d="M68,70.7c0.9,1,1.4,2.3,2.9,2.6c1.4,1.5-0.3,4.3,1.6,5.6c-1.3,0.3,0.5,2-1.3,2c2.6,3.4,3.6,8.9,2.6,13.7
					c0.8,3.3,2,7.4,0.7,10.1c1.5,1.3,0.1,1.7,0.7,3.6c-0.6,0.1-0.6,0.9-1.6,0.7c-0.2,1.4-0.7,2.6-1.3,3.6c-2.4,0.2-5.9,2.2-9.2,0.7
					c0.4-1.9-0.8-2.2-2-2.6c0.4-2.7,2.4-1.8,3.3-3.9c0-1.2-0.9-1.5-1.3-2.3c1-1.3,1.4-4,1.3-5.6c-0.8,0-1.6,0.1-2-0.3
					C64,94,58.9,91,59.5,87c0,0,0.6,0.4,0.7,0.3c0,0,0.4-4.2,2.6-2.9c-0.1-2.4,1.3-3.3,1.6-5.2c-1.3,0.3-1.5,1.8-2.9,2
					c1.5,0.8-0.6,0.5-0.3,2c-1-0.4-1.4,0.2-2.6-0.3c0.5-0.4,0.2-1.5,0.7-2c-1.2-1-2.6-1.8-2.9-3.6c1.1-1.2,0.7-3,1.6-4.9
					C61.8,72,64.1,70.2,68,70.7z"/>
			</g>
			<g>
				<path class="st1" d="M68.2,68.5c0.9,1,1.4,2.3,2.9,2.6c1.4,1.5-0.3,4.3,1.6,5.6c-1.3,0.3,0.5,2-1.3,2c2.6,3.4,3.6,8.9,2.6,13.7
					c0.8,3.3,2,7.4,0.7,10.1c1.5,1.3,0.1,1.7,0.7,3.6c-0.6,0.1-0.6,0.9-1.6,0.7c-0.2,1.4-0.7,2.6-1.3,3.6c-2.4,0.2-5.9,2.2-9.2,0.7
					c0.4-1.9-0.8-2.2-2-2.6c0.4-2.7,2.4-1.8,3.3-3.9c0-1.2-0.9-1.5-1.3-2.3c1-1.3,1.4-4,1.3-5.6c-0.8,0-1.6,0.1-2-0.3
					c1.5-4.5-3.5-7.5-2.9-11.5c0,0,0.6,0.4,0.7,0.3c0,0,0.4-4.2,2.6-2.9c-0.1-2.4,1.3-3.3,1.6-5.2c-1.3,0.3-1.5,1.8-2.9,2
					c1.5,0.8-0.6,0.5-0.3,2c-1-0.4-1.4,0.2-2.6-0.3c0.5-0.4,0.2-1.5,0.7-2c-1.2-1-2.6-1.8-2.9-3.6c1.1-1.2,0.7-3,1.6-4.9
					C62,69.8,64.3,68.1,68.2,68.5z"/>
			</g>
			<g>
				<path class="st1" d="M68.4,66.4c0.9,1,1.4,2.3,2.9,2.6c1.4,1.5-0.3,4.3,1.6,5.6c-1.3,0.3,0.5,2-1.3,2c2.6,3.4,3.6,8.9,2.6,13.7
					c0.8,3.3,2,7.4,0.7,10.1c1.5,1.3,0.1,1.7,0.7,3.6c-0.6,0.1-0.6,0.9-1.6,0.7c-0.2,1.4-0.7,2.6-1.3,3.6c-2.4,0.2-5.9,2.2-9.2,0.7
					c0.4-1.9-0.8-2.2-2-2.6c0.4-2.7,2.4-1.8,3.3-3.9c0-1.2-0.9-1.5-1.3-2.3c1-1.3,1.4-4,1.3-5.6c-0.8,0-1.6,0.1-2-0.3
					c1.5-4.5-3.5-7.5-2.9-11.5c0,0,0.6,0.4,0.7,0.3c0,0,0.4-4.2,2.6-2.9c-0.1-2.4,1.3-3.3,1.6-5.2c-1.3,0.3-1.5,1.8-2.9,2
					c1.5,0.8-0.6,0.5-0.3,2c-1-0.4-1.4,0.2-2.6-0.3c0.5-0.4,0.2-1.5,0.7-2c-1.2-1-2.6-1.8-2.9-3.6c1.1-1.2,0.7-3,1.6-4.9
					C62.2,67.6,64.5,65.9,68.4,66.4z"/>
			</g>
			<g>
				<path class="st1" d="M68.6,64.2c0.9,1,1.4,2.3,2.9,2.6c1.4,1.5-0.3,4.3,1.6,5.6c-1.3,0.3,0.5,2-1.3,2c2.6,3.4,3.6,8.9,2.6,13.7
					c0.8,3.3,2,7.4,0.7,10.1c1.5,1.3,0.1,1.7,0.7,3.6c-0.6,0.1-0.6,0.9-1.6,0.7c-0.2,1.4-0.7,2.6-1.3,3.6c-2.4,0.2-5.9,2.2-9.2,0.7
					c0.4-1.9-0.8-2.2-2-2.6c0.4-2.7,2.4-1.8,3.3-3.9c0-1.2-0.9-1.5-1.3-2.3c1-1.4,1.4-4,1.3-5.6c-0.8,0-1.6,0.1-2-0.3
					c1.5-4.5-3.5-7.5-2.9-11.5c0,0,0.6,0.4,0.7,0.3c0,0,0.4-4.2,2.6-2.9c-0.1-2.4,1.3-3.3,1.6-5.2c-1.3,0.3-1.5,1.8-2.9,2
					c1.5,0.8-0.6,0.5-0.3,2c-1-0.4-1.4,0.2-2.6-0.3c0.5-0.4,0.2-1.5,0.7-2c-1.2-1-2.6-1.8-2.9-3.6c1.1-1.2,0.7-3,1.6-4.9
					C62.4,65.5,64.7,63.8,68.6,64.2z"/>
			</g>
			<g>
				<path class="st1" d="M68.7,62c0.9,1,1.4,2.3,2.9,2.6c1.4,1.5-0.3,4.3,1.6,5.6c-1.3,0.3,0.5,2-1.3,2c2.6,3.4,3.6,8.9,2.6,13.7
					c0.8,3.3,2,7.4,0.7,10.1c1.5,1.3,0.1,1.7,0.7,3.6c-0.6,0.1-0.6,0.9-1.6,0.7c-0.2,1.4-0.7,2.6-1.3,3.6c-2.4,0.2-5.9,2.2-9.2,0.7
					c0.4-1.9-0.8-2.2-2-2.6c0.4-2.7,2.4-1.8,3.3-3.9c0-1.2-0.9-1.5-1.3-2.3c1-1.3,1.4-4,1.3-5.6c-0.8,0-1.6,0.1-2-0.3
					c1.5-4.5-3.5-7.5-2.9-11.5c0,0,0.6,0.4,0.7,0.3c0,0,0.4-4.2,2.6-2.9c-0.1-2.4,1.3-3.3,1.6-5.2c-1.3,0.3-1.5,1.8-2.9,2
					c1.5,0.8-0.6,0.5-0.3,2c-1-0.4-1.4,0.2-2.6-0.3c0.5-0.4,0.2-1.5,0.7-2c-1.2-1-2.6-1.8-2.9-3.6c1.1-1.2,0.7-3,1.6-4.9
					C62.5,63.3,64.8,61.6,68.7,62z"/>
			</g>
			<g>
				<path class="st1" d="M68.9,59.9c0.9,1,1.4,2.3,2.9,2.6c1.4,1.5-0.3,4.3,1.6,5.6c-1.3,0.3,0.5,2-1.3,2c2.6,3.4,3.6,8.9,2.6,13.7
					c0.8,3.3,2,7.4,0.7,10.1c1.5,1.3,0.1,1.7,0.7,3.6c-0.6,0.1-0.6,0.9-1.6,0.7c-0.2,1.4-0.7,2.6-1.3,3.6c-2.4,0.2-5.9,2.2-9.2,0.7
					c0.4-1.9-0.8-2.2-2-2.6c0.4-2.7,2.4-1.8,3.3-3.9c0-1.2-0.9-1.5-1.3-2.3c1-1.3,1.4-4,1.3-5.6c-0.8,0-1.6,0.1-2-0.3
					c1.5-4.5-3.5-7.5-2.9-11.5c0,0,0.6,0.4,0.7,0.3c0,0,0.4-4.2,2.6-2.9c-0.1-2.4,1.3-3.3,1.6-5.2c-1.3,0.3-1.5,1.8-2.9,2
					c1.5,0.8-0.6,0.5-0.3,2c-1-0.4-1.4,0.2-2.6-0.3c0.5-0.4,0.2-1.5,0.7-2c-1.2-1-2.6-1.8-2.9-3.6c1.1-1.2,0.7-3,1.6-4.9
					C62.7,61.2,65,59.4,68.9,59.9z"/>
			</g>
			<g>
				<path class="st1" d="M69.1,57.7c0.9,1,1.4,2.3,2.9,2.6c1.4,1.5-0.3,4.3,1.6,5.6c-1.3,0.3,0.5,2-1.3,2c2.6,3.4,3.6,8.9,2.6,13.7
					c0.8,3.3,2,7.4,0.7,10.1c1.5,1.3,0.1,1.7,0.7,3.6c-0.6,0.1-0.6,0.9-1.6,0.7c-0.2,1.4-0.7,2.6-1.3,3.6c-2.4,0.2-5.9,2.2-9.2,0.7
					c0.4-1.9-0.8-2.2-2-2.6c0.4-2.7,2.4-1.8,3.3-3.9c0-1.2-0.9-1.5-1.3-2.3c1-1.4,1.4-4,1.3-5.6c-0.8,0-1.6,0.1-2-0.3
					c1.5-4.5-3.5-7.5-2.9-11.5c0,0,0.6,0.4,0.7,0.3c0,0,0.4-4.2,2.6-2.9c-0.1-2.4,1.3-3.3,1.6-5.2c-1.3,0.3-1.5,1.8-2.9,2
					c1.5,0.8-0.6,0.5-0.3,2c-1-0.4-1.4,0.2-2.6-0.3c0.5-0.4,0.2-1.5,0.7-2c-1.2-1-2.6-1.8-2.9-3.6c1.1-1.2,0.7-3,1.6-4.9
					C62.8,59,65.2,57.3,69.1,57.7z"/>
			</g>
			<g>
				<path class="st1" d="M69.2,55.6c0.9,1,1.4,2.3,2.9,2.6c1.4,1.5-0.3,4.3,1.6,5.6c-1.3,0.3,0.5,2-1.3,2c2.6,3.4,3.6,8.9,2.6,13.7
					c0.8,3.3,2,7.4,0.7,10.1c1.5,1.3,0.1,1.7,0.7,3.6c-0.6,0.1-0.6,0.9-1.6,0.7c-0.2,1.4-0.7,2.6-1.3,3.6c-2.4,0.2-5.9,2.2-9.2,0.7
					c0.4-1.9-0.8-2.2-2-2.6c0.4-2.7,2.4-1.8,3.3-3.9c0-1.2-0.9-1.5-1.3-2.3c1-1.3,1.4-4,1.3-5.6c-0.8,0-1.6,0.1-2-0.3
					c1.5-4.5-3.5-7.5-2.9-11.5c0,0,0.6,0.4,0.7,0.3c0,0,0.4-4.2,2.6-2.9c-0.1-2.4,1.3-3.3,1.6-5.2c-1.3,0.3-1.5,1.8-2.9,2
					c1.5,0.8-0.6,0.5-0.3,2c-1-0.4-1.4,0.2-2.6-0.3c0.5-0.4,0.2-1.5,0.7-2c-1.2-1-2.6-1.8-2.9-3.6c1.1-1.2,0.7-3,1.6-4.9
					C63,56.9,65.3,55.1,69.2,55.6z"/>
			</g>
			<g>
				<path class="st1" d="M69.4,53.4c0.9,1,1.4,2.3,2.9,2.6c1.4,1.5-0.3,4.3,1.6,5.6c-1.3,0.3,0.5,2-1.3,2c2.6,3.4,3.6,8.9,2.6,13.7
					c0.8,3.3,2,7.4,0.7,10.1c1.5,1.3,0.1,1.7,0.7,3.6C76,91.2,76,92,74.9,91.7c-0.2,1.4-0.7,2.6-1.3,3.6c-2.4,0.2-5.9,2.2-9.2,0.7
					c0.4-1.9-0.8-2.2-2-2.6c0.4-2.7,2.4-1.8,3.3-3.9c0-1.2-0.9-1.5-1.3-2.3c1-1.3,1.4-4,1.3-5.6c-0.8,0-1.6,0.1-2-0.3
					c1.5-4.5-3.5-7.5-2.9-11.5c0,0,0.6,0.4,0.7,0.3c0,0,0.4-4.2,2.6-2.9c-0.1-2.4,1.3-3.3,1.6-5.2c-1.3,0.3-1.5,1.8-2.9,2
					c1.5,0.8-0.6,0.5-0.3,2c-1-0.4-1.4,0.2-2.6-0.3c0.5-0.4,0.2-1.5,0.7-2c-1.2-1-2.6-1.8-2.9-3.6c1.1-1.2,0.7-3,1.6-4.9
					C63.2,54.7,65.5,53,69.4,53.4z"/>
			</g>
			<g>
				<path class="st1" d="M69.5,51.3c0.9,1,1.4,2.3,2.9,2.6c1.4,1.5-0.3,4.3,1.6,5.6c-1.3,0.3,0.5,2-1.3,2c2.6,3.4,3.6,8.9,2.6,13.7
					c0.8,3.3,2,7.4,0.7,10.1c1.5,1.3,0.1,1.7,0.7,3.6c-0.6,0.1-0.6,0.9-1.6,0.7c-0.2,1.4-0.7,2.6-1.3,3.6c-2.4,0.2-5.9,2.2-9.2,0.7
					c0.4-1.9-0.8-2.2-2-2.6c0.4-2.7,2.4-1.8,3.3-3.9c0-1.2-0.9-1.5-1.3-2.3c1-1.4,1.4-4,1.3-5.6c-0.8,0-1.6,0.1-2-0.3
					c1.5-4.5-3.5-7.5-2.9-11.5c0,0,0.6,0.4,0.7,0.3c0,0,0.4-4.2,2.6-2.9c-0.1-2.4,1.3-3.3,1.6-5.2c-1.3,0.3-1.5,1.8-2.9,2
					c1.5,0.8-0.6,0.5-0.3,2c-1-0.4-1.4,0.2-2.6-0.3c0.5-0.4,0.2-1.5,0.7-2c-1.2-1-2.6-1.8-2.9-3.6c1.1-1.2,0.7-3,1.6-4.9
					C63.3,52.6,65.7,50.8,69.5,51.3z"/>
			</g>
			<g>
				<path class="st1" d="M69.7,49.1c0.9,1,1.4,2.3,2.9,2.6c1.4,1.5-0.3,4.3,1.6,5.6c-1.3,0.3,0.5,2-1.3,2c2.6,3.4,3.6,8.9,2.6,13.7
					c0.8,3.3,2,7.4,0.7,10.1c1.5,1.3,0.1,1.7,0.7,3.6c-0.6,0.1-0.6,0.9-1.6,0.7C75,88.8,74.6,90,74,91c-2.4,0.2-5.9,2.2-9.2,0.7
					c0.4-1.9-0.8-2.2-2-2.6c0.4-2.7,2.4-1.8,3.3-3.9c0-1.2-0.9-1.5-1.3-2.3c1-1.3,1.4-4,1.3-5.6c-0.8,0-1.6,0.1-2-0.3
					c1.5-4.5-3.5-7.5-2.9-11.5c0,0,0.6,0.4,0.7,0.3c0,0,0.4-4.2,2.6-2.9c-0.1-2.4,1.3-3.3,1.6-5.2c-1.3,0.3-1.5,1.8-2.9,2
					c1.5,0.8-0.6,0.5-0.3,2c-1-0.4-1.4,0.2-2.6-0.3c0.5-0.4,0.2-1.5,0.7-2c-1.2-1-2.6-1.8-2.9-3.6c1.1-1.2,0.7-3,1.6-4.9
					C63.5,50.4,65.8,48.7,69.7,49.1z"/>
			</g>
			<g>
				<path class="st1" d="M69.9,47c0.9,1,1.4,2.3,2.9,2.6c1.4,1.5-0.3,4.3,1.6,5.6c-1.3,0.3,0.5,2-1.3,2c2.6,3.4,3.6,8.9,2.6,13.7
					c0.8,3.3,2,7.4,0.7,10.1c1.5,1.3,0.1,1.7,0.7,3.6c-0.6,0.1-0.6,0.9-1.6,0.7c-0.2,1.4-0.7,2.6-1.3,3.6c-2.4,0.2-5.9,2.2-9.2,0.7
					c0.4-1.9-0.8-2.2-2-2.6c0.4-2.7,2.4-1.8,3.3-3.9c0-1.2-0.9-1.5-1.3-2.3c1-1.3,1.4-4,1.3-5.6c-0.8,0-1.6,0.1-2-0.3
					c1.5-4.5-3.5-7.5-2.9-11.5c0,0,0.6,0.4,0.7,0.3c0,0,0.4-4.2,2.6-2.9c-0.1-2.4,1.3-3.3,1.6-5.2c-1.3,0.3-1.5,1.8-2.9,2
					c1.5,0.8-0.6,0.5-0.3,2c-1-0.4-1.4,0.2-2.6-0.3c0.5-0.4,0.2-1.5,0.7-2c-1.2-1-2.6-1.8-2.9-3.6c1.1-1.2,0.7-3,1.6-4.9
					C63.6,48.3,66,46.5,69.9,47z"/>
			</g>
			<g>
				<path class="st1" d="M70,44.8c0.9,1,1.4,2.3,2.9,2.6c1.4,1.5-0.3,4.3,1.6,5.6c-1.3,0.3,0.5,2-1.3,2c2.6,3.4,3.6,8.9,2.6,13.7
					c0.8,3.3,2,7.4,0.7,10.1c1.5,1.3,0.1,1.7,0.7,3.6c-0.6,0.1-0.6,0.9-1.6,0.7c-0.2,1.4-0.7,2.6-1.3,3.6c-2.4,0.2-5.9,2.2-9.2,0.7
					c0.4-1.9-0.8-2.2-2-2.6c0.4-2.7,2.4-1.8,3.3-3.9c0-1.2-0.9-1.5-1.3-2.3c1-1.4,1.4-4,1.3-5.6c-0.8,0-1.6,0.1-2-0.3
					c1.5-4.5-3.5-7.5-2.9-11.5c0,0,0.6,0.4,0.7,0.3c0,0,0.4-4.2,2.6-2.9c-0.1-2.4,1.3-3.3,1.6-5.2c-1.3,0.3-1.5,1.8-2.9,2
					c1.5,0.8-0.6,0.5-0.3,2c-1-0.4-1.4,0.2-2.6-0.3c0.5-0.4,0.2-1.5,0.7-2c-1.2-1-2.6-1.8-2.9-3.6c1.1-1.2,0.7-3,1.6-4.9
					C63.8,46.1,66.1,44.4,70,44.8z"/>
			</g>
			<g>
				<path class="st1" d="M70.2,42.7c0.9,1,1.4,2.3,2.9,2.6c1.4,1.5-0.3,4.3,1.6,5.6c-1.3,0.3,0.5,2-1.3,2c2.6,3.4,3.6,8.9,2.6,13.7
					c0.8,3.3,2,7.4,0.7,10.1c1.5,1.3,0.1,1.7,0.7,3.6c-0.6,0.1-0.6,0.9-1.6,0.7c-0.2,1.4-0.7,2.6-1.3,3.6c-2.4,0.2-5.9,2.2-9.2,0.7
					c0.4-1.9-0.8-2.2-2-2.6c0.4-2.7,2.4-1.8,3.3-3.9c0-1.2-0.9-1.5-1.3-2.3c1-1.3,1.4-4,1.3-5.6c-0.8,0-1.6,0.1-2-0.3
					C66.2,66,61.1,63,61.7,59c0,0,0.6,0.4,0.7,0.3c0,0,0.4-4.2,2.6-2.9c-0.1-2.4,1.3-3.3,1.6-5.2c-1.3,0.3-1.5,1.8-2.9,2
					c1.5,0.8-0.6,0.5-0.3,2c-1-0.4-1.4,0.2-2.6-0.3c0.5-0.4,0.2-1.5,0.7-2c-1.2-1-2.6-1.8-2.9-3.6c1.1-1.2,0.7-3,1.6-4.9
					C64,43.9,66.3,42.2,70.2,42.7z"/>
			</g>
			<g>
				<path class="st1" d="M70.4,40.5c0.9,1,1.4,2.3,2.9,2.6c1.4,1.5-0.3,4.3,1.6,5.6c-1.3,0.3,0.5,2-1.3,2c2.6,3.4,3.6,8.9,2.6,13.7
					c0.8,3.3,2,7.4,0.7,10.1c1.5,1.3,0.1,1.7,0.7,3.6c-0.6,0.1-0.6,0.9-1.6,0.7c-0.2,1.4-0.7,2.6-1.3,3.6c-2.4,0.2-5.9,2.2-9.2,0.7
					c0.4-1.9-0.8-2.2-2-2.6c0.4-2.7,2.4-1.8,3.3-3.9c0-1.2-0.9-1.5-1.3-2.3c1-1.3,1.4-4,1.3-5.6c-0.8,0-1.6,0.1-2-0.3
					c1.5-4.5-3.5-7.5-2.9-11.5c0,0,0.6,0.4,0.7,0.3c0,0,0.4-4.2,2.6-2.9c-0.1-2.4,1.3-3.3,1.6-5.2c-1.3,0.3-1.5,1.8-2.9,2
					c1.5,0.8-0.6,0.5-0.3,2c-1-0.4-1.4,0.2-2.6-0.3c0.5-0.4,0.2-1.5,0.7-2c-1.2-1-2.6-1.8-2.9-3.6c1.1-1.2,0.7-3,1.6-4.9
					C64.1,41.8,66.5,40.1,70.4,40.5z"/>
			</g>
			<g>
				<path class="st1" d="M70.5,38.3c0.9,1,1.4,2.3,2.9,2.6c1.4,1.5-0.3,4.3,1.6,5.6c-1.3,0.3,0.5,2-1.3,2c2.6,3.4,3.6,8.9,2.6,13.7
					c0.8,3.3,2,7.4,0.7,10.1c1.5,1.3,0.1,1.7,0.7,3.6c-0.6,0.1-0.6,0.9-1.6,0.7c-0.2,1.4-0.7,2.6-1.3,3.6c-2.4,0.2-5.9,2.2-9.2,0.7
					c0.4-1.9-0.8-2.2-2-2.6c0.4-2.7,2.4-1.8,3.3-3.9c0-1.2-0.9-1.5-1.3-2.3c1-1.3,1.4-4,1.3-5.6c-0.8,0-1.6,0.1-2-0.3
					c1.5-4.5-3.5-7.5-2.9-11.5c0,0,0.6,0.4,0.7,0.3c0,0,0.4-4.2,2.6-2.9c-0.1-2.4,1.3-3.3,1.6-5.2c-1.3,0.3-1.5,1.8-2.9,2
					c1.5,0.8-0.6,0.5-0.3,2c-1-0.4-1.4,0.2-2.6-0.3c0.5-0.4,0.2-1.5,0.7-2c-1.2-1-2.6-1.8-2.9-3.6c1.1-1.2,0.7-3,1.6-4.9
					C64.3,39.6,66.6,37.9,70.5,38.3z"/>
			</g>
			<g>
				<path class="st1" d="M70.7,36.2c0.9,1,1.4,2.3,2.9,2.6c1.4,1.5-0.3,4.3,1.6,5.6c-1.3,0.3,0.5,2-1.3,2c2.6,3.4,3.6,8.9,2.6,13.7
					c0.8,3.3,2,7.4,0.7,10.1c1.5,1.3,0.1,1.7,0.7,3.6c-0.6,0.1-0.6,0.9-1.6,0.7c-0.2,1.4-0.7,2.6-1.3,3.6c-2.4,0.2-5.9,2.2-9.2,0.7
					c0.4-1.9-0.8-2.2-2-2.6c0.4-2.7,2.4-1.8,3.3-3.9c0-1.2-0.9-1.5-1.3-2.3c1-1.3,1.4-4,1.3-5.6c-0.8,0-1.6,0.1-2-0.3
					c1.5-4.5-3.5-7.5-2.9-11.5c0,0,0.6,0.4,0.7,0.3c0,0,0.4-4.2,2.6-2.9c-0.1-2.4,1.3-3.3,1.6-5.2c-1.3,0.3-1.5,1.8-2.9,2
					c1.5,0.8-0.6,0.5-0.3,2c-1-0.4-1.4,0.2-2.6-0.3c0.5-0.4,0.2-1.5,0.7-2c-1.2-1-2.6-1.8-2.9-3.6c1.1-1.2,0.7-3,1.6-4.9
					C64.5,37.5,66.8,35.7,70.7,36.2z"/>
			</g>
			<g>
				<path class="st1" d="M70.8,34c0.9,1,1.4,2.3,2.9,2.6c1.4,1.5-0.3,4.3,1.6,5.6c-1.3,0.3,0.5,2-1.3,2c2.6,3.4,3.6,8.9,2.6,13.7
					c0.8,3.3,2,7.4,0.7,10.1c1.5,1.3,0.1,1.7,0.7,3.6c-0.6,0.1-0.6,0.9-1.6,0.7c-0.2,1.4-0.7,2.6-1.3,3.6c-2.4,0.2-5.9,2.2-9.2,0.7
					c0.4-1.9-0.8-2.2-2-2.6c0.4-2.7,2.4-1.8,3.3-3.9c0-1.2-0.9-1.5-1.3-2.3c1-1.3,1.4-4,1.3-5.6c-0.8,0-1.6,0.1-2-0.3
					c1.5-4.5-3.5-7.5-2.9-11.5c0,0,0.6,0.4,0.7,0.3c0,0,0.4-4.2,2.6-2.9c-0.1-2.4,1.3-3.3,1.6-5.2c-1.3,0.3-1.5,1.8-2.9,2
					c1.5,0.8-0.6,0.5-0.3,2c-1-0.4-1.4,0.2-2.6-0.3c0.5-0.4,0.2-1.5,0.7-2c-1.2-1-2.6-1.8-2.9-3.6c1.1-1.2,0.7-3,1.6-4.9
					C64.6,35.3,66.9,33.6,70.8,34z"/>
			</g>
		</g>
	</g>
</g>
<g id="Layer_2">
</g>
</svg>
