<?xml version="1.0" encoding="utf-8"?>
<!-- Generator: Adobe Illustrator 24.0.0, SVG Export Plug-In . SVG Version: 6.00 Build 0)  -->
<svg version="1.1" id="Layer_1" xmlns="http://www.w3.org/2000/svg" xmlns:xlink="http://www.w3.org/1999/xlink" x="0px" y="0px"
	 viewBox="0 0 850.4 822" style="enable-background:new 0 0 850.4 822;" xml:space="preserve">
<style type="text/css">
	.st0{fill:none;stroke:#F8C3A8;stroke-width:5.6693;stroke-miterlimit:10;}
	.st1{fill:none;stroke:#F8C3A8;stroke-width:5.6693;stroke-linejoin:round;stroke-miterlimit:10;}
	.st2{fill:none;stroke:#F8C3A8;stroke-width:5.6693;stroke-linecap:round;stroke-linejoin:round;}
	.st3{fill:none;stroke:#F8C3A8;stroke-width:5.6693;stroke-linejoin:bevel;stroke-miterlimit:10;}
</style>
<g id="Block_Shapes">
	<path class="st0" d="M91.8,222.1c1.4-39,33.4-69.8,73.2-69.8c39.8,0,71.6,30.8,73,69.8c32.5,1.1,65.7,24.9,69.9,64.6l-0.8-168.5
		l-286.5,0.5l0.2,176.1l0,0C21.1,255.8,52.7,223.5,91.8,222.1z"/>
	<polygon class="st0" points="635.7,802.7 528.7,802.7 583.3,703.2 527.4,604.2 635.7,604.8 	"/>
	<g>
		<path class="st1" d="M103.6,803.2H20.7V603.6h57.8l0.3,25.7c0,42.1,45,72.1,84.4,72.1l0,0L103.6,803.2z"/>
	</g>
	<g>
		<path class="st0" d="M163.2,701.4c-42.1,0-84.4-30-84.4-72.1l-0.3-25.7l138.6,0.1L163.2,701.4z"/>
	</g>
	<path class="st0" d="M642.6,97.5c14.3-51.1,67.3-80.9,118.4-66.6c51.1,14.3,81,67.2,66.7,118.3c-14.3,51.1-67.3,80.9-118.4,66.6
		C658.2,201.5,628.3,148.6,642.6,97.5"/>
	<path class="st2" d="M91.8,222.1c-39.1,1.4-71.1,32.9-71.1,71.7l287.1-0.4c0-38.8-30.7-70-69.9-71.3c-1.4-38.5-33.7-69.3-73.2-69.3
		C125.3,152.8,93.2,183.6,91.8,222.1z"/>
	<polygon class="st0" points="307.1,20.9 238.5,21 145.8,118.3 307.1,118.3 	"/>
	<g>
		<polygon class="st1" points="20.5,21 20.5,118.8 146.8,118.3 238,21 		"/>
	</g>
	<polygon class="st0" points="360.5,701.4 417.1,802.7 104.4,803.2 163.2,701.4 	"/>
	<polygon class="st0" points="527.4,604.2 583.3,703.2 528.7,802.7 417.4,802.7 360.5,701.4 416.4,603.6 	"/>
	<path class="st3" d="M495.9,525.6l73.5,78.3l0.9-197.7l-32.3,0.1c3.3,10.5,5.2,25.5,5.2,37.3C543,479.8,515.5,513.4,495.9,525.6z"
		/>
	<path class="st0" d="M308.2,217.6v99.7l58.6,63c17.6-22.4,50.5-36.6,81.2-36.6c41,0,76.1,26.7,89.9,62.8l32.3-0.1l0,0V217.7
		L308.2,217.6z"/>
	<g>
		<path class="st0" d="M729.5,223.1c55.6,0,100.4,59.7,100.4,115.4v156.8h-55.7v-82.3H625.4v191.7l-56-0.7l1.3-279.6
			c0-55.7,52.2-101.3,107.8-101.3H729.5"/>
		<g>
			<path class="st0" d="M648.4,382.8c20.6,0,37.3-16.7,37.3-37.3c0-20.6-16.7-37.3-37.3-37.3c-20.6,0-37.3,16.7-37.3,37.3
				C611.1,366.1,627.8,382.8,648.4,382.8"/>
		</g>
		<g>
			<path class="st0" d="M744.9,332.5c20.6,0,37.3-16.7,37.3-37.3c0-20.6-16.7-37.3-37.3-37.3c-20.6,0-37.3,16.7-37.3,37.3
				C707.6,315.8,724.3,332.5,744.9,332.5"/>
		</g>
	</g>
	<path class="st3" d="M496.7,525.5l-0.5-0.6c-17.2,11.2-38.1,17.2-60.7,15.2c-22.3-1.9-43.7-12.1-59.8-27.7
		c-18.4-18-29.2-42.9-29.8-68.6c-0.6-25.4,7-47.3,20.4-63.7l-0.5-0.6l-57.6-63.2v287.4l125.1-0.2l136,0.5L496.7,525.5z"/>
	<ellipse class="st0" cx="445.5" cy="278.5" rx="37.3" ry="37.3"/>
	<g>
		<polygon class="st3" points="635.7,802.7 830.1,802.7 635.7,604.8 		"/>
	</g>
	<g>
		<polygon class="st1" points="829.9,604.6 635.7,604.8 830.4,802.7 		"/>
	</g>
	<path class="st0" d="M345.9,443.2c0.6,25.8,11.5,50.7,29.8,68.6c16,15.7,37.5,25.8,59.8,27.7c77.9,6.7,134.5-80.2,94.2-149.2
		C480,305.3,343.4,342.1,345.9,443.2z"/>
	<path class="st0" d="M445.5,478.8c20.6,0,37.3-16.7,37.3-37.3c0-20.6-16.7-37.3-37.3-37.3c-20.6,0-37.3,16.7-37.3,37.3
		C408.1,462.1,424.8,478.8,445.5,478.8"/>
	<g>
		<polygon class="st3" points="372.5,217.8 570.3,217.7 372.5,20.8 		"/>
	</g>
	<g>
		<polygon class="st0" points="570.3,20.8 372.5,20.8 570.3,217.7 		"/>
	</g>
	<polygon class="st0" points="372.3,217.8 307.9,217.8 307.1,20.9 372.3,20.8 	"/>
	<polygon class="st0" points="635.7,217.8 570.3,217.7 570.3,20.8 635.7,20.8 	"/>
	<line class="st0" x1="91.5" y1="295" x2="91.5" y2="491.9"/>
	<line class="st0" x1="163.9" y1="295" x2="163.9" y2="491.9"/>
	<line class="st0" x1="237.3" y1="295" x2="237.3" y2="491.9"/>
	<polyline class="st0" points="308.2,294 20.7,293.8 20.7,293.8 20.7,492.9 	"/>
	<polygon class="st0" points="699.6,604.8 624.9,604.7 624.9,413.4 699.6,413.4 	"/>
	<polygon class="st0" points="774,604.8 699.6,604.7 699.6,413.4 774,413.4 	"/>
	<polygon class="st0" points="829.9,604.8 774.5,604.8 774.5,551.9 829.9,552 	"/>
	<polygon class="st0" points="829.9,552 774.5,552.1 774.5,495.8 829.9,495.8 	"/>
	<line class="st0" x1="78.2" y1="491.7" x2="78.2" y2="603.6"/>
	<line class="st0" x1="135.7" y1="491.7" x2="135.7" y2="604"/>
	<line class="st0" x1="193.2" y1="491.7" x2="193.2" y2="604"/>
	<line class="st0" x1="250.7" y1="491.7" x2="250.7" y2="604"/>
	<line class="st0" x1="20.7" y1="491.7" x2="20.7" y2="603.6"/>
	<line class="st0" x1="20.7" y1="547.8" x2="308.2" y2="547.8"/>
	<line class="st0" x1="308.2" y1="491.7" x2="20.7" y2="491.7"/>
	<line class="st0" x1="217.1" y1="603.7" x2="307.9" y2="603.6"/>
</g>
</svg>
