<?xml version="1.0" encoding="utf-8"?>
<!-- Generator: Adobe Illustrator 23.0.6, SVG Export Plug-In . SVG Version: 6.00 Build 0)  -->
<svg version="1.1" xmlns="http://www.w3.org/2000/svg" xmlns:xlink="http://www.w3.org/1999/xlink" x="0px" y="0px"
	 viewBox="0 0 300 350" enable-background="new 0 0 300 350" xml:space="preserve">
<g id="BACKGROUND">
</g>
<g id="Layer_2">
	<g>
		<g>
			<path fill="#FFFFFF" d="M112.68,315.94c0.41,1.52,2.44,1.82,3.28,0.48l23.89-38.63l29.9-48.35c1.04-1.68,0.52-3.88-1.16-4.92
				l-51.75-32c-1.68-1.04-3.88-0.52-4.92,1.16l-21.65,35.01c-0.52,0.84-0.67,1.86-0.41,2.81L112.68,315.94z"/>
			<path fill="#FFFFFF" d="M101.88,128.38c0.27-0.23,0.52-0.48,0.77-0.73c2.05-2.02,4.07-4.07,6.15-6.07
				c3.93-3.78,8.45-6.77,13.22-9.34c6.76-3.65,13.87-6.36,21.42-7.97c8.67-1.86,17.36-2.25,26.12-0.88
				c9.71,1.53,18.52,5.26,26.63,10.73c6.3,4.25,11.76,9.4,16.39,15.41c3.03,3.93,5.54,8.19,7.69,12.65c0.72,1.49,1.57,2.2,3.35,2.15
				c5.82-0.19,11.64-0.18,17.47-0.27c2.76-0.05,2.86-0.17,2.78-2.95c-0.13-4.71-0.28-9.41-0.42-14.12
				c-0.25-8.47-0.47-16.95-0.74-25.42c-0.32-10.12-0.68-20.23-1.04-30.35c-0.16-4.58-0.35-9.17-0.5-13.75
				c-0.19-5.88-0.32-11.76-0.52-17.63c-0.21-6.41-0.45-12.82-0.7-19.22c-0.12-3.05-0.3-6.1-0.47-9.62
				c-0.86,0.01-1.51,0.02-2.15,0.02c-2.69,0.03-5.38,0.01-8.07,0.09c-7.57,0.25-15.15,0.52-22.72,0.82
				c-4.4,0.18-8.79,0.51-13.19,0.66c-6.02,0.21-12.05,0.31-18.07,0.49c-2.99,0.09-5.97,0.28-8.95,0.37
				c-7.26,0.22-14.53,0.39-21.79,0.63c-8.45,0.28-16.9,0.6-25.35,0.9c-4.69,0.17-9.37,0.36-14.06,0.53
				c-4.82,0.17-9.64,0.34-14.46,0.49c-10.17,0.33-20.33,0.64-30.5,1.01c-1.62,0.06-3.22,0.32-4.9,0.5
				c0.12,4.03,0.21,7.85,0.35,11.67c0.33,9.29,0.69,18.59,1.02,27.88c0.33,9.12,0.64,18.23,0.95,27.35
				c0.06,1.65,0.52,3.11,1.71,4.31c2.4,2.42,4.78,4.88,7.17,7.31c4.26,4.32,8.52,8.63,12.78,12.94c2.31,2.34,4.64,4.68,6.94,7.03
				c3.99,4.08,7.92,8.22,11.98,12.23C100.33,130.36,100.16,129.84,101.88,128.38z M139.72,80.67c-8.26-5.17-12.61-12.79-12.87-22.41
				c-0.23-8.78,3.26-16.24,10.24-21.66c10.66-8.28,24.53-6.53,33.13,0.74c9.22,7.79,12.19,20.96,6.64,32.04
				c-1.92,3.82-4.63,6.9-7.96,9.5c-3.2,2.68-6.98,4.28-10.96,5.08C151.53,85.25,145.35,84.19,139.72,80.67z"/>
			<path fill="#FFFFFF" d="M215.01,325.06c2.73,3.15,5.5,6.27,8.3,9.36c1.32,1.46,2.74,2.84,4.42,4.58c0.27-1.39,0.51-2.34,0.63-3.3
				c1.14-9.34,2.27-18.68,3.37-28.02c1.89-16.1,3.77-32.19,5.64-48.29c1.55-13.32,3.07-26.64,4.64-39.95
				c1.09-9.27,2.27-18.54,3.37-27.81c1.08-9.11,2.13-18.22,3.16-27.34c0.2-1.73,0.25-3.48,0.37-5.35c-0.93-0.22-1.65-0.45-2.39-0.54
				c-6.07-0.81-12.13-1.61-18.21-2.38c-6.19-0.78-12.39-1.48-18.57-2.27c-8.81-1.12-17.62-2.34-26.44-3.44
				c-12.09-1.5-24.2-2.9-36.29-4.38c-8.12-0.99-16.23-2.03-24.35-3.02c-7.47-0.92-14.94-1.8-22.42-2.71
				c-3.92-0.48-7.83-1-11.74-1.47c-10.29-1.23-20.58-2.45-30.88-3.65c-1.64-0.19-3.28-0.33-4.93-0.39
				c-1.45-0.05-2.01,0.98-1.26,2.21c0.09,0.15,0.27,0.23,0.38,0.36c1.86,2.27,3.7,4.56,5.59,6.8c2.73,3.24,5.5,6.43,8.25,9.65
				c2.37,2.78,4.69,5.59,7.09,8.34c2.16,2.48,4.42,4.88,6.58,7.36c2.39,2.74,4.71,5.54,7.06,8.31c1.22,1.43,1.82,1.55,3.5,0.71
				c0.21-0.11,0.4-0.25,0.62-0.34c3.15-1.44,6.23-3.09,9.48-4.28c7.06-2.59,14.38-4.03,21.93-4.19c5.5-0.12,10.96,0.3,16.33,1.42
				c3.21,0.67,6.37,1.69,9.48,2.75c6.4,2.16,12.37,5.21,17.82,9.19c6.07,4.45,11.34,9.75,15.71,15.87c1.8,2.53,3.25,5.31,4.73,8.06
				c4.47,8.3,7,17.21,7.79,26.58c0.73,8.65-0.05,17.18-2.59,25.5c-1.53,5.02-3.42,9.89-6.21,14.37c-1.62,2.6-3.23,5.19-4.78,7.83
				c-1.07,1.82-0.95,2.54,0.41,4.1c4.98,5.73,9.97,11.44,14.94,17.18C202.03,310,208.5,317.55,215.01,325.06z"/>
		</g>
	</g>
</g>
</svg>
