<?xml version="1.0" encoding="utf-8"?>
<!-- Generator: Adobe Illustrator 23.0.6, SVG Export Plug-In . SVG Version: 6.00 Build 0)  -->
<svg version="1.1" xmlns="http://www.w3.org/2000/svg" xmlns:xlink="http://www.w3.org/1999/xlink" x="0px" y="0px"
	 viewBox="0 0 300 350" enable-background="new 0 0 300 350" xml:space="preserve">
<g id="BACKGROUND">
</g>
<g id="Layer_2">
	<g>
		<g>
			
				<ellipse transform="matrix(0.9435 -0.3314 0.3314 0.9435 -32.63 36.6748)" fill="#FFFFFF" cx="91.22" cy="114.01" rx="36.33" ry="36.33"/>
			<path fill="#FFFFFF" d="M151.82,128.26c0.8,3.03,4.07,4.61,6.97,3.43c16.71-6.8,35.44-9.19,54.53-5.95
				c24.79,4.21,45.91,17.18,60.72,35.2c2.23,2.71,6.47,2.41,8.32-0.57l9.67-15.53c1.49-2.39,0.78-5.54-1.6-7.06L132.29,36.45
				c-2-1.28-4.52,0.56-3.92,2.85L151.82,128.26z"/>
			<path fill="#FFFFFF" d="M211.51,151.02c-0.4,0.32-0.77,0.66-1.15,1.01c-3.05,2.82-6.07,5.67-9.16,8.45
				c-5.85,5.26-12.51,9.36-19.5,12.84c-9.92,4.93-20.31,8.5-31.26,10.47c-12.59,2.27-25.13,2.42-37.7,0.01
				c-13.92-2.67-26.45-8.47-37.88-16.75c-8.87-6.43-16.5-14.12-22.89-23.01c-4.18-5.81-7.6-12.07-10.48-18.6
				c-0.96-2.18-2.15-3.25-4.72-3.25c-8.4,0-16.8-0.3-25.19-0.44c-3.99-0.07-4.12,0.1-4.14,4.13c-0.03,6.79-0.04,13.58-0.07,20.37
				c-0.05,12.23-0.14,24.45-0.15,36.68c-0.02,14.6,0.01,29.2,0.04,43.8c0.01,6.62,0.07,13.23,0.06,19.85
				c-0.01,8.48-0.1,16.96-0.1,25.45c0,9.25,0.03,18.5,0.09,27.75c0.03,4.4,0.13,8.81,0.22,13.89c1.24,0.03,2.17,0.05,3.1,0.07
				c3.88,0.09,7.76,0.25,11.64,0.25c10.93,0.01,21.87-0.02,32.8-0.1c6.35-0.05,12.7-0.31,19.05-0.33
				c8.69-0.02,17.38,0.13,26.07,0.16c4.31,0.02,8.61-0.12,12.92-0.11c10.48,0.03,20.97,0.13,31.45,0.14
				c12.19,0.01,24.39-0.05,36.58-0.09c6.76-0.02,13.53-0.07,20.29-0.09c6.96-0.02,13.91-0.02,20.87-0.02
				c14.67,0.01,29.34,0.05,44.01,0.01c2.33,0,4.66-0.31,7.08-0.48c0.02-5.82,0.07-11.33,0.06-16.84
				c-0.03-13.41-0.1-26.83-0.13-40.24c-0.03-13.16-0.04-26.32-0.05-39.48c0-2.38-0.59-4.51-2.26-6.3
				c-3.35-3.61-6.65-7.26-9.99-10.88c-5.93-6.43-11.87-12.84-17.8-19.26c-3.22-3.49-6.46-6.97-9.67-10.47
				c-5.56-6.07-11.02-12.23-16.68-18.2C213.84,148.25,214.07,149,211.51,151.02z M154.67,217.99c11.67,7.86,17.57,19.04,17.48,32.92
				c-0.08,12.67-5.48,23.25-15.8,30.74c-15.77,11.43-35.68,8.23-47.73-2.65c-12.92-11.68-16.57-30.8-8.04-46.5
				c2.95-5.41,7.01-9.73,11.92-13.31c4.74-3.7,10.27-5.83,16.04-6.8C137.87,210.82,146.73,212.64,154.67,217.99z"/>
		</g>
	</g>
</g>
</svg>
