<?xml version="1.0" encoding="utf-8"?>
<!-- Generator: Adobe Illustrator 23.0.6, SVG Export Plug-In . SVG Version: 6.00 Build 0)  -->
<svg version="1.1" xmlns="http://www.w3.org/2000/svg" xmlns:xlink="http://www.w3.org/1999/xlink" x="0px" y="0px"
	 viewBox="0 0 300 350" enable-background="new 0 0 300 350" xml:space="preserve">
<g id="BACKGROUND">
</g>
<g id="Layer_2">
	<g>
		<g>
			<path fill="#FFFFFF" d="M288.96,248.22H7.06c-1.57,0-2.83,1.27-2.83,2.83v42.64c0,1.57,1.27,2.83,2.83,2.83h281.9
				c1.57,0,2.83-1.27,2.83-2.83v-42.64C291.79,249.49,290.53,248.22,288.96,248.22z"/>
			<path fill="#FFFFFF" d="M199.96,174.82L199.96,174.82c-2.49,0-4.51-1.94-4.69-4.42c-2.28-32.3-29.37-57.81-62.25-57.81
				c-32.88,0-59.64,25.5-61.89,57.8c-0.17,2.48-2.2,4.42-4.69,4.42h-0.36c-32.69,0-59.33,25.2-61.85,57.24
				c-0.21,2.7,1.99,4.99,4.7,4.99h248.35c2.71,0,4.91-2.29,4.7-4.99C259.45,200.02,232.65,174.82,199.96,174.82z"/>
			<path fill="#FFFFFF" d="M201.77,140.38c-1.15,2.62,0.29,5.61,3.03,6.41c15.81,4.63,30.57,13.56,42.39,26.72
				c15.35,17.1,23.08,38.37,23.44,59.67c0.05,3.21,3.26,5.4,6.28,4.32l15.74-5.62c2.43-0.87,3.71-3.52,2.87-5.96L239.96,63.6
				c-0.7-2.05-3.55-2.17-4.43-0.19L201.77,140.38z"/>
			<path fill="#FFFFFF" d="M165.92,53.47c3.47,1.4,6.78,2.72,10.07,4.07c5.3,2.18,10.61,4.35,15.89,6.58
				c7.74,3.26,15.47,6.56,23.2,9.86c0.67,0.29,1.25,0.76,2.03,1.24c-0.76,2.08-1.42,4.12-2.22,6.09
				c-3.33,8.2-6.67,16.38-10.06,24.55c-1.88,4.53-3.84,9.03-5.78,13.53c-0.64,1.48-0.81,1.54-2.38,1.09
				c-0.5-0.14-0.98-0.34-1.47-0.53c-9.24-3.68-18.48-7.38-27.72-11.05c-3.29-1.31-6.63-2.52-9.9-3.89
				c-3.29-1.38-6.54-2.85-9.77-4.36c-1.57-0.73-1.61-0.89-0.9-2.59c1.92-4.6,3.93-9.16,5.84-13.75c1.83-4.39,3.57-8.82,5.38-13.23
				c2.09-5.1,4.2-10.19,6.34-15.26C164.79,55.08,165.32,54.44,165.92,53.47z"/>
		</g>
	</g>
</g>
</svg>
