<?xml version="1.0" encoding="utf-8"?>
<!-- Generator: Adobe Illustrator 23.0.6, SVG Export Plug-In . SVG Version: 6.00 Build 0)  -->
<svg version="1.1" xmlns="http://www.w3.org/2000/svg" xmlns:xlink="http://www.w3.org/1999/xlink" x="0px" y="0px"
	 viewBox="0 0 300 350" enable-background="new 0 0 300 350" xml:space="preserve">
<g id="BACKGROUND">
</g>
<g id="Layer_2">
	<g>
		<g>
			<path fill="#FFFFFF" d="M276.47,65.84c-2.33-1-4.67-2-7.05-2.87c-5.94-2.17-11.91-4.28-17.87-6.41
				c-3.39-1.21-6.78-2.44-10.18-3.62c-1.51-0.53-1.79-0.37-2.38,1.15c-1.04,2.71-2.08,5.42-3.07,8.14
				c-2.59,7.11-5.18,14.22-7.73,21.35c-2.43,6.78-4.78,13.59-7.21,20.37c-1.99,5.56-4.04,11.09-6.05,16.63
				c-2.4,6.61-4.81,13.22-7.18,19.84c-0.91,2.53-1.68,5.1-2.6,7.62c-0.64,1.77-1.5,3.45-2.14,5.22c-1.88,5.16-3.68,10.35-5.54,15.51
				c-1.79,4.95-3.69,9.86-5.43,14.84c-0.68,1.95-1.84,3.4-3.55,4.48c-1.39,0.87-3.04,0.95-4.46,0.61c-2.4-0.58-4.68-1.64-7.01-2.48
				c-5.5-2-11.01-3.99-16.51-5.98c-5.33-1.93-10.67-3.87-16.01-5.79c-1.39-0.5-2.82-0.86-4.2-1.37c-3.26-1.22-6.49-2.54-9.75-3.75
				c-3.43-1.27-6.9-2.41-10.33-3.69c-4.26-1.59-8.48-3.3-12.73-4.89c-4.53-1.7-9.09-3.32-13.63-4.99c-1.11-0.41-2.25-0.78-3.26-1.37
				c-2.14-1.24-3.5-3.07-3.23-5.66c0.15-1.38,0.54-2.77,1.01-4.08c2.95-8.25,5.92-16.49,8.95-24.71c2.6-7.05,5.28-14.08,7.91-21.11
				c0.33-0.88,0.65-1.78,0.92-2.68c0.42-1.42,0.12-2.09-1.18-2.71c-0.69-0.33-1.42-0.59-2.15-0.85c-6.57-2.36-13.14-4.7-19.7-7.06
				c-4.22-1.52-8.43-3.08-12.66-4.59c-2.2-0.78-2.57-0.58-3.53,1.52c-0.17,0.38-0.35,0.75-0.5,1.14
				c-2.61,7.17-5.23,14.34-7.83,21.52c-2.65,7.35-5.27,14.71-7.92,22.06c-2.63,7.29-5.29,14.57-7.93,21.86
				c-3.23,8.91-6.48,17.8-9.68,26.72c-2.8,7.8-5.54,15.62-8.36,23.6c-0.66,4.2-1.38,8.51-2.02,12.84
				c-1.15,7.75-0.7,15.46,0.47,23.17c0.96,6.35,2.87,12.43,5.22,18.39c3.04,7.71,7.15,14.81,12.33,21.27
				c4.08,5.09,8.54,9.84,13.63,13.93c5.13,4.12,10.61,7.72,16.64,10.45c4.64,2.1,9.3,4.12,14.12,5.79
				c6.38,2.22,12.65,4.74,19.04,6.9c7.14,2.4,14.43,4.17,22.02,4.58c9.43,0.52,18.68-0.4,27.71-3.11c2.94-0.88,5.79-2.06,8.65-3.18
				c5.8-2.28,11.29-5.17,16.24-8.98c4.4-3.39,8.62-6.99,12.3-11.2c3.31-3.77,6.27-7.78,8.89-12.05c2.26-3.69,4.03-7.61,5.59-11.63
				c2.13-5.48,4.24-10.97,6.26-16.49c1.66-4.53,3.11-9.14,4.75-13.68c1.88-5.22,3.88-10.4,5.81-15.61c0.83-2.26,1.57-4.55,2.39-6.81
				c1.4-3.88,2.85-7.74,4.24-11.62c2.49-6.95,4.92-13.92,7.44-20.85c1.7-4.66,3.55-9.26,5.26-13.92c1.73-4.71,3.37-9.45,5.05-14.18
				c0.91-2.56,1.86-5.11,2.76-7.67c1.71-4.85,3.36-9.72,5.12-14.56c2.24-6.16,4.59-12.29,6.85-18.45c1.69-4.6,3.28-9.24,4.98-13.85
				c3.31-8.98,6.67-17.95,10-26.93c0.41-1.11,0.83-2.22,1.2-3.34C278.22,66.95,278.05,66.51,276.47,65.84z M101.53,252.05
				c-4.28,15.6-20.01,22.99-33.75,19.03c-14.95-3.99-23.07-19.56-19.42-33.34c4.06-15.31,19.15-24.25,34.19-20.07
				C97.83,221.92,105.55,237.4,101.53,252.05z M182.09,241c-4.02,13.88-17.54,22.99-32.59,19.53c-15.6-3.58-24.22-18.79-20.86-33.23
				c3.72-15.96,19.11-24.62,33.83-20.74C178.04,210.67,185.64,226.29,182.09,241z"/>
			<path fill="#FFFFFF" d="M68.61,51.57c8.13,9.08,16.29,18.13,24.44,27.18c6.53,7.25,13.08,14.48,19.6,21.74
				c3.32,3.7,6.59,7.44,9.89,11.15c3.43,3.84,6.87,7.66,10.31,11.49c4.03,4.49,8.08,8.97,12.09,13.47
				c4.13,4.64,8.21,9.32,12.33,13.97c4.12,4.65,8.25,9.29,12.39,13.92c6.16,6.87,12.33,13.73,18.51,20.58
				c0.48,0.53,1.09,0.93,1.9,1.61c0.12-1.09,0.24-1.78,0.28-2.48c0.45-8.03,0.89-16.06,1.33-24.09c0.46-8.45,0.91-16.89,1.35-25.34
				c0.31-5.9,0.55-11.81,0.88-17.71c0.49-8.68,1.03-17.35,1.56-26.02c0.53-8.62,1.07-17.23,1.6-25.85
				c0.41-6.61,0.85-13.21,1.19-19.82c0.08-1.56,0.54-3.16-0.05-4.68c-2.99-0.86-141.94-8.22-145.53-7.46
				c0.57,0.76,1.03,1.49,1.6,2.13C59.04,40.78,63.8,46.2,68.61,51.57z"/>
		</g>
	</g>
</g>
</svg>
