<svg id="Layer_1" data-name="Layer 1" xmlns="http://www.w3.org/2000/svg" xmlns:xlink="http://www.w3.org/1999/xlink" viewBox="0 0 426.19 701.95"><defs><style>.cls-1,.cls-3{fill:none;stroke:#f8c3a8;stroke-linejoin:round;}.cls-1{stroke-width:1.42px;}.cls-2{clip-path:url(#clip-path);}.cls-3{stroke-width:1.37px;}</style><clipPath id="clip-path"><path class="cls-1" d="M253.68,243l.09.06a.13.13,0,0,0,0-.06ZM212.62,363.72a4.75,4.75,0,0,0,.22,1.39c0,.15.11.3.17.45a6.23,6.23,0,0,0,1.17,1.75,11.57,11.57,0,0,0,4.69,2.81h0l1,.37.28.09,1,.3.1,0c.36.11.73.2,1.09.3l.29.07,1,.23.17,0,1.12.23.29.05,1,.17.23,0,1.14.16.27,0,1,.11.18,0h.1l1,.09h0l1,.06.32,0,.74,0h2.91l.39,0,.58,0,.36,0,.68,0h.25l.32,0,.57-.05.37,0,.52-.06.39,0,.5-.06.4-.06.43-.06h0c.54-.08,1.69-.29,1.74-.3l1.53-.34.11,0,.07,0,1.2-.31.25-.07,1.21-.36.75-.22.38-.12.26-.1.15-.05.61-.24.11-.05c.16-.07.33-.14.48-.22l.15-.07.1-.05.17-.08.42-.23.24-.14.38-.24.21-.14.37-.27a1.09,1.09,0,0,0,.17-.13c.17-.13.33-.27.49-.41s.28-.27.41-.41l.08-.09a4.47,4.47,0,0,0,.35-.41l.06-.08c.1-.13.19-.26.28-.4l0-.05.25-.44,0-.1a3.3,3.3,0,0,0,.19-.43v0a.43.43,0,0,0,0-.05c0-.14.09-.28.13-.42a.3.3,0,0,0,0-.1,3.54,3.54,0,0,0,.08-.45.28.28,0,0,0,0-.09,1.23,1.23,0,0,0,0-.19,2.44,2.44,0,0,0,0-.27l-.13-120.48-.49-.28c-.05.12-.28.21-.29.35s.37.24.37.27.44.18.4.33a.44.44,0,0,1,0,.1c0,.14-.08.28-.13.42a.43.43,0,0,0,0,.05c-.06.15-.12.3-.19.45a.41.41,0,0,0-.05.09c-.08.15-.16.3-.25.44l0,.06c-.09.13-.18.27-.28.4l-.06.07c-.11.14-.22.28-.35.42a.3.3,0,0,1-.08.08l-.41.42c-.15.14-.32.27-.49.41l-.17.13-.36.26-.22.15-.38.23-.24.14-.42.23-.27.14-.15.07-.48.21-.11,0a6.44,6.44,0,0,1-.61.24l-.15.06-.64.22-.74.21c-.4.13-.81.25-1.21.36l-.26.07c-.4.11-.79.22-1.2.31l-.18.05q-.77.18-1.53.33l-.15,0-1.59.28-.46.07-.4,0-.5.07-.38.05-.54.05-.36,0-.58.05-.31,0-.26,0-.67,0-.35,0-.59,0h-.39l-.54,0h-2.37l-.73,0h-.33l-1-.07h0l-1-.09-.27,0-1-.11-.27,0-1.14-.17-.23,0-1-.16-.28-.06c-.37-.07-.74-.14-1.12-.23l-.17,0-1-.23-.29-.07c-.36-.09-.73-.19-1.08-.3a.45.45,0,0,1-.11,0c-.33-.09-.65-.19-1-.3l-.27-.09-1.06-.36c-4.17-1.46-6.25-3.93-6.25-6.4Z"/></clipPath></defs><title>misfit_rulebook_kickstarter_illustrations-15</title><path class="cls-1" d="M406.87,548.31c.37,23.41-10.46,47.42-33.44,64.25l-73.38,49.57-.05,0,0,.08.24,30.09s60.7-40.87,74.64-51.76q4-3.13,7.84-6.49c12.4-10.92,24.61-28.64,24.57-45.94l-.09-39.28Z"/><path class="cls-1" d="M303.62,607.84c-36.27-20.28-86.21-48.38-109.92-61.93l.06,26.36L282.27,623l19.4-13.9Z"/><polygon class="cls-1" points="53.67 627.41 53.62 654.92 193.75 572.37 193.76 572.27 193.7 545.91 53.67 627.41"/><polygon class="cls-1" points="10.2 600.45 53.67 627.92 53.62 654.92 10.3 627.71 10.2 600.45"/><polygon class="cls-1" points="300.21 692.25 261.31 667.62 261.29 637.84 300.22 662.31 300.21 692.25"/><g class="cls-2"><rect class="cls-1" x="212.6" y="242.91" width="41.79" height="129.69"/></g><path class="cls-1" d="M253.68,243l.09.06a.13.13,0,0,0,0-.06ZM212.62,363.72a4.75,4.75,0,0,0,.22,1.39c0,.15.11.3.17.45a6.23,6.23,0,0,0,1.17,1.75,11.57,11.57,0,0,0,4.69,2.81h0l1,.37.28.09,1,.3.1,0c.36.11.73.2,1.09.3l.29.07,1,.23.17,0,1.12.23.29.05,1,.17.23,0,1.14.16.27,0,1,.11.18,0h.1l1,.09h0l1,.06.32,0,.74,0h2.91l.39,0,.58,0,.36,0,.68,0h.25l.32,0,.57-.05.37,0,.52-.06.39,0,.5-.06.4-.06.43-.06h0c.54-.08,1.69-.29,1.74-.3l1.53-.34.11,0,.07,0,1.2-.31.25-.07,1.21-.36.75-.22.38-.12.26-.1.15-.05.61-.24.11-.05c.16-.07.33-.14.48-.22l.15-.07.1-.05.17-.08.42-.23.24-.14.38-.24.21-.14.37-.27a1.09,1.09,0,0,0,.17-.13c.17-.13.33-.27.49-.41s.28-.27.41-.41l.08-.09a4.47,4.47,0,0,0,.35-.41l.06-.08c.1-.13.19-.26.28-.4l0-.05.25-.44,0-.1a3.3,3.3,0,0,0,.19-.43v0a.43.43,0,0,0,0-.05c0-.14.09-.28.13-.42a.3.3,0,0,0,0-.1,3.54,3.54,0,0,0,.08-.45.28.28,0,0,0,0-.09,1.23,1.23,0,0,0,0-.19,2.44,2.44,0,0,0,0-.27l-.13-120.48-.49-.28c-.05.12-.28.21-.29.35s.37.24.37.27.44.18.4.33a.44.44,0,0,1,0,.1c0,.14-.08.28-.13.42a.43.43,0,0,0,0,.05c-.06.15-.12.3-.19.45a.41.41,0,0,0-.05.09c-.08.15-.16.3-.25.44l0,.06c-.09.13-.18.27-.28.4l-.06.07c-.11.14-.22.28-.35.42a.3.3,0,0,1-.08.08l-.41.42c-.15.14-.32.27-.49.41l-.17.13-.36.26-.22.15-.38.23-.24.14-.42.23-.27.14-.15.07-.48.21-.11,0a6.44,6.44,0,0,1-.61.24l-.15.06-.64.22-.74.21c-.4.13-.81.25-1.21.36l-.26.07c-.4.11-.79.22-1.2.31l-.18.05q-.77.18-1.53.33l-.15,0-1.59.28-.46.07-.4,0-.5.07-.38.05-.54.05-.36,0-.58.05-.31,0-.26,0-.67,0-.35,0-.59,0h-.39l-.54,0h-2.37l-.73,0h-.33l-1-.07h0l-1-.09-.27,0-1-.11-.27,0-1.14-.17-.23,0-1-.16-.28-.06c-.37-.07-.74-.14-1.12-.23l-.17,0-1-.23-.29-.07c-.36-.09-.73-.19-1.08-.3a.45.45,0,0,1-.11,0c-.33-.09-.65-.19-1-.3l-.27-.09-1.06-.36c-4.17-1.46-6.25-3.93-6.25-6.4Z"/><polygon class="cls-1" points="233.55 99.67 264.39 81.93 264.39 44.84 233.55 61.87 233.55 99.67"/><polygon class="cls-1" points="202.6 45.59 233.55 61.87 264.39 44.84 233.5 28.63 202.6 45.59"/><polygon class="cls-1" points="233.55 61.87 202.6 45.59 202.6 82.68 233.55 99.66 233.55 61.87"/><path class="cls-1" d="M407,548.48c-.39-24.77-13.31-48.87-38.06-63.1l-2.74-1.57a151.94,151.94,0,0,0-15-7.56L312.59,495.7a35.94,35.94,0,0,1,5.61,3.84c5.54,4.57,5.8,10.94.74,16.19-2.75,3.32-6.46,5.16-10.33,6.52-16.06,5.62-32.11,5.73-48-.35l-27.73,14v0l-59.42-29.21C96.82,550.72,10.29,600.71,10.22,600.71s42.85,27.68,43.5,27.12c.48-.37,72.19-42.28,116.54-68.06,9.4-5.46,17.6-10.22,23.61-13.69,23.71,13.55,71.39,40.41,107.66,60.69l1.84,1-1.83,1.32L282.29,623l-20.83,15,38.71,24.26.05,0,73.38-49.57C396.58,595.9,407.41,571.89,407,548.48Zm-50,25.76c-2.78,3.3-6.54,5.12-10.46,6.47-16.63,5.69-33.25,5.7-49.72-.74a19.58,19.58,0,0,1-8.64-5.79c-4.76-5.13-4.74-10.34.2-15.18a29.39,29.39,0,0,1,12-6.89,73.46,73.46,0,0,1,44.8,0,33.68,33.68,0,0,1,11.07,6.09C361.91,562.72,362.17,569,357,574.24Z"/><path class="cls-3" d="M233.26,161.69a67.36,67.36,0,0,1,24.8,4.44,35,35,0,0,1,8.68,5c4-3.1,6.36-6.76,6.36-10.71,0-6.28-5.94-11.8-15-15.45a71.6,71.6,0,0,0-49.83.09c-9,3.65-14.82,9.13-14.82,15.36,0,4,2.38,7.61,6.37,10.71a34.86,34.86,0,0,1,8.45-4.9,67.27,67.27,0,0,1,25-4.53"/><path class="cls-1" d="M266.74,172.16c4-3.2,6.36-7,6.36-11.07,0-6.49-5.94-12.21-15-16a69.35,69.35,0,0,0-49.83.1c-9,3.77-14.82,9.44-14.82,15.88,0,4.08,2.38,7.87,6.37,11.07,7.08,5.7,19.39,9.49,33.48,9.49S259.65,177.86,266.74,172.16Z"/><path class="cls-1" d="M332.74,179.39c-9.67,22.57-50.41,39.52-99.23,39.52S144,202,134.29,179.39a25.94,25.94,0,0,1-2.2-10.3v20.44c0,8.6,4.44,16.69,12.24,23.75a69.2,69.2,0,0,0,10.92,7.94,118.51,118.51,0,0,0,29.92,12.12,197.13,197.13,0,0,0,96.69,0,118.43,118.43,0,0,0,29.91-12.12,68.28,68.28,0,0,0,10.92-7.94c7.81-7.06,12.24-15.15,12.24-23.75V169.09a26.1,26.1,0,0,1-2.19,10.3"/><path class="cls-1" d="M200.48,171.72c-3.91-3.08-6.23-6.71-6.23-10.63,0-6.18,5.72-11.62,14.5-15.24a69.17,69.17,0,0,1,48.79-.09c8.91,3.62,14.73,9.1,14.73,15.33,0,3.92-2.33,7.55-6.23,10.63-6.94,5.46-19,9.1-32.78,9.1s-25.85-3.64-32.78-9.1m57.1-53.26a191.52,191.52,0,0,0-48.79,0c-44,5.54-76.73,25.62-76.73,49.61a27.46,27.46,0,0,0,2.19,10.58c9.65,23.18,50.29,40.6,99,40.6s89.36-17.42,99-40.6a27.46,27.46,0,0,0,2.19-10.58c0-24-32.75-44.11-76.87-49.63"/><polygon class="cls-1" points="232.87 535.86 93.05 467.13 92.72 438.67 232.82 504.21 232.87 535.86"/><polygon class="cls-1" points="374.27 464.63 232.87 535.86 232.82 504.5 374.27 434.47 374.27 464.63"/><path class="cls-1" d="M215,238.52c-1.65,1.25-2.6,2.69-2.6,4.23,0,4.83,9.37,8.75,20.93,8.75s20.93-3.92,20.93-8.75c0-1.53-.93-3-2.57-4.21-5.91.53-12,.82-18.21.82S221,239.06,215,238.52Z"/><path class="cls-1" d="M316.77,358.26l-62.38,2.05v3.55a2.44,2.44,0,0,1,0,.27,1.23,1.23,0,0,1,0,.19.28.28,0,0,1,0,.09,3.54,3.54,0,0,1-.08.45.3.3,0,0,1,0,.1c0,.14-.08.28-.13.42a.43.43,0,0,1,0,.05v0a3.3,3.3,0,0,1-.19.43,1,1,0,0,0,0,.1l-.25.44,0,.05c-.09.14-.18.27-.28.4l-.06.08a4.47,4.47,0,0,1-.35.41l-.08.09c-.13.14-.27.28-.41.41s-.32.28-.49.41a1.09,1.09,0,0,1-.17.13l-.37.27-.21.14-.38.24-.24.14-.42.23-.17.08-.1.05-.15.07c-.15.08-.32.15-.48.22l-.11.05-.61.24-.15.05-.26.1-.38.12-.75.22-1.21.36-.25.07-1.2.31-.07,0-.11,0-1.53.34s-1.2.22-1.74.3h0l-.43.06-.4.06-.5.06-.39,0-.52.06-.37,0-.57.05-.32,0h-.25l-.68,0-.36,0-.58,0-.39,0h-2.91l-.74,0-.32,0-1-.06h0l-1-.09h-.1l-.18,0-1-.11-.27,0-1.14-.16-.23,0-1-.17-.29-.05-1.12-.23-.17,0-1-.23-.29-.07c-.36-.1-.73-.19-1.09-.3l-.1,0-1-.3-.28-.09-1-.37h0a11.57,11.57,0,0,1-4.69-2.81,6.23,6.23,0,0,1-1.17-1.75c-.06-.15-.12-.3-.17-.45a4.75,4.75,0,0,1-.22-1.39v-2l-62.84,2.06L92.72,438.67l140.1,66,141.46-70.2Z"/></svg>