<?xml version="1.0" encoding="utf-8"?>
<!-- Generator: Adobe Illustrator 24.0.0, SVG Export Plug-In . SVG Version: 6.00 Build 0)  -->
<svg version="1.1" id="Layer_1" xmlns="http://www.w3.org/2000/svg" xmlns:xlink="http://www.w3.org/1999/xlink" x="0px" y="0px"
	 viewBox="0 0 480.5 100.6" style="enable-background:new 0 0 480.5 100.6;" xml:space="preserve">
<style type="text/css">
	.st0{fill:#F8C3A8;}
</style>
<g id="Layer_2_1_">
	<polygon class="st0" points="340.6,5.9 340.6,19.7 363.5,19.7 363.5,92.1 377.6,92.1 377.6,19.7 400.6,19.7 400.6,5.9 	"/>
	<rect x="313.7" y="5.9" class="st0" width="14" height="86.2"/>
	<polygon class="st0" points="250.5,5.9 250.5,92.1 264.5,92.1 264.5,55.2 291.8,55.2 291.8,41.6 264.5,41.6 264.5,19.7 299.6,19.7 
		299.6,5.9 	"/>
	<rect x="151.3" y="5.9" class="st0" width="14" height="86.2"/>
	<polygon class="st0" points="87.9,50.6 45.8,5.4 45.8,92.6 59.8,92.6 59.8,39.2 87.9,69.7 115.9,39.2 115.9,92.6 130.1,92.6 
		130.1,5.4 	"/>
</g>
<g>
	<defs>
		<rect id="SVGID_1_" x="45.8" y="5.5" width="430.1" height="88.2"/>
	</defs>
	<clipPath id="SVGID_2_">
		<use xlink:href="#SVGID_1_"  style="overflow:visible;"/>
	</clipPath>
</g>
<g>
	<defs>
		<rect id="SVGID_3_" x="45.8" y="5.5" width="430.1" height="88.2"/>
	</defs>
	<clipPath id="SVGID_4_">
		<use xlink:href="#SVGID_3_"  style="overflow:visible;"/>
	</clipPath>
</g>
<g>
	<path class="st0" d="M179.4,78.9l10.6-9c4,5.6,10.8,10.3,18.1,10.3c8.3,0,13.3-3.8,13.3-10c0-6.4-4.1-10-12.6-13.7l-6.8-2.9
		c-12.9-5.7-19.2-14.2-19.2-25.4c0-13.9,12.4-22.8,25.5-22.8c9.8,0,17.6,3.4,24,10.9l-9.8,10.1c-4.3-5.4-8.3-7.7-14.5-7.7
		c-5.8,0-11.1,3.4-11.1,9.4c0,5.6,3.6,9.2,12.3,13l6.7,2.9c11.7,5.2,19.6,13,19.6,25c0,14.6-10.8,24.5-27.2,24.5
		C195.4,93.6,184.8,87.6,179.4,78.9"/>
</g>
<g>
	<path class="st0" d="M405.4,78.9l10.6-9c4,5.6,10.8,10.3,18.1,10.3c8.3,0,13.3-3.8,13.3-10c0-6.4-4.1-10-12.6-13.7l-6.8-2.9
		c-12.9-5.7-19.2-14.2-19.2-25.4c0-13.9,12.4-22.8,25.5-22.8c9.8,0,17.6,3.4,24,10.9l-9.8,10.1c-4.3-5.4-8.3-7.7-14.5-7.7
		c-5.8,0-11.1,3.4-11.1,9.4c0,5.6,3.6,9.2,12.3,13l6.6,2.9c11.7,5.2,19.6,13,19.6,25c0,14.6-10.8,24.5-27.2,24.5
		C421.4,93.6,410.8,87.6,405.4,78.9"/>
	<path class="st0" d="M470.2,14.1c0.7,0,1-0.2,1-0.7s-0.3-0.7-1-0.7h-0.8v1.4H470.2z M471.3,17.5c-0.2-0.2-0.2-0.4-0.3-1.1
		s-0.3-0.8-0.9-0.8h-0.7v1.9h-1.8v-6.2h3.1c1.6,0,2.4,0.8,2.4,2c0,0.8-0.5,1.5-1.3,1.6c0.6,0.1,1.1,0.6,1.1,1.2
		c0.1,0.9,0.1,1.2,0.3,1.4L471.3,17.5z M470.1,9.5c-2.7-0.1-4.9,2-5,4.7c-0.1,2.7,2,4.9,4.7,5c2.7,0.1,4.9-2,5-4.7c0,0,0-0.1,0-0.1
		c0.1-2.6-1.9-4.8-4.5-4.9C470.3,9.5,470.2,9.5,470.1,9.5 M470.1,20.2c-3.2,0-5.9-2.5-6-5.8c0-3.2,2.5-5.9,5.8-6s5.9,2.5,6,5.8
		c0,0,0,0.1,0,0.1c0.1,3.2-2.4,5.8-5.6,5.9C470.2,20.2,470.2,20.2,470.1,20.2"/>
</g>
</svg>
